<?xml version="1.0" encoding="utf-8" standalone="no"?>
<!DOCTYPE svg PUBLIC "-//W3C//DTD SVG 1.1//EN"
  "http://www.w3.org/Graphics/SVG/1.1/DTD/svg11.dtd">
<svg xmlns:xlink="http://www.w3.org/1999/xlink" width="360pt" height="360pt" viewBox="0 0 360 360" xmlns="http://www.w3.org/2000/svg" version="1.1">
 <metadata>
  <rdf:RDF xmlns:dc="http://purl.org/dc/elements/1.1/" xmlns:cc="http://creativecommons.org/ns#" xmlns:rdf="http://www.w3.org/1999/02/22-rdf-syntax-ns#">
   <cc:Work>
    <dc:type rdf:resource="http://purl.org/dc/dcmitype/StillImage"/>
    <dc:date>2024-06-15T21:31:00.545769</dc:date>
    <dc:format>image/svg+xml</dc:format>
    <dc:creator>
     <cc:Agent>
      <dc:title>Matplotlib v3.7.1, https://matplotlib.org/</dc:title>
     </cc:Agent>
    </dc:creator>
   </cc:Work>
  </rdf:RDF>
 </metadata>
 <defs>
  <style type="text/css">*{stroke-linejoin: round; stroke-linecap: butt}</style>
 </defs>
 <g id="figure_1">
  <g id="patch_1">
   <path d="M 0 360 
L 360 360 
L 360 0 
L 0 0 
z
" style="fill: #ffffff"/>
  </g>
  <g id="patch_2">
   <path d="M 45.9 320.4 
L 323.1 320.4 
L 323.1 43.2 
L 45.9 43.2 
z
" style="fill: #ffffff"/>
  </g>
  <g id="pane3d_1">
   <g id="patch_3">
    <path d="M 66.830512 252.051364 
L 158.371005 175.320307 
L 157.098504 64.660407 
L 61.177327 134.659314 
" style="fill: #f2f2f2; opacity: 0.5; stroke: #f2f2f2; stroke-linejoin: miter"/>
   </g>
  </g>
  <g id="pane3d_2">
   <g id="patch_4">
    <path d="M 158.371005 175.320307 
L 305.260834 218.015381 
L 310.502814 103.543928 
L 157.098504 64.660407 
" style="fill: #e6e6e6; opacity: 0.5; stroke: #e6e6e6; stroke-linejoin: miter"/>
   </g>
  </g>
  <g id="pane3d_3">
   <g id="patch_5">
    <path d="M 66.830512 252.051364 
L 222.540905 302.906378 
L 305.260834 218.015381 
L 158.371005 175.320307 
" style="fill: #ececec; opacity: 0.5; stroke: #ececec; stroke-linejoin: miter"/>
   </g>
  </g>
  <g id="axis3d_1">
   <g id="line2d_1">
    <path d="M 66.830512 252.051364 
L 222.540905 302.906378 
" style="fill: none; stroke: #000000; stroke-width: 0.8; stroke-linecap: square"/>
   </g>
   <g id="text_1">
    <!-- PC1 -->
    <g transform="translate(117.628416 314.55228) scale(0.09 -0.09)">
     <defs>
      <path id="DejaVuSans-50" d="M 1259 4147 
L 1259 2394 
L 2053 2394 
Q 2494 2394 2734 2622 
Q 2975 2850 2975 3272 
Q 2975 3691 2734 3919 
Q 2494 4147 2053 4147 
L 1259 4147 
z
M 628 4666 
L 2053 4666 
Q 2838 4666 3239 4311 
Q 3641 3956 3641 3272 
Q 3641 2581 3239 2228 
Q 2838 1875 2053 1875 
L 1259 1875 
L 1259 0 
L 628 0 
L 628 4666 
z
" transform="scale(0.015625)"/>
      <path id="DejaVuSans-43" d="M 4122 4306 
L 4122 3641 
Q 3803 3938 3442 4084 
Q 3081 4231 2675 4231 
Q 1875 4231 1450 3742 
Q 1025 3253 1025 2328 
Q 1025 1406 1450 917 
Q 1875 428 2675 428 
Q 3081 428 3442 575 
Q 3803 722 4122 1019 
L 4122 359 
Q 3791 134 3420 21 
Q 3050 -91 2638 -91 
Q 1578 -91 968 557 
Q 359 1206 359 2328 
Q 359 3453 968 4101 
Q 1578 4750 2638 4750 
Q 3056 4750 3426 4639 
Q 3797 4528 4122 4306 
z
" transform="scale(0.015625)"/>
      <path id="DejaVuSans-31" d="M 794 531 
L 1825 531 
L 1825 4091 
L 703 3866 
L 703 4441 
L 1819 4666 
L 2450 4666 
L 2450 531 
L 3481 531 
L 3481 0 
L 794 0 
L 794 531 
z
" transform="scale(0.015625)"/>
     </defs>
     <use xlink:href="#DejaVuSans-50"/>
     <use xlink:href="#DejaVuSans-43" x="60.302734"/>
     <use xlink:href="#DejaVuSans-31" x="130.126953"/>
    </g>
   </g>
   <g id="Line3DCollection_1">
    <path d="M 79.285857 256.119279 
L 170.168604 178.749404 
L 169.395421 67.777317 
" style="fill: none; stroke: #b0b0b0; stroke-width: 0.8"/>
    <path d="M 100.066467 262.906227 
L 189.833252 184.46514 
L 189.90161 72.975038 
" style="fill: none; stroke: #b0b0b0; stroke-width: 0.8"/>
    <path d="M 121.14832 269.79156 
L 209.75927 190.256847 
L 210.692173 78.24484 
" style="fill: none; stroke: #b0b0b0; stroke-width: 0.8"/>
    <path d="M 142.538013 276.777433 
L 229.951903 196.126048 
L 231.773067 83.588232 
" style="fill: none; stroke: #b0b0b0; stroke-width: 0.8"/>
    <path d="M 164.24234 283.866066 
L 250.416538 202.07431 
L 253.150416 89.006767 
" style="fill: none; stroke: #b0b0b0; stroke-width: 0.8"/>
    <path d="M 186.268293 291.059743 
L 271.15871 208.10324 
L 274.830518 94.502041 
" style="fill: none; stroke: #b0b0b0; stroke-width: 0.8"/>
    <path d="M 208.623076 298.360815 
L 292.184101 214.214492 
L 296.819849 100.075695 
" style="fill: none; stroke: #b0b0b0; stroke-width: 0.8"/>
   </g>
   <g id="xtick_1">
    <g id="line2d_2">
     <path d="M 80.077327 255.44549 
L 77.699519 257.469754 
" style="fill: none; stroke: #000000; stroke-width: 0.8; stroke-linecap: square"/>
    </g>
    <g id="text_2">
     <!-- −10000 -->
     <g transform="translate(47.645497 280.965838) scale(0.12 -0.12)">
      <defs>
       <path id="DejaVuSans-2212" d="M 678 2272 
L 4684 2272 
L 4684 1741 
L 678 1741 
L 678 2272 
z
" transform="scale(0.015625)"/>
       <path id="DejaVuSans-30" d="M 2034 4250 
Q 1547 4250 1301 3770 
Q 1056 3291 1056 2328 
Q 1056 1369 1301 889 
Q 1547 409 2034 409 
Q 2525 409 2770 889 
Q 3016 1369 3016 2328 
Q 3016 3291 2770 3770 
Q 2525 4250 2034 4250 
z
M 2034 4750 
Q 2819 4750 3233 4129 
Q 3647 3509 3647 2328 
Q 3647 1150 3233 529 
Q 2819 -91 2034 -91 
Q 1250 -91 836 529 
Q 422 1150 422 2328 
Q 422 3509 836 4129 
Q 1250 4750 2034 4750 
z
" transform="scale(0.015625)"/>
      </defs>
      <use xlink:href="#DejaVuSans-2212"/>
      <use xlink:href="#DejaVuSans-31" x="83.789062"/>
      <use xlink:href="#DejaVuSans-30" x="147.412109"/>
      <use xlink:href="#DejaVuSans-30" x="211.035156"/>
      <use xlink:href="#DejaVuSans-30" x="274.658203"/>
      <use xlink:href="#DejaVuSans-30" x="338.28125"/>
     </g>
    </g>
   </g>
   <g id="xtick_2">
    <g id="line2d_3">
     <path d="M 100.848675 262.222708 
L 98.498667 264.276221 
" style="fill: none; stroke: #000000; stroke-width: 0.8; stroke-linecap: square"/>
    </g>
    <g id="text_3">
     <!-- 0 -->
     <g transform="translate(88.744334 287.890791) scale(0.12 -0.12)">
      <use xlink:href="#DejaVuSans-30"/>
     </g>
    </g>
   </g>
   <g id="xtick_3">
    <g id="line2d_4">
     <path d="M 121.920914 269.0981 
L 119.599764 271.1815 
" style="fill: none; stroke: #000000; stroke-width: 0.8; stroke-linecap: square"/>
    </g>
    <g id="text_4">
     <!-- 10000 -->
     <g transform="translate(94.577991 294.916494) scale(0.12 -0.12)">
      <use xlink:href="#DejaVuSans-31"/>
      <use xlink:href="#DejaVuSans-30" x="63.623047"/>
      <use xlink:href="#DejaVuSans-30" x="127.246094"/>
      <use xlink:href="#DejaVuSans-30" x="190.869141"/>
      <use xlink:href="#DejaVuSans-30" x="254.492188"/>
     </g>
    </g>
   </g>
   <g id="xtick_4">
    <g id="line2d_5">
     <path d="M 143.300629 276.073815 
L 141.009434 278.187759 
" style="fill: none; stroke: #000000; stroke-width: 0.8; stroke-linecap: square"/>
    </g>
    <g id="text_5">
     <!-- 20000 -->
     <g transform="translate(115.990931 302.045162) scale(0.12 -0.12)">
      <defs>
       <path id="DejaVuSans-32" d="M 1228 531 
L 3431 531 
L 3431 0 
L 469 0 
L 469 531 
Q 828 903 1448 1529 
Q 2069 2156 2228 2338 
Q 2531 2678 2651 2914 
Q 2772 3150 2772 3378 
Q 2772 3750 2511 3984 
Q 2250 4219 1831 4219 
Q 1534 4219 1204 4116 
Q 875 4013 500 3803 
L 500 4441 
Q 881 4594 1212 4672 
Q 1544 4750 1819 4750 
Q 2544 4750 2975 4387 
Q 3406 4025 3406 3419 
Q 3406 3131 3298 2873 
Q 3191 2616 2906 2266 
Q 2828 2175 2409 1742 
Q 1991 1309 1228 531 
z
" transform="scale(0.015625)"/>
      </defs>
      <use xlink:href="#DejaVuSans-32"/>
      <use xlink:href="#DejaVuSans-30" x="63.623047"/>
      <use xlink:href="#DejaVuSans-30" x="127.246094"/>
      <use xlink:href="#DejaVuSans-30" x="190.869141"/>
      <use xlink:href="#DejaVuSans-30" x="254.492188"/>
     </g>
    </g>
   </g>
   <g id="xtick_5">
    <g id="line2d_6">
     <path d="M 164.994599 283.152064 
L 162.734495 285.297229 
" style="fill: none; stroke: #000000; stroke-width: 0.8; stroke-linecap: square"/>
    </g>
    <g id="text_6">
     <!-- 30000 -->
     <g transform="translate(137.720005 309.279076) scale(0.12 -0.12)">
      <defs>
       <path id="DejaVuSans-33" d="M 2597 2516 
Q 3050 2419 3304 2112 
Q 3559 1806 3559 1356 
Q 3559 666 3084 287 
Q 2609 -91 1734 -91 
Q 1441 -91 1130 -33 
Q 819 25 488 141 
L 488 750 
Q 750 597 1062 519 
Q 1375 441 1716 441 
Q 2309 441 2620 675 
Q 2931 909 2931 1356 
Q 2931 1769 2642 2001 
Q 2353 2234 1838 2234 
L 1294 2234 
L 1294 2753 
L 1863 2753 
Q 2328 2753 2575 2939 
Q 2822 3125 2822 3475 
Q 2822 3834 2567 4026 
Q 2313 4219 1838 4219 
Q 1578 4219 1281 4162 
Q 984 4106 628 3988 
L 628 4550 
Q 988 4650 1302 4700 
Q 1616 4750 1894 4750 
Q 2613 4750 3031 4423 
Q 3450 4097 3450 3541 
Q 3450 3153 3228 2886 
Q 3006 2619 2597 2516 
z
" transform="scale(0.015625)"/>
      </defs>
      <use xlink:href="#DejaVuSans-33"/>
      <use xlink:href="#DejaVuSans-30" x="63.623047"/>
      <use xlink:href="#DejaVuSans-30" x="127.246094"/>
      <use xlink:href="#DejaVuSans-30" x="190.869141"/>
      <use xlink:href="#DejaVuSans-30" x="254.492188"/>
     </g>
    </g>
   </g>
   <g id="xtick_6">
    <g id="line2d_7">
     <path d="M 187.009804 290.335124 
L 184.781968 292.512208 
" style="fill: none; stroke: #000000; stroke-width: 0.8; stroke-linecap: square"/>
    </g>
    <g id="text_7">
     <!-- 40000 -->
     <g transform="translate(159.772265 316.620582) scale(0.12 -0.12)">
      <defs>
       <path id="DejaVuSans-34" d="M 2419 4116 
L 825 1625 
L 2419 1625 
L 2419 4116 
z
M 2253 4666 
L 3047 4666 
L 3047 1625 
L 3713 1625 
L 3713 1100 
L 3047 1100 
L 3047 0 
L 2419 0 
L 2419 1100 
L 313 1100 
L 313 1709 
L 2253 4666 
z
" transform="scale(0.015625)"/>
      </defs>
      <use xlink:href="#DejaVuSans-34"/>
      <use xlink:href="#DejaVuSans-30" x="63.623047"/>
      <use xlink:href="#DejaVuSans-30" x="127.246094"/>
      <use xlink:href="#DejaVuSans-30" x="190.869141"/>
      <use xlink:href="#DejaVuSans-30" x="254.492188"/>
     </g>
    </g>
   </g>
   <g id="xtick_7">
    <g id="line2d_8">
     <path d="M 209.353433 297.625342 
L 207.159084 299.835061 
" style="fill: none; stroke: #000000; stroke-width: 0.8; stroke-linecap: square"/>
    </g>
    <g id="text_8">
     <!-- 50000 -->
     <g transform="translate(182.154975 324.072101) scale(0.12 -0.12)">
      <defs>
       <path id="DejaVuSans-35" d="M 691 4666 
L 3169 4666 
L 3169 4134 
L 1269 4134 
L 1269 2991 
Q 1406 3038 1543 3061 
Q 1681 3084 1819 3084 
Q 2600 3084 3056 2656 
Q 3513 2228 3513 1497 
Q 3513 744 3044 326 
Q 2575 -91 1722 -91 
Q 1428 -91 1123 -41 
Q 819 9 494 109 
L 494 744 
Q 775 591 1075 516 
Q 1375 441 1709 441 
Q 2250 441 2565 725 
Q 2881 1009 2881 1497 
Q 2881 1984 2565 2268 
Q 2250 2553 1709 2553 
Q 1456 2553 1204 2497 
Q 953 2441 691 2322 
L 691 4666 
z
" transform="scale(0.015625)"/>
      </defs>
      <use xlink:href="#DejaVuSans-35"/>
      <use xlink:href="#DejaVuSans-30" x="63.623047"/>
      <use xlink:href="#DejaVuSans-30" x="127.246094"/>
      <use xlink:href="#DejaVuSans-30" x="190.869141"/>
      <use xlink:href="#DejaVuSans-30" x="254.492188"/>
     </g>
    </g>
   </g>
  </g>
  <g id="axis3d_2">
   <g id="line2d_9">
    <path d="M 305.260834 218.015381 
L 222.540905 302.906378 
" style="fill: none; stroke: #000000; stroke-width: 0.8; stroke-linecap: square"/>
   </g>
   <g id="text_9">
    <!-- PC2 -->
    <g transform="translate(284.002829 289.053734) scale(0.09 -0.09)">
     <use xlink:href="#DejaVuSans-50"/>
     <use xlink:href="#DejaVuSans-43" x="60.302734"/>
     <use xlink:href="#DejaVuSans-32" x="130.126953"/>
    </g>
   </g>
   <g id="Line3DCollection_2">
    <path d="M 70.15403 128.108524 
L 75.367813 244.895228 
L 230.286517 294.957474 
" style="fill: none; stroke: #b0b0b0; stroke-width: 0.8"/>
    <path d="M 82.96645 118.758603 
L 87.563575 234.672499 
L 241.340253 283.613622 
" style="fill: none; stroke: #b0b0b0; stroke-width: 0.8"/>
    <path d="M 95.48828 109.620743 
L 99.494679 224.67161 
L 252.141522 272.528863 
" style="fill: none; stroke: #b0b0b0; stroke-width: 0.8"/>
    <path d="M 107.729294 100.687808 
L 111.169649 214.88542 
L 262.698877 261.694419 
" style="fill: none; stroke: #b0b0b0; stroke-width: 0.8"/>
    <path d="M 119.698834 91.952983 
L 122.596643 205.307086 
L 273.020488 251.101908 
" style="fill: none; stroke: #b0b0b0; stroke-width: 0.8"/>
    <path d="M 131.405831 83.409749 
L 133.783481 195.930057 
L 283.114163 240.743314 
" style="fill: none; stroke: #b0b0b0; stroke-width: 0.8"/>
    <path d="M 142.858831 75.051872 
L 144.737653 186.748053 
L 292.98737 230.610975 
" style="fill: none; stroke: #b0b0b0; stroke-width: 0.8"/>
    <path d="M 154.066011 66.873382 
L 155.466344 177.755051 
L 302.647255 220.697556 
" style="fill: none; stroke: #b0b0b0; stroke-width: 0.8"/>
   </g>
   <g id="xtick_8">
    <g id="line2d_10">
     <path d="M 228.981152 294.535643 
L 232.900617 295.802225 
" style="fill: none; stroke: #000000; stroke-width: 0.8; stroke-linecap: square"/>
    </g>
    <g id="text_10">
     <!-- −30000 -->
     <g transform="translate(215.006295 318.988746) scale(0.14 -0.14)">
      <use xlink:href="#DejaVuSans-2212"/>
      <use xlink:href="#DejaVuSans-33" x="83.789062"/>
      <use xlink:href="#DejaVuSans-30" x="147.412109"/>
      <use xlink:href="#DejaVuSans-30" x="211.035156"/>
      <use xlink:href="#DejaVuSans-30" x="274.658203"/>
      <use xlink:href="#DejaVuSans-30" x="338.28125"/>
     </g>
    </g>
   </g>
   <g id="xtick_9">
    <g id="line2d_11">
     <path d="M 240.045267 283.201479 
L 243.933528 284.43896 
" style="fill: none; stroke: #000000; stroke-width: 0.8; stroke-linecap: square"/>
    </g>
    <g id="text_11">
     <!-- −20000 -->
     <g transform="translate(225.917722 307.483655) scale(0.14 -0.14)">
      <use xlink:href="#DejaVuSans-2212"/>
      <use xlink:href="#DejaVuSans-32" x="83.789062"/>
      <use xlink:href="#DejaVuSans-30" x="147.412109"/>
      <use xlink:href="#DejaVuSans-30" x="211.035156"/>
      <use xlink:href="#DejaVuSans-30" x="274.658203"/>
      <use xlink:href="#DejaVuSans-30" x="338.28125"/>
     </g>
    </g>
   </g>
   <g id="xtick_10">
    <g id="line2d_12">
     <path d="M 250.856785 272.126077 
L 254.714236 273.33545 
" style="fill: none; stroke: #000000; stroke-width: 0.8; stroke-linecap: square"/>
    </g>
    <g id="text_12">
     <!-- −10000 -->
     <g transform="translate(236.579794 296.241487) scale(0.14 -0.14)">
      <use xlink:href="#DejaVuSans-2212"/>
      <use xlink:href="#DejaVuSans-31" x="83.789062"/>
      <use xlink:href="#DejaVuSans-30" x="147.412109"/>
      <use xlink:href="#DejaVuSans-30" x="211.035156"/>
      <use xlink:href="#DejaVuSans-30" x="274.658203"/>
      <use xlink:href="#DejaVuSans-30" x="338.28125"/>
     </g>
    </g>
   </g>
   <g id="xtick_11">
    <g id="line2d_13">
     <path d="M 261.424259 261.300676 
L 265.251293 262.482888 
" style="fill: none; stroke: #000000; stroke-width: 0.8; stroke-linecap: square"/>
    </g>
    <g id="text_13">
     <!-- 0 -->
     <g transform="translate(270.681742 285.25333) scale(0.14 -0.14)">
      <use xlink:href="#DejaVuSans-30"/>
     </g>
    </g>
   </g>
   <g id="xtick_12">
    <g id="line2d_14">
     <path d="M 271.755859 250.716906 
L 275.552864 251.872861 
" style="fill: none; stroke: #000000; stroke-width: 0.8; stroke-linecap: square"/>
    </g>
    <g id="text_14">
     <!-- 10000 -->
     <g transform="translate(263.055078 274.510672) scale(0.14 -0.14)">
      <use xlink:href="#DejaVuSans-31"/>
      <use xlink:href="#DejaVuSans-30" x="63.623047"/>
      <use xlink:href="#DejaVuSans-30" x="127.246094"/>
      <use xlink:href="#DejaVuSans-30" x="190.869141"/>
      <use xlink:href="#DejaVuSans-30" x="254.492188"/>
     </g>
    </g>
   </g>
   <g id="xtick_13">
    <g id="line2d_15">
     <path d="M 281.859395 240.366766 
L 285.626758 241.497329 
" style="fill: none; stroke: #000000; stroke-width: 0.8; stroke-linecap: square"/>
    </g>
    <g id="text_15">
     <!-- 20000 -->
     <g transform="translate(273.0183 264.005376) scale(0.14 -0.14)">
      <use xlink:href="#DejaVuSans-32"/>
      <use xlink:href="#DejaVuSans-30" x="63.623047"/>
      <use xlink:href="#DejaVuSans-30" x="127.246094"/>
      <use xlink:href="#DejaVuSans-30" x="190.869141"/>
      <use xlink:href="#DejaVuSans-30" x="254.492188"/>
     </g>
    </g>
   </g>
   <g id="xtick_14">
    <g id="line2d_16">
     <path d="M 291.742337 230.242604 
L 295.48044 231.348604 
" style="fill: none; stroke: #000000; stroke-width: 0.8; stroke-linecap: square"/>
    </g>
    <g id="text_16">
     <!-- 30000 -->
     <g transform="translate(282.763787 253.729661) scale(0.14 -0.14)">
      <use xlink:href="#DejaVuSans-33"/>
      <use xlink:href="#DejaVuSans-30" x="63.623047"/>
      <use xlink:href="#DejaVuSans-30" x="127.246094"/>
      <use xlink:href="#DejaVuSans-30" x="190.869141"/>
      <use xlink:href="#DejaVuSans-30" x="254.492188"/>
     </g>
    </g>
   </g>
   <g id="xtick_15">
    <g id="line2d_17">
     <path d="M 301.411831 220.3371 
L 305.121051 221.419328 
" style="fill: none; stroke: #000000; stroke-width: 0.8; stroke-linecap: square"/>
    </g>
    <g id="text_17">
     <!-- 40000 -->
     <g transform="translate(292.2986 243.676083) scale(0.14 -0.14)">
      <use xlink:href="#DejaVuSans-34"/>
      <use xlink:href="#DejaVuSans-30" x="63.623047"/>
      <use xlink:href="#DejaVuSans-30" x="127.246094"/>
      <use xlink:href="#DejaVuSans-30" x="190.869141"/>
      <use xlink:href="#DejaVuSans-30" x="254.492188"/>
     </g>
    </g>
   </g>
  </g>
  <g id="axis3d_3">
   <g id="line2d_18">
    <path d="M 305.260834 218.015381 
L 310.502814 103.543928 
" style="fill: none; stroke: #000000; stroke-width: 0.8; stroke-linecap: square"/>
   </g>
   <g id="text_18">
    <!-- PC3 -->
    <g transform="translate(339.492177 159.106248) scale(0.09 -0.09)">
     <use xlink:href="#DejaVuSans-50"/>
     <use xlink:href="#DejaVuSans-43" x="60.302734"/>
     <use xlink:href="#DejaVuSans-33" x="130.126953"/>
    </g>
   </g>
   <g id="Line3DCollection_3">
    <path d="M 305.931489 203.36999 
L 158.207902 161.136479 
L 66.10831 237.054383 
" style="fill: none; stroke: #b0b0b0; stroke-width: 0.8"/>
    <path d="M 306.791886 184.581127 
L 157.998783 142.950988 
L 65.181328 217.804988 
" style="fill: none; stroke: #b0b0b0; stroke-width: 0.8"/>
    <path d="M 307.664955 165.51551 
L 157.786733 124.510515 
L 64.240166 198.261165 
" style="fill: none; stroke: #b0b0b0; stroke-width: 0.8"/>
    <path d="M 308.550981 146.166979 
L 157.571688 105.809659 
L 63.284499 178.416107 
" style="fill: none; stroke: #b0b0b0; stroke-width: 0.8"/>
    <path d="M 309.450252 126.529191 
L 157.353585 86.842865 
L 62.313987 158.262797 
" style="fill: none; stroke: #b0b0b0; stroke-width: 0.8"/>
    <path d="M 310.363069 106.59561 
L 157.132358 67.604422 
L 61.328282 137.793995 
" style="fill: none; stroke: #b0b0b0; stroke-width: 0.8"/>
   </g>
   <g id="xtick_16">
    <g id="line2d_19">
     <path d="M 304.691349 203.01544 
L 308.414736 204.079939 
" style="fill: none; stroke: #000000; stroke-width: 0.8; stroke-linecap: square"/>
    </g>
    <g id="text_19">
     <!-- −10000 -->
     <g transform="translate(304.188581 208.390629) scale(0.1 -0.1)">
      <use xlink:href="#DejaVuSans-2212"/>
      <use xlink:href="#DejaVuSans-31" x="83.789062"/>
      <use xlink:href="#DejaVuSans-30" x="147.412109"/>
      <use xlink:href="#DejaVuSans-30" x="211.035156"/>
      <use xlink:href="#DejaVuSans-30" x="274.658203"/>
      <use xlink:href="#DejaVuSans-30" x="338.28125"/>
     </g>
    </g>
   </g>
   <g id="xtick_17">
    <g id="line2d_20">
     <path d="M 305.542337 184.231521 
L 309.293993 185.28118 
" style="fill: none; stroke: #000000; stroke-width: 0.8; stroke-linecap: square"/>
    </g>
    <g id="text_20">
     <!-- 0 -->
     <g transform="translate(322.095101 189.637766) scale(0.1 -0.1)">
      <use xlink:href="#DejaVuSans-30"/>
     </g>
    </g>
   </g>
   <g id="xtick_18">
    <g id="line2d_21">
     <path d="M 306.405855 165.171034 
L 310.186212 166.205297 
" style="fill: none; stroke: #000000; stroke-width: 0.8; stroke-linecap: square"/>
    </g>
    <g id="text_21">
     <!-- 10000 -->
     <g transform="translate(310.376341 170.609491) scale(0.1 -0.1)">
      <use xlink:href="#DejaVuSans-31"/>
      <use xlink:href="#DejaVuSans-30" x="63.623047"/>
      <use xlink:href="#DejaVuSans-30" x="127.246094"/>
      <use xlink:href="#DejaVuSans-30" x="190.869141"/>
      <use xlink:href="#DejaVuSans-30" x="254.492188"/>
     </g>
    </g>
   </g>
   <g id="xtick_19">
    <g id="line2d_22">
     <path d="M 307.282182 145.827825 
L 311.091681 146.846118 
" style="fill: none; stroke: #000000; stroke-width: 0.8; stroke-linecap: square"/>
    </g>
    <g id="text_22">
     <!-- 20000 -->
     <g transform="translate(311.397468 151.299693) scale(0.1 -0.1)">
      <use xlink:href="#DejaVuSans-32"/>
      <use xlink:href="#DejaVuSans-30" x="63.623047"/>
      <use xlink:href="#DejaVuSans-30" x="127.246094"/>
      <use xlink:href="#DejaVuSans-30" x="190.869141"/>
      <use xlink:href="#DejaVuSans-30" x="254.492188"/>
     </g>
    </g>
   </g>
   <g id="xtick_20">
    <g id="line2d_23">
     <path d="M 308.171604 126.195556 
L 312.010698 127.197284 
" style="fill: none; stroke: #000000; stroke-width: 0.8; stroke-linecap: square"/>
    </g>
    <g id="text_23">
     <!-- 30000 -->
     <g transform="translate(312.433816 131.702076) scale(0.1 -0.1)">
      <use xlink:href="#DejaVuSans-33"/>
      <use xlink:href="#DejaVuSans-30" x="63.623047"/>
      <use xlink:href="#DejaVuSans-30" x="127.246094"/>
      <use xlink:href="#DejaVuSans-30" x="190.869141"/>
      <use xlink:href="#DejaVuSans-30" x="254.492188"/>
     </g>
    </g>
   </g>
   <g id="xtick_21">
    <g id="line2d_24">
     <path d="M 309.074418 106.267699 
L 312.943569 107.252246 
" style="fill: none; stroke: #000000; stroke-width: 0.8; stroke-linecap: square"/>
    </g>
    <g id="text_24">
     <!-- 40000 -->
     <g transform="translate(313.485727 111.810159) scale(0.1 -0.1)">
      <use xlink:href="#DejaVuSans-34"/>
      <use xlink:href="#DejaVuSans-30" x="63.623047"/>
      <use xlink:href="#DejaVuSans-30" x="127.246094"/>
      <use xlink:href="#DejaVuSans-30" x="190.869141"/>
      <use xlink:href="#DejaVuSans-30" x="254.492188"/>
     </g>
    </g>
   </g>
  </g>
  <g id="axes_1">
   <g id="Path3DCollection_1">
    <path d="M 121.530368 187.007652 
L 119.2943 191.479788 
L 123.766436 191.479788 
z
" clip-path="url(#p38d5985b1a)" style="fill: #7cfc00; fill-opacity: 0.3; stroke: #7cfc00; stroke-opacity: 0.3"/>
    <path d="M 121.350368 187.104239 
L 119.1143 191.576375 
L 123.586436 191.576375 
z
" clip-path="url(#p38d5985b1a)" style="fill: #7cfc00; fill-opacity: 0.563975; stroke: #7cfc00; stroke-opacity: 0.563975"/>
    <path d="M 121.247344 187.251136 
L 119.011276 191.723272 
L 123.483412 191.723272 
z
" clip-path="url(#p38d5985b1a)" style="fill: #7cfc00; stroke: #7cfc00"/>
   </g>
   <g id="text_25">
    <!-- 3D PCA of each patient -->
    <g transform="translate(132.313359 37.2) scale(0.09 -0.09)">
     <defs>
      <path id="DejaVuSans-44" d="M 1259 4147 
L 1259 519 
L 2022 519 
Q 2988 519 3436 956 
Q 3884 1394 3884 2338 
Q 3884 3275 3436 3711 
Q 2988 4147 2022 4147 
L 1259 4147 
z
M 628 4666 
L 1925 4666 
Q 3281 4666 3915 4102 
Q 4550 3538 4550 2338 
Q 4550 1131 3912 565 
Q 3275 0 1925 0 
L 628 0 
L 628 4666 
z
" transform="scale(0.015625)"/>
      <path id="DejaVuSans-20" transform="scale(0.015625)"/>
      <path id="DejaVuSans-41" d="M 2188 4044 
L 1331 1722 
L 3047 1722 
L 2188 4044 
z
M 1831 4666 
L 2547 4666 
L 4325 0 
L 3669 0 
L 3244 1197 
L 1141 1197 
L 716 0 
L 50 0 
L 1831 4666 
z
" transform="scale(0.015625)"/>
      <path id="DejaVuSans-6f" d="M 1959 3097 
Q 1497 3097 1228 2736 
Q 959 2375 959 1747 
Q 959 1119 1226 758 
Q 1494 397 1959 397 
Q 2419 397 2687 759 
Q 2956 1122 2956 1747 
Q 2956 2369 2687 2733 
Q 2419 3097 1959 3097 
z
M 1959 3584 
Q 2709 3584 3137 3096 
Q 3566 2609 3566 1747 
Q 3566 888 3137 398 
Q 2709 -91 1959 -91 
Q 1206 -91 779 398 
Q 353 888 353 1747 
Q 353 2609 779 3096 
Q 1206 3584 1959 3584 
z
" transform="scale(0.015625)"/>
      <path id="DejaVuSans-66" d="M 2375 4863 
L 2375 4384 
L 1825 4384 
Q 1516 4384 1395 4259 
Q 1275 4134 1275 3809 
L 1275 3500 
L 2222 3500 
L 2222 3053 
L 1275 3053 
L 1275 0 
L 697 0 
L 697 3053 
L 147 3053 
L 147 3500 
L 697 3500 
L 697 3744 
Q 697 4328 969 4595 
Q 1241 4863 1831 4863 
L 2375 4863 
z
" transform="scale(0.015625)"/>
      <path id="DejaVuSans-65" d="M 3597 1894 
L 3597 1613 
L 953 1613 
Q 991 1019 1311 708 
Q 1631 397 2203 397 
Q 2534 397 2845 478 
Q 3156 559 3463 722 
L 3463 178 
Q 3153 47 2828 -22 
Q 2503 -91 2169 -91 
Q 1331 -91 842 396 
Q 353 884 353 1716 
Q 353 2575 817 3079 
Q 1281 3584 2069 3584 
Q 2775 3584 3186 3129 
Q 3597 2675 3597 1894 
z
M 3022 2063 
Q 3016 2534 2758 2815 
Q 2500 3097 2075 3097 
Q 1594 3097 1305 2825 
Q 1016 2553 972 2059 
L 3022 2063 
z
" transform="scale(0.015625)"/>
      <path id="DejaVuSans-61" d="M 2194 1759 
Q 1497 1759 1228 1600 
Q 959 1441 959 1056 
Q 959 750 1161 570 
Q 1363 391 1709 391 
Q 2188 391 2477 730 
Q 2766 1069 2766 1631 
L 2766 1759 
L 2194 1759 
z
M 3341 1997 
L 3341 0 
L 2766 0 
L 2766 531 
Q 2569 213 2275 61 
Q 1981 -91 1556 -91 
Q 1019 -91 701 211 
Q 384 513 384 1019 
Q 384 1609 779 1909 
Q 1175 2209 1959 2209 
L 2766 2209 
L 2766 2266 
Q 2766 2663 2505 2880 
Q 2244 3097 1772 3097 
Q 1472 3097 1187 3025 
Q 903 2953 641 2809 
L 641 3341 
Q 956 3463 1253 3523 
Q 1550 3584 1831 3584 
Q 2591 3584 2966 3190 
Q 3341 2797 3341 1997 
z
" transform="scale(0.015625)"/>
      <path id="DejaVuSans-63" d="M 3122 3366 
L 3122 2828 
Q 2878 2963 2633 3030 
Q 2388 3097 2138 3097 
Q 1578 3097 1268 2742 
Q 959 2388 959 1747 
Q 959 1106 1268 751 
Q 1578 397 2138 397 
Q 2388 397 2633 464 
Q 2878 531 3122 666 
L 3122 134 
Q 2881 22 2623 -34 
Q 2366 -91 2075 -91 
Q 1284 -91 818 406 
Q 353 903 353 1747 
Q 353 2603 823 3093 
Q 1294 3584 2113 3584 
Q 2378 3584 2631 3529 
Q 2884 3475 3122 3366 
z
" transform="scale(0.015625)"/>
      <path id="DejaVuSans-68" d="M 3513 2113 
L 3513 0 
L 2938 0 
L 2938 2094 
Q 2938 2591 2744 2837 
Q 2550 3084 2163 3084 
Q 1697 3084 1428 2787 
Q 1159 2491 1159 1978 
L 1159 0 
L 581 0 
L 581 4863 
L 1159 4863 
L 1159 2956 
Q 1366 3272 1645 3428 
Q 1925 3584 2291 3584 
Q 2894 3584 3203 3211 
Q 3513 2838 3513 2113 
z
" transform="scale(0.015625)"/>
      <path id="DejaVuSans-70" d="M 1159 525 
L 1159 -1331 
L 581 -1331 
L 581 3500 
L 1159 3500 
L 1159 2969 
Q 1341 3281 1617 3432 
Q 1894 3584 2278 3584 
Q 2916 3584 3314 3078 
Q 3713 2572 3713 1747 
Q 3713 922 3314 415 
Q 2916 -91 2278 -91 
Q 1894 -91 1617 61 
Q 1341 213 1159 525 
z
M 3116 1747 
Q 3116 2381 2855 2742 
Q 2594 3103 2138 3103 
Q 1681 3103 1420 2742 
Q 1159 2381 1159 1747 
Q 1159 1113 1420 752 
Q 1681 391 2138 391 
Q 2594 391 2855 752 
Q 3116 1113 3116 1747 
z
" transform="scale(0.015625)"/>
      <path id="DejaVuSans-74" d="M 1172 4494 
L 1172 3500 
L 2356 3500 
L 2356 3053 
L 1172 3053 
L 1172 1153 
Q 1172 725 1289 603 
Q 1406 481 1766 481 
L 2356 481 
L 2356 0 
L 1766 0 
Q 1100 0 847 248 
Q 594 497 594 1153 
L 594 3053 
L 172 3053 
L 172 3500 
L 594 3500 
L 594 4494 
L 1172 4494 
z
" transform="scale(0.015625)"/>
      <path id="DejaVuSans-69" d="M 603 3500 
L 1178 3500 
L 1178 0 
L 603 0 
L 603 3500 
z
M 603 4863 
L 1178 4863 
L 1178 4134 
L 603 4134 
L 603 4863 
z
" transform="scale(0.015625)"/>
      <path id="DejaVuSans-6e" d="M 3513 2113 
L 3513 0 
L 2938 0 
L 2938 2094 
Q 2938 2591 2744 2837 
Q 2550 3084 2163 3084 
Q 1697 3084 1428 2787 
Q 1159 2491 1159 1978 
L 1159 0 
L 581 0 
L 581 3500 
L 1159 3500 
L 1159 2956 
Q 1366 3272 1645 3428 
Q 1925 3584 2291 3584 
Q 2894 3584 3203 3211 
Q 3513 2838 3513 2113 
z
" transform="scale(0.015625)"/>
     </defs>
     <use xlink:href="#DejaVuSans-33"/>
     <use xlink:href="#DejaVuSans-44" x="63.623047"/>
     <use xlink:href="#DejaVuSans-20" x="140.625"/>
     <use xlink:href="#DejaVuSans-50" x="172.412109"/>
     <use xlink:href="#DejaVuSans-43" x="232.714844"/>
     <use xlink:href="#DejaVuSans-41" x="302.539062"/>
     <use xlink:href="#DejaVuSans-20" x="370.947266"/>
     <use xlink:href="#DejaVuSans-6f" x="402.734375"/>
     <use xlink:href="#DejaVuSans-66" x="463.916016"/>
     <use xlink:href="#DejaVuSans-20" x="499.121094"/>
     <use xlink:href="#DejaVuSans-65" x="530.908203"/>
     <use xlink:href="#DejaVuSans-61" x="592.431641"/>
     <use xlink:href="#DejaVuSans-63" x="653.710938"/>
     <use xlink:href="#DejaVuSans-68" x="708.691406"/>
     <use xlink:href="#DejaVuSans-20" x="772.070312"/>
     <use xlink:href="#DejaVuSans-70" x="803.857422"/>
     <use xlink:href="#DejaVuSans-61" x="867.333984"/>
     <use xlink:href="#DejaVuSans-74" x="928.613281"/>
     <use xlink:href="#DejaVuSans-69" x="967.822266"/>
     <use xlink:href="#DejaVuSans-65" x="995.605469"/>
     <use xlink:href="#DejaVuSans-6e" x="1057.128906"/>
     <use xlink:href="#DejaVuSans-74" x="1120.507812"/>
    </g>
   </g>
   <g id="Path3DCollection_2">
    <path d="M 122.675898 180.704378 
L 120.439831 185.176514 
L 124.911966 185.176514 
z
" clip-path="url(#p38d5985b1a)" style="fill: #8b4513; fill-opacity: 0.3; stroke: #8b4513; stroke-opacity: 0.3"/>
    <path d="M 123.155688 178.404032 
L 120.91962 182.876168 
L 125.391756 182.876168 
z
" clip-path="url(#p38d5985b1a)" style="fill: #8b4513; fill-opacity: 0.746136; stroke: #8b4513; stroke-opacity: 0.746136"/>
    <path d="M 123.673283 177.176332 
L 121.437215 181.648468 
L 125.909351 181.648468 
z
" clip-path="url(#p38d5985b1a)" style="fill: #8b4513; stroke: #8b4513"/>
   </g>
   <g id="Path3DCollection_3">
    <defs>
     <path id="C0_0_9e0c440f60" d="M 0 2.236068 
C 0.593012 2.236068 1.161816 2.000462 1.581139 1.581139 
C 2.000462 1.161816 2.236068 0.593012 2.236068 -0 
C 2.236068 -0.593012 2.000462 -1.161816 1.581139 -1.581139 
C 1.161816 -2.000462 0.593012 -2.236068 0 -2.236068 
C -0.593012 -2.236068 -1.161816 -2.000462 -1.581139 -1.581139 
C -2.000462 -1.161816 -2.236068 -0.593012 -2.236068 0 
C -2.236068 0.593012 -2.000462 1.161816 -1.581139 1.581139 
C -1.161816 2.000462 -0.593012 2.236068 0 2.236068 
z
"/>
    </defs>
    <g clip-path="url(#p38d5985b1a)">
     <use xlink:href="#C0_0_9e0c440f60" x="121.618114" y="189.87944" style="fill: #9467bd; fill-opacity: 0.3; stroke: #9467bd; stroke-opacity: 0.3"/>
    </g>
    <g clip-path="url(#p38d5985b1a)">
     <use xlink:href="#C0_0_9e0c440f60" x="122.353685" y="188.672256" style="fill: #9467bd; fill-opacity: 0.409585; stroke: #9467bd; stroke-opacity: 0.409585"/>
    </g>
    <g clip-path="url(#p38d5985b1a)">
     <use xlink:href="#C0_0_9e0c440f60" x="122.738103" y="190.710956" style="fill: #9467bd; stroke: #9467bd"/>
    </g>
   </g>
   <g id="legend_1">
    <g id="patch_6">
     <path d="M 245.209219 279.230625 
L 316.8 279.230625 
Q 318.6 279.230625 318.6 277.430625 
L 318.6 49.5 
Q 318.6 47.7 316.8 47.7 
L 245.209219 47.7 
Q 243.409219 47.7 243.409219 49.5 
L 243.409219 277.430625 
Q 243.409219 279.230625 245.209219 279.230625 
z
" style="fill: #ffffff; opacity: 0.8; stroke: #cccccc; stroke-linejoin: miter"/>
    </g>
    <g id="Path3DCollection_4">
     <defs>
      <path id="m45c9db0e48" d="M 0 2.236068 
C 0.593012 2.236068 1.161816 2.000462 1.581139 1.581139 
C 2.000462 1.161816 2.236068 0.593012 2.236068 0 
C 2.236068 -0.593012 2.000462 -1.161816 1.581139 -1.581139 
C 1.161816 -2.000462 0.593012 -2.236068 0 -2.236068 
C -0.593012 -2.236068 -1.161816 -2.000462 -1.581139 -1.581139 
C -2.000462 -1.161816 -2.236068 -0.593012 -2.236068 0 
C -2.236068 0.593012 -2.000462 1.161816 -1.581139 1.581139 
C -1.161816 2.000462 -0.593012 2.236068 0 2.236068 
z
" style="stroke: #1f77b4"/>
     </defs>
     <g>
      <use xlink:href="#m45c9db0e48" x="256.009219" y="55.776094" style="fill: #1f77b4; stroke: #1f77b4"/>
     </g>
    </g>
    <g id="text_26">
     <!-- Normal_1 -->
     <g transform="translate(272.209219 58.138594) scale(0.09 -0.09)">
      <defs>
       <path id="DejaVuSans-4e" d="M 628 4666 
L 1478 4666 
L 3547 763 
L 3547 4666 
L 4159 4666 
L 4159 0 
L 3309 0 
L 1241 3903 
L 1241 0 
L 628 0 
L 628 4666 
z
" transform="scale(0.015625)"/>
       <path id="DejaVuSans-72" d="M 2631 2963 
Q 2534 3019 2420 3045 
Q 2306 3072 2169 3072 
Q 1681 3072 1420 2755 
Q 1159 2438 1159 1844 
L 1159 0 
L 581 0 
L 581 3500 
L 1159 3500 
L 1159 2956 
Q 1341 3275 1631 3429 
Q 1922 3584 2338 3584 
Q 2397 3584 2469 3576 
Q 2541 3569 2628 3553 
L 2631 2963 
z
" transform="scale(0.015625)"/>
       <path id="DejaVuSans-6d" d="M 3328 2828 
Q 3544 3216 3844 3400 
Q 4144 3584 4550 3584 
Q 5097 3584 5394 3201 
Q 5691 2819 5691 2113 
L 5691 0 
L 5113 0 
L 5113 2094 
Q 5113 2597 4934 2840 
Q 4756 3084 4391 3084 
Q 3944 3084 3684 2787 
Q 3425 2491 3425 1978 
L 3425 0 
L 2847 0 
L 2847 2094 
Q 2847 2600 2669 2842 
Q 2491 3084 2119 3084 
Q 1678 3084 1418 2786 
Q 1159 2488 1159 1978 
L 1159 0 
L 581 0 
L 581 3500 
L 1159 3500 
L 1159 2956 
Q 1356 3278 1631 3431 
Q 1906 3584 2284 3584 
Q 2666 3584 2933 3390 
Q 3200 3197 3328 2828 
z
" transform="scale(0.015625)"/>
       <path id="DejaVuSans-6c" d="M 603 4863 
L 1178 4863 
L 1178 0 
L 603 0 
L 603 4863 
z
" transform="scale(0.015625)"/>
       <path id="DejaVuSans-5f" d="M 3263 -1063 
L 3263 -1509 
L -63 -1509 
L -63 -1063 
L 3263 -1063 
z
" transform="scale(0.015625)"/>
      </defs>
      <use xlink:href="#DejaVuSans-4e"/>
      <use xlink:href="#DejaVuSans-6f" x="74.804688"/>
      <use xlink:href="#DejaVuSans-72" x="135.986328"/>
      <use xlink:href="#DejaVuSans-6d" x="175.349609"/>
      <use xlink:href="#DejaVuSans-61" x="272.761719"/>
      <use xlink:href="#DejaVuSans-6c" x="334.041016"/>
      <use xlink:href="#DejaVuSans-5f" x="361.824219"/>
      <use xlink:href="#DejaVuSans-31" x="411.824219"/>
     </g>
    </g>
    <g id="Path3DCollection_5">
     <defs>
      <path id="m489c30a8eb" d="M 0 2.236068 
C 0.593012 2.236068 1.161816 2.000462 1.581139 1.581139 
C 2.000462 1.161816 2.236068 0.593012 2.236068 0 
C 2.236068 -0.593012 2.000462 -1.161816 1.581139 -1.581139 
C 1.161816 -2.000462 0.593012 -2.236068 0 -2.236068 
C -0.593012 -2.236068 -1.161816 -2.000462 -1.581139 -1.581139 
C -2.000462 -1.161816 -2.236068 -0.593012 -2.236068 0 
C -2.236068 0.593012 -2.000462 1.161816 -1.581139 1.581139 
C -1.161816 2.000462 -0.593012 2.236068 0 2.236068 
z
" style="stroke: #ff7f0e"/>
     </defs>
     <g>
      <use xlink:href="#m489c30a8eb" x="256.009219" y="69.236719" style="fill: #ff7f0e; stroke: #ff7f0e"/>
     </g>
    </g>
    <g id="text_27">
     <!-- Normal_2 -->
     <g transform="translate(272.209219 71.599219) scale(0.09 -0.09)">
      <use xlink:href="#DejaVuSans-4e"/>
      <use xlink:href="#DejaVuSans-6f" x="74.804688"/>
      <use xlink:href="#DejaVuSans-72" x="135.986328"/>
      <use xlink:href="#DejaVuSans-6d" x="175.349609"/>
      <use xlink:href="#DejaVuSans-61" x="272.761719"/>
      <use xlink:href="#DejaVuSans-6c" x="334.041016"/>
      <use xlink:href="#DejaVuSans-5f" x="361.824219"/>
      <use xlink:href="#DejaVuSans-32" x="411.824219"/>
     </g>
    </g>
    <g id="Path3DCollection_6">
     <defs>
      <path id="m0e8b1d2bed" d="M 0 2.236068 
C 0.593012 2.236068 1.161816 2.000462 1.581139 1.581139 
C 2.000462 1.161816 2.236068 0.593012 2.236068 0 
C 2.236068 -0.593012 2.000462 -1.161816 1.581139 -1.581139 
C 1.161816 -2.000462 0.593012 -2.236068 0 -2.236068 
C -0.593012 -2.236068 -1.161816 -2.000462 -1.581139 -1.581139 
C -2.000462 -1.161816 -2.236068 -0.593012 -2.236068 0 
C -2.236068 0.593012 -2.000462 1.161816 -1.581139 1.581139 
C -1.161816 2.000462 -0.593012 2.236068 0 2.236068 
z
" style="stroke: #2ca02c"/>
     </defs>
     <g>
      <use xlink:href="#m0e8b1d2bed" x="256.009219" y="82.697344" style="fill: #2ca02c; stroke: #2ca02c"/>
     </g>
    </g>
    <g id="text_28">
     <!-- Normal_3 -->
     <g transform="translate(272.209219 85.059844) scale(0.09 -0.09)">
      <use xlink:href="#DejaVuSans-4e"/>
      <use xlink:href="#DejaVuSans-6f" x="74.804688"/>
      <use xlink:href="#DejaVuSans-72" x="135.986328"/>
      <use xlink:href="#DejaVuSans-6d" x="175.349609"/>
      <use xlink:href="#DejaVuSans-61" x="272.761719"/>
      <use xlink:href="#DejaVuSans-6c" x="334.041016"/>
      <use xlink:href="#DejaVuSans-5f" x="361.824219"/>
      <use xlink:href="#DejaVuSans-33" x="411.824219"/>
     </g>
    </g>
    <g id="Path3DCollection_7">
     <defs>
      <path id="m6140c5fcfe" d="M 0 2.236068 
C 0.593012 2.236068 1.161816 2.000462 1.581139 1.581139 
C 2.000462 1.161816 2.236068 0.593012 2.236068 0 
C 2.236068 -0.593012 2.000462 -1.161816 1.581139 -1.581139 
C 1.161816 -2.000462 0.593012 -2.236068 0 -2.236068 
C -0.593012 -2.236068 -1.161816 -2.000462 -1.581139 -1.581139 
C -2.000462 -1.161816 -2.236068 -0.593012 -2.236068 0 
C -2.236068 0.593012 -2.000462 1.161816 -1.581139 1.581139 
C -1.161816 2.000462 -0.593012 2.236068 0 2.236068 
z
" style="stroke: #d62728"/>
     </defs>
     <g>
      <use xlink:href="#m6140c5fcfe" x="256.009219" y="96.157969" style="fill: #d62728; stroke: #d62728"/>
     </g>
    </g>
    <g id="text_29">
     <!-- Normal_4 -->
     <g transform="translate(272.209219 98.520469) scale(0.09 -0.09)">
      <use xlink:href="#DejaVuSans-4e"/>
      <use xlink:href="#DejaVuSans-6f" x="74.804688"/>
      <use xlink:href="#DejaVuSans-72" x="135.986328"/>
      <use xlink:href="#DejaVuSans-6d" x="175.349609"/>
      <use xlink:href="#DejaVuSans-61" x="272.761719"/>
      <use xlink:href="#DejaVuSans-6c" x="334.041016"/>
      <use xlink:href="#DejaVuSans-5f" x="361.824219"/>
      <use xlink:href="#DejaVuSans-34" x="411.824219"/>
     </g>
    </g>
    <g id="Path3DCollection_8">
     <defs>
      <path id="mfceca90b05" d="M 0 2.236068 
C 0.593012 2.236068 1.161816 2.000462 1.581139 1.581139 
C 2.000462 1.161816 2.236068 0.593012 2.236068 0 
C 2.236068 -0.593012 2.000462 -1.161816 1.581139 -1.581139 
C 1.161816 -2.000462 0.593012 -2.236068 0 -2.236068 
C -0.593012 -2.236068 -1.161816 -2.000462 -1.581139 -1.581139 
C -2.000462 -1.161816 -2.236068 -0.593012 -2.236068 0 
C -2.236068 0.593012 -2.000462 1.161816 -1.581139 1.581139 
C -1.161816 2.000462 -0.593012 2.236068 0 2.236068 
z
" style="stroke: #9467bd"/>
     </defs>
     <g>
      <use xlink:href="#mfceca90b05" x="256.009219" y="109.618594" style="fill: #9467bd; stroke: #9467bd"/>
     </g>
    </g>
    <g id="text_30">
     <!-- Normal_5 -->
     <g transform="translate(272.209219 111.981094) scale(0.09 -0.09)">
      <use xlink:href="#DejaVuSans-4e"/>
      <use xlink:href="#DejaVuSans-6f" x="74.804688"/>
      <use xlink:href="#DejaVuSans-72" x="135.986328"/>
      <use xlink:href="#DejaVuSans-6d" x="175.349609"/>
      <use xlink:href="#DejaVuSans-61" x="272.761719"/>
      <use xlink:href="#DejaVuSans-6c" x="334.041016"/>
      <use xlink:href="#DejaVuSans-5f" x="361.824219"/>
      <use xlink:href="#DejaVuSans-35" x="411.824219"/>
     </g>
    </g>
    <g id="Path3DCollection_9">
     <defs>
      <path id="m3e948fc501" d="M 0 -2.236068 
L -2.236068 2.236068 
L 2.236068 2.236068 
z
" style="stroke: #808080"/>
     </defs>
     <g>
      <use xlink:href="#m3e948fc501" x="256.009219" y="123.079219" style="fill: #808080; stroke: #808080"/>
     </g>
    </g>
    <g id="text_31">
     <!-- AML_5 -->
     <g transform="translate(272.209219 125.441719) scale(0.09 -0.09)">
      <defs>
       <path id="DejaVuSans-4d" d="M 628 4666 
L 1569 4666 
L 2759 1491 
L 3956 4666 
L 4897 4666 
L 4897 0 
L 4281 0 
L 4281 4097 
L 3078 897 
L 2444 897 
L 1241 4097 
L 1241 0 
L 628 0 
L 628 4666 
z
" transform="scale(0.015625)"/>
       <path id="DejaVuSans-4c" d="M 628 4666 
L 1259 4666 
L 1259 531 
L 3531 531 
L 3531 0 
L 628 0 
L 628 4666 
z
" transform="scale(0.015625)"/>
      </defs>
      <use xlink:href="#DejaVuSans-41"/>
      <use xlink:href="#DejaVuSans-4d" x="68.408203"/>
      <use xlink:href="#DejaVuSans-4c" x="154.6875"/>
      <use xlink:href="#DejaVuSans-5f" x="210.400391"/>
      <use xlink:href="#DejaVuSans-35" x="260.400391"/>
     </g>
    </g>
    <g id="Path3DCollection_10">
     <defs>
      <path id="ma4b93926a6" d="M 0 -2.236068 
L -2.236068 2.236068 
L 2.236068 2.236068 
z
" style="stroke: #800000"/>
     </defs>
     <g>
      <use xlink:href="#ma4b93926a6" x="256.009219" y="136.539844" style="fill: #800000; stroke: #800000"/>
     </g>
    </g>
    <g id="text_32">
     <!-- AML_6 -->
     <g transform="translate(272.209219 138.902344) scale(0.09 -0.09)">
      <defs>
       <path id="DejaVuSans-36" d="M 2113 2584 
Q 1688 2584 1439 2293 
Q 1191 2003 1191 1497 
Q 1191 994 1439 701 
Q 1688 409 2113 409 
Q 2538 409 2786 701 
Q 3034 994 3034 1497 
Q 3034 2003 2786 2293 
Q 2538 2584 2113 2584 
z
M 3366 4563 
L 3366 3988 
Q 3128 4100 2886 4159 
Q 2644 4219 2406 4219 
Q 1781 4219 1451 3797 
Q 1122 3375 1075 2522 
Q 1259 2794 1537 2939 
Q 1816 3084 2150 3084 
Q 2853 3084 3261 2657 
Q 3669 2231 3669 1497 
Q 3669 778 3244 343 
Q 2819 -91 2113 -91 
Q 1303 -91 875 529 
Q 447 1150 447 2328 
Q 447 3434 972 4092 
Q 1497 4750 2381 4750 
Q 2619 4750 2861 4703 
Q 3103 4656 3366 4563 
z
" transform="scale(0.015625)"/>
      </defs>
      <use xlink:href="#DejaVuSans-41"/>
      <use xlink:href="#DejaVuSans-4d" x="68.408203"/>
      <use xlink:href="#DejaVuSans-4c" x="154.6875"/>
      <use xlink:href="#DejaVuSans-5f" x="210.400391"/>
      <use xlink:href="#DejaVuSans-36" x="260.400391"/>
     </g>
    </g>
    <g id="Path3DCollection_11">
     <defs>
      <path id="me40dbbc306" d="M 0 -2.236068 
L -2.236068 2.236068 
L 2.236068 2.236068 
z
" style="stroke: #ff0000"/>
     </defs>
     <g>
      <use xlink:href="#me40dbbc306" x="256.009219" y="150.000469" style="fill: #ff0000; stroke: #ff0000"/>
     </g>
    </g>
    <g id="text_33">
     <!-- AML_7 -->
     <g transform="translate(272.209219 152.362969) scale(0.09 -0.09)">
      <defs>
       <path id="DejaVuSans-37" d="M 525 4666 
L 3525 4666 
L 3525 4397 
L 1831 0 
L 1172 0 
L 2766 4134 
L 525 4134 
L 525 4666 
z
" transform="scale(0.015625)"/>
      </defs>
      <use xlink:href="#DejaVuSans-41"/>
      <use xlink:href="#DejaVuSans-4d" x="68.408203"/>
      <use xlink:href="#DejaVuSans-4c" x="154.6875"/>
      <use xlink:href="#DejaVuSans-5f" x="210.400391"/>
      <use xlink:href="#DejaVuSans-37" x="260.400391"/>
     </g>
    </g>
    <g id="Path3DCollection_12">
     <defs>
      <path id="m02c1666a82" d="M 0 -2.236068 
L -2.236068 2.236068 
L 2.236068 2.236068 
z
" style="stroke: #e9967a"/>
     </defs>
     <g>
      <use xlink:href="#m02c1666a82" x="256.009219" y="163.461094" style="fill: #e9967a; stroke: #e9967a"/>
     </g>
    </g>
    <g id="text_34">
     <!-- AML_8 -->
     <g transform="translate(272.209219 165.823594) scale(0.09 -0.09)">
      <defs>
       <path id="DejaVuSans-38" d="M 2034 2216 
Q 1584 2216 1326 1975 
Q 1069 1734 1069 1313 
Q 1069 891 1326 650 
Q 1584 409 2034 409 
Q 2484 409 2743 651 
Q 3003 894 3003 1313 
Q 3003 1734 2745 1975 
Q 2488 2216 2034 2216 
z
M 1403 2484 
Q 997 2584 770 2862 
Q 544 3141 544 3541 
Q 544 4100 942 4425 
Q 1341 4750 2034 4750 
Q 2731 4750 3128 4425 
Q 3525 4100 3525 3541 
Q 3525 3141 3298 2862 
Q 3072 2584 2669 2484 
Q 3125 2378 3379 2068 
Q 3634 1759 3634 1313 
Q 3634 634 3220 271 
Q 2806 -91 2034 -91 
Q 1263 -91 848 271 
Q 434 634 434 1313 
Q 434 1759 690 2068 
Q 947 2378 1403 2484 
z
M 1172 3481 
Q 1172 3119 1398 2916 
Q 1625 2713 2034 2713 
Q 2441 2713 2670 2916 
Q 2900 3119 2900 3481 
Q 2900 3844 2670 4047 
Q 2441 4250 2034 4250 
Q 1625 4250 1398 4047 
Q 1172 3844 1172 3481 
z
" transform="scale(0.015625)"/>
      </defs>
      <use xlink:href="#DejaVuSans-41"/>
      <use xlink:href="#DejaVuSans-4d" x="68.408203"/>
      <use xlink:href="#DejaVuSans-4c" x="154.6875"/>
      <use xlink:href="#DejaVuSans-5f" x="210.400391"/>
      <use xlink:href="#DejaVuSans-38" x="260.400391"/>
     </g>
    </g>
    <g id="Path3DCollection_13">
     <defs>
      <path id="me0e4491c4b" d="M 0 -2.236068 
L -2.236068 2.236068 
L 2.236068 2.236068 
z
" style="stroke: #8b4513"/>
     </defs>
     <g>
      <use xlink:href="#me0e4491c4b" x="256.009219" y="176.921719" style="fill: #8b4513; stroke: #8b4513"/>
     </g>
    </g>
    <g id="text_35">
     <!-- AML_9 -->
     <g transform="translate(272.209219 179.284219) scale(0.09 -0.09)">
      <defs>
       <path id="DejaVuSans-39" d="M 703 97 
L 703 672 
Q 941 559 1184 500 
Q 1428 441 1663 441 
Q 2288 441 2617 861 
Q 2947 1281 2994 2138 
Q 2813 1869 2534 1725 
Q 2256 1581 1919 1581 
Q 1219 1581 811 2004 
Q 403 2428 403 3163 
Q 403 3881 828 4315 
Q 1253 4750 1959 4750 
Q 2769 4750 3195 4129 
Q 3622 3509 3622 2328 
Q 3622 1225 3098 567 
Q 2575 -91 1691 -91 
Q 1453 -91 1209 -44 
Q 966 3 703 97 
z
M 1959 2075 
Q 2384 2075 2632 2365 
Q 2881 2656 2881 3163 
Q 2881 3666 2632 3958 
Q 2384 4250 1959 4250 
Q 1534 4250 1286 3958 
Q 1038 3666 1038 3163 
Q 1038 2656 1286 2365 
Q 1534 2075 1959 2075 
z
" transform="scale(0.015625)"/>
      </defs>
      <use xlink:href="#DejaVuSans-41"/>
      <use xlink:href="#DejaVuSans-4d" x="68.408203"/>
      <use xlink:href="#DejaVuSans-4c" x="154.6875"/>
      <use xlink:href="#DejaVuSans-5f" x="210.400391"/>
      <use xlink:href="#DejaVuSans-39" x="260.400391"/>
     </g>
    </g>
    <g id="Path3DCollection_14">
     <defs>
      <path id="m962d88e189" d="M 0 -2.236068 
L -2.236068 2.236068 
L 2.236068 2.236068 
z
" style="stroke: #ffa500"/>
     </defs>
     <g>
      <use xlink:href="#m962d88e189" x="256.009219" y="190.382344" style="fill: #ffa500; stroke: #ffa500"/>
     </g>
    </g>
    <g id="text_36">
     <!-- AML_10 -->
     <g transform="translate(272.209219 192.744844) scale(0.09 -0.09)">
      <use xlink:href="#DejaVuSans-41"/>
      <use xlink:href="#DejaVuSans-4d" x="68.408203"/>
      <use xlink:href="#DejaVuSans-4c" x="154.6875"/>
      <use xlink:href="#DejaVuSans-5f" x="210.400391"/>
      <use xlink:href="#DejaVuSans-31" x="260.400391"/>
      <use xlink:href="#DejaVuSans-30" x="324.023438"/>
     </g>
    </g>
    <g id="Path3DCollection_15">
     <defs>
      <path id="ma7aae4305b" d="M 0 -2.236068 
L -2.236068 2.236068 
L 2.236068 2.236068 
z
" style="stroke: #f0e68c"/>
     </defs>
     <g>
      <use xlink:href="#ma7aae4305b" x="256.009219" y="203.842969" style="fill: #f0e68c; stroke: #f0e68c"/>
     </g>
    </g>
    <g id="text_37">
     <!-- AML_11 -->
     <g transform="translate(272.209219 206.205469) scale(0.09 -0.09)">
      <use xlink:href="#DejaVuSans-41"/>
      <use xlink:href="#DejaVuSans-4d" x="68.408203"/>
      <use xlink:href="#DejaVuSans-4c" x="154.6875"/>
      <use xlink:href="#DejaVuSans-5f" x="210.400391"/>
      <use xlink:href="#DejaVuSans-31" x="260.400391"/>
      <use xlink:href="#DejaVuSans-31" x="324.023438"/>
     </g>
    </g>
    <g id="Path3DCollection_16">
     <defs>
      <path id="m9fbe57a12f" d="M 0 -2.236068 
L -2.236068 2.236068 
L 2.236068 2.236068 
z
" style="stroke: #808000"/>
     </defs>
     <g>
      <use xlink:href="#m9fbe57a12f" x="256.009219" y="217.303594" style="fill: #808000; stroke: #808000"/>
     </g>
    </g>
    <g id="text_38">
     <!-- AML_12 -->
     <g transform="translate(272.209219 219.666094) scale(0.09 -0.09)">
      <use xlink:href="#DejaVuSans-41"/>
      <use xlink:href="#DejaVuSans-4d" x="68.408203"/>
      <use xlink:href="#DejaVuSans-4c" x="154.6875"/>
      <use xlink:href="#DejaVuSans-5f" x="210.400391"/>
      <use xlink:href="#DejaVuSans-31" x="260.400391"/>
      <use xlink:href="#DejaVuSans-32" x="324.023438"/>
     </g>
    </g>
    <g id="Path3DCollection_17">
     <defs>
      <path id="mf27a2da143" d="M 0 -2.236068 
L -2.236068 2.236068 
L 2.236068 2.236068 
z
" style="stroke: #ffff00"/>
     </defs>
     <g>
      <use xlink:href="#mf27a2da143" x="256.009219" y="230.764219" style="fill: #ffff00; stroke: #ffff00"/>
     </g>
    </g>
    <g id="text_39">
     <!-- AML_13 -->
     <g transform="translate(272.209219 233.126719) scale(0.09 -0.09)">
      <use xlink:href="#DejaVuSans-41"/>
      <use xlink:href="#DejaVuSans-4d" x="68.408203"/>
      <use xlink:href="#DejaVuSans-4c" x="154.6875"/>
      <use xlink:href="#DejaVuSans-5f" x="210.400391"/>
      <use xlink:href="#DejaVuSans-31" x="260.400391"/>
      <use xlink:href="#DejaVuSans-33" x="324.023438"/>
     </g>
    </g>
    <g id="Path3DCollection_18">
     <defs>
      <path id="m0252583721" d="M 0 -2.236068 
L -2.236068 2.236068 
L 2.236068 2.236068 
z
" style="stroke: #7cfc00"/>
     </defs>
     <g>
      <use xlink:href="#m0252583721" x="256.009219" y="244.224844" style="fill: #7cfc00; stroke: #7cfc00"/>
     </g>
    </g>
    <g id="text_40">
     <!-- AML_14 -->
     <g transform="translate(272.209219 246.587344) scale(0.09 -0.09)">
      <use xlink:href="#DejaVuSans-41"/>
      <use xlink:href="#DejaVuSans-4d" x="68.408203"/>
      <use xlink:href="#DejaVuSans-4c" x="154.6875"/>
      <use xlink:href="#DejaVuSans-5f" x="210.400391"/>
      <use xlink:href="#DejaVuSans-31" x="260.400391"/>
      <use xlink:href="#DejaVuSans-34" x="324.023438"/>
     </g>
    </g>
    <g id="Path3DCollection_19">
     <defs>
      <path id="mbbb8e6c412" d="M 0 -2.236068 
L -2.236068 2.236068 
L 2.236068 2.236068 
z
" style="stroke: #00ffff"/>
     </defs>
     <g>
      <use xlink:href="#mbbb8e6c412" x="256.009219" y="257.685469" style="fill: #00ffff; stroke: #00ffff"/>
     </g>
    </g>
    <g id="text_41">
     <!-- AML_15 -->
     <g transform="translate(272.209219 260.047969) scale(0.09 -0.09)">
      <use xlink:href="#DejaVuSans-41"/>
      <use xlink:href="#DejaVuSans-4d" x="68.408203"/>
      <use xlink:href="#DejaVuSans-4c" x="154.6875"/>
      <use xlink:href="#DejaVuSans-5f" x="210.400391"/>
      <use xlink:href="#DejaVuSans-31" x="260.400391"/>
      <use xlink:href="#DejaVuSans-35" x="324.023438"/>
     </g>
    </g>
    <g id="Path3DCollection_20">
     <defs>
      <path id="m07a829f49d" d="M 0 -2.236068 
L -2.236068 2.236068 
L 2.236068 2.236068 
z
" style="stroke: #1e90ff"/>
     </defs>
     <g>
      <use xlink:href="#m07a829f49d" x="256.009219" y="271.146094" style="fill: #1e90ff; stroke: #1e90ff"/>
     </g>
    </g>
    <g id="text_42">
     <!-- AML_16 -->
     <g transform="translate(272.209219 273.508594) scale(0.09 -0.09)">
      <use xlink:href="#DejaVuSans-41"/>
      <use xlink:href="#DejaVuSans-4d" x="68.408203"/>
      <use xlink:href="#DejaVuSans-4c" x="154.6875"/>
      <use xlink:href="#DejaVuSans-5f" x="210.400391"/>
      <use xlink:href="#DejaVuSans-31" x="260.400391"/>
      <use xlink:href="#DejaVuSans-36" x="324.023438"/>
     </g>
    </g>
   </g>
   <g id="Path3DCollection_21">
    <path d="M 121.618114 187.643372 
L 119.382046 192.115508 
L 123.854182 192.115508 
z
" clip-path="url(#p38d5985b1a)" style="fill: #808080; fill-opacity: 0.3; stroke: #808080; stroke-opacity: 0.3"/>
    <path d="M 122.353685 186.436188 
L 120.117617 190.908324 
L 124.589753 190.908324 
z
" clip-path="url(#p38d5985b1a)" style="fill: #808080; fill-opacity: 0.409585; stroke: #808080; stroke-opacity: 0.409585"/>
    <path d="M 122.738103 188.474888 
L 120.502035 192.947024 
L 124.974171 192.947024 
z
" clip-path="url(#p38d5985b1a)" style="fill: #808080; stroke: #808080"/>
   </g>
   <g id="Path3DCollection_22">
    <defs>
     <path id="C1_0_8682b9ede3" d="M 0 2.236068 
C 0.593012 2.236068 1.161816 2.000462 1.581139 1.581139 
C 2.000462 1.161816 2.236068 0.593012 2.236068 -0 
C 2.236068 -0.593012 2.000462 -1.161816 1.581139 -1.581139 
C 1.161816 -2.000462 0.593012 -2.236068 0 -2.236068 
C -0.593012 -2.236068 -1.161816 -2.000462 -1.581139 -1.581139 
C -2.000462 -1.161816 -2.236068 -0.593012 -2.236068 0 
C -2.236068 0.593012 -2.000462 1.161816 -1.581139 1.581139 
C -1.161816 2.000462 -0.593012 2.236068 0 2.236068 
z
"/>
    </defs>
    <g clip-path="url(#p38d5985b1a)">
     <use xlink:href="#C1_0_8682b9ede3" x="148.521168" y="193.040899" style="fill: #2ca02c; fill-opacity: 0.3; stroke: #2ca02c; stroke-opacity: 0.3"/>
    </g>
    <g clip-path="url(#p38d5985b1a)">
     <use xlink:href="#C1_0_8682b9ede3" x="165.677211" y="193.476144" style="fill: #2ca02c; fill-opacity: 0.43875; stroke: #2ca02c; stroke-opacity: 0.43875"/>
    </g>
    <g clip-path="url(#p38d5985b1a)">
     <use xlink:href="#C1_0_8682b9ede3" x="143.6876" y="194.643354" style="fill: #2ca02c; stroke: #2ca02c"/>
    </g>
   </g>
   <g id="Path3DCollection_23">
    <defs>
     <path id="C2_0_4409776b68" d="M 0 2.236068 
C 0.593012 2.236068 1.161816 2.000462 1.581139 1.581139 
C 2.000462 1.161816 2.236068 0.593012 2.236068 -0 
C 2.236068 -0.593012 2.000462 -1.161816 1.581139 -1.581139 
C 1.161816 -2.000462 0.593012 -2.236068 0 -2.236068 
C -0.593012 -2.236068 -1.161816 -2.000462 -1.581139 -1.581139 
C -2.000462 -1.161816 -2.236068 -0.593012 -2.236068 0 
C -2.236068 0.593012 -2.000462 1.161816 -1.581139 1.581139 
C -1.161816 2.000462 -0.593012 2.236068 0 2.236068 
z
"/>
    </defs>
    <g clip-path="url(#p38d5985b1a)">
     <use xlink:href="#C2_0_4409776b68" x="174.998757" y="194.4418" style="fill: #ff7f0e; fill-opacity: 0.3; stroke: #ff7f0e; stroke-opacity: 0.3"/>
    </g>
    <g clip-path="url(#p38d5985b1a)">
     <use xlink:href="#C2_0_4409776b68" x="138.32114" y="196.341524" style="fill: #ff7f0e; fill-opacity: 0.640186; stroke: #ff7f0e; stroke-opacity: 0.640186"/>
    </g>
    <g clip-path="url(#p38d5985b1a)">
     <use xlink:href="#C2_0_4409776b68" x="124.378117" y="193.64307" style="fill: #ff7f0e; stroke: #ff7f0e"/>
    </g>
   </g>
   <g id="Path3DCollection_24">
    <defs>
     <path id="C3_0_7f696025fb" d="M 0 2.236068 
C 0.593012 2.236068 1.161816 2.000462 1.581139 1.581139 
C 2.000462 1.161816 2.236068 0.593012 2.236068 -0 
C 2.236068 -0.593012 2.000462 -1.161816 1.581139 -1.581139 
C 1.161816 -2.000462 0.593012 -2.236068 0 -2.236068 
C -0.593012 -2.236068 -1.161816 -2.000462 -1.581139 -1.581139 
C -2.000462 -1.161816 -2.236068 -0.593012 -2.236068 0 
C -2.236068 0.593012 -2.000462 1.161816 -1.581139 1.581139 
C -1.161816 2.000462 -0.593012 2.236068 0 2.236068 
z
"/>
    </defs>
    <g clip-path="url(#p38d5985b1a)">
     <use xlink:href="#C3_0_7f696025fb" x="135.828568" y="192.139813" style="fill: #1f77b4; fill-opacity: 0.3; stroke: #1f77b4; stroke-opacity: 0.3"/>
    </g>
    <g clip-path="url(#p38d5985b1a)">
     <use xlink:href="#C3_0_7f696025fb" x="127.905542" y="195.932765" style="fill: #1f77b4; fill-opacity: 0.840118; stroke: #1f77b4; stroke-opacity: 0.840118"/>
    </g>
    <g clip-path="url(#p38d5985b1a)">
     <use xlink:href="#C3_0_7f696025fb" x="124.891201" y="191.768451" style="fill: #1f77b4; stroke: #1f77b4"/>
    </g>
   </g>
   <g id="Path3DCollection_25">
    <path d="M 122.833789 189.088436 
L 120.597722 193.560572 
L 125.069857 193.560572 
z
" clip-path="url(#p38d5985b1a)" style="fill: #ffff00; fill-opacity: 0.3; stroke: #ffff00; stroke-opacity: 0.3"/>
    <path d="M 125.256938 191.049749 
L 123.02087 195.521885 
L 127.493006 195.521885 
z
" clip-path="url(#p38d5985b1a)" style="fill: #ffff00; fill-opacity: 0.938254; stroke: #ffff00; stroke-opacity: 0.938254"/>
    <path d="M 126.385908 194.651825 
L 124.14984 199.123961 
L 128.621976 199.123961 
z
" clip-path="url(#p38d5985b1a)" style="fill: #ffff00; stroke: #ffff00"/>
   </g>
   <g id="Path3DCollection_26">
    <defs>
     <path id="C4_0_b7f627e23d" d="M 0 2.236068 
C 0.593012 2.236068 1.161816 2.000462 1.581139 1.581139 
C 2.000462 1.161816 2.236068 0.593012 2.236068 -0 
C 2.236068 -0.593012 2.000462 -1.161816 1.581139 -1.581139 
C 1.161816 -2.000462 0.593012 -2.236068 0 -2.236068 
C -0.593012 -2.236068 -1.161816 -2.000462 -1.581139 -1.581139 
C -2.000462 -1.161816 -2.236068 -0.593012 -2.236068 0 
C -2.236068 0.593012 -2.000462 1.161816 -1.581139 1.581139 
C -1.161816 2.000462 -0.593012 2.236068 0 2.236068 
z
"/>
    </defs>
    <g clip-path="url(#p38d5985b1a)">
     <use xlink:href="#C4_0_b7f627e23d" x="158.487597" y="200.413648" style="fill: #d62728; fill-opacity: 0.3; stroke: #d62728; stroke-opacity: 0.3"/>
    </g>
    <g clip-path="url(#p38d5985b1a)">
     <use xlink:href="#C4_0_b7f627e23d" x="130.292025" y="192.039037" style="fill: #d62728; fill-opacity: 0.567014; stroke: #d62728; stroke-opacity: 0.567014"/>
    </g>
    <g clip-path="url(#p38d5985b1a)">
     <use xlink:href="#C4_0_b7f627e23d" x="155.866298" y="204.564492" style="fill: #d62728; stroke: #d62728"/>
    </g>
   </g>
   <g id="Path3DCollection_27">
    <path d="M 123.096914 189.73939 
L 120.860846 194.211526 
L 125.332982 194.211526 
z
" clip-path="url(#p38d5985b1a)" style="fill: #1e90ff; fill-opacity: 0.3; stroke: #1e90ff; stroke-opacity: 0.3"/>
    <path d="M 124.459016 190.1418 
L 122.222948 194.613935 
L 126.695084 194.613935 
z
" clip-path="url(#p38d5985b1a)" style="fill: #1e90ff; fill-opacity: 0.43377; stroke: #1e90ff; stroke-opacity: 0.43377"/>
    <path d="M 129.248605 195.590626 
L 127.012537 200.062762 
L 131.484673 200.062762 
z
" clip-path="url(#p38d5985b1a)" style="fill: #1e90ff; stroke: #1e90ff"/>
   </g>
   <g id="Path3DCollection_28">
    <path d="M 207.290052 132.851632 
L 205.053984 137.323768 
L 209.52612 137.323768 
z
" clip-path="url(#p38d5985b1a)" style="fill: #800000; fill-opacity: 0.3; stroke: #800000; stroke-opacity: 0.3"/>
    <path d="M 182.237097 108.617039 
L 180.001029 113.089175 
L 184.473165 113.089175 
z
" clip-path="url(#p38d5985b1a)" style="fill: #800000; fill-opacity: 0.506048; stroke: #800000; stroke-opacity: 0.506048"/>
    <path d="M 139.96321 200.285134 
L 137.727142 204.75727 
L 142.199278 204.75727 
z
" clip-path="url(#p38d5985b1a)" style="fill: #800000; stroke: #800000"/>
   </g>
   <g id="Path3DCollection_29">
    <path d="M 201.03878 200.643438 
L 198.802712 205.115574 
L 203.274848 205.115574 
z
" clip-path="url(#p38d5985b1a)" style="fill: #ff0000; fill-opacity: 0.3; stroke: #ff0000; stroke-opacity: 0.3"/>
    <path d="M 258.139643 224.647695 
L 255.903575 229.119831 
L 260.375711 229.119831 
z
" clip-path="url(#p38d5985b1a)" style="fill: #ff0000; fill-opacity: 0.553315; stroke: #ff0000; stroke-opacity: 0.553315"/>
    <path d="M 261.857991 238.777769 
L 259.621923 243.249905 
L 264.094058 243.249905 
z
" clip-path="url(#p38d5985b1a)" style="fill: #ff0000; stroke: #ff0000"/>
   </g>
   <g id="Path3DCollection_30">
    <path d="M 126.858191 196.57511 
L 124.622123 201.047246 
L 129.094259 201.047246 
z
" clip-path="url(#p38d5985b1a)" style="fill: #808000; fill-opacity: 0.3; stroke: #808000; stroke-opacity: 0.3"/>
    <path d="M 132.018967 200.652022 
L 129.782899 205.124158 
L 134.255035 205.124158 
z
" clip-path="url(#p38d5985b1a)" style="fill: #808000; fill-opacity: 0.65058; stroke: #808000; stroke-opacity: 0.65058"/>
    <path d="M 133.531336 201.049058 
L 131.295268 205.521194 
L 135.767404 205.521194 
z
" clip-path="url(#p38d5985b1a)" style="fill: #808000; stroke: #808000"/>
   </g>
   <g id="Path3DCollection_31">
    <path d="M 126.766692 154.313663 
L 124.530624 158.785799 
L 129.00276 158.785799 
z
" clip-path="url(#p38d5985b1a)" style="fill: #00ffff; fill-opacity: 0.3; stroke: #00ffff; stroke-opacity: 0.3"/>
    <path d="M 132.004305 202.505732 
L 129.768237 206.977867 
L 134.240373 206.977867 
z
" clip-path="url(#p38d5985b1a)" style="fill: #00ffff; fill-opacity: 0.676591; stroke: #00ffff; stroke-opacity: 0.676591"/>
    <path d="M 142.134136 204.795237 
L 139.898068 209.267373 
L 144.370204 209.267373 
z
" clip-path="url(#p38d5985b1a)" style="fill: #00ffff; stroke: #00ffff"/>
   </g>
   <g id="Path3DCollection_32">
    <path d="M 128.480778 188.037107 
L 126.24471 192.509243 
L 130.716846 192.509243 
z
" clip-path="url(#p38d5985b1a)" style="fill: #e9967a; fill-opacity: 0.3; stroke: #e9967a; stroke-opacity: 0.3"/>
    <path d="M 144.572361 213.804783 
L 142.336293 218.276919 
L 146.808428 218.276919 
z
" clip-path="url(#p38d5985b1a)" style="fill: #e9967a; fill-opacity: 0.803688; stroke: #e9967a; stroke-opacity: 0.803688"/>
    <path d="M 167.868376 225.567772 
L 165.632308 230.039908 
L 170.104444 230.039908 
z
" clip-path="url(#p38d5985b1a)" style="fill: #e9967a; stroke: #e9967a"/>
   </g>
   <g id="Path3DCollection_33">
    <path d="M 121.361101 187.014094 
L 119.125034 191.48623 
L 123.597169 191.48623 
z
" clip-path="url(#p38d5985b1a)" style="fill: #f0e68c; fill-opacity: 0.3; stroke: #f0e68c; stroke-opacity: 0.3"/>
    <path d="M 121.714503 187.309366 
L 119.478435 191.781502 
L 123.95057 191.781502 
z
" clip-path="url(#p38d5985b1a)" style="fill: #f0e68c; fill-opacity: 0.302865; stroke: #f0e68c; stroke-opacity: 0.302865"/>
    <path d="M 148.273991 215.950192 
L 146.037923 220.422328 
L 150.510059 220.422328 
z
" clip-path="url(#p38d5985b1a)" style="fill: #f0e68c; stroke: #f0e68c"/>
   </g>
   <g id="Path3DCollection_34">
    <path d="M 131.244667 173.853019 
L 129.008599 178.325155 
L 133.480735 178.325155 
z
" clip-path="url(#p38d5985b1a)" style="fill: #ffa500; fill-opacity: 0.3; stroke: #ffa500; stroke-opacity: 0.3"/>
    <path d="M 175.787803 117.172003 
L 173.551735 121.644139 
L 178.023871 121.644139 
z
" clip-path="url(#p38d5985b1a)" style="fill: #ffa500; fill-opacity: 0.300459; stroke: #ffa500; stroke-opacity: 0.300459"/>
    <path d="M 150.66104 158.994457 
L 148.424972 163.466593 
L 152.897108 163.466593 
z
" clip-path="url(#p38d5985b1a)" style="fill: #ffa500; stroke: #ffa500"/>
   </g>
  </g>
 </g>
 <defs>
  <clipPath id="p38d5985b1a">
   <rect x="45.9" y="43.2" width="277.2" height="277.2"/>
  </clipPath>
 </defs>
</svg>
