<?xml version="1.0" encoding="utf-8" standalone="no"?>
<!DOCTYPE svg PUBLIC "-//W3C//DTD SVG 1.1//EN"
  "http://www.w3.org/Graphics/SVG/1.1/DTD/svg11.dtd">
<svg xmlns:xlink="http://www.w3.org/1999/xlink" width="216pt" height="180pt" viewBox="0 0 216 180" xmlns="http://www.w3.org/2000/svg" version="1.1">
 <metadata>
  <rdf:RDF xmlns:dc="http://purl.org/dc/elements/1.1/" xmlns:cc="http://creativecommons.org/ns#" xmlns:rdf="http://www.w3.org/1999/02/22-rdf-syntax-ns#">
   <cc:Work>
    <dc:type rdf:resource="http://purl.org/dc/dcmitype/StillImage"/>
    <dc:date>2024-05-19T18:42:55.153877</dc:date>
    <dc:format>image/svg+xml</dc:format>
    <dc:creator>
     <cc:Agent>
      <dc:title>Matplotlib v3.7.1, https://matplotlib.org/</dc:title>
     </cc:Agent>
    </dc:creator>
   </cc:Work>
  </rdf:RDF>
 </metadata>
 <defs>
  <style type="text/css">*{stroke-linejoin: round; stroke-linecap: butt}</style>
 </defs>
 <g id="figure_1">
  <g id="patch_1">
   <path d="M 0 180 
L 216 180 
L 216 0 
L 0 0 
z
" style="fill: #ffffff"/>
  </g>
  <g id="axes_1">
   <g id="patch_2">
    <path d="M 41.4 160.2 
L 180 160.2 
L 180 21.6 
L 41.4 21.6 
z
" style="fill: #ffffff"/>
   </g>
   <g id="patch_3">
    <path d="M 166.14 36.153 
C 166.323786 36.153 166.500069 36.079981 166.630025 35.950025 
C 166.759981 35.820069 166.833 35.643786 166.833 35.46 
C 166.833 35.276214 166.759981 35.099931 166.630025 34.969975 
C 166.500069 34.840019 166.323786 34.767 166.14 34.767 
C 165.956214 34.767 165.779931 34.840019 165.649975 34.969975 
C 165.520019 35.099931 165.447 35.276214 165.447 35.46 
C 165.447 35.643786 165.520019 35.820069 165.649975 35.950025 
C 165.779931 36.079981 165.956214 36.153 166.14 36.153 
z
" clip-path="url(#pcbfd6c90eb)" style="fill: #c82423; stroke: #c82423; stroke-linejoin: miter"/>
   </g>
   <g id="patch_4">
    <path d="M 95.454 153.963 
C 95.637786 153.963 95.814069 153.889981 95.944025 153.760025 
C 96.073981 153.630069 96.147 153.453786 96.147 153.27 
C 96.147 153.086214 96.073981 152.909931 95.944025 152.779975 
C 95.814069 152.650019 95.637786 152.577 95.454 152.577 
C 95.270214 152.577 95.093931 152.650019 94.963975 152.779975 
C 94.834019 152.909931 94.761 153.086214 94.761 153.27 
C 94.761 153.453786 94.834019 153.630069 94.963975 153.760025 
C 95.093931 153.889981 95.270214 153.963 95.454 153.963 
z
" clip-path="url(#pcbfd6c90eb)" style="fill: #c82423; stroke: #c82423; stroke-linejoin: miter"/>
   </g>
   <g id="patch_5">
    <path d="M 56.646 60.639 
C 56.829786 60.639 57.006069 60.565981 57.136025 60.436025 
C 57.265981 60.306069 57.339 60.129786 57.339 59.946 
C 57.339 59.762214 57.265981 59.585931 57.136025 59.455975 
C 57.006069 59.326019 56.829786 59.253 56.646 59.253 
C 56.462214 59.253 56.285931 59.326019 56.155975 59.455975 
C 56.026019 59.585931 55.953 59.762214 55.953 59.946 
C 55.953 60.129786 56.026019 60.306069 56.155975 60.436025 
C 56.285931 60.565981 56.462214 60.639 56.646 60.639 
z
" clip-path="url(#pcbfd6c90eb)" style="fill: #c82423; stroke: #c82423; stroke-linejoin: miter"/>
   </g>
   <g id="patch_6">
    <path d="M 63.576 22.755 
C 63.759786 22.755 63.936069 22.681981 64.066025 22.552025 
C 64.195981 22.422069 64.269 22.245786 64.269 22.062 
C 64.269 21.878214 64.195981 21.701931 64.066025 21.571975 
C 63.936069 21.442019 63.759786 21.369 63.576 21.369 
C 63.392214 21.369 63.215931 21.442019 63.085975 21.571975 
C 62.956019 21.701931 62.883 21.878214 62.883 22.062 
C 62.883 22.245786 62.956019 22.422069 63.085975 22.552025 
C 63.215931 22.681981 63.392214 22.755 63.576 22.755 
z
" clip-path="url(#pcbfd6c90eb)" style="fill: #c82423; stroke: #c82423; stroke-linejoin: miter"/>
   </g>
   <g id="patch_7">
    <path d="M 64.038 96.213 
C 64.221786 96.213 64.398069 96.139981 64.528025 96.010025 
C 64.657981 95.880069 64.731 95.703786 64.731 95.52 
C 64.731 95.336214 64.657981 95.159931 64.528025 95.029975 
C 64.398069 94.900019 64.221786 94.827 64.038 94.827 
C 63.854214 94.827 63.677931 94.900019 63.547975 95.029975 
C 63.418019 95.159931 63.345 95.336214 63.345 95.52 
C 63.345 95.703786 63.418019 95.880069 63.547975 96.010025 
C 63.677931 96.139981 63.854214 96.213 64.038 96.213 
z
" clip-path="url(#pcbfd6c90eb)" style="fill: #c82423; stroke: #c82423; stroke-linejoin: miter"/>
   </g>
   <g id="patch_8">
    <path d="M 41.4 124.395 
C 41.583786 124.395 41.760069 124.321981 41.890025 124.192025 
C 42.019981 124.062069 42.093 123.885786 42.093 123.702 
C 42.093 123.518214 42.019981 123.341931 41.890025 123.211975 
C 41.760069 123.082019 41.583786 123.009 41.4 123.009 
C 41.216214 123.009 41.039931 123.082019 40.909975 123.211975 
C 40.780019 123.341931 40.707 123.518214 40.707 123.702 
C 40.707 123.885786 40.780019 124.062069 40.909975 124.192025 
C 41.039931 124.321981 41.216214 124.395 41.4 124.395 
z
" clip-path="url(#pcbfd6c90eb)" style="fill: #c82423; stroke: #c82423; stroke-linejoin: miter"/>
   </g>
   <g id="patch_9">
    <path d="M 55.722 73.575 
C 55.905786 73.575 56.082069 73.501981 56.212025 73.372025 
C 56.341981 73.242069 56.415 73.065786 56.415 72.882 
C 56.415 72.698214 56.341981 72.521931 56.212025 72.391975 
C 56.082069 72.262019 55.905786 72.189 55.722 72.189 
C 55.538214 72.189 55.361931 72.262019 55.231975 72.391975 
C 55.102019 72.521931 55.029 72.698214 55.029 72.882 
C 55.029 73.065786 55.102019 73.242069 55.231975 73.372025 
C 55.361931 73.501981 55.538214 73.575 55.722 73.575 
z
" clip-path="url(#pcbfd6c90eb)" style="fill: #c82423; stroke: #c82423; stroke-linejoin: miter"/>
   </g>
   <g id="patch_10">
    <path d="M 55.26 69.417 
C 55.443786 69.417 55.620069 69.343981 55.750025 69.214025 
C 55.879981 69.084069 55.953 68.907786 55.953 68.724 
C 55.953 68.540214 55.879981 68.363931 55.750025 68.233975 
C 55.620069 68.104019 55.443786 68.031 55.26 68.031 
C 55.076214 68.031 54.899931 68.104019 54.769975 68.233975 
C 54.640019 68.363931 54.567 68.540214 54.567 68.724 
C 54.567 68.907786 54.640019 69.084069 54.769975 69.214025 
C 54.899931 69.343981 55.076214 69.417 55.26 69.417 
z
" clip-path="url(#pcbfd6c90eb)" style="fill: #c82423; stroke: #c82423; stroke-linejoin: miter"/>
   </g>
   <g id="patch_11">
    <path d="M 191.55 87.897 
C 191.733786 87.897 191.910069 87.823981 192.040025 87.694025 
C 192.169981 87.564069 192.243 87.387786 192.243 87.204 
C 192.243 87.020214 192.169981 86.843931 192.040025 86.713975 
C 191.910069 86.584019 191.733786 86.511 191.55 86.511 
C 191.366214 86.511 191.189931 86.584019 191.059975 86.713975 
C 190.930019 86.843931 190.857 87.020214 190.857 87.204 
C 190.857 87.387786 190.930019 87.564069 191.059975 87.694025 
C 191.189931 87.823981 191.366214 87.897 191.55 87.897 
z
" clip-path="url(#pcbfd6c90eb)" style="fill: #c82423; stroke: #c82423; stroke-linejoin: miter"/>
   </g>
   <g id="patch_12">
    <path d="M 115.32 110.997 
C 115.503786 110.997 115.680069 110.923981 115.810025 110.794025 
C 115.939981 110.664069 116.013 110.487786 116.013 110.304 
C 116.013 110.120214 115.939981 109.943931 115.810025 109.813975 
C 115.680069 109.684019 115.503786 109.611 115.32 109.611 
C 115.136214 109.611 114.959931 109.684019 114.829975 109.813975 
C 114.700019 109.943931 114.627 110.120214 114.627 110.304 
C 114.627 110.487786 114.700019 110.664069 114.829975 110.794025 
C 114.959931 110.923981 115.136214 110.997 115.32 110.997 
z
" clip-path="url(#pcbfd6c90eb)" style="fill: #c82423; stroke: #c82423; stroke-linejoin: miter"/>
   </g>
   <g id="patch_13">
    <path d="M 167.988 118.851 
C 168.171786 118.851 168.348069 118.777981 168.478025 118.648025 
C 168.607981 118.518069 168.681 118.341786 168.681 118.158 
C 168.681 117.974214 168.607981 117.797931 168.478025 117.667975 
C 168.348069 117.538019 168.171786 117.465 167.988 117.465 
C 167.804214 117.465 167.627931 117.538019 167.497975 117.667975 
C 167.368019 117.797931 167.295 117.974214 167.295 118.158 
C 167.295 118.341786 167.368019 118.518069 167.497975 118.648025 
C 167.627931 118.777981 167.804214 118.851 167.988 118.851 
z
" clip-path="url(#pcbfd6c90eb)" style="fill: #c82423; stroke: #c82423; stroke-linejoin: miter"/>
   </g>
   <g id="patch_14">
    <path d="M 176.766 68.493 
C 176.949786 68.493 177.126069 68.419981 177.256025 68.290025 
C 177.385981 68.160069 177.459 67.983786 177.459 67.8 
C 177.459 67.616214 177.385981 67.439931 177.256025 67.309975 
C 177.126069 67.180019 176.949786 67.107 176.766 67.107 
C 176.582214 67.107 176.405931 67.180019 176.275975 67.309975 
C 176.146019 67.439931 176.073 67.616214 176.073 67.8 
C 176.073 67.983786 176.146019 68.160069 176.275975 68.290025 
C 176.405931 68.419981 176.582214 68.493 176.766 68.493 
z
" clip-path="url(#pcbfd6c90eb)" style="fill: #c82423; stroke: #c82423; stroke-linejoin: miter"/>
   </g>
   <g id="patch_15">
    <path d="M 96.84 102.219 
C 97.023786 102.219 97.200069 102.145981 97.330025 102.016025 
C 97.459981 101.886069 97.533 101.709786 97.533 101.526 
C 97.533 101.342214 97.459981 101.165931 97.330025 101.035975 
C 97.200069 100.906019 97.023786 100.833 96.84 100.833 
C 96.656214 100.833 96.479931 100.906019 96.349975 101.035975 
C 96.220019 101.165931 96.147 101.342214 96.147 101.526 
C 96.147 101.709786 96.220019 101.886069 96.349975 102.016025 
C 96.479931 102.145981 96.656214 102.219 96.84 102.219 
z
" clip-path="url(#pcbfd6c90eb)" style="fill: #c82423; stroke: #c82423; stroke-linejoin: miter"/>
   </g>
   <g id="patch_16">
    <path d="M 58.956 56.019 
C 59.139786 56.019 59.316069 55.945981 59.446025 55.816025 
C 59.575981 55.686069 59.649 55.509786 59.649 55.326 
C 59.649 55.142214 59.575981 54.965931 59.446025 54.835975 
C 59.316069 54.706019 59.139786 54.633 58.956 54.633 
C 58.772214 54.633 58.595931 54.706019 58.465975 54.835975 
C 58.336019 54.965931 58.263 55.142214 58.263 55.326 
C 58.263 55.509786 58.336019 55.686069 58.465975 55.816025 
C 58.595931 55.945981 58.772214 56.019 58.956 56.019 
z
" clip-path="url(#pcbfd6c90eb)" style="fill: #c82423; stroke: #c82423; stroke-linejoin: miter"/>
   </g>
   <g id="patch_17">
    <path d="M 68.658 23.679 
C 68.841786 23.679 69.018069 23.605981 69.148025 23.476025 
C 69.277981 23.346069 69.351 23.169786 69.351 22.986 
C 69.351 22.802214 69.277981 22.625931 69.148025 22.495975 
C 69.018069 22.366019 68.841786 22.293 68.658 22.293 
C 68.474214 22.293 68.297931 22.366019 68.167975 22.495975 
C 68.038019 22.625931 67.965 22.802214 67.965 22.986 
C 67.965 23.169786 68.038019 23.346069 68.167975 23.476025 
C 68.297931 23.605981 68.474214 23.679 68.658 23.679 
z
" clip-path="url(#pcbfd6c90eb)" style="fill: #c82423; stroke: #c82423; stroke-linejoin: miter"/>
   </g>
   <g id="patch_18">
    <path d="M 82.518 65.259 
C 82.701786 65.259 82.878069 65.185981 83.008025 65.056025 
C 83.137981 64.926069 83.211 64.749786 83.211 64.566 
C 83.211 64.382214 83.137981 64.205931 83.008025 64.075975 
C 82.878069 63.946019 82.701786 63.873 82.518 63.873 
C 82.334214 63.873 82.157931 63.946019 82.027975 64.075975 
C 81.898019 64.205931 81.825 64.382214 81.825 64.566 
C 81.825 64.749786 81.898019 64.926069 82.027975 65.056025 
C 82.157931 65.185981 82.334214 65.259 82.518 65.259 
z
" clip-path="url(#pcbfd6c90eb)" style="fill: #c82423; stroke: #c82423; stroke-linejoin: miter"/>
   </g>
   <g id="patch_19">
    <path d="M 62.652 38.001 
C 62.835786 38.001 63.012069 37.927981 63.142025 37.798025 
C 63.271981 37.668069 63.345 37.491786 63.345 37.308 
C 63.345 37.124214 63.271981 36.947931 63.142025 36.817975 
C 63.012069 36.688019 62.835786 36.615 62.652 36.615 
C 62.468214 36.615 62.291931 36.688019 62.161975 36.817975 
C 62.032019 36.947931 61.959 37.124214 61.959 37.308 
C 61.959 37.491786 62.032019 37.668069 62.161975 37.798025 
C 62.291931 37.927981 62.468214 38.001 62.652 38.001 
z
" clip-path="url(#pcbfd6c90eb)" style="fill: #c82423; stroke: #c82423; stroke-linejoin: miter"/>
   </g>
   <g id="patch_20">
    <path d="M 150.432 75.423 
C 150.615786 75.423 150.792069 75.349981 150.922025 75.220025 
C 151.051981 75.090069 151.125 74.913786 151.125 74.73 
C 151.125 74.546214 151.051981 74.369931 150.922025 74.239975 
C 150.792069 74.110019 150.615786 74.037 150.432 74.037 
C 150.248214 74.037 150.071931 74.110019 149.941975 74.239975 
C 149.812019 74.369931 149.739 74.546214 149.739 74.73 
C 149.739 74.913786 149.812019 75.090069 149.941975 75.220025 
C 150.071931 75.349981 150.248214 75.423 150.432 75.423 
z
" clip-path="url(#pcbfd6c90eb)" style="fill: #c82423; stroke: #c82423; stroke-linejoin: miter"/>
   </g>
   <g id="patch_21">
    <path d="M 106.08 128.091 
C 106.263786 128.091 106.440069 128.017981 106.570025 127.888025 
C 106.699981 127.758069 106.773 127.581786 106.773 127.398 
C 106.773 127.214214 106.699981 127.037931 106.570025 126.907975 
C 106.440069 126.778019 106.263786 126.705 106.08 126.705 
C 105.896214 126.705 105.719931 126.778019 105.589975 126.907975 
C 105.460019 127.037931 105.387 127.214214 105.387 127.398 
C 105.387 127.581786 105.460019 127.758069 105.589975 127.888025 
C 105.719931 128.017981 105.896214 128.091 106.08 128.091 
z
" clip-path="url(#pcbfd6c90eb)" style="fill: #c82423; stroke: #c82423; stroke-linejoin: miter"/>
   </g>
   <g id="patch_22">
    <path d="M 111.162 87.435 
C 111.345786 87.435 111.522069 87.361981 111.652025 87.232025 
C 111.781981 87.102069 111.855 86.925786 111.855 86.742 
C 111.855 86.558214 111.781981 86.381931 111.652025 86.251975 
C 111.522069 86.122019 111.345786 86.049 111.162 86.049 
C 110.978214 86.049 110.801931 86.122019 110.671975 86.251975 
C 110.542019 86.381931 110.469 86.558214 110.469 86.742 
C 110.469 86.925786 110.542019 87.102069 110.671975 87.232025 
C 110.801931 87.361981 110.978214 87.435 111.162 87.435 
z
" clip-path="url(#pcbfd6c90eb)" style="fill: #c82423; stroke: #c82423; stroke-linejoin: miter"/>
   </g>
   <g id="patch_23">
    <path d="M 163.368 136.407 
C 163.551786 136.407 163.728069 136.333981 163.858025 136.204025 
C 163.987981 136.074069 164.061 135.897786 164.061 135.714 
C 164.061 135.530214 163.987981 135.353931 163.858025 135.223975 
C 163.728069 135.094019 163.551786 135.021 163.368 135.021 
C 163.184214 135.021 163.007931 135.094019 162.877975 135.223975 
C 162.748019 135.353931 162.675 135.530214 162.675 135.714 
C 162.675 135.897786 162.748019 136.074069 162.877975 136.204025 
C 163.007931 136.333981 163.184214 136.407 163.368 136.407 
z
" clip-path="url(#pcbfd6c90eb)" style="fill: #c82423; stroke: #c82423; stroke-linejoin: miter"/>
   </g>
   <g id="patch_24">
    <path d="M 111.624 64.797 
C 111.807786 64.797 111.984069 64.723981 112.114025 64.594025 
C 112.243981 64.464069 112.317 64.287786 112.317 64.104 
C 112.317 63.920214 112.243981 63.743931 112.114025 63.613975 
C 111.984069 63.484019 111.807786 63.411 111.624 63.411 
C 111.440214 63.411 111.263931 63.484019 111.133975 63.613975 
C 111.004019 63.743931 110.931 63.920214 110.931 64.104 
C 110.931 64.287786 111.004019 64.464069 111.133975 64.594025 
C 111.263931 64.723981 111.440214 64.797 111.624 64.797 
z
" clip-path="url(#pcbfd6c90eb)" style="fill: #c82423; stroke: #c82423; stroke-linejoin: miter"/>
   </g>
   <g id="patch_25">
    <path d="M 114.396 35.229 
C 114.579786 35.229 114.756069 35.155981 114.886025 35.026025 
C 115.015981 34.896069 115.089 34.719786 115.089 34.536 
C 115.089 34.352214 115.015981 34.175931 114.886025 34.045975 
C 114.756069 33.916019 114.579786 33.843 114.396 33.843 
C 114.212214 33.843 114.035931 33.916019 113.905975 34.045975 
C 113.776019 34.175931 113.703 34.352214 113.703 34.536 
C 113.703 34.719786 113.776019 34.896069 113.905975 35.026025 
C 114.035931 35.155981 114.212214 35.229 114.396 35.229 
z
" clip-path="url(#pcbfd6c90eb)" style="fill: #c82423; stroke: #c82423; stroke-linejoin: miter"/>
   </g>
   <g id="patch_26">
    <path d="M 149.046 145.647 
C 149.229786 145.647 149.406069 145.573981 149.536025 145.444025 
C 149.665981 145.314069 149.739 145.137786 149.739 144.954 
C 149.739 144.770214 149.665981 144.593931 149.536025 144.463975 
C 149.406069 144.334019 149.229786 144.261 149.046 144.261 
C 148.862214 144.261 148.685931 144.334019 148.555975 144.463975 
C 148.426019 144.593931 148.353 144.770214 148.353 144.954 
C 148.353 145.137786 148.426019 145.314069 148.555975 145.444025 
C 148.685931 145.573981 148.862214 145.647 149.046 145.647 
z
" clip-path="url(#pcbfd6c90eb)" style="fill: #c82423; stroke: #c82423; stroke-linejoin: miter"/>
   </g>
   <g id="patch_27">
    <path d="M 120.864 64.335 
C 121.047786 64.335 121.224069 64.261981 121.354025 64.132025 
C 121.483981 64.002069 121.557 63.825786 121.557 63.642 
C 121.557 63.458214 121.483981 63.281931 121.354025 63.151975 
C 121.224069 63.022019 121.047786 62.949 120.864 62.949 
C 120.680214 62.949 120.503931 63.022019 120.373975 63.151975 
C 120.244019 63.281931 120.171 63.458214 120.171 63.642 
C 120.171 63.825786 120.244019 64.002069 120.373975 64.132025 
C 120.503931 64.261981 120.680214 64.335 120.864 64.335 
z
" clip-path="url(#pcbfd6c90eb)" style="fill: #c82423; stroke: #c82423; stroke-linejoin: miter"/>
   </g>
   <g id="patch_28">
    <path d="M 85.29 62.949 
C 85.473786 62.949 85.650069 62.875981 85.780025 62.746025 
C 85.909981 62.616069 85.983 62.439786 85.983 62.256 
C 85.983 62.072214 85.909981 61.895931 85.780025 61.765975 
C 85.650069 61.636019 85.473786 61.563 85.29 61.563 
C 85.106214 61.563 84.929931 61.636019 84.799975 61.765975 
C 84.670019 61.895931 84.597 62.072214 84.597 62.256 
C 84.597 62.439786 84.670019 62.616069 84.799975 62.746025 
C 84.929931 62.875981 85.106214 62.949 85.29 62.949 
z
" clip-path="url(#pcbfd6c90eb)" style="fill: #c82423; stroke: #c82423; stroke-linejoin: miter"/>
   </g>
   <g id="patch_29">
    <path d="M 127.332 95.289 
C 127.515786 95.289 127.692069 95.215981 127.822025 95.086025 
C 127.951981 94.956069 128.025 94.779786 128.025 94.596 
C 128.025 94.412214 127.951981 94.235931 127.822025 94.105975 
C 127.692069 93.976019 127.515786 93.903 127.332 93.903 
C 127.148214 93.903 126.971931 93.976019 126.841975 94.105975 
C 126.712019 94.235931 126.639 94.412214 126.639 94.596 
C 126.639 94.779786 126.712019 94.956069 126.841975 95.086025 
C 126.971931 95.215981 127.148214 95.289 127.332 95.289 
z
" clip-path="url(#pcbfd6c90eb)" style="fill: #c82423; stroke: #c82423; stroke-linejoin: miter"/>
   </g>
   <g id="patch_30">
    <path d="M 192.012 99.447 
C 192.195786 99.447 192.372069 99.373981 192.502025 99.244025 
C 192.631981 99.114069 192.705 98.937786 192.705 98.754 
C 192.705 98.570214 192.631981 98.393931 192.502025 98.263975 
C 192.372069 98.134019 192.195786 98.061 192.012 98.061 
C 191.828214 98.061 191.651931 98.134019 191.521975 98.263975 
C 191.392019 98.393931 191.319 98.570214 191.319 98.754 
C 191.319 98.937786 191.392019 99.114069 191.521975 99.244025 
C 191.651931 99.373981 191.828214 99.447 192.012 99.447 
z
" clip-path="url(#pcbfd6c90eb)" style="fill: #c82423; stroke: #c82423; stroke-linejoin: miter"/>
   </g>
   <g id="patch_31">
    <path d="M 54.798 123.009 
C 54.981786 123.009 55.158069 122.935981 55.288025 122.806025 
C 55.417981 122.676069 55.491 122.499786 55.491 122.316 
C 55.491 122.132214 55.417981 121.955931 55.288025 121.825975 
C 55.158069 121.696019 54.981786 121.623 54.798 121.623 
C 54.614214 121.623 54.437931 121.696019 54.307975 121.825975 
C 54.178019 121.955931 54.105 122.132214 54.105 122.316 
C 54.105 122.499786 54.178019 122.676069 54.307975 122.806025 
C 54.437931 122.935981 54.614214 123.009 54.798 123.009 
z
" clip-path="url(#pcbfd6c90eb)" style="fill: #c82423; stroke: #c82423; stroke-linejoin: miter"/>
   </g>
   <g id="patch_32">
    <path d="M 159.672 98.985 
C 159.855786 98.985 160.032069 98.911981 160.162025 98.782025 
C 160.291981 98.652069 160.365 98.475786 160.365 98.292 
C 160.365 98.108214 160.291981 97.931931 160.162025 97.801975 
C 160.032069 97.672019 159.855786 97.599 159.672 97.599 
C 159.488214 97.599 159.311931 97.672019 159.181975 97.801975 
C 159.052019 97.931931 158.979 98.108214 158.979 98.292 
C 158.979 98.475786 159.052019 98.652069 159.181975 98.782025 
C 159.311931 98.911981 159.488214 98.985 159.672 98.985 
z
" clip-path="url(#pcbfd6c90eb)" style="fill: #c82423; stroke: #c82423; stroke-linejoin: miter"/>
   </g>
   <g id="patch_33">
    <path d="M 149.508 127.167 
C 149.691786 127.167 149.868069 127.093981 149.998025 126.964025 
C 150.127981 126.834069 150.201 126.657786 150.201 126.474 
C 150.201 126.290214 150.127981 126.113931 149.998025 125.983975 
C 149.868069 125.854019 149.691786 125.781 149.508 125.781 
C 149.324214 125.781 149.147931 125.854019 149.017975 125.983975 
C 148.888019 126.113931 148.815 126.290214 148.815 126.474 
C 148.815 126.657786 148.888019 126.834069 149.017975 126.964025 
C 149.147931 127.093981 149.324214 127.167 149.508 127.167 
z
" clip-path="url(#pcbfd6c90eb)" style="fill: #c82423; stroke: #c82423; stroke-linejoin: miter"/>
   </g>
   <g id="patch_34">
    <path d="M 77.436 50.475 
C 77.619786 50.475 77.796069 50.401981 77.926025 50.272025 
C 78.055981 50.142069 78.129 49.965786 78.129 49.782 
C 78.129 49.598214 78.055981 49.421931 77.926025 49.291975 
C 77.796069 49.162019 77.619786 49.089 77.436 49.089 
C 77.252214 49.089 77.075931 49.162019 76.945975 49.291975 
C 76.816019 49.421931 76.743 49.598214 76.743 49.782 
C 76.743 49.965786 76.816019 50.142069 76.945975 50.272025 
C 77.075931 50.401981 77.252214 50.475 77.436 50.475 
z
" clip-path="url(#pcbfd6c90eb)" style="fill: #c82423; stroke: #c82423; stroke-linejoin: miter"/>
   </g>
   <g id="patch_35">
    <path d="M 130.104 126.243 
C 130.287786 126.243 130.464069 126.169981 130.594025 126.040025 
C 130.723981 125.910069 130.797 125.733786 130.797 125.55 
C 130.797 125.366214 130.723981 125.189931 130.594025 125.059975 
C 130.464069 124.930019 130.287786 124.857 130.104 124.857 
C 129.920214 124.857 129.743931 124.930019 129.613975 125.059975 
C 129.484019 125.189931 129.411 125.366214 129.411 125.55 
C 129.411 125.733786 129.484019 125.910069 129.613975 126.040025 
C 129.743931 126.169981 129.920214 126.243 130.104 126.243 
z
" clip-path="url(#pcbfd6c90eb)" style="fill: #c82423; stroke: #c82423; stroke-linejoin: miter"/>
   </g>
   <g id="patch_36">
    <path d="M 118.092 20.445 
C 118.275786 20.445 118.452069 20.371981 118.582025 20.242025 
C 118.711981 20.112069 118.785 19.935786 118.785 19.752 
C 118.785 19.568214 118.711981 19.391931 118.582025 19.261975 
C 118.452069 19.132019 118.275786 19.059 118.092 19.059 
C 117.908214 19.059 117.731931 19.132019 117.601975 19.261975 
C 117.472019 19.391931 117.399 19.568214 117.399 19.752 
C 117.399 19.935786 117.472019 20.112069 117.601975 20.242025 
C 117.731931 20.371981 117.908214 20.445 118.092 20.445 
z
" clip-path="url(#pcbfd6c90eb)" style="fill: #c82423; stroke: #c82423; stroke-linejoin: miter"/>
   </g>
   <g id="patch_37">
    <path d="M 104.232 54.171 
C 104.415786 54.171 104.592069 54.097981 104.722025 53.968025 
C 104.851981 53.838069 104.925 53.661786 104.925 53.478 
C 104.925 53.294214 104.851981 53.117931 104.722025 52.987975 
C 104.592069 52.858019 104.415786 52.785 104.232 52.785 
C 104.048214 52.785 103.871931 52.858019 103.741975 52.987975 
C 103.612019 53.117931 103.539 53.294214 103.539 53.478 
C 103.539 53.661786 103.612019 53.838069 103.741975 53.968025 
C 103.871931 54.097981 104.048214 54.171 104.232 54.171 
z
" clip-path="url(#pcbfd6c90eb)" style="fill: #c82423; stroke: #c82423; stroke-linejoin: miter"/>
   </g>
   <g id="patch_38">
    <path d="M 175.842 32.457 
C 176.025786 32.457 176.202069 32.383981 176.332025 32.254025 
C 176.461981 32.124069 176.535 31.947786 176.535 31.764 
C 176.535 31.580214 176.461981 31.403931 176.332025 31.273975 
C 176.202069 31.144019 176.025786 31.071 175.842 31.071 
C 175.658214 31.071 175.481931 31.144019 175.351975 31.273975 
C 175.222019 31.403931 175.149 31.580214 175.149 31.764 
C 175.149 31.947786 175.222019 32.124069 175.351975 32.254025 
C 175.481931 32.383981 175.658214 32.457 175.842 32.457 
z
" clip-path="url(#pcbfd6c90eb)" style="fill: #c82423; stroke: #c82423; stroke-linejoin: miter"/>
   </g>
   <g id="patch_39">
    <path d="M 137.496 51.861 
C 137.679786 51.861 137.856069 51.787981 137.986025 51.658025 
C 138.115981 51.528069 138.189 51.351786 138.189 51.168 
C 138.189 50.984214 138.115981 50.807931 137.986025 50.677975 
C 137.856069 50.548019 137.679786 50.475 137.496 50.475 
C 137.312214 50.475 137.135931 50.548019 137.005975 50.677975 
C 136.876019 50.807931 136.803 50.984214 136.803 51.168 
C 136.803 51.351786 136.876019 51.528069 137.005975 51.658025 
C 137.135931 51.787981 137.312214 51.861 137.496 51.861 
z
" clip-path="url(#pcbfd6c90eb)" style="fill: #c82423; stroke: #c82423; stroke-linejoin: miter"/>
   </g>
   <g id="patch_40">
    <path d="M 190.164 68.493 
C 190.347786 68.493 190.524069 68.419981 190.654025 68.290025 
C 190.783981 68.160069 190.857 67.983786 190.857 67.8 
C 190.857 67.616214 190.783981 67.439931 190.654025 67.309975 
C 190.524069 67.180019 190.347786 67.107 190.164 67.107 
C 189.980214 67.107 189.803931 67.180019 189.673975 67.309975 
C 189.544019 67.439931 189.471 67.616214 189.471 67.8 
C 189.471 67.983786 189.544019 68.160069 189.673975 68.290025 
C 189.803931 68.419981 189.980214 68.493 190.164 68.493 
z
" clip-path="url(#pcbfd6c90eb)" style="fill: #c82423; stroke: #c82423; stroke-linejoin: miter"/>
   </g>
   <g id="patch_41">
    <path d="M 58.956 67.107 
C 59.139786 67.107 59.316069 67.033981 59.446025 66.904025 
C 59.575981 66.774069 59.649 66.597786 59.649 66.414 
C 59.649 66.230214 59.575981 66.053931 59.446025 65.923975 
C 59.316069 65.794019 59.139786 65.721 58.956 65.721 
C 58.772214 65.721 58.595931 65.794019 58.465975 65.923975 
C 58.336019 66.053931 58.263 66.230214 58.263 66.414 
C 58.263 66.597786 58.336019 66.774069 58.465975 66.904025 
C 58.595931 67.033981 58.772214 67.107 58.956 67.107 
z
" clip-path="url(#pcbfd6c90eb)" style="fill: #c82423; stroke: #c82423; stroke-linejoin: miter"/>
   </g>
   <g id="patch_42">
    <path d="M 113.472 122.085 
C 113.655786 122.085 113.832069 122.011981 113.962025 121.882025 
C 114.091981 121.752069 114.165 121.575786 114.165 121.392 
C 114.165 121.208214 114.091981 121.031931 113.962025 120.901975 
C 113.832069 120.772019 113.655786 120.699 113.472 120.699 
C 113.288214 120.699 113.111931 120.772019 112.981975 120.901975 
C 112.852019 121.031931 112.779 121.208214 112.779 121.392 
C 112.779 121.575786 112.852019 121.752069 112.981975 121.882025 
C 113.111931 122.011981 113.288214 122.085 113.472 122.085 
z
" clip-path="url(#pcbfd6c90eb)" style="fill: #c82423; stroke: #c82423; stroke-linejoin: miter"/>
   </g>
   <g id="patch_43">
    <path d="M 150.894 109.611 
C 151.077786 109.611 151.254069 109.537981 151.384025 109.408025 
C 151.513981 109.278069 151.587 109.101786 151.587 108.918 
C 151.587 108.734214 151.513981 108.557931 151.384025 108.427975 
C 151.254069 108.298019 151.077786 108.225 150.894 108.225 
C 150.710214 108.225 150.533931 108.298019 150.403975 108.427975 
C 150.274019 108.557931 150.201 108.734214 150.201 108.918 
C 150.201 109.101786 150.274019 109.278069 150.403975 109.408025 
C 150.533931 109.537981 150.710214 109.611 150.894 109.611 
z
" clip-path="url(#pcbfd6c90eb)" style="fill: #c82423; stroke: #c82423; stroke-linejoin: miter"/>
   </g>
   <g id="patch_44">
    <path d="M 114.858 56.019 
C 115.041786 56.019 115.218069 55.945981 115.348025 55.816025 
C 115.477981 55.686069 115.551 55.509786 115.551 55.326 
C 115.551 55.142214 115.477981 54.965931 115.348025 54.835975 
C 115.218069 54.706019 115.041786 54.633 114.858 54.633 
C 114.674214 54.633 114.497931 54.706019 114.367975 54.835975 
C 114.238019 54.965931 114.165 55.142214 114.165 55.326 
C 114.165 55.509786 114.238019 55.686069 114.367975 55.816025 
C 114.497931 55.945981 114.674214 56.019 114.858 56.019 
z
" clip-path="url(#pcbfd6c90eb)" style="fill: #c82423; stroke: #c82423; stroke-linejoin: miter"/>
   </g>
   <g id="patch_45">
    <path d="M 187.854 132.711 
C 188.037786 132.711 188.214069 132.637981 188.344025 132.508025 
C 188.473981 132.378069 188.547 132.201786 188.547 132.018 
C 188.547 131.834214 188.473981 131.657931 188.344025 131.527975 
C 188.214069 131.398019 188.037786 131.325 187.854 131.325 
C 187.670214 131.325 187.493931 131.398019 187.363975 131.527975 
C 187.234019 131.657931 187.161 131.834214 187.161 132.018 
C 187.161 132.201786 187.234019 132.378069 187.363975 132.508025 
C 187.493931 132.637981 187.670214 132.711 187.854 132.711 
z
" clip-path="url(#pcbfd6c90eb)" style="fill: #c82423; stroke: #c82423; stroke-linejoin: miter"/>
   </g>
   <g id="patch_46">
    <path d="M 161.058 10.743 
C 161.241786 10.743 161.418069 10.669981 161.548025 10.540025 
C 161.677981 10.410069 161.751 10.233786 161.751 10.05 
C 161.751 9.866214 161.677981 9.689931 161.548025 9.559975 
C 161.418069 9.430019 161.241786 9.357 161.058 9.357 
C 160.874214 9.357 160.697931 9.430019 160.567975 9.559975 
C 160.438019 9.689931 160.365 9.866214 160.365 10.05 
C 160.365 10.233786 160.438019 10.410069 160.567975 10.540025 
C 160.697931 10.669981 160.874214 10.743 161.058 10.743 
z
" clip-path="url(#pcbfd6c90eb)" style="fill: #c82423; stroke: #c82423; stroke-linejoin: miter"/>
   </g>
   <g id="patch_47">
    <path d="M 107.466 159.969 
C 107.649786 159.969 107.826069 159.895981 107.956025 159.766025 
C 108.085981 159.636069 108.159 159.459786 108.159 159.276 
C 108.159 159.092214 108.085981 158.915931 107.956025 158.785975 
C 107.826069 158.656019 107.649786 158.583 107.466 158.583 
C 107.282214 158.583 107.105931 158.656019 106.975975 158.785975 
C 106.846019 158.915931 106.773 159.092214 106.773 159.276 
C 106.773 159.459786 106.846019 159.636069 106.975975 159.766025 
C 107.105931 159.895981 107.282214 159.969 107.466 159.969 
z
" clip-path="url(#pcbfd6c90eb)" style="fill: #c82423; stroke: #c82423; stroke-linejoin: miter"/>
   </g>
   <g id="patch_48">
    <path d="M 155.976 43.083 
C 156.159786 43.083 156.336069 43.009981 156.466025 42.880025 
C 156.595981 42.750069 156.669 42.573786 156.669 42.39 
C 156.669 42.206214 156.595981 42.029931 156.466025 41.899975 
C 156.336069 41.770019 156.159786 41.697 155.976 41.697 
C 155.792214 41.697 155.615931 41.770019 155.485975 41.899975 
C 155.356019 42.029931 155.283 42.206214 155.283 42.39 
C 155.283 42.573786 155.356019 42.750069 155.485975 42.880025 
C 155.615931 43.009981 155.792214 43.083 155.976 43.083 
z
" clip-path="url(#pcbfd6c90eb)" style="fill: #c82423; stroke: #c82423; stroke-linejoin: miter"/>
   </g>
   <g id="patch_49">
    <path d="M 99.15 35.229 
C 99.333786 35.229 99.510069 35.155981 99.640025 35.026025 
C 99.769981 34.896069 99.843 34.719786 99.843 34.536 
C 99.843 34.352214 99.769981 34.175931 99.640025 34.045975 
C 99.510069 33.916019 99.333786 33.843 99.15 33.843 
C 98.966214 33.843 98.789931 33.916019 98.659975 34.045975 
C 98.530019 34.175931 98.457 34.352214 98.457 34.536 
C 98.457 34.719786 98.530019 34.896069 98.659975 35.026025 
C 98.789931 35.155981 98.966214 35.229 99.15 35.229 
z
" clip-path="url(#pcbfd6c90eb)" style="fill: #c82423; stroke: #c82423; stroke-linejoin: miter"/>
   </g>
   <g id="patch_50">
    <path d="M 66.81 80.043 
C 66.993786 80.043 67.170069 79.969981 67.300025 79.840025 
C 67.429981 79.710069 67.503 79.533786 67.503 79.35 
C 67.503 79.166214 67.429981 78.989931 67.300025 78.859975 
C 67.170069 78.730019 66.993786 78.657 66.81 78.657 
C 66.626214 78.657 66.449931 78.730019 66.319975 78.859975 
C 66.190019 78.989931 66.117 79.166214 66.117 79.35 
C 66.117 79.533786 66.190019 79.710069 66.319975 79.840025 
C 66.449931 79.969981 66.626214 80.043 66.81 80.043 
z
" clip-path="url(#pcbfd6c90eb)" style="fill: #c82423; stroke: #c82423; stroke-linejoin: miter"/>
   </g>
   <g id="patch_51">
    <path d="M 124.56 10.743 
C 124.743786 10.743 124.920069 10.669981 125.050025 10.540025 
C 125.179981 10.410069 125.253 10.233786 125.253 10.05 
C 125.253 9.866214 125.179981 9.689931 125.050025 9.559975 
C 124.920069 9.430019 124.743786 9.357 124.56 9.357 
C 124.376214 9.357 124.199931 9.430019 124.069975 9.559975 
C 123.940019 9.689931 123.867 9.866214 123.867 10.05 
C 123.867 10.233786 123.940019 10.410069 124.069975 10.540025 
C 124.199931 10.669981 124.376214 10.743 124.56 10.743 
z
" clip-path="url(#pcbfd6c90eb)" style="fill: #c82423; stroke: #c82423; stroke-linejoin: miter"/>
   </g>
   <g id="patch_52">
    <path d="M 113.472 120.699 
C 113.655786 120.699 113.832069 120.625981 113.962025 120.496025 
C 114.091981 120.366069 114.165 120.189786 114.165 120.006 
C 114.165 119.822214 114.091981 119.645931 113.962025 119.515975 
C 113.832069 119.386019 113.655786 119.313 113.472 119.313 
C 113.288214 119.313 113.111931 119.386019 112.981975 119.515975 
C 112.852019 119.645931 112.779 119.822214 112.779 120.006 
C 112.779 120.189786 112.852019 120.366069 112.981975 120.496025 
C 113.111931 120.625981 113.288214 120.699 113.472 120.699 
z
" clip-path="url(#pcbfd6c90eb)" style="fill: #c82423; stroke: #c82423; stroke-linejoin: miter"/>
   </g>
   <g id="patch_53">
    <path d="M 179.538 22.755 
C 179.721786 22.755 179.898069 22.681981 180.028025 22.552025 
C 180.157981 22.422069 180.231 22.245786 180.231 22.062 
C 180.231 21.878214 180.157981 21.701931 180.028025 21.571975 
C 179.898069 21.442019 179.721786 21.369 179.538 21.369 
C 179.354214 21.369 179.177931 21.442019 179.047975 21.571975 
C 178.918019 21.701931 178.845 21.878214 178.845 22.062 
C 178.845 22.245786 178.918019 22.422069 179.047975 22.552025 
C 179.177931 22.681981 179.354214 22.755 179.538 22.755 
z
" clip-path="url(#pcbfd6c90eb)" style="fill: #3b5284; stroke: #3b5284; stroke-linejoin: miter"/>
   </g>
   <g id="patch_54">
    <path d="M 133.338 74.961 
C 133.521786 74.961 133.698069 74.887981 133.828025 74.758025 
C 133.957981 74.628069 134.031 74.451786 134.031 74.268 
C 134.031 74.084214 133.957981 73.907931 133.828025 73.777975 
C 133.698069 73.648019 133.521786 73.575 133.338 73.575 
C 133.154214 73.575 132.977931 73.648019 132.847975 73.777975 
C 132.718019 73.907931 132.645 74.084214 132.645 74.268 
C 132.645 74.451786 132.718019 74.628069 132.847975 74.758025 
C 132.977931 74.887981 133.154214 74.961 133.338 74.961 
z
" clip-path="url(#pcbfd6c90eb)" style="fill: #3b5284; stroke: #3b5284; stroke-linejoin: miter"/>
   </g>
   <g id="patch_55">
    <path d="M 113.472 80.505 
C 113.655786 80.505 113.832069 80.431981 113.962025 80.302025 
C 114.091981 80.172069 114.165 79.995786 114.165 79.812 
C 114.165 79.628214 114.091981 79.451931 113.962025 79.321975 
C 113.832069 79.192019 113.655786 79.119 113.472 79.119 
C 113.288214 79.119 113.111931 79.192019 112.981975 79.321975 
C 112.852019 79.451931 112.779 79.628214 112.779 79.812 
C 112.779 79.995786 112.852019 80.172069 112.981975 80.302025 
C 113.111931 80.431981 113.288214 80.505 113.472 80.505 
z
" clip-path="url(#pcbfd6c90eb)" style="fill: #3b5284; stroke: #3b5284; stroke-linejoin: miter"/>
   </g>
   <g id="patch_56">
    <path d="M 161.982 124.395 
C 162.165786 124.395 162.342069 124.321981 162.472025 124.192025 
C 162.601981 124.062069 162.675 123.885786 162.675 123.702 
C 162.675 123.518214 162.601981 123.341931 162.472025 123.211975 
C 162.342069 123.082019 162.165786 123.009 161.982 123.009 
C 161.798214 123.009 161.621931 123.082019 161.491975 123.211975 
C 161.362019 123.341931 161.289 123.518214 161.289 123.702 
C 161.289 123.885786 161.362019 124.062069 161.491975 124.192025 
C 161.621931 124.321981 161.798214 124.395 161.982 124.395 
z
" clip-path="url(#pcbfd6c90eb)" style="fill: #3b5284; stroke: #3b5284; stroke-linejoin: miter"/>
   </g>
   <g id="patch_57">
    <path d="M 123.174 16.749 
C 123.357786 16.749 123.534069 16.675981 123.664025 16.546025 
C 123.793981 16.416069 123.867 16.239786 123.867 16.056 
C 123.867 15.872214 123.793981 15.695931 123.664025 15.565975 
C 123.534069 15.436019 123.357786 15.363 123.174 15.363 
C 122.990214 15.363 122.813931 15.436019 122.683975 15.565975 
C 122.554019 15.695931 122.481 15.872214 122.481 16.056 
C 122.481 16.239786 122.554019 16.416069 122.683975 16.546025 
C 122.813931 16.675981 122.990214 16.749 123.174 16.749 
z
" clip-path="url(#pcbfd6c90eb)" style="fill: #3b5284; stroke: #3b5284; stroke-linejoin: miter"/>
   </g>
   <g id="patch_58">
    <path d="M 165.216 140.565 
C 165.399786 140.565 165.576069 140.491981 165.706025 140.362025 
C 165.835981 140.232069 165.909 140.055786 165.909 139.872 
C 165.909 139.688214 165.835981 139.511931 165.706025 139.381975 
C 165.576069 139.252019 165.399786 139.179 165.216 139.179 
C 165.032214 139.179 164.855931 139.252019 164.725975 139.381975 
C 164.596019 139.511931 164.523 139.688214 164.523 139.872 
C 164.523 140.055786 164.596019 140.232069 164.725975 140.362025 
C 164.855931 140.491981 165.032214 140.565 165.216 140.565 
z
" clip-path="url(#pcbfd6c90eb)" style="fill: #3b5284; stroke: #3b5284; stroke-linejoin: miter"/>
   </g>
   <g id="patch_59">
    <path d="M 101.46 30.609 
C 101.643786 30.609 101.820069 30.535981 101.950025 30.406025 
C 102.079981 30.276069 102.153 30.099786 102.153 29.916 
C 102.153 29.732214 102.079981 29.555931 101.950025 29.425975 
C 101.820069 29.296019 101.643786 29.223 101.46 29.223 
C 101.276214 29.223 101.099931 29.296019 100.969975 29.425975 
C 100.840019 29.555931 100.767 29.732214 100.767 29.916 
C 100.767 30.099786 100.840019 30.276069 100.969975 30.406025 
C 101.099931 30.535981 101.276214 30.609 101.46 30.609 
z
" clip-path="url(#pcbfd6c90eb)" style="fill: #3b5284; stroke: #3b5284; stroke-linejoin: miter"/>
   </g>
   <g id="patch_60">
    <path d="M 80.67 21.831 
C 80.853786 21.831 81.030069 21.757981 81.160025 21.628025 
C 81.289981 21.498069 81.363 21.321786 81.363 21.138 
C 81.363 20.954214 81.289981 20.777931 81.160025 20.647975 
C 81.030069 20.518019 80.853786 20.445 80.67 20.445 
C 80.486214 20.445 80.309931 20.518019 80.179975 20.647975 
C 80.050019 20.777931 79.977 20.954214 79.977 21.138 
C 79.977 21.321786 80.050019 21.498069 80.179975 21.628025 
C 80.309931 21.757981 80.486214 21.831 80.67 21.831 
z
" clip-path="url(#pcbfd6c90eb)" style="fill: #3b5284; stroke: #3b5284; stroke-linejoin: miter"/>
   </g>
   <g id="patch_61">
    <path d="M 110.238 70.803 
C 110.421786 70.803 110.598069 70.729981 110.728025 70.600025 
C 110.857981 70.470069 110.931 70.293786 110.931 70.11 
C 110.931 69.926214 110.857981 69.749931 110.728025 69.619975 
C 110.598069 69.490019 110.421786 69.417 110.238 69.417 
C 110.054214 69.417 109.877931 69.490019 109.747975 69.619975 
C 109.618019 69.749931 109.545 69.926214 109.545 70.11 
C 109.545 70.293786 109.618019 70.470069 109.747975 70.600025 
C 109.877931 70.729981 110.054214 70.803 110.238 70.803 
z
" clip-path="url(#pcbfd6c90eb)" style="fill: #3b5284; stroke: #3b5284; stroke-linejoin: miter"/>
   </g>
   <g id="patch_62">
    <path d="M 89.91 54.171 
C 90.093786 54.171 90.270069 54.097981 90.400025 53.968025 
C 90.529981 53.838069 90.603 53.661786 90.603 53.478 
C 90.603 53.294214 90.529981 53.117931 90.400025 52.987975 
C 90.270069 52.858019 90.093786 52.785 89.91 52.785 
C 89.726214 52.785 89.549931 52.858019 89.419975 52.987975 
C 89.290019 53.117931 89.217 53.294214 89.217 53.478 
C 89.217 53.661786 89.290019 53.838069 89.419975 53.968025 
C 89.549931 54.097981 89.726214 54.171 89.91 54.171 
z
" clip-path="url(#pcbfd6c90eb)" style="fill: #3b5284; stroke: #3b5284; stroke-linejoin: miter"/>
   </g>
   <g id="patch_63">
    <path d="M 184.62 129.939 
C 184.803786 129.939 184.980069 129.865981 185.110025 129.736025 
C 185.239981 129.606069 185.313 129.429786 185.313 129.246 
C 185.313 129.062214 185.239981 128.885931 185.110025 128.755975 
C 184.980069 128.626019 184.803786 128.553 184.62 128.553 
C 184.436214 128.553 184.259931 128.626019 184.129975 128.755975 
C 184.000019 128.885931 183.927 129.062214 183.927 129.246 
C 183.927 129.429786 184.000019 129.606069 184.129975 129.736025 
C 184.259931 129.865981 184.436214 129.939 184.62 129.939 
z
" clip-path="url(#pcbfd6c90eb)" style="fill: #3b5284; stroke: #3b5284; stroke-linejoin: miter"/>
   </g>
   <g id="patch_64">
    <path d="M 169.836 60.639 
C 170.019786 60.639 170.196069 60.565981 170.326025 60.436025 
C 170.455981 60.306069 170.529 60.129786 170.529 59.946 
C 170.529 59.762214 170.455981 59.585931 170.326025 59.455975 
C 170.196069 59.326019 170.019786 59.253 169.836 59.253 
C 169.652214 59.253 169.475931 59.326019 169.345975 59.455975 
C 169.216019 59.585931 169.143 59.762214 169.143 59.946 
C 169.143 60.129786 169.216019 60.306069 169.345975 60.436025 
C 169.475931 60.565981 169.652214 60.639 169.836 60.639 
z
" clip-path="url(#pcbfd6c90eb)" style="fill: #3b5284; stroke: #3b5284; stroke-linejoin: miter"/>
   </g>
   <g id="patch_65">
    <path d="M 67.734 23.679 
C 67.917786 23.679 68.094069 23.605981 68.224025 23.476025 
C 68.353981 23.346069 68.427 23.169786 68.427 22.986 
C 68.427 22.802214 68.353981 22.625931 68.224025 22.495975 
C 68.094069 22.366019 67.917786 22.293 67.734 22.293 
C 67.550214 22.293 67.373931 22.366019 67.243975 22.495975 
C 67.114019 22.625931 67.041 22.802214 67.041 22.986 
C 67.041 23.169786 67.114019 23.346069 67.243975 23.476025 
C 67.373931 23.605981 67.550214 23.679 67.734 23.679 
z
" clip-path="url(#pcbfd6c90eb)" style="fill: #3b5284; stroke: #3b5284; stroke-linejoin: miter"/>
   </g>
   <g id="patch_66">
    <path d="M 107.466 62.949 
C 107.649786 62.949 107.826069 62.875981 107.956025 62.746025 
C 108.085981 62.616069 108.159 62.439786 108.159 62.256 
C 108.159 62.072214 108.085981 61.895931 107.956025 61.765975 
C 107.826069 61.636019 107.649786 61.563 107.466 61.563 
C 107.282214 61.563 107.105931 61.636019 106.975975 61.765975 
C 106.846019 61.895931 106.773 62.072214 106.773 62.256 
C 106.773 62.439786 106.846019 62.616069 106.975975 62.746025 
C 107.105931 62.875981 107.282214 62.949 107.466 62.949 
z
" clip-path="url(#pcbfd6c90eb)" style="fill: #3b5284; stroke: #3b5284; stroke-linejoin: miter"/>
   </g>
   <g id="patch_67">
    <path d="M 107.928 114.231 
C 108.111786 114.231 108.288069 114.157981 108.418025 114.028025 
C 108.547981 113.898069 108.621 113.721786 108.621 113.538 
C 108.621 113.354214 108.547981 113.177931 108.418025 113.047975 
C 108.288069 112.918019 108.111786 112.845 107.928 112.845 
C 107.744214 112.845 107.567931 112.918019 107.437975 113.047975 
C 107.308019 113.177931 107.235 113.354214 107.235 113.538 
C 107.235 113.721786 107.308019 113.898069 107.437975 114.028025 
C 107.567931 114.157981 107.744214 114.231 107.928 114.231 
z
" clip-path="url(#pcbfd6c90eb)" style="fill: #3b5284; stroke: #3b5284; stroke-linejoin: miter"/>
   </g>
   <g id="patch_68">
    <path d="M 122.25 54.633 
C 122.433786 54.633 122.610069 54.559981 122.740025 54.430025 
C 122.869981 54.300069 122.943 54.123786 122.943 53.94 
C 122.943 53.756214 122.869981 53.579931 122.740025 53.449975 
C 122.610069 53.320019 122.433786 53.247 122.25 53.247 
C 122.066214 53.247 121.889931 53.320019 121.759975 53.449975 
C 121.630019 53.579931 121.557 53.756214 121.557 53.94 
C 121.557 54.123786 121.630019 54.300069 121.759975 54.430025 
C 121.889931 54.559981 122.066214 54.633 122.25 54.633 
z
" clip-path="url(#pcbfd6c90eb)" style="fill: #3b5284; stroke: #3b5284; stroke-linejoin: miter"/>
   </g>
   <g id="patch_69">
    <path d="M 153.204 61.563 
C 153.387786 61.563 153.564069 61.489981 153.694025 61.360025 
C 153.823981 61.230069 153.897 61.053786 153.897 60.87 
C 153.897 60.686214 153.823981 60.509931 153.694025 60.379975 
C 153.564069 60.250019 153.387786 60.177 153.204 60.177 
C 153.020214 60.177 152.843931 60.250019 152.713975 60.379975 
C 152.584019 60.509931 152.511 60.686214 152.511 60.87 
C 152.511 61.053786 152.584019 61.230069 152.713975 61.360025 
C 152.843931 61.489981 153.020214 61.563 153.204 61.563 
z
" clip-path="url(#pcbfd6c90eb)" style="fill: #3b5284; stroke: #3b5284; stroke-linejoin: miter"/>
   </g>
   <g id="patch_70">
    <path d="M 72.354 56.019 
C 72.537786 56.019 72.714069 55.945981 72.844025 55.816025 
C 72.973981 55.686069 73.047 55.509786 73.047 55.326 
C 73.047 55.142214 72.973981 54.965931 72.844025 54.835975 
C 72.714069 54.706019 72.537786 54.633 72.354 54.633 
C 72.170214 54.633 71.993931 54.706019 71.863975 54.835975 
C 71.734019 54.965931 71.661 55.142214 71.661 55.326 
C 71.661 55.509786 71.734019 55.686069 71.863975 55.816025 
C 71.993931 55.945981 72.170214 56.019 72.354 56.019 
z
" clip-path="url(#pcbfd6c90eb)" style="fill: #3b5284; stroke: #3b5284; stroke-linejoin: miter"/>
   </g>
   <g id="patch_71">
    <path d="M 96.378 123.933 
C 96.561786 123.933 96.738069 123.859981 96.868025 123.730025 
C 96.997981 123.600069 97.071 123.423786 97.071 123.24 
C 97.071 123.056214 96.997981 122.879931 96.868025 122.749975 
C 96.738069 122.620019 96.561786 122.547 96.378 122.547 
C 96.194214 122.547 96.017931 122.620019 95.887975 122.749975 
C 95.758019 122.879931 95.685 123.056214 95.685 123.24 
C 95.685 123.423786 95.758019 123.600069 95.887975 123.730025 
C 96.017931 123.859981 96.194214 123.933 96.378 123.933 
z
" clip-path="url(#pcbfd6c90eb)" style="fill: #3b5284; stroke: #3b5284; stroke-linejoin: miter"/>
   </g>
   <g id="patch_72">
    <path d="M 57.57 90.207 
C 57.753786 90.207 57.930069 90.133981 58.060025 90.004025 
C 58.189981 89.874069 58.263 89.697786 58.263 89.514 
C 58.263 89.330214 58.189981 89.153931 58.060025 89.023975 
C 57.930069 88.894019 57.753786 88.821 57.57 88.821 
C 57.386214 88.821 57.209931 88.894019 57.079975 89.023975 
C 56.950019 89.153931 56.877 89.330214 56.877 89.514 
C 56.877 89.697786 56.950019 89.874069 57.079975 90.004025 
C 57.209931 90.133981 57.386214 90.207 57.57 90.207 
z
" clip-path="url(#pcbfd6c90eb)" style="fill: #3b5284; stroke: #3b5284; stroke-linejoin: miter"/>
   </g>
   <g id="patch_73">
    <path d="M 179.538 37.077 
C 179.721786 37.077 179.898069 37.003981 180.028025 36.874025 
C 180.157981 36.744069 180.231 36.567786 180.231 36.384 
C 180.231 36.200214 180.157981 36.023931 180.028025 35.893975 
C 179.898069 35.764019 179.721786 35.691 179.538 35.691 
C 179.354214 35.691 179.177931 35.764019 179.047975 35.893975 
C 178.918019 36.023931 178.845 36.200214 178.845 36.384 
C 178.845 36.567786 178.918019 36.744069 179.047975 36.874025 
C 179.177931 37.003981 179.354214 37.077 179.538 37.077 
z
" clip-path="url(#pcbfd6c90eb)" style="fill: #3b5284; stroke: #3b5284; stroke-linejoin: miter"/>
   </g>
   <g id="patch_74">
    <path d="M 94.992 64.797 
C 95.175786 64.797 95.352069 64.723981 95.482025 64.594025 
C 95.611981 64.464069 95.685 64.287786 95.685 64.104 
C 95.685 63.920214 95.611981 63.743931 95.482025 63.613975 
C 95.352069 63.484019 95.175786 63.411 94.992 63.411 
C 94.808214 63.411 94.631931 63.484019 94.501975 63.613975 
C 94.372019 63.743931 94.299 63.920214 94.299 64.104 
C 94.299 64.287786 94.372019 64.464069 94.501975 64.594025 
C 94.631931 64.723981 94.808214 64.797 94.992 64.797 
z
" clip-path="url(#pcbfd6c90eb)" style="fill: #3b5284; stroke: #3b5284; stroke-linejoin: miter"/>
   </g>
   <g id="patch_75">
    <path d="M 125.022 16.749 
C 125.205786 16.749 125.382069 16.675981 125.512025 16.546025 
C 125.641981 16.416069 125.715 16.239786 125.715 16.056 
C 125.715 15.872214 125.641981 15.695931 125.512025 15.565975 
C 125.382069 15.436019 125.205786 15.363 125.022 15.363 
C 124.838214 15.363 124.661931 15.436019 124.531975 15.565975 
C 124.402019 15.695931 124.329 15.872214 124.329 16.056 
C 124.329 16.239786 124.402019 16.416069 124.531975 16.546025 
C 124.661931 16.675981 124.838214 16.749 125.022 16.749 
z
" clip-path="url(#pcbfd6c90eb)" style="fill: #3b5284; stroke: #3b5284; stroke-linejoin: miter"/>
   </g>
   <g id="patch_76">
    <path d="M 58.032 149.343 
C 58.215786 149.343 58.392069 149.269981 58.522025 149.140025 
C 58.651981 149.010069 58.725 148.833786 58.725 148.65 
C 58.725 148.466214 58.651981 148.289931 58.522025 148.159975 
C 58.392069 148.030019 58.215786 147.957 58.032 147.957 
C 57.848214 147.957 57.671931 148.030019 57.541975 148.159975 
C 57.412019 148.289931 57.339 148.466214 57.339 148.65 
C 57.339 148.833786 57.412019 149.010069 57.541975 149.140025 
C 57.671931 149.269981 57.848214 149.343 58.032 149.343 
z
" clip-path="url(#pcbfd6c90eb)" style="fill: #3b5284; stroke: #3b5284; stroke-linejoin: miter"/>
   </g>
   <g id="patch_77">
    <path d="M 117.168 120.237 
C 117.351786 120.237 117.528069 120.163981 117.658025 120.034025 
C 117.787981 119.904069 117.861 119.727786 117.861 119.544 
C 117.861 119.360214 117.787981 119.183931 117.658025 119.053975 
C 117.528069 118.924019 117.351786 118.851 117.168 118.851 
C 116.984214 118.851 116.807931 118.924019 116.677975 119.053975 
C 116.548019 119.183931 116.475 119.360214 116.475 119.544 
C 116.475 119.727786 116.548019 119.904069 116.677975 120.034025 
C 116.807931 120.163981 116.984214 120.237 117.168 120.237 
z
" clip-path="url(#pcbfd6c90eb)" style="fill: #3b5284; stroke: #3b5284; stroke-linejoin: miter"/>
   </g>
   <g id="patch_78">
    <path d="M 122.25 47.241 
C 122.433786 47.241 122.610069 47.167981 122.740025 47.038025 
C 122.869981 46.908069 122.943 46.731786 122.943 46.548 
C 122.943 46.364214 122.869981 46.187931 122.740025 46.057975 
C 122.610069 45.928019 122.433786 45.855 122.25 45.855 
C 122.066214 45.855 121.889931 45.928019 121.759975 46.057975 
C 121.630019 46.187931 121.557 46.364214 121.557 46.548 
C 121.557 46.731786 121.630019 46.908069 121.759975 47.038025 
C 121.889931 47.167981 122.066214 47.241 122.25 47.241 
z
" clip-path="url(#pcbfd6c90eb)" style="fill: #3b5284; stroke: #3b5284; stroke-linejoin: miter"/>
   </g>
   <g id="patch_79">
    <path d="M 41.862 15.825 
C 42.045786 15.825 42.222069 15.751981 42.352025 15.622025 
C 42.481981 15.492069 42.555 15.315786 42.555 15.132 
C 42.555 14.948214 42.481981 14.771931 42.352025 14.641975 
C 42.222069 14.512019 42.045786 14.439 41.862 14.439 
C 41.678214 14.439 41.501931 14.512019 41.371975 14.641975 
C 41.242019 14.771931 41.169 14.948214 41.169 15.132 
C 41.169 15.315786 41.242019 15.492069 41.371975 15.622025 
C 41.501931 15.751981 41.678214 15.825 41.862 15.825 
z
" clip-path="url(#pcbfd6c90eb)" style="fill: #3b5284; stroke: #3b5284; stroke-linejoin: miter"/>
   </g>
   <g id="patch_80">
    <path d="M 162.444 35.229 
C 162.627786 35.229 162.804069 35.155981 162.934025 35.026025 
C 163.063981 34.896069 163.137 34.719786 163.137 34.536 
C 163.137 34.352214 163.063981 34.175931 162.934025 34.045975 
C 162.804069 33.916019 162.627786 33.843 162.444 33.843 
C 162.260214 33.843 162.083931 33.916019 161.953975 34.045975 
C 161.824019 34.175931 161.751 34.352214 161.751 34.536 
C 161.751 34.719786 161.824019 34.896069 161.953975 35.026025 
C 162.083931 35.155981 162.260214 35.229 162.444 35.229 
z
" clip-path="url(#pcbfd6c90eb)" style="fill: #3b5284; stroke: #3b5284; stroke-linejoin: miter"/>
   </g>
   <g id="patch_81">
    <path d="M 105.156 133.173 
C 105.339786 133.173 105.516069 133.099981 105.646025 132.970025 
C 105.775981 132.840069 105.849 132.663786 105.849 132.48 
C 105.849 132.296214 105.775981 132.119931 105.646025 131.989975 
C 105.516069 131.860019 105.339786 131.787 105.156 131.787 
C 104.972214 131.787 104.795931 131.860019 104.665975 131.989975 
C 104.536019 132.119931 104.463 132.296214 104.463 132.48 
C 104.463 132.663786 104.536019 132.840069 104.665975 132.970025 
C 104.795931 133.099981 104.972214 133.173 105.156 133.173 
z
" clip-path="url(#pcbfd6c90eb)" style="fill: #3b5284; stroke: #3b5284; stroke-linejoin: miter"/>
   </g>
   <g id="patch_82">
    <path d="M 61.266 31.533 
C 61.449786 31.533 61.626069 31.459981 61.756025 31.330025 
C 61.885981 31.200069 61.959 31.023786 61.959 30.84 
C 61.959 30.656214 61.885981 30.479931 61.756025 30.349975 
C 61.626069 30.220019 61.449786 30.147 61.266 30.147 
C 61.082214 30.147 60.905931 30.220019 60.775975 30.349975 
C 60.646019 30.479931 60.573 30.656214 60.573 30.84 
C 60.573 31.023786 60.646019 31.200069 60.775975 31.330025 
C 60.905931 31.459981 61.082214 31.533 61.266 31.533 
z
" clip-path="url(#pcbfd6c90eb)" style="fill: #3b5284; stroke: #3b5284; stroke-linejoin: miter"/>
   </g>
   <g id="patch_83">
    <path d="M 100.536 8.433 
C 100.719786 8.433 100.896069 8.359981 101.026025 8.230025 
C 101.155981 8.100069 101.229 7.923786 101.229 7.74 
C 101.229 7.556214 101.155981 7.379931 101.026025 7.249975 
C 100.896069 7.120019 100.719786 7.047 100.536 7.047 
C 100.352214 7.047 100.175931 7.120019 100.045975 7.249975 
C 99.916019 7.379931 99.843 7.556214 99.843 7.74 
C 99.843 7.923786 99.916019 8.100069 100.045975 8.230025 
C 100.175931 8.359981 100.352214 8.433 100.536 8.433 
z
" clip-path="url(#pcbfd6c90eb)" style="fill: #3b5284; stroke: #3b5284; stroke-linejoin: miter"/>
   </g>
   <g id="patch_84">
    <path d="M 83.904 74.037 
C 84.087786 74.037 84.264069 73.963981 84.394025 73.834025 
C 84.523981 73.704069 84.597 73.527786 84.597 73.344 
C 84.597 73.160214 84.523981 72.983931 84.394025 72.853975 
C 84.264069 72.724019 84.087786 72.651 83.904 72.651 
C 83.720214 72.651 83.543931 72.724019 83.413975 72.853975 
C 83.284019 72.983931 83.211 73.160214 83.211 73.344 
C 83.211 73.527786 83.284019 73.704069 83.413975 73.834025 
C 83.543931 73.963981 83.720214 74.037 83.904 74.037 
z
" clip-path="url(#pcbfd6c90eb)" style="fill: #3b5284; stroke: #3b5284; stroke-linejoin: miter"/>
   </g>
   <g id="patch_85">
    <path d="M 67.272 51.399 
C 67.455786 51.399 67.632069 51.325981 67.762025 51.196025 
C 67.891981 51.066069 67.965 50.889786 67.965 50.706 
C 67.965 50.522214 67.891981 50.345931 67.762025 50.215975 
C 67.632069 50.086019 67.455786 50.013 67.272 50.013 
C 67.088214 50.013 66.911931 50.086019 66.781975 50.215975 
C 66.652019 50.345931 66.579 50.522214 66.579 50.706 
C 66.579 50.889786 66.652019 51.066069 66.781975 51.196025 
C 66.911931 51.325981 67.088214 51.399 67.272 51.399 
z
" clip-path="url(#pcbfd6c90eb)" style="fill: #3b5284; stroke: #3b5284; stroke-linejoin: miter"/>
   </g>
   <g id="patch_86">
    <path d="M 82.056 130.401 
C 82.239786 130.401 82.416069 130.327981 82.546025 130.198025 
C 82.675981 130.068069 82.749 129.891786 82.749 129.708 
C 82.749 129.524214 82.675981 129.347931 82.546025 129.217975 
C 82.416069 129.088019 82.239786 129.015 82.056 129.015 
C 81.872214 129.015 81.695931 129.088019 81.565975 129.217975 
C 81.436019 129.347931 81.363 129.524214 81.363 129.708 
C 81.363 129.891786 81.436019 130.068069 81.565975 130.198025 
C 81.695931 130.327981 81.872214 130.401 82.056 130.401 
z
" clip-path="url(#pcbfd6c90eb)" style="fill: #3b5284; stroke: #3b5284; stroke-linejoin: miter"/>
   </g>
   <g id="patch_87">
    <path d="M 172.146 18.135 
C 172.329786 18.135 172.506069 18.061981 172.636025 17.932025 
C 172.765981 17.802069 172.839 17.625786 172.839 17.442 
C 172.839 17.258214 172.765981 17.081931 172.636025 16.951975 
C 172.506069 16.822019 172.329786 16.749 172.146 16.749 
C 171.962214 16.749 171.785931 16.822019 171.655975 16.951975 
C 171.526019 17.081931 171.453 17.258214 171.453 17.442 
C 171.453 17.625786 171.526019 17.802069 171.655975 17.932025 
C 171.785931 18.061981 171.962214 18.135 172.146 18.135 
z
" clip-path="url(#pcbfd6c90eb)" style="fill: #3b5284; stroke: #3b5284; stroke-linejoin: miter"/>
   </g>
   <g id="patch_88">
    <path d="M 150.432 155.811 
C 150.615786 155.811 150.792069 155.737981 150.922025 155.608025 
C 151.051981 155.478069 151.125 155.301786 151.125 155.118 
C 151.125 154.934214 151.051981 154.757931 150.922025 154.627975 
C 150.792069 154.498019 150.615786 154.425 150.432 154.425 
C 150.248214 154.425 150.071931 154.498019 149.941975 154.627975 
C 149.812019 154.757931 149.739 154.934214 149.739 155.118 
C 149.739 155.301786 149.812019 155.478069 149.941975 155.608025 
C 150.071931 155.737981 150.248214 155.811 150.432 155.811 
z
" clip-path="url(#pcbfd6c90eb)" style="fill: #3b5284; stroke: #3b5284; stroke-linejoin: miter"/>
   </g>
   <g id="patch_89">
    <path d="M 188.778 44.469 
C 188.961786 44.469 189.138069 44.395981 189.268025 44.266025 
C 189.397981 44.136069 189.471 43.959786 189.471 43.776 
C 189.471 43.592214 189.397981 43.415931 189.268025 43.285975 
C 189.138069 43.156019 188.961786 43.083 188.778 43.083 
C 188.594214 43.083 188.417931 43.156019 188.287975 43.285975 
C 188.158019 43.415931 188.085 43.592214 188.085 43.776 
C 188.085 43.959786 188.158019 44.136069 188.287975 44.266025 
C 188.417931 44.395981 188.594214 44.469 188.778 44.469 
z
" clip-path="url(#pcbfd6c90eb)" style="fill: #3b5284; stroke: #3b5284; stroke-linejoin: miter"/>
   </g>
   <g id="patch_90">
    <path d="M 81.132 126.705 
C 81.315786 126.705 81.492069 126.631981 81.622025 126.502025 
C 81.751981 126.372069 81.825 126.195786 81.825 126.012 
C 81.825 125.828214 81.751981 125.651931 81.622025 125.521975 
C 81.492069 125.392019 81.315786 125.319 81.132 125.319 
C 80.948214 125.319 80.771931 125.392019 80.641975 125.521975 
C 80.512019 125.651931 80.439 125.828214 80.439 126.012 
C 80.439 126.195786 80.512019 126.372069 80.641975 126.502025 
C 80.771931 126.631981 80.948214 126.705 81.132 126.705 
z
" clip-path="url(#pcbfd6c90eb)" style="fill: #3b5284; stroke: #3b5284; stroke-linejoin: miter"/>
   </g>
   <g id="patch_91">
    <path d="M 136.11 38.001 
C 136.293786 38.001 136.470069 37.927981 136.600025 37.798025 
C 136.729981 37.668069 136.803 37.491786 136.803 37.308 
C 136.803 37.124214 136.729981 36.947931 136.600025 36.817975 
C 136.470069 36.688019 136.293786 36.615 136.11 36.615 
C 135.926214 36.615 135.749931 36.688019 135.619975 36.817975 
C 135.490019 36.947931 135.417 37.124214 135.417 37.308 
C 135.417 37.491786 135.490019 37.668069 135.619975 37.798025 
C 135.749931 37.927981 135.926214 38.001 136.11 38.001 
z
" clip-path="url(#pcbfd6c90eb)" style="fill: #3b5284; stroke: #3b5284; stroke-linejoin: miter"/>
   </g>
   <g id="patch_92">
    <path d="M 163.368 53.709 
C 163.551786 53.709 163.728069 53.635981 163.858025 53.506025 
C 163.987981 53.376069 164.061 53.199786 164.061 53.016 
C 164.061 52.832214 163.987981 52.655931 163.858025 52.525975 
C 163.728069 52.396019 163.551786 52.323 163.368 52.323 
C 163.184214 52.323 163.007931 52.396019 162.877975 52.525975 
C 162.748019 52.655931 162.675 52.832214 162.675 53.016 
C 162.675 53.199786 162.748019 53.376069 162.877975 53.506025 
C 163.007931 53.635981 163.184214 53.709 163.368 53.709 
z
" clip-path="url(#pcbfd6c90eb)" style="fill: #3b5284; stroke: #3b5284; stroke-linejoin: miter"/>
   </g>
   <g id="patch_93">
    <path d="M 138.42 24.141 
C 138.603786 24.141 138.780069 24.067981 138.910025 23.938025 
C 139.039981 23.808069 139.113 23.631786 139.113 23.448 
C 139.113 23.264214 139.039981 23.087931 138.910025 22.957975 
C 138.780069 22.828019 138.603786 22.755 138.42 22.755 
C 138.236214 22.755 138.059931 22.828019 137.929975 22.957975 
C 137.800019 23.087931 137.727 23.264214 137.727 23.448 
C 137.727 23.631786 137.800019 23.808069 137.929975 23.938025 
C 138.059931 24.067981 138.236214 24.141 138.42 24.141 
z
" clip-path="url(#pcbfd6c90eb)" style="fill: #3b5284; stroke: #3b5284; stroke-linejoin: miter"/>
   </g>
   <g id="patch_94">
    <path d="M 104.232 30.147 
C 104.415786 30.147 104.592069 30.073981 104.722025 29.944025 
C 104.851981 29.814069 104.925 29.637786 104.925 29.454 
C 104.925 29.270214 104.851981 29.093931 104.722025 28.963975 
C 104.592069 28.834019 104.415786 28.761 104.232 28.761 
C 104.048214 28.761 103.871931 28.834019 103.741975 28.963975 
C 103.612019 29.093931 103.539 29.270214 103.539 29.454 
C 103.539 29.637786 103.612019 29.814069 103.741975 29.944025 
C 103.871931 30.073981 104.048214 30.147 104.232 30.147 
z
" clip-path="url(#pcbfd6c90eb)" style="fill: #3b5284; stroke: #3b5284; stroke-linejoin: miter"/>
   </g>
   <g id="patch_95">
    <path d="M 96.84 125.319 
C 97.023786 125.319 97.200069 125.245981 97.330025 125.116025 
C 97.459981 124.986069 97.533 124.809786 97.533 124.626 
C 97.533 124.442214 97.459981 124.265931 97.330025 124.135975 
C 97.200069 124.006019 97.023786 123.933 96.84 123.933 
C 96.656214 123.933 96.479931 124.006019 96.349975 124.135975 
C 96.220019 124.265931 96.147 124.442214 96.147 124.626 
C 96.147 124.809786 96.220019 124.986069 96.349975 125.116025 
C 96.479931 125.245981 96.656214 125.319 96.84 125.319 
z
" clip-path="url(#pcbfd6c90eb)" style="fill: #3b5284; stroke: #3b5284; stroke-linejoin: miter"/>
   </g>
   <g id="patch_96">
    <path d="M 113.934 135.021 
C 114.117786 135.021 114.294069 134.947981 114.424025 134.818025 
C 114.553981 134.688069 114.627 134.511786 114.627 134.328 
C 114.627 134.144214 114.553981 133.967931 114.424025 133.837975 
C 114.294069 133.708019 114.117786 133.635 113.934 133.635 
C 113.750214 133.635 113.573931 133.708019 113.443975 133.837975 
C 113.314019 133.967931 113.241 134.144214 113.241 134.328 
C 113.241 134.511786 113.314019 134.688069 113.443975 134.818025 
C 113.573931 134.947981 113.750214 135.021 113.934 135.021 
z
" clip-path="url(#pcbfd6c90eb)" style="fill: #3b5284; stroke: #3b5284; stroke-linejoin: miter"/>
   </g>
   <g id="patch_97">
    <path d="M 69.582 54.633 
C 69.765786 54.633 69.942069 54.559981 70.072025 54.430025 
C 70.201981 54.300069 70.275 54.123786 70.275 53.94 
C 70.275 53.756214 70.201981 53.579931 70.072025 53.449975 
C 69.942069 53.320019 69.765786 53.247 69.582 53.247 
C 69.398214 53.247 69.221931 53.320019 69.091975 53.449975 
C 68.962019 53.579931 68.889 53.756214 68.889 53.94 
C 68.889 54.123786 68.962019 54.300069 69.091975 54.430025 
C 69.221931 54.559981 69.398214 54.633 69.582 54.633 
z
" clip-path="url(#pcbfd6c90eb)" style="fill: #3b5284; stroke: #3b5284; stroke-linejoin: miter"/>
   </g>
   <g id="patch_98">
    <path d="M 168.45 89.745 
C 168.633786 89.745 168.810069 89.671981 168.940025 89.542025 
C 169.069981 89.412069 169.143 89.235786 169.143 89.052 
C 169.143 88.868214 169.069981 88.691931 168.940025 88.561975 
C 168.810069 88.432019 168.633786 88.359 168.45 88.359 
C 168.266214 88.359 168.089931 88.432019 167.959975 88.561975 
C 167.830019 88.691931 167.757 88.868214 167.757 89.052 
C 167.757 89.235786 167.830019 89.412069 167.959975 89.542025 
C 168.089931 89.671981 168.266214 89.745 168.45 89.745 
z
" clip-path="url(#pcbfd6c90eb)" style="fill: #3b5284; stroke: #3b5284; stroke-linejoin: miter"/>
   </g>
   <g id="patch_99">
    <path d="M 164.292 77.271 
C 164.475786 77.271 164.652069 77.197981 164.782025 77.068025 
C 164.911981 76.938069 164.985 76.761786 164.985 76.578 
C 164.985 76.394214 164.911981 76.217931 164.782025 76.087975 
C 164.652069 75.958019 164.475786 75.885 164.292 75.885 
C 164.108214 75.885 163.931931 75.958019 163.801975 76.087975 
C 163.672019 76.217931 163.599 76.394214 163.599 76.578 
C 163.599 76.761786 163.672019 76.938069 163.801975 77.068025 
C 163.931931 77.197981 164.108214 77.271 164.292 77.271 
z
" clip-path="url(#pcbfd6c90eb)" style="fill: #3b5284; stroke: #3b5284; stroke-linejoin: miter"/>
   </g>
   <g id="patch_100">
    <path d="M 121.788 90.669 
C 121.971786 90.669 122.148069 90.595981 122.278025 90.466025 
C 122.407981 90.336069 122.481 90.159786 122.481 89.976 
C 122.481 89.792214 122.407981 89.615931 122.278025 89.485975 
C 122.148069 89.356019 121.971786 89.283 121.788 89.283 
C 121.604214 89.283 121.427931 89.356019 121.297975 89.485975 
C 121.168019 89.615931 121.095 89.792214 121.095 89.976 
C 121.095 90.159786 121.168019 90.336069 121.297975 90.466025 
C 121.427931 90.595981 121.604214 90.669 121.788 90.669 
z
" clip-path="url(#pcbfd6c90eb)" style="fill: #3b5284; stroke: #3b5284; stroke-linejoin: miter"/>
   </g>
   <g id="patch_101">
    <path d="M 49.716 85.125 
C 49.899786 85.125 50.076069 85.051981 50.206025 84.922025 
C 50.335981 84.792069 50.409 84.615786 50.409 84.432 
C 50.409 84.248214 50.335981 84.071931 50.206025 83.941975 
C 50.076069 83.812019 49.899786 83.739 49.716 83.739 
C 49.532214 83.739 49.355931 83.812019 49.225975 83.941975 
C 49.096019 84.071931 49.023 84.248214 49.023 84.432 
C 49.023 84.615786 49.096019 84.792069 49.225975 84.922025 
C 49.355931 85.051981 49.532214 85.125 49.716 85.125 
z
" clip-path="url(#pcbfd6c90eb)" style="fill: #3b5284; stroke: #3b5284; stroke-linejoin: miter"/>
   </g>
   <g id="patch_102">
    <path d="M 131.49 41.697 
C 131.673786 41.697 131.850069 41.623981 131.980025 41.494025 
C 132.109981 41.364069 132.183 41.187786 132.183 41.004 
C 132.183 40.820214 132.109981 40.643931 131.980025 40.513975 
C 131.850069 40.384019 131.673786 40.311 131.49 40.311 
C 131.306214 40.311 131.129931 40.384019 130.999975 40.513975 
C 130.870019 40.643931 130.797 40.820214 130.797 41.004 
C 130.797 41.187786 130.870019 41.364069 130.999975 41.494025 
C 131.129931 41.623981 131.306214 41.697 131.49 41.697 
z
" clip-path="url(#pcbfd6c90eb)" style="fill: #3b5284; stroke: #3b5284; stroke-linejoin: miter"/>
   </g>
   <g id="matplotlib.axis_1">
    <g id="xtick_1">
     <g id="line2d_1">
      <defs>
       <path id="m7d7bb75f11" d="M 0 0 
L 0 3.5 
" style="stroke: #000000; stroke-width: 0.8"/>
      </defs>
      <g>
       <use xlink:href="#m7d7bb75f11" x="41.4" y="160.2" style="stroke: #000000; stroke-width: 0.8"/>
      </g>
     </g>
     <g id="text_1">
      <!-- 0 -->
      <g transform="translate(38.855 173.27875) scale(0.08 -0.08)">
       <defs>
        <path id="DejaVuSans-30" d="M 2034 4250 
Q 1547 4250 1301 3770 
Q 1056 3291 1056 2328 
Q 1056 1369 1301 889 
Q 1547 409 2034 409 
Q 2525 409 2770 889 
Q 3016 1369 3016 2328 
Q 3016 3291 2770 3770 
Q 2525 4250 2034 4250 
z
M 2034 4750 
Q 2819 4750 3233 4129 
Q 3647 3509 3647 2328 
Q 3647 1150 3233 529 
Q 2819 -91 2034 -91 
Q 1250 -91 836 529 
Q 422 1150 422 2328 
Q 422 3509 836 4129 
Q 1250 4750 2034 4750 
z
" transform="scale(0.015625)"/>
       </defs>
       <use xlink:href="#DejaVuSans-30"/>
      </g>
     </g>
    </g>
    <g id="xtick_2">
     <g id="line2d_2">
      <g>
       <use xlink:href="#m7d7bb75f11" x="64.5" y="160.2" style="stroke: #000000; stroke-width: 0.8"/>
      </g>
     </g>
     <g id="text_2">
      <!-- 50 -->
      <g transform="translate(59.41 173.27875) scale(0.08 -0.08)">
       <defs>
        <path id="DejaVuSans-35" d="M 691 4666 
L 3169 4666 
L 3169 4134 
L 1269 4134 
L 1269 2991 
Q 1406 3038 1543 3061 
Q 1681 3084 1819 3084 
Q 2600 3084 3056 2656 
Q 3513 2228 3513 1497 
Q 3513 744 3044 326 
Q 2575 -91 1722 -91 
Q 1428 -91 1123 -41 
Q 819 9 494 109 
L 494 744 
Q 775 591 1075 516 
Q 1375 441 1709 441 
Q 2250 441 2565 725 
Q 2881 1009 2881 1497 
Q 2881 1984 2565 2268 
Q 2250 2553 1709 2553 
Q 1456 2553 1204 2497 
Q 953 2441 691 2322 
L 691 4666 
z
" transform="scale(0.015625)"/>
       </defs>
       <use xlink:href="#DejaVuSans-35"/>
       <use xlink:href="#DejaVuSans-30" x="63.623047"/>
      </g>
     </g>
    </g>
    <g id="xtick_3">
     <g id="line2d_3">
      <g>
       <use xlink:href="#m7d7bb75f11" x="87.6" y="160.2" style="stroke: #000000; stroke-width: 0.8"/>
      </g>
     </g>
     <g id="text_3">
      <!-- 100 -->
      <g transform="translate(79.965 173.27875) scale(0.08 -0.08)">
       <defs>
        <path id="DejaVuSans-31" d="M 794 531 
L 1825 531 
L 1825 4091 
L 703 3866 
L 703 4441 
L 1819 4666 
L 2450 4666 
L 2450 531 
L 3481 531 
L 3481 0 
L 794 0 
L 794 531 
z
" transform="scale(0.015625)"/>
       </defs>
       <use xlink:href="#DejaVuSans-31"/>
       <use xlink:href="#DejaVuSans-30" x="63.623047"/>
       <use xlink:href="#DejaVuSans-30" x="127.246094"/>
      </g>
     </g>
    </g>
    <g id="xtick_4">
     <g id="line2d_4">
      <g>
       <use xlink:href="#m7d7bb75f11" x="110.7" y="160.2" style="stroke: #000000; stroke-width: 0.8"/>
      </g>
     </g>
     <g id="text_4">
      <!-- 150 -->
      <g transform="translate(103.065 173.27875) scale(0.08 -0.08)">
       <use xlink:href="#DejaVuSans-31"/>
       <use xlink:href="#DejaVuSans-35" x="63.623047"/>
       <use xlink:href="#DejaVuSans-30" x="127.246094"/>
      </g>
     </g>
    </g>
    <g id="xtick_5">
     <g id="line2d_5">
      <g>
       <use xlink:href="#m7d7bb75f11" x="133.8" y="160.2" style="stroke: #000000; stroke-width: 0.8"/>
      </g>
     </g>
     <g id="text_5">
      <!-- 200 -->
      <g transform="translate(126.165 173.27875) scale(0.08 -0.08)">
       <defs>
        <path id="DejaVuSans-32" d="M 1228 531 
L 3431 531 
L 3431 0 
L 469 0 
L 469 531 
Q 828 903 1448 1529 
Q 2069 2156 2228 2338 
Q 2531 2678 2651 2914 
Q 2772 3150 2772 3378 
Q 2772 3750 2511 3984 
Q 2250 4219 1831 4219 
Q 1534 4219 1204 4116 
Q 875 4013 500 3803 
L 500 4441 
Q 881 4594 1212 4672 
Q 1544 4750 1819 4750 
Q 2544 4750 2975 4387 
Q 3406 4025 3406 3419 
Q 3406 3131 3298 2873 
Q 3191 2616 2906 2266 
Q 2828 2175 2409 1742 
Q 1991 1309 1228 531 
z
" transform="scale(0.015625)"/>
       </defs>
       <use xlink:href="#DejaVuSans-32"/>
       <use xlink:href="#DejaVuSans-30" x="63.623047"/>
       <use xlink:href="#DejaVuSans-30" x="127.246094"/>
      </g>
     </g>
    </g>
    <g id="xtick_6">
     <g id="line2d_6">
      <g>
       <use xlink:href="#m7d7bb75f11" x="156.9" y="160.2" style="stroke: #000000; stroke-width: 0.8"/>
      </g>
     </g>
     <g id="text_6">
      <!-- 250 -->
      <g transform="translate(149.265 173.27875) scale(0.08 -0.08)">
       <use xlink:href="#DejaVuSans-32"/>
       <use xlink:href="#DejaVuSans-35" x="63.623047"/>
       <use xlink:href="#DejaVuSans-30" x="127.246094"/>
      </g>
     </g>
    </g>
    <g id="xtick_7">
     <g id="line2d_7">
      <g>
       <use xlink:href="#m7d7bb75f11" x="180" y="160.2" style="stroke: #000000; stroke-width: 0.8"/>
      </g>
     </g>
     <g id="text_7">
      <!-- 300 -->
      <g transform="translate(172.365 173.27875) scale(0.08 -0.08)">
       <defs>
        <path id="DejaVuSans-33" d="M 2597 2516 
Q 3050 2419 3304 2112 
Q 3559 1806 3559 1356 
Q 3559 666 3084 287 
Q 2609 -91 1734 -91 
Q 1441 -91 1130 -33 
Q 819 25 488 141 
L 488 750 
Q 750 597 1062 519 
Q 1375 441 1716 441 
Q 2309 441 2620 675 
Q 2931 909 2931 1356 
Q 2931 1769 2642 2001 
Q 2353 2234 1838 2234 
L 1294 2234 
L 1294 2753 
L 1863 2753 
Q 2328 2753 2575 2939 
Q 2822 3125 2822 3475 
Q 2822 3834 2567 4026 
Q 2313 4219 1838 4219 
Q 1578 4219 1281 4162 
Q 984 4106 628 3988 
L 628 4550 
Q 988 4650 1302 4700 
Q 1616 4750 1894 4750 
Q 2613 4750 3031 4423 
Q 3450 4097 3450 3541 
Q 3450 3153 3228 2886 
Q 3006 2619 2597 2516 
z
" transform="scale(0.015625)"/>
       </defs>
       <use xlink:href="#DejaVuSans-33"/>
       <use xlink:href="#DejaVuSans-30" x="63.623047"/>
       <use xlink:href="#DejaVuSans-30" x="127.246094"/>
      </g>
     </g>
    </g>
   </g>
   <g id="matplotlib.axis_2">
    <g id="ytick_1">
     <g id="line2d_8">
      <defs>
       <path id="m2cc0465c6f" d="M 0 0 
L -3.5 0 
" style="stroke: #000000; stroke-width: 0.8"/>
      </defs>
      <g>
       <use xlink:href="#m2cc0465c6f" x="41.4" y="160.2" style="stroke: #000000; stroke-width: 0.8"/>
      </g>
     </g>
     <g id="text_8">
      <!-- 0 -->
      <g transform="translate(29.31 163.239375) scale(0.08 -0.08)">
       <use xlink:href="#DejaVuSans-30"/>
      </g>
     </g>
    </g>
    <g id="ytick_2">
     <g id="line2d_9">
      <g>
       <use xlink:href="#m2cc0465c6f" x="41.4" y="137.1" style="stroke: #000000; stroke-width: 0.8"/>
      </g>
     </g>
     <g id="text_9">
      <!-- 50 -->
      <g transform="translate(24.22 140.139375) scale(0.08 -0.08)">
       <use xlink:href="#DejaVuSans-35"/>
       <use xlink:href="#DejaVuSans-30" x="63.623047"/>
      </g>
     </g>
    </g>
    <g id="ytick_3">
     <g id="line2d_10">
      <g>
       <use xlink:href="#m2cc0465c6f" x="41.4" y="114" style="stroke: #000000; stroke-width: 0.8"/>
      </g>
     </g>
     <g id="text_10">
      <!-- 100 -->
      <g transform="translate(19.13 117.039375) scale(0.08 -0.08)">
       <use xlink:href="#DejaVuSans-31"/>
       <use xlink:href="#DejaVuSans-30" x="63.623047"/>
       <use xlink:href="#DejaVuSans-30" x="127.246094"/>
      </g>
     </g>
    </g>
    <g id="ytick_4">
     <g id="line2d_11">
      <g>
       <use xlink:href="#m2cc0465c6f" x="41.4" y="90.9" style="stroke: #000000; stroke-width: 0.8"/>
      </g>
     </g>
     <g id="text_11">
      <!-- 150 -->
      <g transform="translate(19.13 93.939375) scale(0.08 -0.08)">
       <use xlink:href="#DejaVuSans-31"/>
       <use xlink:href="#DejaVuSans-35" x="63.623047"/>
       <use xlink:href="#DejaVuSans-30" x="127.246094"/>
      </g>
     </g>
    </g>
    <g id="ytick_5">
     <g id="line2d_12">
      <g>
       <use xlink:href="#m2cc0465c6f" x="41.4" y="67.8" style="stroke: #000000; stroke-width: 0.8"/>
      </g>
     </g>
     <g id="text_12">
      <!-- 200 -->
      <g transform="translate(19.13 70.839375) scale(0.08 -0.08)">
       <use xlink:href="#DejaVuSans-32"/>
       <use xlink:href="#DejaVuSans-30" x="63.623047"/>
       <use xlink:href="#DejaVuSans-30" x="127.246094"/>
      </g>
     </g>
    </g>
    <g id="ytick_6">
     <g id="line2d_13">
      <g>
       <use xlink:href="#m2cc0465c6f" x="41.4" y="44.7" style="stroke: #000000; stroke-width: 0.8"/>
      </g>
     </g>
     <g id="text_13">
      <!-- 250 -->
      <g transform="translate(19.13 47.739375) scale(0.08 -0.08)">
       <use xlink:href="#DejaVuSans-32"/>
       <use xlink:href="#DejaVuSans-35" x="63.623047"/>
       <use xlink:href="#DejaVuSans-30" x="127.246094"/>
      </g>
     </g>
    </g>
    <g id="ytick_7">
     <g id="line2d_14">
      <g>
       <use xlink:href="#m2cc0465c6f" x="41.4" y="21.6" style="stroke: #000000; stroke-width: 0.8"/>
      </g>
     </g>
     <g id="text_14">
      <!-- 300 -->
      <g transform="translate(19.13 24.639375) scale(0.08 -0.08)">
       <use xlink:href="#DejaVuSans-33"/>
       <use xlink:href="#DejaVuSans-30" x="63.623047"/>
       <use xlink:href="#DejaVuSans-30" x="127.246094"/>
      </g>
     </g>
    </g>
   </g>
   <g id="patch_103">
    <path d="M 41.4 160.2 
L 41.4 21.6 
" style="fill: none; stroke: #000000; stroke-width: 0.8; stroke-linejoin: miter; stroke-linecap: square"/>
   </g>
   <g id="patch_104">
    <path d="M 180 160.2 
L 180 21.6 
" style="fill: none; stroke: #000000; stroke-width: 0.8; stroke-linejoin: miter; stroke-linecap: square"/>
   </g>
   <g id="patch_105">
    <path d="M 41.4 160.2 
L 180 160.2 
" style="fill: none; stroke: #000000; stroke-width: 0.8; stroke-linejoin: miter; stroke-linecap: square"/>
   </g>
   <g id="patch_106">
    <path d="M 41.4 21.6 
L 180 21.6 
" style="fill: none; stroke: #000000; stroke-width: 0.8; stroke-linejoin: miter; stroke-linecap: square"/>
   </g>
   <g id="legend_1">
    <g id="patch_107">
     <path d="M 127.40125 51.485 
L 174.4 51.485 
Q 176 51.485 176 49.885 
L 176 27.2 
Q 176 25.6 174.4 25.6 
L 127.40125 25.6 
Q 125.80125 25.6 125.80125 27.2 
L 125.80125 49.885 
Q 125.80125 51.485 127.40125 51.485 
z
" style="fill: #ffffff; opacity: 0.8; stroke: #cccccc; stroke-linejoin: miter"/>
    </g>
    <g id="patch_108">
     <path d="M 129.00125 34.87875 
L 145.00125 34.87875 
L 145.00125 29.27875 
L 129.00125 29.27875 
z
" style="fill: #c82423; stroke: #c82423; stroke-linejoin: miter"/>
    </g>
    <g id="text_15">
     <!-- cell 1 -->
     <g transform="translate(151.40125 34.87875) scale(0.08 -0.08)">
      <defs>
       <path id="DejaVuSans-63" d="M 3122 3366 
L 3122 2828 
Q 2878 2963 2633 3030 
Q 2388 3097 2138 3097 
Q 1578 3097 1268 2742 
Q 959 2388 959 1747 
Q 959 1106 1268 751 
Q 1578 397 2138 397 
Q 2388 397 2633 464 
Q 2878 531 3122 666 
L 3122 134 
Q 2881 22 2623 -34 
Q 2366 -91 2075 -91 
Q 1284 -91 818 406 
Q 353 903 353 1747 
Q 353 2603 823 3093 
Q 1294 3584 2113 3584 
Q 2378 3584 2631 3529 
Q 2884 3475 3122 3366 
z
" transform="scale(0.015625)"/>
       <path id="DejaVuSans-65" d="M 3597 1894 
L 3597 1613 
L 953 1613 
Q 991 1019 1311 708 
Q 1631 397 2203 397 
Q 2534 397 2845 478 
Q 3156 559 3463 722 
L 3463 178 
Q 3153 47 2828 -22 
Q 2503 -91 2169 -91 
Q 1331 -91 842 396 
Q 353 884 353 1716 
Q 353 2575 817 3079 
Q 1281 3584 2069 3584 
Q 2775 3584 3186 3129 
Q 3597 2675 3597 1894 
z
M 3022 2063 
Q 3016 2534 2758 2815 
Q 2500 3097 2075 3097 
Q 1594 3097 1305 2825 
Q 1016 2553 972 2059 
L 3022 2063 
z
" transform="scale(0.015625)"/>
       <path id="DejaVuSans-6c" d="M 603 4863 
L 1178 4863 
L 1178 0 
L 603 0 
L 603 4863 
z
" transform="scale(0.015625)"/>
       <path id="DejaVuSans-20" transform="scale(0.015625)"/>
      </defs>
      <use xlink:href="#DejaVuSans-63"/>
      <use xlink:href="#DejaVuSans-65" x="54.980469"/>
      <use xlink:href="#DejaVuSans-6c" x="116.503906"/>
      <use xlink:href="#DejaVuSans-6c" x="144.287109"/>
      <use xlink:href="#DejaVuSans-20" x="172.070312"/>
      <use xlink:href="#DejaVuSans-31" x="203.857422"/>
     </g>
    </g>
    <g id="patch_109">
     <path d="M 129.00125 46.62125 
L 145.00125 46.62125 
L 145.00125 41.02125 
L 129.00125 41.02125 
z
" style="fill: #3b5284; stroke: #3b5284; stroke-linejoin: miter"/>
    </g>
    <g id="text_16">
     <!-- cell 2 -->
     <g transform="translate(151.40125 46.62125) scale(0.08 -0.08)">
      <use xlink:href="#DejaVuSans-63"/>
      <use xlink:href="#DejaVuSans-65" x="54.980469"/>
      <use xlink:href="#DejaVuSans-6c" x="116.503906"/>
      <use xlink:href="#DejaVuSans-6c" x="144.287109"/>
      <use xlink:href="#DejaVuSans-20" x="172.070312"/>
      <use xlink:href="#DejaVuSans-32" x="203.857422"/>
     </g>
    </g>
   </g>
  </g>
 </g>
 <defs>
  <clipPath id="pcbfd6c90eb">
   <rect x="41.4" y="21.6" width="138.6" height="138.6"/>
  </clipPath>
 </defs>
</svg>
