<?xml version="1.0" encoding="utf-8" standalone="no"?>
<!DOCTYPE svg PUBLIC "-//W3C//DTD SVG 1.1//EN"
  "http://www.w3.org/Graphics/SVG/1.1/DTD/svg11.dtd">
<svg xmlns:xlink="http://www.w3.org/1999/xlink" width="216pt" height="180pt" viewBox="0 0 216 180" xmlns="http://www.w3.org/2000/svg" version="1.1">
 <metadata>
  <rdf:RDF xmlns:dc="http://purl.org/dc/elements/1.1/" xmlns:cc="http://creativecommons.org/ns#" xmlns:rdf="http://www.w3.org/1999/02/22-rdf-syntax-ns#">
   <cc:Work>
    <dc:type rdf:resource="http://purl.org/dc/dcmitype/StillImage"/>
    <dc:date>2024-05-19T16:11:25.754045</dc:date>
    <dc:format>image/svg+xml</dc:format>
    <dc:creator>
     <cc:Agent>
      <dc:title>Matplotlib v3.7.1, https://matplotlib.org/</dc:title>
     </cc:Agent>
    </dc:creator>
   </cc:Work>
  </rdf:RDF>
 </metadata>
 <defs>
  <style type="text/css">*{stroke-linejoin: round; stroke-linecap: butt}</style>
 </defs>
 <g id="figure_1">
  <g id="patch_1">
   <path d="M 0 180 
L 216 180 
L 216 0 
L 0 0 
z
" style="fill: #ffffff"/>
  </g>
  <g id="axes_1">
   <g id="patch_2">
    <path d="M 27 56.25 
L 194.4 56.25 
L 194.4 21.6 
L 27 21.6 
z
" style="fill: #ffffff"/>
   </g>
   <g id="matplotlib.axis_1">
    <g id="xtick_1">
     <g id="line2d_1">
      <defs>
       <path id="mdae6564998" d="M 0 0 
L 0 3.5 
" style="stroke: #000000; stroke-width: 0.8"/>
      </defs>
      <g>
       <use xlink:href="#mdae6564998" x="34.906321" y="56.25" style="stroke: #000000; stroke-width: 0.8"/>
      </g>
     </g>
     <g id="text_1">
      <!-- 0 -->
      <g transform="translate(32.361321 69.32875) scale(0.08 -0.08)">
       <defs>
        <path id="DejaVuSans-30" d="M 2034 4250 
Q 1547 4250 1301 3770 
Q 1056 3291 1056 2328 
Q 1056 1369 1301 889 
Q 1547 409 2034 409 
Q 2525 409 2770 889 
Q 3016 1369 3016 2328 
Q 3016 3291 2770 3770 
Q 2525 4250 2034 4250 
z
M 2034 4750 
Q 2819 4750 3233 4129 
Q 3647 3509 3647 2328 
Q 3647 1150 3233 529 
Q 2819 -91 2034 -91 
Q 1250 -91 836 529 
Q 422 1150 422 2328 
Q 422 3509 836 4129 
Q 1250 4750 2034 4750 
z
" transform="scale(0.015625)"/>
       </defs>
       <use xlink:href="#DejaVuSans-30"/>
      </g>
     </g>
    </g>
    <g id="xtick_2">
     <g id="line2d_2">
      <g>
       <use xlink:href="#mdae6564998" x="82.463139" y="56.25" style="stroke: #000000; stroke-width: 0.8"/>
      </g>
     </g>
     <g id="text_2">
      <!-- 50 -->
      <g transform="translate(77.373139 69.32875) scale(0.08 -0.08)">
       <defs>
        <path id="DejaVuSans-35" d="M 691 4666 
L 3169 4666 
L 3169 4134 
L 1269 4134 
L 1269 2991 
Q 1406 3038 1543 3061 
Q 1681 3084 1819 3084 
Q 2600 3084 3056 2656 
Q 3513 2228 3513 1497 
Q 3513 744 3044 326 
Q 2575 -91 1722 -91 
Q 1428 -91 1123 -41 
Q 819 9 494 109 
L 494 744 
Q 775 591 1075 516 
Q 1375 441 1709 441 
Q 2250 441 2565 725 
Q 2881 1009 2881 1497 
Q 2881 1984 2565 2268 
Q 2250 2553 1709 2553 
Q 1456 2553 1204 2497 
Q 953 2441 691 2322 
L 691 4666 
z
" transform="scale(0.015625)"/>
       </defs>
       <use xlink:href="#DejaVuSans-35"/>
       <use xlink:href="#DejaVuSans-30" x="63.623047"/>
      </g>
     </g>
    </g>
    <g id="xtick_3">
     <g id="line2d_3">
      <g>
       <use xlink:href="#mdae6564998" x="130.019957" y="56.25" style="stroke: #000000; stroke-width: 0.8"/>
      </g>
     </g>
     <g id="text_3">
      <!-- 100 -->
      <g transform="translate(122.384957 69.32875) scale(0.08 -0.08)">
       <defs>
        <path id="DejaVuSans-31" d="M 794 531 
L 1825 531 
L 1825 4091 
L 703 3866 
L 703 4441 
L 1819 4666 
L 2450 4666 
L 2450 531 
L 3481 531 
L 3481 0 
L 794 0 
L 794 531 
z
" transform="scale(0.015625)"/>
       </defs>
       <use xlink:href="#DejaVuSans-31"/>
       <use xlink:href="#DejaVuSans-30" x="63.623047"/>
       <use xlink:href="#DejaVuSans-30" x="127.246094"/>
      </g>
     </g>
    </g>
    <g id="xtick_4">
     <g id="line2d_4">
      <g>
       <use xlink:href="#mdae6564998" x="177.576776" y="56.25" style="stroke: #000000; stroke-width: 0.8"/>
      </g>
     </g>
     <g id="text_4">
      <!-- 150 -->
      <g transform="translate(169.941776 69.32875) scale(0.08 -0.08)">
       <use xlink:href="#DejaVuSans-31"/>
       <use xlink:href="#DejaVuSans-35" x="63.623047"/>
       <use xlink:href="#DejaVuSans-30" x="127.246094"/>
      </g>
     </g>
    </g>
   </g>
   <g id="matplotlib.axis_2">
    <g id="ytick_1">
     <g id="line2d_5">
      <defs>
       <path id="mf2823a9621" d="M 0 0 
L -3.5 0 
" style="stroke: #000000; stroke-width: 0.8"/>
      </defs>
      <g>
       <use xlink:href="#mf2823a9621" x="27" y="54.675" style="stroke: #000000; stroke-width: 0.8"/>
      </g>
     </g>
     <g id="text_5">
      <!-- 0 -->
      <g transform="translate(14.91 57.714375) scale(0.08 -0.08)">
       <use xlink:href="#DejaVuSans-30"/>
      </g>
     </g>
    </g>
    <g id="ytick_2">
     <g id="line2d_6">
      <g>
       <use xlink:href="#mf2823a9621" x="27" y="23.175" style="stroke: #000000; stroke-width: 0.8"/>
      </g>
     </g>
     <g id="text_6">
      <!-- 1 -->
      <g transform="translate(14.91 26.214375) scale(0.08 -0.08)">
       <use xlink:href="#DejaVuSans-31"/>
      </g>
     </g>
    </g>
   </g>
   <g id="line2d_7">
    <path d="M 34.609091 39.340107 
L 35.798011 38.04469 
L 37.284162 36.074995 
L 39.364773 32.832782 
L 42.931534 27.1662 
L 44.417685 25.30717 
L 45.606605 24.207952 
L 46.498295 23.641736 
L 47.389986 23.300292 
L 48.281676 23.175 
L 49.173366 23.242932 
L 50.362287 23.580473 
L 51.848438 24.276435 
L 55.415199 26.347456 
L 58.68473 28.081151 
L 62.251491 29.716481 
L 64.629332 30.601689 
L 67.007173 31.247122 
L 71.465625 32.355082 
L 72.951776 33.015428 
L 74.437926 33.949882 
L 75.924077 35.16842 
L 77.707457 36.943239 
L 83.94929 43.497857 
L 86.029901 45.18371 
L 93.163423 50.595067 
L 96.432955 53.29913 
L 97.621875 54.041101 
L 98.810795 54.523419 
L 99.702486 54.671951 
L 100.594176 54.610375 
L 101.485866 54.328495 
L 102.377557 53.818371 
L 103.269247 53.091166 
L 104.458168 51.807087 
L 105.944318 49.793865 
L 108.322159 46.070338 
L 110.40277 42.925876 
L 111.88892 41.094269 
L 113.077841 40.009532 
L 113.969531 39.455104 
L 114.861222 39.132921 
L 115.752912 39.044529 
L 116.644602 39.175261 
L 117.536293 39.50779 
L 118.725213 40.208929 
L 120.211364 41.375433 
L 124.075355 44.577026 
L 125.264276 45.273646 
L 126.453196 45.747557 
L 127.642116 45.997239 
L 129.128267 46.039478 
L 131.208878 45.792871 
L 133.883949 45.479471 
L 135.370099 45.516345 
L 136.85625 45.766494 
L 138.639631 46.319197 
L 144.584233 48.446187 
L 146.070384 48.629919 
L 147.556534 48.603927 
L 149.339915 48.329472 
L 152.014986 47.618502 
L 154.987287 46.860526 
L 156.770668 46.647046 
L 158.256818 46.693074 
L 159.742969 46.975317 
L 161.229119 47.494951 
L 163.0125 48.378057 
L 167.768182 50.923879 
L 168.957102 51.259791 
L 170.146023 51.361058 
L 171.334943 51.197393 
L 172.523864 50.762106 
L 173.712784 50.073095 
L 175.198935 48.917503 
L 177.279545 46.960247 
L 180.549077 43.866179 
L 182.332457 42.517166 
L 183.818608 41.680799 
L 185.304759 41.134798 
L 186.493679 40.907131 
L 186.790909 40.878458 
L 186.790909 40.878458 
" clip-path="url(#p42b5eeb10a)" style="fill: none; stroke: #a40505; stroke-width: 1.5; stroke-linecap: square"/>
   </g>
   <g id="patch_3">
    <path d="M 27 56.25 
L 27 21.6 
" style="fill: none; stroke: #000000; stroke-width: 0.8; stroke-linejoin: miter; stroke-linecap: square"/>
   </g>
   <g id="patch_4">
    <path d="M 194.4 56.25 
L 194.4 21.6 
" style="fill: none; stroke: #000000; stroke-width: 0.8; stroke-linejoin: miter; stroke-linecap: square"/>
   </g>
   <g id="patch_5">
    <path d="M 27 56.25 
L 194.4 56.25 
" style="fill: none; stroke: #000000; stroke-width: 0.8; stroke-linejoin: miter; stroke-linecap: square"/>
   </g>
   <g id="patch_6">
    <path d="M 27 21.6 
L 194.4 21.6 
" style="fill: none; stroke: #000000; stroke-width: 0.8; stroke-linejoin: miter; stroke-linecap: square"/>
   </g>
  </g>
  <g id="axes_2">
   <g id="patch_7">
    <path d="M 27 90.9 
L 194.4 90.9 
L 194.4 56.25 
L 27 56.25 
z
" style="fill: #ffffff"/>
   </g>
   <g id="matplotlib.axis_3">
    <g id="xtick_5">
     <g id="line2d_8">
      <g>
       <use xlink:href="#mdae6564998" x="34.906321" y="90.9" style="stroke: #000000; stroke-width: 0.8"/>
      </g>
     </g>
     <g id="text_7">
      <!-- 0 -->
      <g transform="translate(32.361321 103.97875) scale(0.08 -0.08)">
       <use xlink:href="#DejaVuSans-30"/>
      </g>
     </g>
    </g>
    <g id="xtick_6">
     <g id="line2d_9">
      <g>
       <use xlink:href="#mdae6564998" x="82.463139" y="90.9" style="stroke: #000000; stroke-width: 0.8"/>
      </g>
     </g>
     <g id="text_8">
      <!-- 50 -->
      <g transform="translate(77.373139 103.97875) scale(0.08 -0.08)">
       <use xlink:href="#DejaVuSans-35"/>
       <use xlink:href="#DejaVuSans-30" x="63.623047"/>
      </g>
     </g>
    </g>
    <g id="xtick_7">
     <g id="line2d_10">
      <g>
       <use xlink:href="#mdae6564998" x="130.019957" y="90.9" style="stroke: #000000; stroke-width: 0.8"/>
      </g>
     </g>
     <g id="text_9">
      <!-- 100 -->
      <g transform="translate(122.384957 103.97875) scale(0.08 -0.08)">
       <use xlink:href="#DejaVuSans-31"/>
       <use xlink:href="#DejaVuSans-30" x="63.623047"/>
       <use xlink:href="#DejaVuSans-30" x="127.246094"/>
      </g>
     </g>
    </g>
    <g id="xtick_8">
     <g id="line2d_11">
      <g>
       <use xlink:href="#mdae6564998" x="177.576776" y="90.9" style="stroke: #000000; stroke-width: 0.8"/>
      </g>
     </g>
     <g id="text_10">
      <!-- 150 -->
      <g transform="translate(169.941776 103.97875) scale(0.08 -0.08)">
       <use xlink:href="#DejaVuSans-31"/>
       <use xlink:href="#DejaVuSans-35" x="63.623047"/>
       <use xlink:href="#DejaVuSans-30" x="127.246094"/>
      </g>
     </g>
    </g>
   </g>
   <g id="matplotlib.axis_4">
    <g id="ytick_3">
     <g id="line2d_12">
      <g>
       <use xlink:href="#mf2823a9621" x="27" y="89.325" style="stroke: #000000; stroke-width: 0.8"/>
      </g>
     </g>
     <g id="text_11">
      <!-- 0 -->
      <g transform="translate(14.91 92.364375) scale(0.08 -0.08)">
       <use xlink:href="#DejaVuSans-30"/>
      </g>
     </g>
    </g>
    <g id="ytick_4">
     <g id="line2d_13">
      <g>
       <use xlink:href="#mf2823a9621" x="27" y="57.825" style="stroke: #000000; stroke-width: 0.8"/>
      </g>
     </g>
     <g id="text_12">
      <!-- 1 -->
      <g transform="translate(14.91 60.864375) scale(0.08 -0.08)">
       <use xlink:href="#DejaVuSans-31"/>
      </g>
     </g>
    </g>
   </g>
   <g id="line2d_14">
    <path d="M 34.609091 87.845411 
L 36.392472 84.445246 
L 38.473082 79.846085 
L 44.417685 66.125578 
L 45.903835 63.348224 
L 47.389986 61.070183 
L 48.578906 59.658317 
L 49.767827 58.640853 
L 50.659517 58.145256 
L 51.551207 57.87837 
L 52.442898 57.834287 
L 53.334588 57.999702 
L 54.226278 58.352777 
L 55.415199 59.066397 
L 57.19858 60.474215 
L 59.873651 62.654883 
L 61.359801 63.556236 
L 62.548722 64.009467 
L 63.737642 64.199758 
L 64.926563 64.136418 
L 66.115483 63.854225 
L 67.601634 63.273856 
L 70.276705 61.926677 
L 73.249006 60.482887 
L 75.032386 59.823756 
L 76.518537 59.504502 
L 77.707457 59.481638 
L 78.599148 59.643991 
L 79.490838 59.991055 
L 80.382528 60.537754 
L 81.571449 61.58945 
L 82.760369 62.979455 
L 84.54375 65.514323 
L 87.813281 70.299421 
L 89.299432 72.035497 
L 90.488352 73.131566 
L 91.974503 74.164335 
L 93.757884 75.061528 
L 96.730185 76.465583 
L 98.216335 77.449645 
L 99.702486 78.746409 
L 101.188636 80.360821 
L 103.269247 83.00455 
L 105.944318 86.419799 
L 107.430469 87.935058 
L 108.619389 88.790033 
L 109.51108 89.176919 
L 110.40277 89.325 
L 111.29446 89.228321 
L 112.186151 88.889829 
L 113.077841 88.319821 
L 114.266761 87.231661 
L 115.455682 85.815348 
L 116.941832 83.670575 
L 119.022443 80.176574 
L 123.183665 72.983718 
L 124.372585 71.337165 
L 125.561506 70.065554 
L 126.453196 69.407572 
L 127.344886 69.022554 
L 128.236577 68.919462 
L 129.128267 69.081394 
L 130.019957 69.487416 
L 131.208878 70.334031 
L 132.695028 71.720733 
L 135.96456 74.926177 
L 137.45071 76.005492 
L 138.639631 76.578762 
L 139.828551 76.869553 
L 141.017472 76.883173 
L 142.206392 76.647787 
L 143.692543 76.076404 
L 145.773153 74.980033 
L 148.448224 73.61585 
L 149.934375 73.120281 
L 151.123295 72.931549 
L 152.312216 72.94519 
L 153.798366 73.232801 
L 155.581747 73.878144 
L 159.742969 75.542184 
L 161.229119 75.855471 
L 163.0125 75.984003 
L 166.282031 75.894468 
L 171.037713 75.675733 
L 172.523864 75.329872 
L 173.712784 74.837414 
L 174.901705 74.120183 
L 176.387855 72.904863 
L 177.874006 71.388527 
L 180.251847 68.592201 
L 183.818608 64.416201 
L 185.899219 62.312412 
L 186.790909 61.505088 
L 186.790909 61.505088 
" clip-path="url(#p83ec31d6a2)" style="fill: none; stroke: #f46f44; stroke-width: 1.5; stroke-linecap: square"/>
   </g>
   <g id="patch_8">
    <path d="M 27 90.9 
L 27 56.25 
" style="fill: none; stroke: #000000; stroke-width: 0.8; stroke-linejoin: miter; stroke-linecap: square"/>
   </g>
   <g id="patch_9">
    <path d="M 194.4 90.9 
L 194.4 56.25 
" style="fill: none; stroke: #000000; stroke-width: 0.8; stroke-linejoin: miter; stroke-linecap: square"/>
   </g>
   <g id="patch_10">
    <path d="M 27 90.9 
L 194.4 90.9 
" style="fill: none; stroke: #000000; stroke-width: 0.8; stroke-linejoin: miter; stroke-linecap: square"/>
   </g>
   <g id="patch_11">
    <path d="M 27 56.25 
L 194.4 56.25 
" style="fill: none; stroke: #000000; stroke-width: 0.8; stroke-linejoin: miter; stroke-linecap: square"/>
   </g>
  </g>
  <g id="axes_3">
   <g id="patch_12">
    <path d="M 27 125.55 
L 194.4 125.55 
L 194.4 90.9 
L 27 90.9 
z
" style="fill: #ffffff"/>
   </g>
   <g id="matplotlib.axis_5">
    <g id="xtick_9">
     <g id="line2d_15">
      <g>
       <use xlink:href="#mdae6564998" x="34.303505" y="125.55" style="stroke: #000000; stroke-width: 0.8"/>
      </g>
     </g>
     <g id="text_13">
      <!-- 0 -->
      <g transform="translate(31.758505 138.62875) scale(0.08 -0.08)">
       <use xlink:href="#DejaVuSans-30"/>
      </g>
     </g>
    </g>
    <g id="xtick_10">
     <g id="line2d_16">
      <g>
       <use xlink:href="#mdae6564998" x="81.955819" y="125.55" style="stroke: #000000; stroke-width: 0.8"/>
      </g>
     </g>
     <g id="text_14">
      <!-- 50 -->
      <g transform="translate(76.865819 138.62875) scale(0.08 -0.08)">
       <use xlink:href="#DejaVuSans-35"/>
       <use xlink:href="#DejaVuSans-30" x="63.623047"/>
      </g>
     </g>
    </g>
    <g id="xtick_11">
     <g id="line2d_17">
      <g>
       <use xlink:href="#mdae6564998" x="129.608133" y="125.55" style="stroke: #000000; stroke-width: 0.8"/>
      </g>
     </g>
     <g id="text_15">
      <!-- 100 -->
      <g transform="translate(121.973133 138.62875) scale(0.08 -0.08)">
       <use xlink:href="#DejaVuSans-31"/>
       <use xlink:href="#DejaVuSans-30" x="63.623047"/>
       <use xlink:href="#DejaVuSans-30" x="127.246094"/>
      </g>
     </g>
    </g>
    <g id="xtick_12">
     <g id="line2d_18">
      <g>
       <use xlink:href="#mdae6564998" x="177.260446" y="125.55" style="stroke: #000000; stroke-width: 0.8"/>
      </g>
     </g>
     <g id="text_16">
      <!-- 150 -->
      <g transform="translate(169.625446 138.62875) scale(0.08 -0.08)">
       <use xlink:href="#DejaVuSans-31"/>
       <use xlink:href="#DejaVuSans-35" x="63.623047"/>
       <use xlink:href="#DejaVuSans-30" x="127.246094"/>
      </g>
     </g>
    </g>
   </g>
   <g id="matplotlib.axis_6">
    <g id="ytick_5">
     <g id="line2d_19">
      <g>
       <use xlink:href="#mf2823a9621" x="27" y="123.975" style="stroke: #000000; stroke-width: 0.8"/>
      </g>
     </g>
     <g id="text_17">
      <!-- 0 -->
      <g transform="translate(14.91 127.014375) scale(0.08 -0.08)">
       <use xlink:href="#DejaVuSans-30"/>
      </g>
     </g>
    </g>
    <g id="ytick_6">
     <g id="line2d_20">
      <g>
       <use xlink:href="#mf2823a9621" x="27" y="92.475" style="stroke: #000000; stroke-width: 0.8"/>
      </g>
     </g>
     <g id="text_18">
      <!-- 1 -->
      <g transform="translate(14.91 95.514375) scale(0.08 -0.08)">
       <use xlink:href="#DejaVuSans-31"/>
      </g>
     </g>
    </g>
   </g>
   <g id="line2d_21">
    <path d="M 34.609091 123.975 
L 36.137021 123.975 
L 36.442607 118.375 
L 37.053779 118.375 
L 37.359365 123.975 
L 39.192881 123.975 
L 39.498467 111.375 
L 39.804053 117.675 
L 40.720811 117.675 
L 41.026396 123.975 
L 43.77667 123.975 
L 44.082256 117.675 
L 44.387842 123.975 
L 44.999014 123.975 
L 45.3046 117.675 
L 48.36046 117.675 
L 48.666046 115.575 
L 48.971632 123.975 
L 49.277218 117.675 
L 49.88839 117.675 
L 50.193977 123.975 
L 50.499562 123.975 
L 50.805147 117.927 
L 51.110734 123.975 
L 52.94425 123.975 
L 53.249835 117.675 
L 53.555422 119.25 
L 53.861007 117.675 
L 54.166593 111.375 
L 54.47218 123.975 
L 56.611282 123.975 
L 56.916868 118.375 
L 57.222453 123.975 
L 58.139211 123.975 
L 58.444798 115.575 
L 58.750383 117.675 
L 59.05597 117.675 
L 59.361556 115.575 
L 59.667141 123.975 
L 60.583899 123.975 
L 60.889486 118.375 
L 61.195071 118.375 
L 61.500658 123.975 
L 61.806243 123.975 
L 62.111829 118.375 
L 62.417416 118.375 
L 62.723001 123.975 
L 63.028586 117.675 
L 63.639759 117.675 
L 63.945346 123.975 
L 64.250931 116.1 
L 64.556516 116.1 
L 64.862104 123.975 
L 65.473274 123.975 
L 65.778859 115.575 
L 66.084448 123.975 
L 66.390034 123.975 
L 66.695619 115.575 
L 67.001204 115.575 
L 67.30679 118.375 
L 67.612378 118.375 
L 67.917964 117.675 
L 68.223549 118.375 
L 68.529134 115.575 
L 68.83472 119.25 
L 69.140305 119.25 
L 69.445894 123.975 
L 69.751479 120.375 
L 70.057064 123.975 
L 70.36265 123.975 
L 70.668235 115.911001 
L 70.973824 117.927 
L 71.279409 123.975 
L 71.584995 114.525 
L 71.89058 123.975 
L 72.807339 123.975 
L 73.112925 117.675 
L 73.41851 123.975 
L 73.724095 116.260714 
L 74.029681 123.975 
L 74.33527 123.975 
L 74.640855 114.525 
L 74.94644 114.525 
L 75.252025 123.975 
L 75.557611 113.895 
L 75.8632 115.575 
L 76.168785 117.927 
L 76.47437 117.675 
L 76.779956 117.675 
L 77.085541 118.375 
L 77.696715 118.375 
L 78.0023 113.895 
L 78.307886 118.06875 
L 78.613471 123.975 
L 79.53023 123.975 
L 79.835816 117.675 
L 80.141401 123.975 
L 80.752575 123.975 
L 81.058161 117.927 
L 81.363746 123.975 
L 81.669331 117.675 
L 81.974916 117.675 
L 82.280505 109.975001 
L 82.891676 123.975 
L 83.197261 112.775 
L 83.502847 115.575 
L 83.808435 123.975 
L 84.114021 123.975 
L 84.419606 117.803572 
L 84.725191 123.975 
L 85.030777 119.25 
L 85.336362 117.675 
L 85.641951 123.975 
L 85.947536 112.775 
L 86.253121 118.375 
L 86.558707 118.462501 
L 86.864292 123.975 
L 87.169881 116.8875 
L 87.475466 105.074999 
L 87.781052 123.975 
L 88.086637 123.975 
L 88.392222 111.375 
L 88.697811 119.075 
L 89.003396 117.675 
L 89.308982 114.175001 
L 89.920152 123.975 
L 90.225738 119.943 
L 90.531327 119.943 
L 90.836912 119.075 
L 91.142497 123.975 
L 92.059257 123.975 
L 92.364842 116.1 
L 92.670427 123.975 
L 92.976013 117.675 
L 93.281598 123.975 
L 93.587187 114.525 
L 93.892772 123.975 
L 94.198357 123.975 
L 94.503943 118.375 
L 94.809528 118.935 
L 95.115113 114.525 
L 95.420702 123.975 
L 95.726287 123.975 
L 96.031873 118.375 
L 96.337458 123.975 
L 96.643043 120.889286 
L 96.948629 120.889286 
L 97.254214 120.375 
L 97.559799 118.935 
L 97.865392 119.25 
L 98.170977 123.975 
L 98.782148 123.975 
L 99.087733 119.25 
L 99.393318 116.8875 
L 99.698904 123.975 
L 100.004489 123.975 
L 100.310074 119.25 
L 100.615659 123.975 
L 100.921252 123.975 
L 101.226837 120.825 
L 101.532423 123.975 
L 102.143593 123.975 
L 102.449179 116.8875 
L 102.754764 117.675 
L 103.060349 116.477479 
L 103.365934 123.975 
L 103.67152 116.975 
L 103.977105 118.683 
L 104.282698 123.975 
L 104.588283 112.775 
L 104.893868 118.375 
L 105.199453 118.462501 
L 105.505039 118.375 
L 105.810624 117.675 
L 106.116209 123.975 
L 106.421795 123.975 
L 106.72738 117.803571 
L 107.032965 116.975 
L 107.338558 123.975 
L 107.644143 117.310537 
L 107.949728 113.689286 
L 108.255314 119.775 
L 108.560899 119.25 
L 108.866484 123.975 
L 109.17207 123.975 
L 109.477655 121.21875 
L 109.78324 123.975 
L 110.088825 123.975 
L 110.394411 118.935 
L 110.700003 117.441667 
L 111.005589 123.975 
L 111.311174 123.975 
L 111.922344 116.260714 
L 112.22793 114.019444 
L 112.533515 121.203 
L 112.8391 123.975 
L 113.144686 123.975 
L 113.450271 111.632144 
L 113.755856 114.175001 
L 114.061449 119.943 
L 114.367034 115.575 
L 114.672619 115.911001 
L 114.978205 117.675 
L 115.28379 117.675 
L 115.589375 123.975 
L 115.894961 119.425 
L 116.200546 116.774999 
L 116.506131 123.975 
L 116.811716 123.975 
L 117.117309 118.976653 
L 117.422894 119.439 
L 117.72848 117.927 
L 118.034065 117.675 
L 118.33965 120.475 
L 118.645236 115.575 
L 118.950821 123.975 
L 119.256406 123.975 
L 119.561991 111.375 
L 119.867577 123.975 
L 120.173162 123.975 
L 120.478755 112.775 
L 120.78434 120.375 
L 121.089925 123.975 
L 121.39551 119.775 
L 121.701096 111.632142 
L 122.006681 112.775 
L 122.312266 123.975 
L 122.617852 123.975 
L 122.923437 119.943 
L 123.229022 119.943 
L 123.534615 116.774999 
L 123.8402 119.943 
L 124.145785 115.575 
L 124.451371 118.375 
L 124.756956 123.975 
L 125.062541 114.175001 
L 125.368127 114.175001 
L 125.673712 123.975 
L 125.979297 117.927 
L 126.284882 123.975 
L 126.590468 117.803572 
L 127.201646 119.25 
L 127.507231 118.375 
L 127.812816 120.825 
L 128.423987 116.774999 
L 128.729572 117.675 
L 129.035157 123.975 
L 129.340743 116.975 
L 129.646328 123.975 
L 129.951913 123.975 
L 130.257506 118.935 
L 130.563091 123.975 
L 130.868676 117.441667 
L 131.174262 117.675 
L 131.479847 117.675 
L 131.785432 116.919 
L 132.091018 120.375 
L 132.396603 117.675 
L 132.702188 120.475 
L 133.007773 118.375 
L 133.313366 118.375 
L 133.924537 112.775 
L 134.230122 111.879 
L 134.535707 123.975 
L 134.841293 119.775 
L 135.146878 118.375 
L 135.452463 123.975 
L 136.063634 123.975 
L 136.369219 118.935 
L 136.674812 117.675 
L 136.980397 116.8875 
L 137.285982 118.832143 
L 137.591567 118.462501 
L 137.897153 123.975 
L 138.202738 116.1 
L 138.508323 117.289286 
L 138.813909 114.525 
L 139.119494 116.975 
L 139.425079 118.143595 
L 139.730665 123.975 
L 140.036257 123.975 
L 140.341842 116.508333 
L 140.647428 123.975 
L 140.953013 123.975 
L 141.258598 116.975 
L 141.564184 123.975 
L 141.869769 119.943 
L 142.175354 118.832142 
L 142.480939 113.895 
L 142.786525 116.919 
L 143.092117 123.975 
L 143.397703 114.903 
L 143.703288 92.475 
L 144.008873 123.975 
L 144.314459 114.717856 
L 144.620044 121.892355 
L 144.925629 123.975 
L 145.231214 116.1 
L 145.5368 123.975 
L 145.842385 118.35186 
L 146.453563 113.895 
L 146.759148 116.975 
L 147.064733 111.879 
L 147.370319 123.975 
L 147.675904 115.575 
L 147.981489 114.525 
L 148.287075 118.935 
L 148.59266 117.927 
L 148.898245 113.708334 
L 149.203831 107.174999 
L 149.509423 117.927 
L 149.815008 116.415 
L 150.120594 115.575 
L 150.426179 115.575 
L 151.03735 123.975 
L 151.954105 123.975 
L 152.259691 115.746428 
L 152.565276 118.375 
L 152.870869 118.832142 
L 153.176454 117.927 
L 153.482039 116.260714 
L 153.787624 109.975001 
L 154.70438 123.975 
L 155.009966 115.575 
L 155.315551 116.975 
L 155.621136 114.525 
L 155.926722 118.375 
L 156.232314 115.911001 
L 156.537899 118.935 
L 156.843477 116.1 
L 157.14907 116.508333 
L 157.454648 117.675 
L 157.760241 117.871194 
L 158.065833 118.375 
L 158.371411 116.8875 
L 158.677004 119.25 
L 158.982582 117.675 
L 159.288174 117.803572 
L 159.593752 118.375 
L 159.899345 120.43125 
L 160.204923 117.927 
L 160.510516 117.310537 
L 160.816094 123.975 
L 161.121686 116.817603 
L 161.427279 123.975 
L 161.732857 117.441667 
L 162.038449 123.975 
L 162.344027 118.375 
L 162.64962 117.441667 
L 162.955198 123.975 
L 163.566368 117.927 
L 163.871961 118.606952 
L 164.177554 119.64375 
L 164.483132 116.975 
L 164.788724 119.809711 
L 165.094302 123.975 
L 165.705473 123.975 
L 166.011065 119.25 
L 166.316643 116.275 
L 166.622236 119.393181 
L 166.927814 115.263889 
L 167.233407 119.075 
L 167.538999 116.774999 
L 167.844577 116.508333 
L 168.15017 123.975 
L 168.455748 114.175001 
L 168.76134 115.911001 
L 169.066918 114.175001 
L 169.372511 123.975 
L 169.678089 117.927 
L 169.983681 118.375 
L 170.28926 123.975 
L 170.594852 117.927 
L 170.900445 123.975 
L 171.206023 116.1 
L 171.511615 117.803571 
L 171.817193 117.803571 
L 172.122786 119.25 
L 172.428364 118.935 
L 172.733956 123.975 
L 173.039534 115.575 
L 173.345127 119.860714 
L 173.650705 117.171 
L 173.956298 117.927 
L 174.26189 117.927 
L 174.567468 112.887 
L 174.873061 119.075 
L 175.178639 118.462501 
L 175.484231 118.35186 
L 175.789809 123.975 
L 176.095402 119.619445 
L 176.40098 117.289286 
L 176.706573 109.863 
L 177.012151 117.310537 
L 177.623336 123.975 
L 177.928914 116.774999 
L 178.234506 118.832143 
L 178.540084 116.975 
L 178.845677 117.171 
L 179.151255 119.943 
L 179.456847 121.21875 
L 179.762425 119.860714 
L 180.068018 123.975 
L 180.373611 117.702999 
L 180.984781 117.803572 
L 181.290359 119.860714 
L 181.595952 119.860714 
L 182.207122 116.1 
L 182.818293 123.975 
L 183.123871 118.935 
L 183.429464 116.221153 
L 183.735056 123.975 
L 184.040634 120.475 
L 184.346227 115.263889 
L 184.651805 119.775 
L 184.957397 119.075 
L 185.262975 120.475 
L 185.568568 119.943 
L 185.874146 123.975 
L 186.179739 123.975 
L 186.485317 111.879 
L 186.790909 116.477479 
L 186.790909 116.477479 
" clip-path="url(#paed109fd6f)" style="fill: none; stroke: #808080; stroke-width: 1.5; stroke-linecap: square"/>
   </g>
   <g id="patch_13">
    <path d="M 27 125.55 
L 27 90.9 
" style="fill: none; stroke: #000000; stroke-width: 0.8; stroke-linejoin: miter; stroke-linecap: square"/>
   </g>
   <g id="patch_14">
    <path d="M 194.4 125.55 
L 194.4 90.9 
" style="fill: none; stroke: #000000; stroke-width: 0.8; stroke-linejoin: miter; stroke-linecap: square"/>
   </g>
   <g id="patch_15">
    <path d="M 27 125.55 
L 194.4 125.55 
" style="fill: none; stroke: #000000; stroke-width: 0.8; stroke-linejoin: miter; stroke-linecap: square"/>
   </g>
   <g id="patch_16">
    <path d="M 27 90.9 
L 194.4 90.9 
" style="fill: none; stroke: #000000; stroke-width: 0.8; stroke-linejoin: miter; stroke-linecap: square"/>
   </g>
  </g>
  <g id="axes_4">
   <g id="patch_17">
    <path d="M 27 160.2 
L 194.4 160.2 
L 194.4 125.55 
L 27 125.55 
z
" style="fill: #ffffff"/>
   </g>
   <g id="matplotlib.axis_7">
    <g id="xtick_13">
     <g id="line2d_22">
      <g>
       <use xlink:href="#mdae6564998" x="34.609091" y="160.2" style="stroke: #000000; stroke-width: 0.8"/>
      </g>
     </g>
     <g id="text_19">
      <!-- 0 -->
      <g transform="translate(32.064091 173.27875) scale(0.08 -0.08)">
       <use xlink:href="#DejaVuSans-30"/>
      </g>
     </g>
    </g>
    <g id="xtick_14">
     <g id="line2d_23">
      <g>
       <use xlink:href="#mdae6564998" x="82.165909" y="160.2" style="stroke: #000000; stroke-width: 0.8"/>
      </g>
     </g>
     <g id="text_20">
      <!-- 50 -->
      <g transform="translate(77.075909 173.27875) scale(0.08 -0.08)">
       <use xlink:href="#DejaVuSans-35"/>
       <use xlink:href="#DejaVuSans-30" x="63.623047"/>
      </g>
     </g>
    </g>
    <g id="xtick_15">
     <g id="line2d_24">
      <g>
       <use xlink:href="#mdae6564998" x="129.722727" y="160.2" style="stroke: #000000; stroke-width: 0.8"/>
      </g>
     </g>
     <g id="text_21">
      <!-- 100 -->
      <g transform="translate(122.087727 173.27875) scale(0.08 -0.08)">
       <use xlink:href="#DejaVuSans-31"/>
       <use xlink:href="#DejaVuSans-30" x="63.623047"/>
       <use xlink:href="#DejaVuSans-30" x="127.246094"/>
      </g>
     </g>
    </g>
    <g id="xtick_16">
     <g id="line2d_25">
      <g>
       <use xlink:href="#mdae6564998" x="177.279545" y="160.2" style="stroke: #000000; stroke-width: 0.8"/>
      </g>
     </g>
     <g id="text_22">
      <!-- 150 -->
      <g transform="translate(169.644545 173.27875) scale(0.08 -0.08)">
       <use xlink:href="#DejaVuSans-31"/>
       <use xlink:href="#DejaVuSans-35" x="63.623047"/>
       <use xlink:href="#DejaVuSans-30" x="127.246094"/>
      </g>
     </g>
    </g>
   </g>
   <g id="matplotlib.axis_8">
    <g id="ytick_7">
     <g id="line2d_26">
      <g>
       <use xlink:href="#mf2823a9621" x="27" y="158.625" style="stroke: #000000; stroke-width: 0.8"/>
      </g>
     </g>
     <g id="text_23">
      <!-- 0 -->
      <g transform="translate(14.91 161.664375) scale(0.08 -0.08)">
       <use xlink:href="#DejaVuSans-30"/>
      </g>
     </g>
    </g>
    <g id="ytick_8">
     <g id="line2d_27">
      <g>
       <use xlink:href="#mf2823a9621" x="27" y="127.125" style="stroke: #000000; stroke-width: 0.8"/>
      </g>
     </g>
     <g id="text_24">
      <!-- 1 -->
      <g transform="translate(14.91 130.164375) scale(0.08 -0.08)">
       <use xlink:href="#DejaVuSans-31"/>
      </g>
     </g>
    </g>
   </g>
   <g id="line2d_28">
    <path d="M 34.609091 141.084811 
L 37.581392 139.353818 
L 39.959233 137.720626 
L 44.417685 134.603555 
L 45.903835 133.868919 
L 47.389986 133.411629 
L 48.578906 133.256088 
L 50.065057 133.293927 
L 52.145668 133.631569 
L 55.117969 134.130777 
L 56.604119 134.16303 
L 58.09027 133.970025 
L 59.57642 133.546724 
L 61.359801 132.790377 
L 68.493324 129.438433 
L 71.465625 128.542352 
L 75.924077 127.443973 
L 78.004688 127.148481 
L 79.490838 127.16029 
L 80.679759 127.364507 
L 81.868679 127.778693 
L 83.057599 128.421814 
L 84.24652 129.292603 
L 85.73267 130.662244 
L 87.813281 132.918885 
L 90.785582 136.138983 
L 92.271733 137.450154 
L 93.757884 138.43796 
L 94.946804 138.971514 
L 96.135724 139.284729 
L 97.621875 139.415061 
L 99.702486 139.297107 
L 102.377557 139.15621 
L 103.863707 139.301767 
L 105.349858 139.665038 
L 107.430469 140.448128 
L 109.80831 141.34105 
L 110.99723 141.599249 
L 112.186151 141.637957 
L 113.375071 141.411492 
L 114.563991 140.900736 
L 115.752912 140.114952 
L 117.239063 138.802924 
L 119.319673 136.570716 
L 122.291974 133.360184 
L 123.778125 132.087728 
L 124.967045 131.347623 
L 126.155966 130.901461 
L 127.047656 130.774008 
L 127.939347 130.824517 
L 129.128267 131.154933 
L 130.317187 131.745562 
L 131.803338 132.747202 
L 135.96456 135.745353 
L 137.45071 136.438623 
L 138.639631 136.759735 
L 139.828551 136.86877 
L 141.017472 136.782503 
L 142.503622 136.450274 
L 144.584233 135.730406 
L 147.556534 134.719564 
L 149.042685 134.442401 
L 150.528835 134.406319 
L 152.014986 134.631061 
L 153.501136 135.093648 
L 155.284517 135.882338 
L 163.60696 139.910754 
L 166.579261 141.27796 
L 168.659872 142.503367 
L 170.443253 143.820796 
L 172.226634 145.39408 
L 174.604474 147.80291 
L 180.549077 153.987535 
L 182.926918 156.027504 
L 185.007528 157.528063 
L 186.790909 158.625 
L 186.790909 158.625 
" clip-path="url(#p83c76d80ca)" style="fill: none; stroke: #669bbb; stroke-width: 1.5; stroke-linecap: square"/>
   </g>
   <g id="patch_18">
    <path d="M 27 160.2 
L 27 125.55 
" style="fill: none; stroke: #000000; stroke-width: 0.8; stroke-linejoin: miter; stroke-linecap: square"/>
   </g>
   <g id="patch_19">
    <path d="M 194.4 160.2 
L 194.4 125.55 
" style="fill: none; stroke: #000000; stroke-width: 0.8; stroke-linejoin: miter; stroke-linecap: square"/>
   </g>
   <g id="patch_20">
    <path d="M 27 160.2 
L 194.4 160.2 
" style="fill: none; stroke: #000000; stroke-width: 0.8; stroke-linejoin: miter; stroke-linecap: square"/>
   </g>
   <g id="patch_21">
    <path d="M 27 125.55 
L 194.4 125.55 
" style="fill: none; stroke: #000000; stroke-width: 0.8; stroke-linejoin: miter; stroke-linecap: square"/>
   </g>
  </g>
 </g>
 <defs>
  <clipPath id="p42b5eeb10a">
   <rect x="27" y="21.6" width="167.4" height="34.65"/>
  </clipPath>
  <clipPath id="p83ec31d6a2">
   <rect x="27" y="56.25" width="167.4" height="34.65"/>
  </clipPath>
  <clipPath id="paed109fd6f">
   <rect x="27" y="90.9" width="167.4" height="34.65"/>
  </clipPath>
  <clipPath id="p83c76d80ca">
   <rect x="27" y="125.55" width="167.4" height="34.65"/>
  </clipPath>
 </defs>
</svg>
