<?xml version="1.0" encoding="utf-8" standalone="no"?>
<!DOCTYPE svg PUBLIC "-//W3C//DTD SVG 1.1//EN"
  "http://www.w3.org/Graphics/SVG/1.1/DTD/svg11.dtd">
<svg xmlns:xlink="http://www.w3.org/1999/xlink" width="216pt" height="180pt" viewBox="0 0 216 180" xmlns="http://www.w3.org/2000/svg" version="1.1">
 <metadata>
  <rdf:RDF xmlns:dc="http://purl.org/dc/elements/1.1/" xmlns:cc="http://creativecommons.org/ns#" xmlns:rdf="http://www.w3.org/1999/02/22-rdf-syntax-ns#">
   <cc:Work>
    <dc:type rdf:resource="http://purl.org/dc/dcmitype/StillImage"/>
    <dc:date>2024-05-19T18:30:42.020975</dc:date>
    <dc:format>image/svg+xml</dc:format>
    <dc:creator>
     <cc:Agent>
      <dc:title>Matplotlib v3.7.1, https://matplotlib.org/</dc:title>
     </cc:Agent>
    </dc:creator>
   </cc:Work>
  </rdf:RDF>
 </metadata>
 <defs>
  <style type="text/css">*{stroke-linejoin: round; stroke-linecap: butt}</style>
 </defs>
 <g id="figure_1">
  <g id="patch_1">
   <path d="M 0 180 
L 216 180 
L 216 0 
L 0 0 
z
" style="fill: #ffffff"/>
  </g>
  <g id="axes_1">
   <g id="patch_2">
    <path d="M 41.4 160.2 
L 180 160.2 
L 180 21.6 
L 41.4 21.6 
z
" style="fill: #ffffff"/>
   </g>
   <g id="patch_3">
    <path d="M 103.77 118.851 
C 103.953786 118.851 104.130069 118.777981 104.260025 118.648025 
C 104.389981 118.518069 104.463 118.341786 104.463 118.158 
C 104.463 117.974214 104.389981 117.797931 104.260025 117.667975 
C 104.130069 117.538019 103.953786 117.465 103.77 117.465 
C 103.586214 117.465 103.409931 117.538019 103.279975 117.667975 
C 103.150019 117.797931 103.077 117.974214 103.077 118.158 
C 103.077 118.341786 103.150019 118.518069 103.279975 118.648025 
C 103.409931 118.777981 103.586214 118.851 103.77 118.851 
z
" clip-path="url(#p58f292f74d)" style="fill: #c82423; stroke: #c82423; stroke-linejoin: miter"/>
   </g>
   <g id="patch_4">
    <path d="M 68.196 157.659 
C 68.379786 157.659 68.556069 157.585981 68.686025 157.456025 
C 68.815981 157.326069 68.889 157.149786 68.889 156.966 
C 68.889 156.782214 68.815981 156.605931 68.686025 156.475975 
C 68.556069 156.346019 68.379786 156.273 68.196 156.273 
C 68.012214 156.273 67.835931 156.346019 67.705975 156.475975 
C 67.576019 156.605931 67.503 156.782214 67.503 156.966 
C 67.503 157.149786 67.576019 157.326069 67.705975 157.456025 
C 67.835931 157.585981 68.012214 157.659 68.196 157.659 
z
" clip-path="url(#p58f292f74d)" style="fill: #c82423; stroke: #c82423; stroke-linejoin: miter"/>
   </g>
   <g id="patch_5">
    <path d="M 48.792 110.997 
C 48.975786 110.997 49.152069 110.923981 49.282025 110.794025 
C 49.411981 110.664069 49.485 110.487786 49.485 110.304 
C 49.485 110.120214 49.411981 109.943931 49.282025 109.813975 
C 49.152069 109.684019 48.975786 109.611 48.792 109.611 
C 48.608214 109.611 48.431931 109.684019 48.301975 109.813975 
C 48.172019 109.943931 48.099 110.120214 48.099 110.304 
C 48.099 110.487786 48.172019 110.664069 48.301975 110.794025 
C 48.431931 110.923981 48.608214 110.997 48.792 110.997 
z
" clip-path="url(#p58f292f74d)" style="fill: #c82423; stroke: #c82423; stroke-linejoin: miter"/>
   </g>
   <g id="patch_6">
    <path d="M 52.488 92.055 
C 52.671786 92.055 52.848069 91.981981 52.978025 91.852025 
C 53.107981 91.722069 53.181 91.545786 53.181 91.362 
C 53.181 91.178214 53.107981 91.001931 52.978025 90.871975 
C 52.848069 90.742019 52.671786 90.669 52.488 90.669 
C 52.304214 90.669 52.127931 90.742019 51.997975 90.871975 
C 51.868019 91.001931 51.795 91.178214 51.795 91.362 
C 51.795 91.545786 51.868019 91.722069 51.997975 91.852025 
C 52.127931 91.981981 52.304214 92.055 52.488 92.055 
z
" clip-path="url(#p58f292f74d)" style="fill: #c82423; stroke: #c82423; stroke-linejoin: miter"/>
   </g>
   <g id="patch_7">
    <path d="M 52.488 128.553 
C 52.671786 128.553 52.848069 128.479981 52.978025 128.350025 
C 53.107981 128.220069 53.181 128.043786 53.181 127.86 
C 53.181 127.676214 53.107981 127.499931 52.978025 127.369975 
C 52.848069 127.240019 52.671786 127.167 52.488 127.167 
C 52.304214 127.167 52.127931 127.240019 51.997975 127.369975 
C 51.868019 127.499931 51.795 127.676214 51.795 127.86 
C 51.795 128.043786 51.868019 128.220069 51.997975 128.350025 
C 52.127931 128.479981 52.304214 128.553 52.488 128.553 
z
" clip-path="url(#p58f292f74d)" style="fill: #c82423; stroke: #c82423; stroke-linejoin: miter"/>
   </g>
   <g id="patch_8">
    <path d="M 41.4 69.417 
C 41.583786 69.417 41.760069 69.343981 41.890025 69.214025 
C 42.019981 69.084069 42.093 68.907786 42.093 68.724 
C 42.093 68.540214 42.019981 68.363931 41.890025 68.233975 
C 41.760069 68.104019 41.583786 68.031 41.4 68.031 
C 41.216214 68.031 41.039931 68.104019 40.909975 68.233975 
C 40.780019 68.363931 40.707 68.540214 40.707 68.724 
C 40.707 68.907786 40.780019 69.084069 40.909975 69.214025 
C 41.039931 69.343981 41.216214 69.417 41.4 69.417 
z
" clip-path="url(#p58f292f74d)" style="fill: #c82423; stroke: #c82423; stroke-linejoin: miter"/>
   </g>
   <g id="patch_9">
    <path d="M 51.564 153.963 
C 51.747786 153.963 51.924069 153.889981 52.054025 153.760025 
C 52.183981 153.630069 52.257 153.453786 52.257 153.27 
C 52.257 153.086214 52.183981 152.909931 52.054025 152.779975 
C 51.924069 152.650019 51.747786 152.577 51.564 152.577 
C 51.380214 152.577 51.203931 152.650019 51.073975 152.779975 
C 50.944019 152.909931 50.871 153.086214 50.871 153.27 
C 50.871 153.453786 50.944019 153.630069 51.073975 153.760025 
C 51.203931 153.889981 51.380214 153.963 51.564 153.963 
z
" clip-path="url(#p58f292f74d)" style="fill: #c82423; stroke: #c82423; stroke-linejoin: miter"/>
   </g>
   <g id="patch_10">
    <path d="M 128.718 95.751 
C 128.901786 95.751 129.078069 95.677981 129.208025 95.548025 
C 129.337981 95.418069 129.411 95.241786 129.411 95.058 
C 129.411 94.874214 129.337981 94.697931 129.208025 94.567975 
C 129.078069 94.438019 128.901786 94.365 128.718 94.365 
C 128.534214 94.365 128.357931 94.438019 128.227975 94.567975 
C 128.098019 94.697931 128.025 94.874214 128.025 95.058 
C 128.025 95.241786 128.098019 95.418069 128.227975 95.548025 
C 128.357931 95.677981 128.534214 95.751 128.718 95.751 
z
" clip-path="url(#p58f292f74d)" style="fill: #c82423; stroke: #c82423; stroke-linejoin: miter"/>
   </g>
   <g id="patch_11">
    <path d="M 87.138 141.489 
C 87.321786 141.489 87.498069 141.415981 87.628025 141.286025 
C 87.757981 141.156069 87.831 140.979786 87.831 140.796 
C 87.831 140.612214 87.757981 140.435931 87.628025 140.305975 
C 87.498069 140.176019 87.321786 140.103 87.138 140.103 
C 86.954214 140.103 86.777931 140.176019 86.647975 140.305975 
C 86.518019 140.435931 86.445 140.612214 86.445 140.796 
C 86.445 140.979786 86.518019 141.156069 86.647975 141.286025 
C 86.777931 141.415981 86.954214 141.489 87.138 141.489 
z
" clip-path="url(#p58f292f74d)" style="fill: #c82423; stroke: #c82423; stroke-linejoin: miter"/>
   </g>
   <g id="patch_12">
    <path d="M 77.898 126.705 
C 78.081786 126.705 78.258069 126.631981 78.388025 126.502025 
C 78.517981 126.372069 78.591 126.195786 78.591 126.012 
C 78.591 125.828214 78.517981 125.651931 78.388025 125.521975 
C 78.258069 125.392019 78.081786 125.319 77.898 125.319 
C 77.714214 125.319 77.537931 125.392019 77.407975 125.521975 
C 77.278019 125.651931 77.205 125.828214 77.205 126.012 
C 77.205 126.195786 77.278019 126.372069 77.407975 126.502025 
C 77.537931 126.631981 77.714214 126.705 77.898 126.705 
z
" clip-path="url(#p58f292f74d)" style="fill: #c82423; stroke: #c82423; stroke-linejoin: miter"/>
   </g>
   <g id="patch_13">
    <path d="M 66.348 136.869 
C 66.531786 136.869 66.708069 136.795981 66.838025 136.666025 
C 66.967981 136.536069 67.041 136.359786 67.041 136.176 
C 67.041 135.992214 66.967981 135.815931 66.838025 135.685975 
C 66.708069 135.556019 66.531786 135.483 66.348 135.483 
C 66.164214 135.483 65.987931 135.556019 65.857975 135.685975 
C 65.728019 135.815931 65.655 135.992214 65.655 136.176 
C 65.655 136.359786 65.728019 136.536069 65.857975 136.666025 
C 65.987931 136.795981 66.164214 136.869 66.348 136.869 
z
" clip-path="url(#p58f292f74d)" style="fill: #c82423; stroke: #c82423; stroke-linejoin: miter"/>
   </g>
   <g id="patch_14">
    <path d="M 62.19 89.283 
C 62.373786 89.283 62.550069 89.209981 62.680025 89.080025 
C 62.809981 88.950069 62.883 88.773786 62.883 88.59 
C 62.883 88.406214 62.809981 88.229931 62.680025 88.099975 
C 62.550069 87.970019 62.373786 87.897 62.19 87.897 
C 62.006214 87.897 61.829931 87.970019 61.699975 88.099975 
C 61.570019 88.229931 61.497 88.406214 61.497 88.59 
C 61.497 88.773786 61.570019 88.950069 61.699975 89.080025 
C 61.829931 89.209981 62.006214 89.283 62.19 89.283 
z
" clip-path="url(#p58f292f74d)" style="fill: #c82423; stroke: #c82423; stroke-linejoin: miter"/>
   </g>
   <g id="patch_15">
    <path d="M 125.946 114.693 
C 126.129786 114.693 126.306069 114.619981 126.436025 114.490025 
C 126.565981 114.360069 126.639 114.183786 126.639 114 
C 126.639 113.816214 126.565981 113.639931 126.436025 113.509975 
C 126.306069 113.380019 126.129786 113.307 125.946 113.307 
C 125.762214 113.307 125.585931 113.380019 125.455975 113.509975 
C 125.326019 113.639931 125.253 113.816214 125.253 114 
C 125.253 114.183786 125.326019 114.360069 125.455975 114.490025 
C 125.585931 114.619981 125.762214 114.693 125.946 114.693 
z
" clip-path="url(#p58f292f74d)" style="fill: #c82423; stroke: #c82423; stroke-linejoin: miter"/>
   </g>
   <g id="patch_16">
    <path d="M 69.12 131.787 
C 69.303786 131.787 69.480069 131.713981 69.610025 131.584025 
C 69.739981 131.454069 69.813 131.277786 69.813 131.094 
C 69.813 130.910214 69.739981 130.733931 69.610025 130.603975 
C 69.480069 130.474019 69.303786 130.401 69.12 130.401 
C 68.936214 130.401 68.759931 130.474019 68.629975 130.603975 
C 68.500019 130.733931 68.427 130.910214 68.427 131.094 
C 68.427 131.277786 68.500019 131.454069 68.629975 131.584025 
C 68.759931 131.713981 68.936214 131.787 69.12 131.787 
z
" clip-path="url(#p58f292f74d)" style="fill: #c82423; stroke: #c82423; stroke-linejoin: miter"/>
   </g>
   <g id="patch_17">
    <path d="M 109.776 81.891 
C 109.959786 81.891 110.136069 81.817981 110.266025 81.688025 
C 110.395981 81.558069 110.469 81.381786 110.469 81.198 
C 110.469 81.014214 110.395981 80.837931 110.266025 80.707975 
C 110.136069 80.578019 109.959786 80.505 109.776 80.505 
C 109.592214 80.505 109.415931 80.578019 109.285975 80.707975 
C 109.156019 80.837931 109.083 81.014214 109.083 81.198 
C 109.083 81.381786 109.156019 81.558069 109.285975 81.688025 
C 109.415931 81.817981 109.592214 81.891 109.776 81.891 
z
" clip-path="url(#p58f292f74d)" style="fill: #c82423; stroke: #c82423; stroke-linejoin: miter"/>
   </g>
   <g id="patch_18">
    <path d="M 74.202 111.921 
C 74.385786 111.921 74.562069 111.847981 74.692025 111.718025 
C 74.821981 111.588069 74.895 111.411786 74.895 111.228 
C 74.895 111.044214 74.821981 110.867931 74.692025 110.737975 
C 74.562069 110.608019 74.385786 110.535 74.202 110.535 
C 74.018214 110.535 73.841931 110.608019 73.711975 110.737975 
C 73.582019 110.867931 73.509 111.044214 73.509 111.228 
C 73.509 111.411786 73.582019 111.588069 73.711975 111.718025 
C 73.841931 111.847981 74.018214 111.921 74.202 111.921 
z
" clip-path="url(#p58f292f74d)" style="fill: #c82423; stroke: #c82423; stroke-linejoin: miter"/>
   </g>
   <g id="patch_19">
    <path d="M 74.664 137.793 
C 74.847786 137.793 75.024069 137.719981 75.154025 137.590025 
C 75.283981 137.460069 75.357 137.283786 75.357 137.1 
C 75.357 136.916214 75.283981 136.739931 75.154025 136.609975 
C 75.024069 136.480019 74.847786 136.407 74.664 136.407 
C 74.480214 136.407 74.303931 136.480019 74.173975 136.609975 
C 74.044019 136.739931 73.971 136.916214 73.971 137.1 
C 73.971 137.283786 74.044019 137.460069 74.173975 137.590025 
C 74.303931 137.719981 74.480214 137.793 74.664 137.793 
z
" clip-path="url(#p58f292f74d)" style="fill: #c82423; stroke: #c82423; stroke-linejoin: miter"/>
   </g>
   <g id="patch_20">
    <path d="M 133.338 69.417 
C 133.521786 69.417 133.698069 69.343981 133.828025 69.214025 
C 133.957981 69.084069 134.031 68.907786 134.031 68.724 
C 134.031 68.540214 133.957981 68.363931 133.828025 68.233975 
C 133.698069 68.104019 133.521786 68.031 133.338 68.031 
C 133.154214 68.031 132.977931 68.104019 132.847975 68.233975 
C 132.718019 68.363931 132.645 68.540214 132.645 68.724 
C 132.645 68.907786 132.718019 69.084069 132.847975 69.214025 
C 132.977931 69.343981 133.154214 69.417 133.338 69.417 
z
" clip-path="url(#p58f292f74d)" style="fill: #c82423; stroke: #c82423; stroke-linejoin: miter"/>
   </g>
   <g id="patch_21">
    <path d="M 52.026 99.447 
C 52.209786 99.447 52.386069 99.373981 52.516025 99.244025 
C 52.645981 99.114069 52.719 98.937786 52.719 98.754 
C 52.719 98.570214 52.645981 98.393931 52.516025 98.263975 
C 52.386069 98.134019 52.209786 98.061 52.026 98.061 
C 51.842214 98.061 51.665931 98.134019 51.535975 98.263975 
C 51.406019 98.393931 51.333 98.570214 51.333 98.754 
C 51.333 98.937786 51.406019 99.114069 51.535975 99.244025 
C 51.665931 99.373981 51.842214 99.447 52.026 99.447 
z
" clip-path="url(#p58f292f74d)" style="fill: #c82423; stroke: #c82423; stroke-linejoin: miter"/>
   </g>
   <g id="patch_22">
    <path d="M 95.916 118.389 
C 96.099786 118.389 96.276069 118.315981 96.406025 118.186025 
C 96.535981 118.056069 96.609 117.879786 96.609 117.696 
C 96.609 117.512214 96.535981 117.335931 96.406025 117.205975 
C 96.276069 117.076019 96.099786 117.003 95.916 117.003 
C 95.732214 117.003 95.555931 117.076019 95.425975 117.205975 
C 95.296019 117.335931 95.223 117.512214 95.223 117.696 
C 95.223 117.879786 95.296019 118.056069 95.425975 118.186025 
C 95.555931 118.315981 95.732214 118.389 95.916 118.389 
z
" clip-path="url(#p58f292f74d)" style="fill: #c82423; stroke: #c82423; stroke-linejoin: miter"/>
   </g>
   <g id="patch_23">
    <path d="M 73.74 144.723 
C 73.923786 144.723 74.100069 144.649981 74.230025 144.520025 
C 74.359981 144.390069 74.433 144.213786 74.433 144.03 
C 74.433 143.846214 74.359981 143.669931 74.230025 143.539975 
C 74.100069 143.410019 73.923786 143.337 73.74 143.337 
C 73.556214 143.337 73.379931 143.410019 73.249975 143.539975 
C 73.120019 143.669931 73.047 143.846214 73.047 144.03 
C 73.047 144.213786 73.120019 144.390069 73.249975 144.520025 
C 73.379931 144.649981 73.556214 144.723 73.74 144.723 
z
" clip-path="url(#p58f292f74d)" style="fill: #c82423; stroke: #c82423; stroke-linejoin: miter"/>
   </g>
   <g id="patch_24">
    <path d="M 76.05 124.395 
C 76.233786 124.395 76.410069 124.321981 76.540025 124.192025 
C 76.669981 124.062069 76.743 123.885786 76.743 123.702 
C 76.743 123.518214 76.669981 123.341931 76.540025 123.211975 
C 76.410069 123.082019 76.233786 123.009 76.05 123.009 
C 75.866214 123.009 75.689931 123.082019 75.559975 123.211975 
C 75.430019 123.341931 75.357 123.518214 75.357 123.702 
C 75.357 123.885786 75.430019 124.062069 75.559975 124.192025 
C 75.689931 124.321981 75.866214 124.395 76.05 124.395 
z
" clip-path="url(#p58f292f74d)" style="fill: #c82423; stroke: #c82423; stroke-linejoin: miter"/>
   </g>
   <g id="patch_25">
    <path d="M 102.384 148.881 
C 102.567786 148.881 102.744069 148.807981 102.874025 148.678025 
C 103.003981 148.548069 103.077 148.371786 103.077 148.188 
C 103.077 148.004214 103.003981 147.827931 102.874025 147.697975 
C 102.744069 147.568019 102.567786 147.495 102.384 147.495 
C 102.200214 147.495 102.023931 147.568019 101.893975 147.697975 
C 101.764019 147.827931 101.691 148.004214 101.691 148.188 
C 101.691 148.371786 101.764019 148.548069 101.893975 148.678025 
C 102.023931 148.807981 102.200214 148.881 102.384 148.881 
z
" clip-path="url(#p58f292f74d)" style="fill: #c82423; stroke: #c82423; stroke-linejoin: miter"/>
   </g>
   <g id="patch_26">
    <path d="M 76.512 112.845 
C 76.695786 112.845 76.872069 112.771981 77.002025 112.642025 
C 77.131981 112.512069 77.205 112.335786 77.205 112.152 
C 77.205 111.968214 77.131981 111.791931 77.002025 111.661975 
C 76.872069 111.532019 76.695786 111.459 76.512 111.459 
C 76.328214 111.459 76.151931 111.532019 76.021975 111.661975 
C 75.892019 111.791931 75.819 111.968214 75.819 112.152 
C 75.819 112.335786 75.892019 112.512069 76.021975 112.642025 
C 76.151931 112.771981 76.328214 112.845 76.512 112.845 
z
" clip-path="url(#p58f292f74d)" style="fill: #c82423; stroke: #c82423; stroke-linejoin: miter"/>
   </g>
   <g id="patch_27">
    <path d="M 77.898 70.803 
C 78.081786 70.803 78.258069 70.729981 78.388025 70.600025 
C 78.517981 70.470069 78.591 70.293786 78.591 70.11 
C 78.591 69.926214 78.517981 69.749931 78.388025 69.619975 
C 78.258069 69.490019 78.081786 69.417 77.898 69.417 
C 77.714214 69.417 77.537931 69.490019 77.407975 69.619975 
C 77.278019 69.749931 77.205 69.926214 77.205 70.11 
C 77.205 70.293786 77.278019 70.470069 77.407975 70.600025 
C 77.537931 70.729981 77.714214 70.803 77.898 70.803 
z
" clip-path="url(#p58f292f74d)" style="fill: #c82423; stroke: #c82423; stroke-linejoin: miter"/>
   </g>
   <g id="patch_28">
    <path d="M 129.18 88.821 
C 129.363786 88.821 129.540069 88.747981 129.670025 88.618025 
C 129.799981 88.488069 129.873 88.311786 129.873 88.128 
C 129.873 87.944214 129.799981 87.767931 129.670025 87.637975 
C 129.540069 87.508019 129.363786 87.435 129.18 87.435 
C 128.996214 87.435 128.819931 87.508019 128.689975 87.637975 
C 128.560019 87.767931 128.487 87.944214 128.487 88.128 
C 128.487 88.311786 128.560019 88.488069 128.689975 88.618025 
C 128.819931 88.747981 128.996214 88.821 129.18 88.821 
z
" clip-path="url(#p58f292f74d)" style="fill: #c82423; stroke: #c82423; stroke-linejoin: miter"/>
   </g>
   <g id="patch_29">
    <path d="M 49.716 74.499 
C 49.899786 74.499 50.076069 74.425981 50.206025 74.296025 
C 50.335981 74.166069 50.409 73.989786 50.409 73.806 
C 50.409 73.622214 50.335981 73.445931 50.206025 73.315975 
C 50.076069 73.186019 49.899786 73.113 49.716 73.113 
C 49.532214 73.113 49.355931 73.186019 49.225975 73.315975 
C 49.096019 73.445931 49.023 73.622214 49.023 73.806 
C 49.023 73.989786 49.096019 74.166069 49.225975 74.296025 
C 49.355931 74.425981 49.532214 74.499 49.716 74.499 
z
" clip-path="url(#p58f292f74d)" style="fill: #c82423; stroke: #c82423; stroke-linejoin: miter"/>
   </g>
   <g id="patch_30">
    <path d="M 89.448 123.009 
C 89.631786 123.009 89.808069 122.935981 89.938025 122.806025 
C 90.067981 122.676069 90.141 122.499786 90.141 122.316 
C 90.141 122.132214 90.067981 121.955931 89.938025 121.825975 
C 89.808069 121.696019 89.631786 121.623 89.448 121.623 
C 89.264214 121.623 89.087931 121.696019 88.957975 121.825975 
C 88.828019 121.955931 88.755 122.132214 88.755 122.316 
C 88.755 122.499786 88.828019 122.676069 88.957975 122.806025 
C 89.087931 122.935981 89.264214 123.009 89.448 123.009 
z
" clip-path="url(#p58f292f74d)" style="fill: #c82423; stroke: #c82423; stroke-linejoin: miter"/>
   </g>
   <g id="patch_31">
    <path d="M 128.718 111.921 
C 128.901786 111.921 129.078069 111.847981 129.208025 111.718025 
C 129.337981 111.588069 129.411 111.411786 129.411 111.228 
C 129.411 111.044214 129.337981 110.867931 129.208025 110.737975 
C 129.078069 110.608019 128.901786 110.535 128.718 110.535 
C 128.534214 110.535 128.357931 110.608019 128.227975 110.737975 
C 128.098019 110.867931 128.025 111.044214 128.025 111.228 
C 128.025 111.411786 128.098019 111.588069 128.227975 111.718025 
C 128.357931 111.847981 128.534214 111.921 128.718 111.921 
z
" clip-path="url(#p58f292f74d)" style="fill: #c82423; stroke: #c82423; stroke-linejoin: miter"/>
   </g>
   <g id="patch_32">
    <path d="M 84.366 82.815 
C 84.549786 82.815 84.726069 82.741981 84.856025 82.612025 
C 84.985981 82.482069 85.059 82.305786 85.059 82.122 
C 85.059 81.938214 84.985981 81.761931 84.856025 81.631975 
C 84.726069 81.502019 84.549786 81.429 84.366 81.429 
C 84.182214 81.429 84.005931 81.502019 83.875975 81.631975 
C 83.746019 81.761931 83.673 81.938214 83.673 82.122 
C 83.673 82.305786 83.746019 82.482069 83.875975 82.612025 
C 84.005931 82.741981 84.182214 82.815 84.366 82.815 
z
" clip-path="url(#p58f292f74d)" style="fill: #c82423; stroke: #c82423; stroke-linejoin: miter"/>
   </g>
   <g id="patch_33">
    <path d="M 125.484 88.359 
C 125.667786 88.359 125.844069 88.285981 125.974025 88.156025 
C 126.103981 88.026069 126.177 87.849786 126.177 87.666 
C 126.177 87.482214 126.103981 87.305931 125.974025 87.175975 
C 125.844069 87.046019 125.667786 86.973 125.484 86.973 
C 125.300214 86.973 125.123931 87.046019 124.993975 87.175975 
C 124.864019 87.305931 124.791 87.482214 124.791 87.666 
C 124.791 87.849786 124.864019 88.026069 124.993975 88.156025 
C 125.123931 88.285981 125.300214 88.359 125.484 88.359 
z
" clip-path="url(#p58f292f74d)" style="fill: #c82423; stroke: #c82423; stroke-linejoin: miter"/>
   </g>
   <g id="patch_34">
    <path d="M 101.922 98.061 
C 102.105786 98.061 102.282069 97.987981 102.412025 97.858025 
C 102.541981 97.728069 102.615 97.551786 102.615 97.368 
C 102.615 97.184214 102.541981 97.007931 102.412025 96.877975 
C 102.282069 96.748019 102.105786 96.675 101.922 96.675 
C 101.738214 96.675 101.561931 96.748019 101.431975 96.877975 
C 101.302019 97.007931 101.229 97.184214 101.229 97.368 
C 101.229 97.551786 101.302019 97.728069 101.431975 97.858025 
C 101.561931 97.987981 101.738214 98.061 101.922 98.061 
z
" clip-path="url(#p58f292f74d)" style="fill: #c82423; stroke: #c82423; stroke-linejoin: miter"/>
   </g>
   <g id="patch_35">
    <path d="M 73.278 147.033 
C 73.461786 147.033 73.638069 146.959981 73.768025 146.830025 
C 73.897981 146.700069 73.971 146.523786 73.971 146.34 
C 73.971 146.156214 73.897981 145.979931 73.768025 145.849975 
C 73.638069 145.720019 73.461786 145.647 73.278 145.647 
C 73.094214 145.647 72.917931 145.720019 72.787975 145.849975 
C 72.658019 145.979931 72.585 146.156214 72.585 146.34 
C 72.585 146.523786 72.658019 146.700069 72.787975 146.830025 
C 72.917931 146.959981 73.094214 147.033 73.278 147.033 
z
" clip-path="url(#p58f292f74d)" style="fill: #c82423; stroke: #c82423; stroke-linejoin: miter"/>
   </g>
   <g id="patch_36">
    <path d="M 51.102 82.353 
C 51.285786 82.353 51.462069 82.279981 51.592025 82.150025 
C 51.721981 82.020069 51.795 81.843786 51.795 81.66 
C 51.795 81.476214 51.721981 81.299931 51.592025 81.169975 
C 51.462069 81.040019 51.285786 80.967 51.102 80.967 
C 50.918214 80.967 50.741931 81.040019 50.611975 81.169975 
C 50.482019 81.299931 50.409 81.476214 50.409 81.66 
C 50.409 81.843786 50.482019 82.020069 50.611975 82.150025 
C 50.741931 82.279981 50.918214 82.353 51.102 82.353 
z
" clip-path="url(#p58f292f74d)" style="fill: #c82423; stroke: #c82423; stroke-linejoin: miter"/>
   </g>
   <g id="patch_37">
    <path d="M 131.49 144.261 
C 131.673786 144.261 131.850069 144.187981 131.980025 144.058025 
C 132.109981 143.928069 132.183 143.751786 132.183 143.568 
C 132.183 143.384214 132.109981 143.207931 131.980025 143.077975 
C 131.850069 142.948019 131.673786 142.875 131.49 142.875 
C 131.306214 142.875 131.129931 142.948019 130.999975 143.077975 
C 130.870019 143.207931 130.797 143.384214 130.797 143.568 
C 130.797 143.751786 130.870019 143.928069 130.999975 144.058025 
C 131.129931 144.187981 131.306214 144.261 131.49 144.261 
z
" clip-path="url(#p58f292f74d)" style="fill: #c82423; stroke: #c82423; stroke-linejoin: miter"/>
   </g>
   <g id="patch_38">
    <path d="M 123.174 69.417 
C 123.357786 69.417 123.534069 69.343981 123.664025 69.214025 
C 123.793981 69.084069 123.867 68.907786 123.867 68.724 
C 123.867 68.540214 123.793981 68.363931 123.664025 68.233975 
C 123.534069 68.104019 123.357786 68.031 123.174 68.031 
C 122.990214 68.031 122.813931 68.104019 122.683975 68.233975 
C 122.554019 68.363931 122.481 68.540214 122.481 68.724 
C 122.481 68.907786 122.554019 69.084069 122.683975 69.214025 
C 122.813931 69.343981 122.990214 69.417 123.174 69.417 
z
" clip-path="url(#p58f292f74d)" style="fill: #c82423; stroke: #c82423; stroke-linejoin: miter"/>
   </g>
   <g id="patch_39">
    <path d="M 62.652 84.201 
C 62.835786 84.201 63.012069 84.127981 63.142025 83.998025 
C 63.271981 83.868069 63.345 83.691786 63.345 83.508 
C 63.345 83.324214 63.271981 83.147931 63.142025 83.017975 
C 63.012069 82.888019 62.835786 82.815 62.652 82.815 
C 62.468214 82.815 62.291931 82.888019 62.161975 83.017975 
C 62.032019 83.147931 61.959 83.324214 61.959 83.508 
C 61.959 83.691786 62.032019 83.868069 62.161975 83.998025 
C 62.291931 84.127981 62.468214 84.201 62.652 84.201 
z
" clip-path="url(#p58f292f74d)" style="fill: #c82423; stroke: #c82423; stroke-linejoin: miter"/>
   </g>
   <g id="patch_40">
    <path d="M 58.494 147.957 
C 58.677786 147.957 58.854069 147.883981 58.984025 147.754025 
C 59.113981 147.624069 59.187 147.447786 59.187 147.264 
C 59.187 147.080214 59.113981 146.903931 58.984025 146.773975 
C 58.854069 146.644019 58.677786 146.571 58.494 146.571 
C 58.310214 146.571 58.133931 146.644019 58.003975 146.773975 
C 57.874019 146.903931 57.801 147.080214 57.801 147.264 
C 57.801 147.447786 57.874019 147.624069 58.003975 147.754025 
C 58.133931 147.883981 58.310214 147.957 58.494 147.957 
z
" clip-path="url(#p58f292f74d)" style="fill: #c82423; stroke: #c82423; stroke-linejoin: miter"/>
   </g>
   <g id="patch_41">
    <path d="M 111.624 140.565 
C 111.807786 140.565 111.984069 140.491981 112.114025 140.362025 
C 112.243981 140.232069 112.317 140.055786 112.317 139.872 
C 112.317 139.688214 112.243981 139.511931 112.114025 139.381975 
C 111.984069 139.252019 111.807786 139.179 111.624 139.179 
C 111.440214 139.179 111.263931 139.252019 111.133975 139.381975 
C 111.004019 139.511931 110.931 139.688214 110.931 139.872 
C 110.931 140.055786 111.004019 140.232069 111.133975 140.362025 
C 111.263931 140.491981 111.440214 140.565 111.624 140.565 
z
" clip-path="url(#p58f292f74d)" style="fill: #c82423; stroke: #c82423; stroke-linejoin: miter"/>
   </g>
   <g id="patch_42">
    <path d="M 129.18 72.189 
C 129.363786 72.189 129.540069 72.115981 129.670025 71.986025 
C 129.799981 71.856069 129.873 71.679786 129.873 71.496 
C 129.873 71.312214 129.799981 71.135931 129.670025 71.005975 
C 129.540069 70.876019 129.363786 70.803 129.18 70.803 
C 128.996214 70.803 128.819931 70.876019 128.689975 71.005975 
C 128.560019 71.135931 128.487 71.312214 128.487 71.496 
C 128.487 71.679786 128.560019 71.856069 128.689975 71.986025 
C 128.819931 72.115981 128.996214 72.189 129.18 72.189 
z
" clip-path="url(#p58f292f74d)" style="fill: #c82423; stroke: #c82423; stroke-linejoin: miter"/>
   </g>
   <g id="patch_43">
    <path d="M 106.542 74.037 
C 106.725786 74.037 106.902069 73.963981 107.032025 73.834025 
C 107.161981 73.704069 107.235 73.527786 107.235 73.344 
C 107.235 73.160214 107.161981 72.983931 107.032025 72.853975 
C 106.902069 72.724019 106.725786 72.651 106.542 72.651 
C 106.358214 72.651 106.181931 72.724019 106.051975 72.853975 
C 105.922019 72.983931 105.849 73.160214 105.849 73.344 
C 105.849 73.527786 105.922019 73.704069 106.051975 73.834025 
C 106.181931 73.963981 106.358214 74.037 106.542 74.037 
z
" clip-path="url(#p58f292f74d)" style="fill: #c82423; stroke: #c82423; stroke-linejoin: miter"/>
   </g>
   <g id="patch_44">
    <path d="M 105.618 106.377 
C 105.801786 106.377 105.978069 106.303981 106.108025 106.174025 
C 106.237981 106.044069 106.311 105.867786 106.311 105.684 
C 106.311 105.500214 106.237981 105.323931 106.108025 105.193975 
C 105.978069 105.064019 105.801786 104.991 105.618 104.991 
C 105.434214 104.991 105.257931 105.064019 105.127975 105.193975 
C 104.998019 105.323931 104.925 105.500214 104.925 105.684 
C 104.925 105.867786 104.998019 106.044069 105.127975 106.174025 
C 105.257931 106.303981 105.434214 106.377 105.618 106.377 
z
" clip-path="url(#p58f292f74d)" style="fill: #c82423; stroke: #c82423; stroke-linejoin: miter"/>
   </g>
   <g id="patch_45">
    <path d="M 95.916 87.435 
C 96.099786 87.435 96.276069 87.361981 96.406025 87.232025 
C 96.535981 87.102069 96.609 86.925786 96.609 86.742 
C 96.609 86.558214 96.535981 86.381931 96.406025 86.251975 
C 96.276069 86.122019 96.099786 86.049 95.916 86.049 
C 95.732214 86.049 95.555931 86.122019 95.425975 86.251975 
C 95.296019 86.381931 95.223 86.558214 95.223 86.742 
C 95.223 86.925786 95.296019 87.102069 95.425975 87.232025 
C 95.555931 87.361981 95.732214 87.435 95.916 87.435 
z
" clip-path="url(#p58f292f74d)" style="fill: #c82423; stroke: #c82423; stroke-linejoin: miter"/>
   </g>
   <g id="patch_46">
    <path d="M 87.6 141.027 
C 87.783786 141.027 87.960069 140.953981 88.090025 140.824025 
C 88.219981 140.694069 88.293 140.517786 88.293 140.334 
C 88.293 140.150214 88.219981 139.973931 88.090025 139.843975 
C 87.960069 139.714019 87.783786 139.641 87.6 139.641 
C 87.416214 139.641 87.239931 139.714019 87.109975 139.843975 
C 86.980019 139.973931 86.907 140.150214 86.907 140.334 
C 86.907 140.517786 86.980019 140.694069 87.109975 140.824025 
C 87.239931 140.953981 87.416214 141.027 87.6 141.027 
z
" clip-path="url(#p58f292f74d)" style="fill: #c82423; stroke: #c82423; stroke-linejoin: miter"/>
   </g>
   <g id="patch_47">
    <path d="M 88.062 113.769 
C 88.245786 113.769 88.422069 113.695981 88.552025 113.566025 
C 88.681981 113.436069 88.755 113.259786 88.755 113.076 
C 88.755 112.892214 88.681981 112.715931 88.552025 112.585975 
C 88.422069 112.456019 88.245786 112.383 88.062 112.383 
C 87.878214 112.383 87.701931 112.456019 87.571975 112.585975 
C 87.442019 112.715931 87.369 112.892214 87.369 113.076 
C 87.369 113.259786 87.442019 113.436069 87.571975 113.566025 
C 87.701931 113.695981 87.878214 113.769 88.062 113.769 
z
" clip-path="url(#p58f292f74d)" style="fill: #c82423; stroke: #c82423; stroke-linejoin: miter"/>
   </g>
   <g id="patch_48">
    <path d="M 60.804 99.909 
C 60.987786 99.909 61.164069 99.835981 61.294025 99.706025 
C 61.423981 99.576069 61.497 99.399786 61.497 99.216 
C 61.497 99.032214 61.423981 98.855931 61.294025 98.725975 
C 61.164069 98.596019 60.987786 98.523 60.804 98.523 
C 60.620214 98.523 60.443931 98.596019 60.313975 98.725975 
C 60.184019 98.855931 60.111 99.032214 60.111 99.216 
C 60.111 99.399786 60.184019 99.576069 60.313975 99.706025 
C 60.443931 99.835981 60.620214 99.909 60.804 99.909 
z
" clip-path="url(#p58f292f74d)" style="fill: #c82423; stroke: #c82423; stroke-linejoin: miter"/>
   </g>
   <g id="patch_49">
    <path d="M 66.81 112.383 
C 66.993786 112.383 67.170069 112.309981 67.300025 112.180025 
C 67.429981 112.050069 67.503 111.873786 67.503 111.69 
C 67.503 111.506214 67.429981 111.329931 67.300025 111.199975 
C 67.170069 111.070019 66.993786 110.997 66.81 110.997 
C 66.626214 110.997 66.449931 111.070019 66.319975 111.199975 
C 66.190019 111.329931 66.117 111.506214 66.117 111.69 
C 66.117 111.873786 66.190019 112.050069 66.319975 112.180025 
C 66.449931 112.309981 66.626214 112.383 66.81 112.383 
z
" clip-path="url(#p58f292f74d)" style="fill: #c82423; stroke: #c82423; stroke-linejoin: miter"/>
   </g>
   <g id="patch_50">
    <path d="M 77.898 108.687 
C 78.081786 108.687 78.258069 108.613981 78.388025 108.484025 
C 78.517981 108.354069 78.591 108.177786 78.591 107.994 
C 78.591 107.810214 78.517981 107.633931 78.388025 107.503975 
C 78.258069 107.374019 78.081786 107.301 77.898 107.301 
C 77.714214 107.301 77.537931 107.374019 77.407975 107.503975 
C 77.278019 107.633931 77.205 107.810214 77.205 107.994 
C 77.205 108.177786 77.278019 108.354069 77.407975 108.484025 
C 77.537931 108.613981 77.714214 108.687 77.898 108.687 
z
" clip-path="url(#p58f292f74d)" style="fill: #c82423; stroke: #c82423; stroke-linejoin: miter"/>
   </g>
   <g id="patch_51">
    <path d="M 130.104 95.751 
C 130.287786 95.751 130.464069 95.677981 130.594025 95.548025 
C 130.723981 95.418069 130.797 95.241786 130.797 95.058 
C 130.797 94.874214 130.723981 94.697931 130.594025 94.567975 
C 130.464069 94.438019 130.287786 94.365 130.104 94.365 
C 129.920214 94.365 129.743931 94.438019 129.613975 94.567975 
C 129.484019 94.697931 129.411 94.874214 129.411 95.058 
C 129.411 95.241786 129.484019 95.418069 129.613975 95.548025 
C 129.743931 95.677981 129.920214 95.751 130.104 95.751 
z
" clip-path="url(#p58f292f74d)" style="fill: #c82423; stroke: #c82423; stroke-linejoin: miter"/>
   </g>
   <g id="patch_52">
    <path d="M 120.402 133.173 
C 120.585786 133.173 120.762069 133.099981 120.892025 132.970025 
C 121.021981 132.840069 121.095 132.663786 121.095 132.48 
C 121.095 132.296214 121.021981 132.119931 120.892025 131.989975 
C 120.762069 131.860019 120.585786 131.787 120.402 131.787 
C 120.218214 131.787 120.041931 131.860019 119.911975 131.989975 
C 119.782019 132.119931 119.709 132.296214 119.709 132.48 
C 119.709 132.663786 119.782019 132.840069 119.911975 132.970025 
C 120.041931 133.099981 120.218214 133.173 120.402 133.173 
z
" clip-path="url(#p58f292f74d)" style="fill: #c82423; stroke: #c82423; stroke-linejoin: miter"/>
   </g>
   <g id="patch_53">
    <path d="M 179.538 88.359 
C 179.721786 88.359 179.898069 88.285981 180.028025 88.156025 
C 180.157981 88.026069 180.231 87.849786 180.231 87.666 
C 180.231 87.482214 180.157981 87.305931 180.028025 87.175975 
C 179.898069 87.046019 179.721786 86.973 179.538 86.973 
C 179.354214 86.973 179.177931 87.046019 179.047975 87.175975 
C 178.918019 87.305931 178.845 87.482214 178.845 87.666 
C 178.845 87.849786 178.918019 88.026069 179.047975 88.156025 
C 179.177931 88.285981 179.354214 88.359 179.538 88.359 
z
" clip-path="url(#p58f292f74d)" style="fill: #3b5284; stroke: #3b5284; stroke-linejoin: miter"/>
   </g>
   <g id="patch_54">
    <path d="M 156.438 48.627 
C 156.621786 48.627 156.798069 48.553981 156.928025 48.424025 
C 157.057981 48.294069 157.131 48.117786 157.131 47.934 
C 157.131 47.750214 157.057981 47.573931 156.928025 47.443975 
C 156.798069 47.314019 156.621786 47.241 156.438 47.241 
C 156.254214 47.241 156.077931 47.314019 155.947975 47.443975 
C 155.818019 47.573931 155.745 47.750214 155.745 47.934 
C 155.745 48.117786 155.818019 48.294069 155.947975 48.424025 
C 156.077931 48.553981 156.254214 48.627 156.438 48.627 
z
" clip-path="url(#p58f292f74d)" style="fill: #3b5284; stroke: #3b5284; stroke-linejoin: miter"/>
   </g>
   <g id="patch_55">
    <path d="M 146.736 51.399 
C 146.919786 51.399 147.096069 51.325981 147.226025 51.196025 
C 147.355981 51.066069 147.429 50.889786 147.429 50.706 
C 147.429 50.522214 147.355981 50.345931 147.226025 50.215975 
C 147.096069 50.086019 146.919786 50.013 146.736 50.013 
C 146.552214 50.013 146.375931 50.086019 146.245975 50.215975 
C 146.116019 50.345931 146.043 50.522214 146.043 50.706 
C 146.043 50.889786 146.116019 51.066069 146.245975 51.196025 
C 146.375931 51.325981 146.552214 51.399 146.736 51.399 
z
" clip-path="url(#p58f292f74d)" style="fill: #3b5284; stroke: #3b5284; stroke-linejoin: miter"/>
   </g>
   <g id="patch_56">
    <path d="M 170.76 73.575 
C 170.943786 73.575 171.120069 73.501981 171.250025 73.372025 
C 171.379981 73.242069 171.453 73.065786 171.453 72.882 
C 171.453 72.698214 171.379981 72.521931 171.250025 72.391975 
C 171.120069 72.262019 170.943786 72.189 170.76 72.189 
C 170.576214 72.189 170.399931 72.262019 170.269975 72.391975 
C 170.140019 72.521931 170.067 72.698214 170.067 72.882 
C 170.067 73.065786 170.140019 73.242069 170.269975 73.372025 
C 170.399931 73.501981 170.576214 73.575 170.76 73.575 
z
" clip-path="url(#p58f292f74d)" style="fill: #3b5284; stroke: #3b5284; stroke-linejoin: miter"/>
   </g>
   <g id="patch_57">
    <path d="M 151.356 19.521 
C 151.539786 19.521 151.716069 19.447981 151.846025 19.318025 
C 151.975981 19.188069 152.049 19.011786 152.049 18.828 
C 152.049 18.644214 151.975981 18.467931 151.846025 18.337975 
C 151.716069 18.208019 151.539786 18.135 151.356 18.135 
C 151.172214 18.135 150.995931 18.208019 150.865975 18.337975 
C 150.736019 18.467931 150.663 18.644214 150.663 18.828 
C 150.663 19.011786 150.736019 19.188069 150.865975 19.318025 
C 150.995931 19.447981 151.172214 19.521 151.356 19.521 
z
" clip-path="url(#p58f292f74d)" style="fill: #3b5284; stroke: #3b5284; stroke-linejoin: miter"/>
   </g>
   <g id="patch_58">
    <path d="M 128.718 29.685 
C 128.901786 29.685 129.078069 29.611981 129.208025 29.482025 
C 129.337981 29.352069 129.411 29.175786 129.411 28.992 
C 129.411 28.808214 129.337981 28.631931 129.208025 28.501975 
C 129.078069 28.372019 128.901786 28.299 128.718 28.299 
C 128.534214 28.299 128.357931 28.372019 128.227975 28.501975 
C 128.098019 28.631931 128.025 28.808214 128.025 28.992 
C 128.025 29.175786 128.098019 29.352069 128.227975 29.482025 
C 128.357931 29.611981 128.534214 29.685 128.718 29.685 
z
" clip-path="url(#p58f292f74d)" style="fill: #3b5284; stroke: #3b5284; stroke-linejoin: miter"/>
   </g>
   <g id="patch_59">
    <path d="M 154.128 61.563 
C 154.311786 61.563 154.488069 61.489981 154.618025 61.360025 
C 154.747981 61.230069 154.821 61.053786 154.821 60.87 
C 154.821 60.686214 154.747981 60.509931 154.618025 60.379975 
C 154.488069 60.250019 154.311786 60.177 154.128 60.177 
C 153.944214 60.177 153.767931 60.250019 153.637975 60.379975 
C 153.508019 60.509931 153.435 60.686214 153.435 60.87 
C 153.435 61.053786 153.508019 61.230069 153.637975 61.360025 
C 153.767931 61.489981 153.944214 61.563 154.128 61.563 
z
" clip-path="url(#p58f292f74d)" style="fill: #3b5284; stroke: #3b5284; stroke-linejoin: miter"/>
   </g>
   <g id="patch_60">
    <path d="M 193.86 84.663 
C 194.043786 84.663 194.220069 84.589981 194.350025 84.460025 
C 194.479981 84.330069 194.553 84.153786 194.553 83.97 
C 194.553 83.786214 194.479981 83.609931 194.350025 83.479975 
C 194.220069 83.350019 194.043786 83.277 193.86 83.277 
C 193.676214 83.277 193.499931 83.350019 193.369975 83.479975 
C 193.240019 83.609931 193.167 83.786214 193.167 83.97 
C 193.167 84.153786 193.240019 84.330069 193.369975 84.460025 
C 193.499931 84.589981 193.676214 84.663 193.86 84.663 
z
" clip-path="url(#p58f292f74d)" style="fill: #3b5284; stroke: #3b5284; stroke-linejoin: miter"/>
   </g>
   <g id="patch_61">
    <path d="M 180 16.749 
C 180.183786 16.749 180.360069 16.675981 180.490025 16.546025 
C 180.619981 16.416069 180.693 16.239786 180.693 16.056 
C 180.693 15.872214 180.619981 15.695931 180.490025 15.565975 
C 180.360069 15.436019 180.183786 15.363 180 15.363 
C 179.816214 15.363 179.639931 15.436019 179.509975 15.565975 
C 179.380019 15.695931 179.307 15.872214 179.307 16.056 
C 179.307 16.239786 179.380019 16.416069 179.509975 16.546025 
C 179.639931 16.675981 179.816214 16.749 180 16.749 
z
" clip-path="url(#p58f292f74d)" style="fill: #3b5284; stroke: #3b5284; stroke-linejoin: miter"/>
   </g>
   <g id="patch_62">
    <path d="M 155.514 54.633 
C 155.697786 54.633 155.874069 54.559981 156.004025 54.430025 
C 156.133981 54.300069 156.207 54.123786 156.207 53.94 
C 156.207 53.756214 156.133981 53.579931 156.004025 53.449975 
C 155.874069 53.320019 155.697786 53.247 155.514 53.247 
C 155.330214 53.247 155.153931 53.320019 155.023975 53.449975 
C 154.894019 53.579931 154.821 53.756214 154.821 53.94 
C 154.821 54.123786 154.894019 54.300069 155.023975 54.430025 
C 155.153931 54.559981 155.330214 54.633 155.514 54.633 
z
" clip-path="url(#p58f292f74d)" style="fill: #3b5284; stroke: #3b5284; stroke-linejoin: miter"/>
   </g>
   <g id="patch_63">
    <path d="M 163.83 28.299 
C 164.013786 28.299 164.190069 28.225981 164.320025 28.096025 
C 164.449981 27.966069 164.523 27.789786 164.523 27.606 
C 164.523 27.422214 164.449981 27.245931 164.320025 27.115975 
C 164.190069 26.986019 164.013786 26.913 163.83 26.913 
C 163.646214 26.913 163.469931 26.986019 163.339975 27.115975 
C 163.210019 27.245931 163.137 27.422214 163.137 27.606 
C 163.137 27.789786 163.210019 27.966069 163.339975 28.096025 
C 163.469931 28.225981 163.646214 28.299 163.83 28.299 
z
" clip-path="url(#p58f292f74d)" style="fill: #3b5284; stroke: #3b5284; stroke-linejoin: miter"/>
   </g>
   <g id="patch_64">
    <path d="M 125.946 24.141 
C 126.129786 24.141 126.306069 24.067981 126.436025 23.938025 
C 126.565981 23.808069 126.639 23.631786 126.639 23.448 
C 126.639 23.264214 126.565981 23.087931 126.436025 22.957975 
C 126.306069 22.828019 126.129786 22.755 125.946 22.755 
C 125.762214 22.755 125.585931 22.828019 125.455975 22.957975 
C 125.326019 23.087931 125.253 23.264214 125.253 23.448 
C 125.253 23.631786 125.326019 23.808069 125.455975 23.938025 
C 125.585931 24.067981 125.762214 24.141 125.946 24.141 
z
" clip-path="url(#p58f292f74d)" style="fill: #3b5284; stroke: #3b5284; stroke-linejoin: miter"/>
   </g>
   <g id="patch_65">
    <path d="M 174.918 41.697 
C 175.101786 41.697 175.278069 41.623981 175.408025 41.494025 
C 175.537981 41.364069 175.611 41.187786 175.611 41.004 
C 175.611 40.820214 175.537981 40.643931 175.408025 40.513975 
C 175.278069 40.384019 175.101786 40.311 174.918 40.311 
C 174.734214 40.311 174.557931 40.384019 174.427975 40.513975 
C 174.298019 40.643931 174.225 40.820214 174.225 41.004 
C 174.225 41.187786 174.298019 41.364069 174.427975 41.494025 
C 174.557931 41.623981 174.734214 41.697 174.918 41.697 
z
" clip-path="url(#p58f292f74d)" style="fill: #3b5284; stroke: #3b5284; stroke-linejoin: miter"/>
   </g>
   <g id="patch_66">
    <path d="M 191.55 78.657 
C 191.733786 78.657 191.910069 78.583981 192.040025 78.454025 
C 192.169981 78.324069 192.243 78.147786 192.243 77.964 
C 192.243 77.780214 192.169981 77.603931 192.040025 77.473975 
C 191.910069 77.344019 191.733786 77.271 191.55 77.271 
C 191.366214 77.271 191.189931 77.344019 191.059975 77.473975 
C 190.930019 77.603931 190.857 77.780214 190.857 77.964 
C 190.857 78.147786 190.930019 78.324069 191.059975 78.454025 
C 191.189931 78.583981 191.366214 78.657 191.55 78.657 
z
" clip-path="url(#p58f292f74d)" style="fill: #3b5284; stroke: #3b5284; stroke-linejoin: miter"/>
   </g>
   <g id="patch_67">
    <path d="M 119.478 39.387 
C 119.661786 39.387 119.838069 39.313981 119.968025 39.184025 
C 120.097981 39.054069 120.171 38.877786 120.171 38.694 
C 120.171 38.510214 120.097981 38.333931 119.968025 38.203975 
C 119.838069 38.074019 119.661786 38.001 119.478 38.001 
C 119.294214 38.001 119.117931 38.074019 118.987975 38.203975 
C 118.858019 38.333931 118.785 38.510214 118.785 38.694 
C 118.785 38.877786 118.858019 39.054069 118.987975 39.184025 
C 119.117931 39.313981 119.294214 39.387 119.478 39.387 
z
" clip-path="url(#p58f292f74d)" style="fill: #3b5284; stroke: #3b5284; stroke-linejoin: miter"/>
   </g>
   <g id="patch_68">
    <path d="M 124.098 23.217 
C 124.281786 23.217 124.458069 23.143981 124.588025 23.014025 
C 124.717981 22.884069 124.791 22.707786 124.791 22.524 
C 124.791 22.340214 124.717981 22.163931 124.588025 22.033975 
C 124.458069 21.904019 124.281786 21.831 124.098 21.831 
C 123.914214 21.831 123.737931 21.904019 123.607975 22.033975 
C 123.478019 22.163931 123.405 22.340214 123.405 22.524 
C 123.405 22.707786 123.478019 22.884069 123.607975 23.014025 
C 123.737931 23.143981 123.914214 23.217 124.098 23.217 
z
" clip-path="url(#p58f292f74d)" style="fill: #3b5284; stroke: #3b5284; stroke-linejoin: miter"/>
   </g>
   <g id="patch_69">
    <path d="M 131.028 44.007 
C 131.211786 44.007 131.388069 43.933981 131.518025 43.804025 
C 131.647981 43.674069 131.721 43.497786 131.721 43.314 
C 131.721 43.130214 131.647981 42.953931 131.518025 42.823975 
C 131.388069 42.694019 131.211786 42.621 131.028 42.621 
C 130.844214 42.621 130.667931 42.694019 130.537975 42.823975 
C 130.408019 42.953931 130.335 43.130214 130.335 43.314 
C 130.335 43.497786 130.408019 43.674069 130.537975 43.804025 
C 130.667931 43.933981 130.844214 44.007 131.028 44.007 
z
" clip-path="url(#p58f292f74d)" style="fill: #3b5284; stroke: #3b5284; stroke-linejoin: miter"/>
   </g>
   <g id="patch_70">
    <path d="M 150.894 38.463 
C 151.077786 38.463 151.254069 38.389981 151.384025 38.260025 
C 151.513981 38.130069 151.587 37.953786 151.587 37.77 
C 151.587 37.586214 151.513981 37.409931 151.384025 37.279975 
C 151.254069 37.150019 151.077786 37.077 150.894 37.077 
C 150.710214 37.077 150.533931 37.150019 150.403975 37.279975 
C 150.274019 37.409931 150.201 37.586214 150.201 37.77 
C 150.201 37.953786 150.274019 38.130069 150.403975 38.260025 
C 150.533931 38.389981 150.710214 38.463 150.894 38.463 
z
" clip-path="url(#p58f292f74d)" style="fill: #3b5284; stroke: #3b5284; stroke-linejoin: miter"/>
   </g>
   <g id="patch_71">
    <path d="M 166.602 42.159 
C 166.785786 42.159 166.962069 42.085981 167.092025 41.956025 
C 167.221981 41.826069 167.295 41.649786 167.295 41.466 
C 167.295 41.282214 167.221981 41.105931 167.092025 40.975975 
C 166.962069 40.846019 166.785786 40.773 166.602 40.773 
C 166.418214 40.773 166.241931 40.846019 166.111975 40.975975 
C 165.982019 41.105931 165.909 41.282214 165.909 41.466 
C 165.909 41.649786 165.982019 41.826069 166.111975 41.956025 
C 166.241931 42.085981 166.418214 42.159 166.602 42.159 
z
" clip-path="url(#p58f292f74d)" style="fill: #3b5284; stroke: #3b5284; stroke-linejoin: miter"/>
   </g>
   <g id="patch_72">
    <path d="M 125.946 39.387 
C 126.129786 39.387 126.306069 39.313981 126.436025 39.184025 
C 126.565981 39.054069 126.639 38.877786 126.639 38.694 
C 126.639 38.510214 126.565981 38.333931 126.436025 38.203975 
C 126.306069 38.074019 126.129786 38.001 125.946 38.001 
C 125.762214 38.001 125.585931 38.074019 125.455975 38.203975 
C 125.326019 38.333931 125.253 38.510214 125.253 38.694 
C 125.253 38.877786 125.326019 39.054069 125.455975 39.184025 
C 125.585931 39.313981 125.762214 39.387 125.946 39.387 
z
" clip-path="url(#p58f292f74d)" style="fill: #3b5284; stroke: #3b5284; stroke-linejoin: miter"/>
   </g>
   <g id="patch_73">
    <path d="M 137.958 73.113 
C 138.141786 73.113 138.318069 73.039981 138.448025 72.910025 
C 138.577981 72.780069 138.651 72.603786 138.651 72.42 
C 138.651 72.236214 138.577981 72.059931 138.448025 71.929975 
C 138.318069 71.800019 138.141786 71.727 137.958 71.727 
C 137.774214 71.727 137.597931 71.800019 137.467975 71.929975 
C 137.338019 72.059931 137.265 72.236214 137.265 72.42 
C 137.265 72.603786 137.338019 72.780069 137.467975 72.910025 
C 137.597931 73.039981 137.774214 73.113 137.958 73.113 
z
" clip-path="url(#p58f292f74d)" style="fill: #3b5284; stroke: #3b5284; stroke-linejoin: miter"/>
   </g>
   <g id="patch_74">
    <path d="M 118.554 56.481 
C 118.737786 56.481 118.914069 56.407981 119.044025 56.278025 
C 119.173981 56.148069 119.247 55.971786 119.247 55.788 
C 119.247 55.604214 119.173981 55.427931 119.044025 55.297975 
C 118.914069 55.168019 118.737786 55.095 118.554 55.095 
C 118.370214 55.095 118.193931 55.168019 118.063975 55.297975 
C 117.934019 55.427931 117.861 55.604214 117.861 55.788 
C 117.861 55.971786 117.934019 56.148069 118.063975 56.278025 
C 118.193931 56.407981 118.370214 56.481 118.554 56.481 
z
" clip-path="url(#p58f292f74d)" style="fill: #3b5284; stroke: #3b5284; stroke-linejoin: miter"/>
   </g>
   <g id="patch_75">
    <path d="M 179.538 29.685 
C 179.721786 29.685 179.898069 29.611981 180.028025 29.482025 
C 180.157981 29.352069 180.231 29.175786 180.231 28.992 
C 180.231 28.808214 180.157981 28.631931 180.028025 28.501975 
C 179.898069 28.372019 179.721786 28.299 179.538 28.299 
C 179.354214 28.299 179.177931 28.372019 179.047975 28.501975 
C 178.918019 28.631931 178.845 28.808214 178.845 28.992 
C 178.845 29.175786 178.918019 29.352069 179.047975 29.482025 
C 179.177931 29.611981 179.354214 29.685 179.538 29.685 
z
" clip-path="url(#p58f292f74d)" style="fill: #3b5284; stroke: #3b5284; stroke-linejoin: miter"/>
   </g>
   <g id="patch_76">
    <path d="M 137.496 43.545 
C 137.679786 43.545 137.856069 43.471981 137.986025 43.342025 
C 138.115981 43.212069 138.189 43.035786 138.189 42.852 
C 138.189 42.668214 138.115981 42.491931 137.986025 42.361975 
C 137.856069 42.232019 137.679786 42.159 137.496 42.159 
C 137.312214 42.159 137.135931 42.232019 137.005975 42.361975 
C 136.876019 42.491931 136.803 42.668214 136.803 42.852 
C 136.803 43.035786 136.876019 43.212069 137.005975 43.342025 
C 137.135931 43.471981 137.312214 43.545 137.496 43.545 
z
" clip-path="url(#p58f292f74d)" style="fill: #3b5284; stroke: #3b5284; stroke-linejoin: miter"/>
   </g>
   <g id="patch_77">
    <path d="M 173.532 50.013 
C 173.715786 50.013 173.892069 49.939981 174.022025 49.810025 
C 174.151981 49.680069 174.225 49.503786 174.225 49.32 
C 174.225 49.136214 174.151981 48.959931 174.022025 48.829975 
C 173.892069 48.700019 173.715786 48.627 173.532 48.627 
C 173.348214 48.627 173.171931 48.700019 173.041975 48.829975 
C 172.912019 48.959931 172.839 49.136214 172.839 49.32 
C 172.839 49.503786 172.912019 49.680069 173.041975 49.810025 
C 173.171931 49.939981 173.348214 50.013 173.532 50.013 
z
" clip-path="url(#p58f292f74d)" style="fill: #3b5284; stroke: #3b5284; stroke-linejoin: miter"/>
   </g>
   <g id="patch_78">
    <path d="M 164.292 84.201 
C 164.475786 84.201 164.652069 84.127981 164.782025 83.998025 
C 164.911981 83.868069 164.985 83.691786 164.985 83.508 
C 164.985 83.324214 164.911981 83.147931 164.782025 83.017975 
C 164.652069 82.888019 164.475786 82.815 164.292 82.815 
C 164.108214 82.815 163.931931 82.888019 163.801975 83.017975 
C 163.672019 83.147931 163.599 83.324214 163.599 83.508 
C 163.599 83.691786 163.672019 83.868069 163.801975 83.998025 
C 163.931931 84.127981 164.108214 84.201 164.292 84.201 
z
" clip-path="url(#p58f292f74d)" style="fill: #3b5284; stroke: #3b5284; stroke-linejoin: miter"/>
   </g>
   <g id="patch_79">
    <path d="M 116.244 51.861 
C 116.427786 51.861 116.604069 51.787981 116.734025 51.658025 
C 116.863981 51.528069 116.937 51.351786 116.937 51.168 
C 116.937 50.984214 116.863981 50.807931 116.734025 50.677975 
C 116.604069 50.548019 116.427786 50.475 116.244 50.475 
C 116.060214 50.475 115.883931 50.548019 115.753975 50.677975 
C 115.624019 50.807931 115.551 50.984214 115.551 51.168 
C 115.551 51.351786 115.624019 51.528069 115.753975 51.658025 
C 115.883931 51.787981 116.060214 51.861 116.244 51.861 
z
" clip-path="url(#p58f292f74d)" style="fill: #3b5284; stroke: #3b5284; stroke-linejoin: miter"/>
   </g>
   <g id="patch_80">
    <path d="M 131.028 69.879 
C 131.211786 69.879 131.388069 69.805981 131.518025 69.676025 
C 131.647981 69.546069 131.721 69.369786 131.721 69.186 
C 131.721 69.002214 131.647981 68.825931 131.518025 68.695975 
C 131.388069 68.566019 131.211786 68.493 131.028 68.493 
C 130.844214 68.493 130.667931 68.566019 130.537975 68.695975 
C 130.408019 68.825931 130.335 69.002214 130.335 69.186 
C 130.335 69.369786 130.408019 69.546069 130.537975 69.676025 
C 130.667931 69.805981 130.844214 69.879 131.028 69.879 
z
" clip-path="url(#p58f292f74d)" style="fill: #3b5284; stroke: #3b5284; stroke-linejoin: miter"/>
   </g>
   <g id="patch_81">
    <path d="M 150.894 34.767 
C 151.077786 34.767 151.254069 34.693981 151.384025 34.564025 
C 151.513981 34.434069 151.587 34.257786 151.587 34.074 
C 151.587 33.890214 151.513981 33.713931 151.384025 33.583975 
C 151.254069 33.454019 151.077786 33.381 150.894 33.381 
C 150.710214 33.381 150.533931 33.454019 150.403975 33.583975 
C 150.274019 33.713931 150.201 33.890214 150.201 34.074 
C 150.201 34.257786 150.274019 34.434069 150.403975 34.564025 
C 150.533931 34.693981 150.710214 34.767 150.894 34.767 
z
" clip-path="url(#p58f292f74d)" style="fill: #3b5284; stroke: #3b5284; stroke-linejoin: miter"/>
   </g>
   <g id="patch_82">
    <path d="M 143.502 91.593 
C 143.685786 91.593 143.862069 91.519981 143.992025 91.390025 
C 144.121981 91.260069 144.195 91.083786 144.195 90.9 
C 144.195 90.716214 144.121981 90.539931 143.992025 90.409975 
C 143.862069 90.280019 143.685786 90.207 143.502 90.207 
C 143.318214 90.207 143.141931 90.280019 143.011975 90.409975 
C 142.882019 90.539931 142.809 90.716214 142.809 90.9 
C 142.809 91.083786 142.882019 91.260069 143.011975 91.390025 
C 143.141931 91.519981 143.318214 91.593 143.502 91.593 
z
" clip-path="url(#p58f292f74d)" style="fill: #3b5284; stroke: #3b5284; stroke-linejoin: miter"/>
   </g>
   <g id="patch_83">
    <path d="M 186.006 61.101 
C 186.189786 61.101 186.366069 61.027981 186.496025 60.898025 
C 186.625981 60.768069 186.699 60.591786 186.699 60.408 
C 186.699 60.224214 186.625981 60.047931 186.496025 59.917975 
C 186.366069 59.788019 186.189786 59.715 186.006 59.715 
C 185.822214 59.715 185.645931 59.788019 185.515975 59.917975 
C 185.386019 60.047931 185.313 60.224214 185.313 60.408 
C 185.313 60.591786 185.386019 60.768069 185.515975 60.898025 
C 185.645931 61.027981 185.822214 61.101 186.006 61.101 
z
" clip-path="url(#p58f292f74d)" style="fill: #3b5284; stroke: #3b5284; stroke-linejoin: miter"/>
   </g>
   <g id="patch_84">
    <path d="M 117.168 72.651 
C 117.351786 72.651 117.528069 72.577981 117.658025 72.448025 
C 117.787981 72.318069 117.861 72.141786 117.861 71.958 
C 117.861 71.774214 117.787981 71.597931 117.658025 71.467975 
C 117.528069 71.338019 117.351786 71.265 117.168 71.265 
C 116.984214 71.265 116.807931 71.338019 116.677975 71.467975 
C 116.548019 71.597931 116.475 71.774214 116.475 71.958 
C 116.475 72.141786 116.548019 72.318069 116.677975 72.448025 
C 116.807931 72.577981 116.984214 72.651 117.168 72.651 
z
" clip-path="url(#p58f292f74d)" style="fill: #3b5284; stroke: #3b5284; stroke-linejoin: miter"/>
   </g>
   <g id="patch_85">
    <path d="M 169.836 60.639 
C 170.019786 60.639 170.196069 60.565981 170.326025 60.436025 
C 170.455981 60.306069 170.529 60.129786 170.529 59.946 
C 170.529 59.762214 170.455981 59.585931 170.326025 59.455975 
C 170.196069 59.326019 170.019786 59.253 169.836 59.253 
C 169.652214 59.253 169.475931 59.326019 169.345975 59.455975 
C 169.216019 59.585931 169.143 59.762214 169.143 59.946 
C 169.143 60.129786 169.216019 60.306069 169.345975 60.436025 
C 169.475931 60.565981 169.652214 60.639 169.836 60.639 
z
" clip-path="url(#p58f292f74d)" style="fill: #3b5284; stroke: #3b5284; stroke-linejoin: miter"/>
   </g>
   <g id="patch_86">
    <path d="M 175.38 37.539 
C 175.563786 37.539 175.740069 37.465981 175.870025 37.336025 
C 175.999981 37.206069 176.073 37.029786 176.073 36.846 
C 176.073 36.662214 175.999981 36.485931 175.870025 36.355975 
C 175.740069 36.226019 175.563786 36.153 175.38 36.153 
C 175.196214 36.153 175.019931 36.226019 174.889975 36.355975 
C 174.760019 36.485931 174.687 36.662214 174.687 36.846 
C 174.687 37.029786 174.760019 37.206069 174.889975 37.336025 
C 175.019931 37.465981 175.196214 37.539 175.38 37.539 
z
" clip-path="url(#p58f292f74d)" style="fill: #3b5284; stroke: #3b5284; stroke-linejoin: miter"/>
   </g>
   <g id="patch_87">
    <path d="M 140.268 15.363 
C 140.451786 15.363 140.628069 15.289981 140.758025 15.160025 
C 140.887981 15.030069 140.961 14.853786 140.961 14.67 
C 140.961 14.486214 140.887981 14.309931 140.758025 14.179975 
C 140.628069 14.050019 140.451786 13.977 140.268 13.977 
C 140.084214 13.977 139.907931 14.050019 139.777975 14.179975 
C 139.648019 14.309931 139.575 14.486214 139.575 14.67 
C 139.575 14.853786 139.648019 15.030069 139.777975 15.160025 
C 139.907931 15.289981 140.084214 15.363 140.268 15.363 
z
" clip-path="url(#p58f292f74d)" style="fill: #3b5284; stroke: #3b5284; stroke-linejoin: miter"/>
   </g>
   <g id="patch_88">
    <path d="M 128.718 36.615 
C 128.901786 36.615 129.078069 36.541981 129.208025 36.412025 
C 129.337981 36.282069 129.411 36.105786 129.411 35.922 
C 129.411 35.738214 129.337981 35.561931 129.208025 35.431975 
C 129.078069 35.302019 128.901786 35.229 128.718 35.229 
C 128.534214 35.229 128.357931 35.302019 128.227975 35.431975 
C 128.098019 35.561931 128.025 35.738214 128.025 35.922 
C 128.025 36.105786 128.098019 36.282069 128.227975 36.412025 
C 128.357931 36.541981 128.534214 36.615 128.718 36.615 
z
" clip-path="url(#p58f292f74d)" style="fill: #3b5284; stroke: #3b5284; stroke-linejoin: miter"/>
   </g>
   <g id="patch_89">
    <path d="M 154.128 47.241 
C 154.311786 47.241 154.488069 47.167981 154.618025 47.038025 
C 154.747981 46.908069 154.821 46.731786 154.821 46.548 
C 154.821 46.364214 154.747981 46.187931 154.618025 46.057975 
C 154.488069 45.928019 154.311786 45.855 154.128 45.855 
C 153.944214 45.855 153.767931 45.928019 153.637975 46.057975 
C 153.508019 46.187931 153.435 46.364214 153.435 46.548 
C 153.435 46.731786 153.508019 46.908069 153.637975 47.038025 
C 153.767931 47.167981 153.944214 47.241 154.128 47.241 
z
" clip-path="url(#p58f292f74d)" style="fill: #3b5284; stroke: #3b5284; stroke-linejoin: miter"/>
   </g>
   <g id="patch_90">
    <path d="M 165.216 53.247 
C 165.399786 53.247 165.576069 53.173981 165.706025 53.044025 
C 165.835981 52.914069 165.909 52.737786 165.909 52.554 
C 165.909 52.370214 165.835981 52.193931 165.706025 52.063975 
C 165.576069 51.934019 165.399786 51.861 165.216 51.861 
C 165.032214 51.861 164.855931 51.934019 164.725975 52.063975 
C 164.596019 52.193931 164.523 52.370214 164.523 52.554 
C 164.523 52.737786 164.596019 52.914069 164.725975 53.044025 
C 164.855931 53.173981 165.032214 53.247 165.216 53.247 
z
" clip-path="url(#p58f292f74d)" style="fill: #3b5284; stroke: #3b5284; stroke-linejoin: miter"/>
   </g>
   <g id="patch_91">
    <path d="M 125.946 60.177 
C 126.129786 60.177 126.306069 60.103981 126.436025 59.974025 
C 126.565981 59.844069 126.639 59.667786 126.639 59.484 
C 126.639 59.300214 126.565981 59.123931 126.436025 58.993975 
C 126.306069 58.864019 126.129786 58.791 125.946 58.791 
C 125.762214 58.791 125.585931 58.864019 125.455975 58.993975 
C 125.326019 59.123931 125.253 59.300214 125.253 59.484 
C 125.253 59.667786 125.326019 59.844069 125.455975 59.974025 
C 125.585931 60.103981 125.762214 60.177 125.946 60.177 
z
" clip-path="url(#p58f292f74d)" style="fill: #3b5284; stroke: #3b5284; stroke-linejoin: miter"/>
   </g>
   <g id="patch_92">
    <path d="M 163.83 8.433 
C 164.013786 8.433 164.190069 8.359981 164.320025 8.230025 
C 164.449981 8.100069 164.523 7.923786 164.523 7.74 
C 164.523 7.556214 164.449981 7.379931 164.320025 7.249975 
C 164.190069 7.120019 164.013786 7.047 163.83 7.047 
C 163.646214 7.047 163.469931 7.120019 163.339975 7.249975 
C 163.210019 7.379931 163.137 7.556214 163.137 7.74 
C 163.137 7.923786 163.210019 8.100069 163.339975 8.230025 
C 163.469931 8.359981 163.646214 8.433 163.83 8.433 
z
" clip-path="url(#p58f292f74d)" style="fill: #3b5284; stroke: #3b5284; stroke-linejoin: miter"/>
   </g>
   <g id="patch_93">
    <path d="M 181.848 24.603 
C 182.031786 24.603 182.208069 24.529981 182.338025 24.400025 
C 182.467981 24.270069 182.541 24.093786 182.541 23.91 
C 182.541 23.726214 182.467981 23.549931 182.338025 23.419975 
C 182.208069 23.290019 182.031786 23.217 181.848 23.217 
C 181.664214 23.217 181.487931 23.290019 181.357975 23.419975 
C 181.228019 23.549931 181.155 23.726214 181.155 23.91 
C 181.155 24.093786 181.228019 24.270069 181.357975 24.400025 
C 181.487931 24.529981 181.664214 24.603 181.848 24.603 
z
" clip-path="url(#p58f292f74d)" style="fill: #3b5284; stroke: #3b5284; stroke-linejoin: miter"/>
   </g>
   <g id="patch_94">
    <path d="M 113.01 43.545 
C 113.193786 43.545 113.370069 43.471981 113.500025 43.342025 
C 113.629981 43.212069 113.703 43.035786 113.703 42.852 
C 113.703 42.668214 113.629981 42.491931 113.500025 42.361975 
C 113.370069 42.232019 113.193786 42.159 113.01 42.159 
C 112.826214 42.159 112.649931 42.232019 112.519975 42.361975 
C 112.390019 42.491931 112.317 42.668214 112.317 42.852 
C 112.317 43.035786 112.390019 43.212069 112.519975 43.342025 
C 112.649931 43.471981 112.826214 43.545 113.01 43.545 
z
" clip-path="url(#p58f292f74d)" style="fill: #3b5284; stroke: #3b5284; stroke-linejoin: miter"/>
   </g>
   <g id="patch_95">
    <path d="M 168.912 17.211 
C 169.095786 17.211 169.272069 17.137981 169.402025 17.008025 
C 169.531981 16.878069 169.605 16.701786 169.605 16.518 
C 169.605 16.334214 169.531981 16.157931 169.402025 16.027975 
C 169.272069 15.898019 169.095786 15.825 168.912 15.825 
C 168.728214 15.825 168.551931 15.898019 168.421975 16.027975 
C 168.292019 16.157931 168.219 16.334214 168.219 16.518 
C 168.219 16.701786 168.292019 16.878069 168.421975 17.008025 
C 168.551931 17.137981 168.728214 17.211 168.912 17.211 
z
" clip-path="url(#p58f292f74d)" style="fill: #3b5284; stroke: #3b5284; stroke-linejoin: miter"/>
   </g>
   <g id="patch_96">
    <path d="M 127.794 82.815 
C 127.977786 82.815 128.154069 82.741981 128.284025 82.612025 
C 128.413981 82.482069 128.487 82.305786 128.487 82.122 
C 128.487 81.938214 128.413981 81.761931 128.284025 81.631975 
C 128.154069 81.502019 127.977786 81.429 127.794 81.429 
C 127.610214 81.429 127.433931 81.502019 127.303975 81.631975 
C 127.174019 81.761931 127.101 81.938214 127.101 82.122 
C 127.101 82.305786 127.174019 82.482069 127.303975 82.612025 
C 127.433931 82.741981 127.610214 82.815 127.794 82.815 
z
" clip-path="url(#p58f292f74d)" style="fill: #3b5284; stroke: #3b5284; stroke-linejoin: miter"/>
   </g>
   <g id="patch_97">
    <path d="M 172.146 55.557 
C 172.329786 55.557 172.506069 55.483981 172.636025 55.354025 
C 172.765981 55.224069 172.839 55.047786 172.839 54.864 
C 172.839 54.680214 172.765981 54.503931 172.636025 54.373975 
C 172.506069 54.244019 172.329786 54.171 172.146 54.171 
C 171.962214 54.171 171.785931 54.244019 171.655975 54.373975 
C 171.526019 54.503931 171.453 54.680214 171.453 54.864 
C 171.453 55.047786 171.526019 55.224069 171.655975 55.354025 
C 171.785931 55.483981 171.962214 55.557 172.146 55.557 
z
" clip-path="url(#p58f292f74d)" style="fill: #3b5284; stroke: #3b5284; stroke-linejoin: miter"/>
   </g>
   <g id="patch_98">
    <path d="M 164.292 37.077 
C 164.475786 37.077 164.652069 37.003981 164.782025 36.874025 
C 164.911981 36.744069 164.985 36.567786 164.985 36.384 
C 164.985 36.200214 164.911981 36.023931 164.782025 35.893975 
C 164.652069 35.764019 164.475786 35.691 164.292 35.691 
C 164.108214 35.691 163.931931 35.764019 163.801975 35.893975 
C 163.672019 36.023931 163.599 36.200214 163.599 36.384 
C 163.599 36.567786 163.672019 36.744069 163.801975 36.874025 
C 163.931931 37.003981 164.108214 37.077 164.292 37.077 
z
" clip-path="url(#p58f292f74d)" style="fill: #3b5284; stroke: #3b5284; stroke-linejoin: miter"/>
   </g>
   <g id="patch_99">
    <path d="M 179.076 9.357 
C 179.259786 9.357 179.436069 9.283981 179.566025 9.154025 
C 179.695981 9.024069 179.769 8.847786 179.769 8.664 
C 179.769 8.480214 179.695981 8.303931 179.566025 8.173975 
C 179.436069 8.044019 179.259786 7.971 179.076 7.971 
C 178.892214 7.971 178.715931 8.044019 178.585975 8.173975 
C 178.456019 8.303931 178.383 8.480214 178.383 8.664 
C 178.383 8.847786 178.456019 9.024069 178.585975 9.154025 
C 178.715931 9.283981 178.892214 9.357 179.076 9.357 
z
" clip-path="url(#p58f292f74d)" style="fill: #3b5284; stroke: #3b5284; stroke-linejoin: miter"/>
   </g>
   <g id="patch_100">
    <path d="M 189.702 60.177 
C 189.885786 60.177 190.062069 60.103981 190.192025 59.974025 
C 190.321981 59.844069 190.395 59.667786 190.395 59.484 
C 190.395 59.300214 190.321981 59.123931 190.192025 58.993975 
C 190.062069 58.864019 189.885786 58.791 189.702 58.791 
C 189.518214 58.791 189.341931 58.864019 189.211975 58.993975 
C 189.082019 59.123931 189.009 59.300214 189.009 59.484 
C 189.009 59.667786 189.082019 59.844069 189.211975 59.974025 
C 189.341931 60.103981 189.518214 60.177 189.702 60.177 
z
" clip-path="url(#p58f292f74d)" style="fill: #3b5284; stroke: #3b5284; stroke-linejoin: miter"/>
   </g>
   <g id="patch_101">
    <path d="M 183.696 77.733 
C 183.879786 77.733 184.056069 77.659981 184.186025 77.530025 
C 184.315981 77.400069 184.389 77.223786 184.389 77.04 
C 184.389 76.856214 184.315981 76.679931 184.186025 76.549975 
C 184.056069 76.420019 183.879786 76.347 183.696 76.347 
C 183.512214 76.347 183.335931 76.420019 183.205975 76.549975 
C 183.076019 76.679931 183.003 76.856214 183.003 77.04 
C 183.003 77.223786 183.076019 77.400069 183.205975 77.530025 
C 183.335931 77.659981 183.512214 77.733 183.696 77.733 
z
" clip-path="url(#p58f292f74d)" style="fill: #3b5284; stroke: #3b5284; stroke-linejoin: miter"/>
   </g>
   <g id="patch_102">
    <path d="M 128.256 31.995 
C 128.439786 31.995 128.616069 31.921981 128.746025 31.792025 
C 128.875981 31.662069 128.949 31.485786 128.949 31.302 
C 128.949 31.118214 128.875981 30.941931 128.746025 30.811975 
C 128.616069 30.682019 128.439786 30.609 128.256 30.609 
C 128.072214 30.609 127.895931 30.682019 127.765975 30.811975 
C 127.636019 30.941931 127.563 31.118214 127.563 31.302 
C 127.563 31.485786 127.636019 31.662069 127.765975 31.792025 
C 127.895931 31.921981 128.072214 31.995 128.256 31.995 
z
" clip-path="url(#p58f292f74d)" style="fill: #3b5284; stroke: #3b5284; stroke-linejoin: miter"/>
   </g>
   <g id="matplotlib.axis_1">
    <g id="xtick_1">
     <g id="line2d_1">
      <defs>
       <path id="m7e95985320" d="M 0 0 
L 0 3.5 
" style="stroke: #000000; stroke-width: 0.8"/>
      </defs>
      <g>
       <use xlink:href="#m7e95985320" x="41.4" y="160.2" style="stroke: #000000; stroke-width: 0.8"/>
      </g>
     </g>
     <g id="text_1">
      <!-- 0 -->
      <g transform="translate(38.855 173.27875) scale(0.08 -0.08)">
       <defs>
        <path id="DejaVuSans-30" d="M 2034 4250 
Q 1547 4250 1301 3770 
Q 1056 3291 1056 2328 
Q 1056 1369 1301 889 
Q 1547 409 2034 409 
Q 2525 409 2770 889 
Q 3016 1369 3016 2328 
Q 3016 3291 2770 3770 
Q 2525 4250 2034 4250 
z
M 2034 4750 
Q 2819 4750 3233 4129 
Q 3647 3509 3647 2328 
Q 3647 1150 3233 529 
Q 2819 -91 2034 -91 
Q 1250 -91 836 529 
Q 422 1150 422 2328 
Q 422 3509 836 4129 
Q 1250 4750 2034 4750 
z
" transform="scale(0.015625)"/>
       </defs>
       <use xlink:href="#DejaVuSans-30"/>
      </g>
     </g>
    </g>
    <g id="xtick_2">
     <g id="line2d_2">
      <g>
       <use xlink:href="#m7e95985320" x="64.5" y="160.2" style="stroke: #000000; stroke-width: 0.8"/>
      </g>
     </g>
     <g id="text_2">
      <!-- 50 -->
      <g transform="translate(59.41 173.27875) scale(0.08 -0.08)">
       <defs>
        <path id="DejaVuSans-35" d="M 691 4666 
L 3169 4666 
L 3169 4134 
L 1269 4134 
L 1269 2991 
Q 1406 3038 1543 3061 
Q 1681 3084 1819 3084 
Q 2600 3084 3056 2656 
Q 3513 2228 3513 1497 
Q 3513 744 3044 326 
Q 2575 -91 1722 -91 
Q 1428 -91 1123 -41 
Q 819 9 494 109 
L 494 744 
Q 775 591 1075 516 
Q 1375 441 1709 441 
Q 2250 441 2565 725 
Q 2881 1009 2881 1497 
Q 2881 1984 2565 2268 
Q 2250 2553 1709 2553 
Q 1456 2553 1204 2497 
Q 953 2441 691 2322 
L 691 4666 
z
" transform="scale(0.015625)"/>
       </defs>
       <use xlink:href="#DejaVuSans-35"/>
       <use xlink:href="#DejaVuSans-30" x="63.623047"/>
      </g>
     </g>
    </g>
    <g id="xtick_3">
     <g id="line2d_3">
      <g>
       <use xlink:href="#m7e95985320" x="87.6" y="160.2" style="stroke: #000000; stroke-width: 0.8"/>
      </g>
     </g>
     <g id="text_3">
      <!-- 100 -->
      <g transform="translate(79.965 173.27875) scale(0.08 -0.08)">
       <defs>
        <path id="DejaVuSans-31" d="M 794 531 
L 1825 531 
L 1825 4091 
L 703 3866 
L 703 4441 
L 1819 4666 
L 2450 4666 
L 2450 531 
L 3481 531 
L 3481 0 
L 794 0 
L 794 531 
z
" transform="scale(0.015625)"/>
       </defs>
       <use xlink:href="#DejaVuSans-31"/>
       <use xlink:href="#DejaVuSans-30" x="63.623047"/>
       <use xlink:href="#DejaVuSans-30" x="127.246094"/>
      </g>
     </g>
    </g>
    <g id="xtick_4">
     <g id="line2d_4">
      <g>
       <use xlink:href="#m7e95985320" x="110.7" y="160.2" style="stroke: #000000; stroke-width: 0.8"/>
      </g>
     </g>
     <g id="text_4">
      <!-- 150 -->
      <g transform="translate(103.065 173.27875) scale(0.08 -0.08)">
       <use xlink:href="#DejaVuSans-31"/>
       <use xlink:href="#DejaVuSans-35" x="63.623047"/>
       <use xlink:href="#DejaVuSans-30" x="127.246094"/>
      </g>
     </g>
    </g>
    <g id="xtick_5">
     <g id="line2d_5">
      <g>
       <use xlink:href="#m7e95985320" x="133.8" y="160.2" style="stroke: #000000; stroke-width: 0.8"/>
      </g>
     </g>
     <g id="text_5">
      <!-- 200 -->
      <g transform="translate(126.165 173.27875) scale(0.08 -0.08)">
       <defs>
        <path id="DejaVuSans-32" d="M 1228 531 
L 3431 531 
L 3431 0 
L 469 0 
L 469 531 
Q 828 903 1448 1529 
Q 2069 2156 2228 2338 
Q 2531 2678 2651 2914 
Q 2772 3150 2772 3378 
Q 2772 3750 2511 3984 
Q 2250 4219 1831 4219 
Q 1534 4219 1204 4116 
Q 875 4013 500 3803 
L 500 4441 
Q 881 4594 1212 4672 
Q 1544 4750 1819 4750 
Q 2544 4750 2975 4387 
Q 3406 4025 3406 3419 
Q 3406 3131 3298 2873 
Q 3191 2616 2906 2266 
Q 2828 2175 2409 1742 
Q 1991 1309 1228 531 
z
" transform="scale(0.015625)"/>
       </defs>
       <use xlink:href="#DejaVuSans-32"/>
       <use xlink:href="#DejaVuSans-30" x="63.623047"/>
       <use xlink:href="#DejaVuSans-30" x="127.246094"/>
      </g>
     </g>
    </g>
    <g id="xtick_6">
     <g id="line2d_6">
      <g>
       <use xlink:href="#m7e95985320" x="156.9" y="160.2" style="stroke: #000000; stroke-width: 0.8"/>
      </g>
     </g>
     <g id="text_6">
      <!-- 250 -->
      <g transform="translate(149.265 173.27875) scale(0.08 -0.08)">
       <use xlink:href="#DejaVuSans-32"/>
       <use xlink:href="#DejaVuSans-35" x="63.623047"/>
       <use xlink:href="#DejaVuSans-30" x="127.246094"/>
      </g>
     </g>
    </g>
    <g id="xtick_7">
     <g id="line2d_7">
      <g>
       <use xlink:href="#m7e95985320" x="180" y="160.2" style="stroke: #000000; stroke-width: 0.8"/>
      </g>
     </g>
     <g id="text_7">
      <!-- 300 -->
      <g transform="translate(172.365 173.27875) scale(0.08 -0.08)">
       <defs>
        <path id="DejaVuSans-33" d="M 2597 2516 
Q 3050 2419 3304 2112 
Q 3559 1806 3559 1356 
Q 3559 666 3084 287 
Q 2609 -91 1734 -91 
Q 1441 -91 1130 -33 
Q 819 25 488 141 
L 488 750 
Q 750 597 1062 519 
Q 1375 441 1716 441 
Q 2309 441 2620 675 
Q 2931 909 2931 1356 
Q 2931 1769 2642 2001 
Q 2353 2234 1838 2234 
L 1294 2234 
L 1294 2753 
L 1863 2753 
Q 2328 2753 2575 2939 
Q 2822 3125 2822 3475 
Q 2822 3834 2567 4026 
Q 2313 4219 1838 4219 
Q 1578 4219 1281 4162 
Q 984 4106 628 3988 
L 628 4550 
Q 988 4650 1302 4700 
Q 1616 4750 1894 4750 
Q 2613 4750 3031 4423 
Q 3450 4097 3450 3541 
Q 3450 3153 3228 2886 
Q 3006 2619 2597 2516 
z
" transform="scale(0.015625)"/>
       </defs>
       <use xlink:href="#DejaVuSans-33"/>
       <use xlink:href="#DejaVuSans-30" x="63.623047"/>
       <use xlink:href="#DejaVuSans-30" x="127.246094"/>
      </g>
     </g>
    </g>
   </g>
   <g id="matplotlib.axis_2">
    <g id="ytick_1">
     <g id="line2d_8">
      <defs>
       <path id="md50063d6cd" d="M 0 0 
L -3.5 0 
" style="stroke: #000000; stroke-width: 0.8"/>
      </defs>
      <g>
       <use xlink:href="#md50063d6cd" x="41.4" y="160.2" style="stroke: #000000; stroke-width: 0.8"/>
      </g>
     </g>
     <g id="text_8">
      <!-- 0 -->
      <g transform="translate(29.31 163.239375) scale(0.08 -0.08)">
       <use xlink:href="#DejaVuSans-30"/>
      </g>
     </g>
    </g>
    <g id="ytick_2">
     <g id="line2d_9">
      <g>
       <use xlink:href="#md50063d6cd" x="41.4" y="137.1" style="stroke: #000000; stroke-width: 0.8"/>
      </g>
     </g>
     <g id="text_9">
      <!-- 50 -->
      <g transform="translate(24.22 140.139375) scale(0.08 -0.08)">
       <use xlink:href="#DejaVuSans-35"/>
       <use xlink:href="#DejaVuSans-30" x="63.623047"/>
      </g>
     </g>
    </g>
    <g id="ytick_3">
     <g id="line2d_10">
      <g>
       <use xlink:href="#md50063d6cd" x="41.4" y="114" style="stroke: #000000; stroke-width: 0.8"/>
      </g>
     </g>
     <g id="text_10">
      <!-- 100 -->
      <g transform="translate(19.13 117.039375) scale(0.08 -0.08)">
       <use xlink:href="#DejaVuSans-31"/>
       <use xlink:href="#DejaVuSans-30" x="63.623047"/>
       <use xlink:href="#DejaVuSans-30" x="127.246094"/>
      </g>
     </g>
    </g>
    <g id="ytick_4">
     <g id="line2d_11">
      <g>
       <use xlink:href="#md50063d6cd" x="41.4" y="90.9" style="stroke: #000000; stroke-width: 0.8"/>
      </g>
     </g>
     <g id="text_11">
      <!-- 150 -->
      <g transform="translate(19.13 93.939375) scale(0.08 -0.08)">
       <use xlink:href="#DejaVuSans-31"/>
       <use xlink:href="#DejaVuSans-35" x="63.623047"/>
       <use xlink:href="#DejaVuSans-30" x="127.246094"/>
      </g>
     </g>
    </g>
    <g id="ytick_5">
     <g id="line2d_12">
      <g>
       <use xlink:href="#md50063d6cd" x="41.4" y="67.8" style="stroke: #000000; stroke-width: 0.8"/>
      </g>
     </g>
     <g id="text_12">
      <!-- 200 -->
      <g transform="translate(19.13 70.839375) scale(0.08 -0.08)">
       <use xlink:href="#DejaVuSans-32"/>
       <use xlink:href="#DejaVuSans-30" x="63.623047"/>
       <use xlink:href="#DejaVuSans-30" x="127.246094"/>
      </g>
     </g>
    </g>
    <g id="ytick_6">
     <g id="line2d_13">
      <g>
       <use xlink:href="#md50063d6cd" x="41.4" y="44.7" style="stroke: #000000; stroke-width: 0.8"/>
      </g>
     </g>
     <g id="text_13">
      <!-- 250 -->
      <g transform="translate(19.13 47.739375) scale(0.08 -0.08)">
       <use xlink:href="#DejaVuSans-32"/>
       <use xlink:href="#DejaVuSans-35" x="63.623047"/>
       <use xlink:href="#DejaVuSans-30" x="127.246094"/>
      </g>
     </g>
    </g>
    <g id="ytick_7">
     <g id="line2d_14">
      <g>
       <use xlink:href="#md50063d6cd" x="41.4" y="21.6" style="stroke: #000000; stroke-width: 0.8"/>
      </g>
     </g>
     <g id="text_14">
      <!-- 300 -->
      <g transform="translate(19.13 24.639375) scale(0.08 -0.08)">
       <use xlink:href="#DejaVuSans-33"/>
       <use xlink:href="#DejaVuSans-30" x="63.623047"/>
       <use xlink:href="#DejaVuSans-30" x="127.246094"/>
      </g>
     </g>
    </g>
   </g>
   <g id="patch_103">
    <path d="M 41.4 160.2 
L 41.4 21.6 
" style="fill: none; stroke: #000000; stroke-width: 0.8; stroke-linejoin: miter; stroke-linecap: square"/>
   </g>
   <g id="patch_104">
    <path d="M 180 160.2 
L 180 21.6 
" style="fill: none; stroke: #000000; stroke-width: 0.8; stroke-linejoin: miter; stroke-linecap: square"/>
   </g>
   <g id="patch_105">
    <path d="M 41.4 160.2 
L 180 160.2 
" style="fill: none; stroke: #000000; stroke-width: 0.8; stroke-linejoin: miter; stroke-linecap: square"/>
   </g>
   <g id="patch_106">
    <path d="M 41.4 21.6 
L 180 21.6 
" style="fill: none; stroke: #000000; stroke-width: 0.8; stroke-linejoin: miter; stroke-linecap: square"/>
   </g>
  </g>
 </g>
 <defs>
  <clipPath id="p58f292f74d">
   <rect x="41.4" y="21.6" width="138.6" height="138.6"/>
  </clipPath>
 </defs>
</svg>
