<?xml version="1.0" encoding="utf-8" standalone="no"?>
<!DOCTYPE svg PUBLIC "-//W3C//DTD SVG 1.1//EN"
  "http://www.w3.org/Graphics/SVG/1.1/DTD/svg11.dtd">
<svg xmlns:xlink="http://www.w3.org/1999/xlink" width="216pt" height="180pt" viewBox="0 0 216 180" xmlns="http://www.w3.org/2000/svg" version="1.1">
 <metadata>
  <rdf:RDF xmlns:dc="http://purl.org/dc/elements/1.1/" xmlns:cc="http://creativecommons.org/ns#" xmlns:rdf="http://www.w3.org/1999/02/22-rdf-syntax-ns#">
   <cc:Work>
    <dc:type rdf:resource="http://purl.org/dc/dcmitype/StillImage"/>
    <dc:date>2024-05-19T16:15:24.050556</dc:date>
    <dc:format>image/svg+xml</dc:format>
    <dc:creator>
     <cc:Agent>
      <dc:title>Matplotlib v3.7.1, https://matplotlib.org/</dc:title>
     </cc:Agent>
    </dc:creator>
   </cc:Work>
  </rdf:RDF>
 </metadata>
 <defs>
  <style type="text/css">*{stroke-linejoin: round; stroke-linecap: butt}</style>
 </defs>
 <g id="figure_1">
  <g id="patch_1">
   <path d="M 0 180 
L 216 180 
L 216 0 
L 0 0 
z
" style="fill: #ffffff"/>
  </g>
  <g id="axes_1">
   <g id="patch_2">
    <path d="M 27 56.25 
L 194.4 56.25 
L 194.4 21.6 
L 27 21.6 
z
" style="fill: #ffffff"/>
   </g>
   <g id="matplotlib.axis_1">
    <g id="xtick_1">
     <g id="line2d_1">
      <defs>
       <path id="m94d34f819c" d="M 0 0 
L 0 3.5 
" style="stroke: #000000; stroke-width: 0.8"/>
      </defs>
      <g>
       <use xlink:href="#m94d34f819c" x="34.906321" y="56.25" style="stroke: #000000; stroke-width: 0.8"/>
      </g>
     </g>
     <g id="text_1">
      <!-- 0 -->
      <g transform="translate(32.361321 69.32875) scale(0.08 -0.08)">
       <defs>
        <path id="DejaVuSans-30" d="M 2034 4250 
Q 1547 4250 1301 3770 
Q 1056 3291 1056 2328 
Q 1056 1369 1301 889 
Q 1547 409 2034 409 
Q 2525 409 2770 889 
Q 3016 1369 3016 2328 
Q 3016 3291 2770 3770 
Q 2525 4250 2034 4250 
z
M 2034 4750 
Q 2819 4750 3233 4129 
Q 3647 3509 3647 2328 
Q 3647 1150 3233 529 
Q 2819 -91 2034 -91 
Q 1250 -91 836 529 
Q 422 1150 422 2328 
Q 422 3509 836 4129 
Q 1250 4750 2034 4750 
z
" transform="scale(0.015625)"/>
       </defs>
       <use xlink:href="#DejaVuSans-30"/>
      </g>
     </g>
    </g>
    <g id="xtick_2">
     <g id="line2d_2">
      <g>
       <use xlink:href="#m94d34f819c" x="82.463139" y="56.25" style="stroke: #000000; stroke-width: 0.8"/>
      </g>
     </g>
     <g id="text_2">
      <!-- 50 -->
      <g transform="translate(77.373139 69.32875) scale(0.08 -0.08)">
       <defs>
        <path id="DejaVuSans-35" d="M 691 4666 
L 3169 4666 
L 3169 4134 
L 1269 4134 
L 1269 2991 
Q 1406 3038 1543 3061 
Q 1681 3084 1819 3084 
Q 2600 3084 3056 2656 
Q 3513 2228 3513 1497 
Q 3513 744 3044 326 
Q 2575 -91 1722 -91 
Q 1428 -91 1123 -41 
Q 819 9 494 109 
L 494 744 
Q 775 591 1075 516 
Q 1375 441 1709 441 
Q 2250 441 2565 725 
Q 2881 1009 2881 1497 
Q 2881 1984 2565 2268 
Q 2250 2553 1709 2553 
Q 1456 2553 1204 2497 
Q 953 2441 691 2322 
L 691 4666 
z
" transform="scale(0.015625)"/>
       </defs>
       <use xlink:href="#DejaVuSans-35"/>
       <use xlink:href="#DejaVuSans-30" x="63.623047"/>
      </g>
     </g>
    </g>
    <g id="xtick_3">
     <g id="line2d_3">
      <g>
       <use xlink:href="#m94d34f819c" x="130.019957" y="56.25" style="stroke: #000000; stroke-width: 0.8"/>
      </g>
     </g>
     <g id="text_3">
      <!-- 100 -->
      <g transform="translate(122.384957 69.32875) scale(0.08 -0.08)">
       <defs>
        <path id="DejaVuSans-31" d="M 794 531 
L 1825 531 
L 1825 4091 
L 703 3866 
L 703 4441 
L 1819 4666 
L 2450 4666 
L 2450 531 
L 3481 531 
L 3481 0 
L 794 0 
L 794 531 
z
" transform="scale(0.015625)"/>
       </defs>
       <use xlink:href="#DejaVuSans-31"/>
       <use xlink:href="#DejaVuSans-30" x="63.623047"/>
       <use xlink:href="#DejaVuSans-30" x="127.246094"/>
      </g>
     </g>
    </g>
    <g id="xtick_4">
     <g id="line2d_4">
      <g>
       <use xlink:href="#m94d34f819c" x="177.576776" y="56.25" style="stroke: #000000; stroke-width: 0.8"/>
      </g>
     </g>
     <g id="text_4">
      <!-- 150 -->
      <g transform="translate(169.941776 69.32875) scale(0.08 -0.08)">
       <use xlink:href="#DejaVuSans-31"/>
       <use xlink:href="#DejaVuSans-35" x="63.623047"/>
       <use xlink:href="#DejaVuSans-30" x="127.246094"/>
      </g>
     </g>
    </g>
   </g>
   <g id="matplotlib.axis_2">
    <g id="ytick_1">
     <g id="line2d_5">
      <defs>
       <path id="me8b13b4968" d="M 0 0 
L -3.5 0 
" style="stroke: #000000; stroke-width: 0.8"/>
      </defs>
      <g>
       <use xlink:href="#me8b13b4968" x="27" y="54.675" style="stroke: #000000; stroke-width: 0.8"/>
      </g>
     </g>
     <g id="text_5">
      <!-- 0 -->
      <g transform="translate(14.91 57.714375) scale(0.08 -0.08)">
       <use xlink:href="#DejaVuSans-30"/>
      </g>
     </g>
    </g>
    <g id="ytick_2">
     <g id="line2d_6">
      <g>
       <use xlink:href="#me8b13b4968" x="27" y="23.175" style="stroke: #000000; stroke-width: 0.8"/>
      </g>
     </g>
     <g id="text_6">
      <!-- 1 -->
      <g transform="translate(14.91 26.214375) scale(0.08 -0.08)">
       <use xlink:href="#DejaVuSans-31"/>
      </g>
     </g>
    </g>
   </g>
   <g id="line2d_7">
    <path d="M 34.609091 54.675 
L 45.309375 47.795808 
L 47.389986 46.827399 
L 49.173366 46.237758 
L 50.659517 45.962936 
L 52.145668 45.909597 
L 53.631818 46.080027 
L 55.415199 46.535263 
L 61.657031 48.456457 
L 63.143182 48.5621 
L 64.926563 48.439776 
L 67.304403 47.999397 
L 70.573935 47.409437 
L 72.357315 47.315712 
L 74.140696 47.440727 
L 76.221307 47.824503 
L 80.085298 48.846738 
L 83.65206 49.684909 
L 86.624361 50.161171 
L 89.299432 50.377365 
L 91.380043 50.337376 
L 93.163423 50.095381 
L 94.946804 49.625715 
L 96.730185 48.933795 
L 99.405256 47.614216 
L 102.972017 45.873976 
L 105.052628 45.121942 
L 107.133239 44.610902 
L 109.51108 44.259061 
L 113.077841 43.986603 
L 121.697514 43.423241 
L 125.264276 42.911222 
L 127.939347 42.318294 
L 130.019957 41.652182 
L 132.100568 40.757131 
L 134.478409 39.481872 
L 138.936861 37.021965 
L 140.720241 36.315492 
L 142.503622 35.864266 
L 144.287003 35.650725 
L 146.664844 35.608749 
L 150.826065 35.578861 
L 153.203906 35.323163 
L 155.581747 34.848657 
L 158.851278 33.937158 
L 166.876491 31.57868 
L 174.307244 29.614812 
L 176.685085 28.67355 
L 179.360156 27.346146 
L 184.115838 24.638257 
L 186.790909 23.175 
L 186.790909 23.175 
" clip-path="url(#pd5e42c36b9)" style="fill: none; stroke: #a40505; stroke-width: 1.5; stroke-linecap: square"/>
   </g>
   <g id="patch_3">
    <path d="M 27 56.25 
L 27 21.6 
" style="fill: none; stroke: #000000; stroke-width: 0.8; stroke-linejoin: miter; stroke-linecap: square"/>
   </g>
   <g id="patch_4">
    <path d="M 194.4 56.25 
L 194.4 21.6 
" style="fill: none; stroke: #000000; stroke-width: 0.8; stroke-linejoin: miter; stroke-linecap: square"/>
   </g>
   <g id="patch_5">
    <path d="M 27 56.25 
L 194.4 56.25 
" style="fill: none; stroke: #000000; stroke-width: 0.8; stroke-linejoin: miter; stroke-linecap: square"/>
   </g>
   <g id="patch_6">
    <path d="M 27 21.6 
L 194.4 21.6 
" style="fill: none; stroke: #000000; stroke-width: 0.8; stroke-linejoin: miter; stroke-linecap: square"/>
   </g>
  </g>
  <g id="axes_2">
   <g id="patch_7">
    <path d="M 27 90.9 
L 194.4 90.9 
L 194.4 56.25 
L 27 56.25 
z
" style="fill: #ffffff"/>
   </g>
   <g id="matplotlib.axis_3">
    <g id="xtick_5">
     <g id="line2d_8">
      <g>
       <use xlink:href="#m94d34f819c" x="34.906321" y="90.9" style="stroke: #000000; stroke-width: 0.8"/>
      </g>
     </g>
     <g id="text_7">
      <!-- 0 -->
      <g transform="translate(32.361321 103.97875) scale(0.08 -0.08)">
       <use xlink:href="#DejaVuSans-30"/>
      </g>
     </g>
    </g>
    <g id="xtick_6">
     <g id="line2d_9">
      <g>
       <use xlink:href="#m94d34f819c" x="82.463139" y="90.9" style="stroke: #000000; stroke-width: 0.8"/>
      </g>
     </g>
     <g id="text_8">
      <!-- 50 -->
      <g transform="translate(77.373139 103.97875) scale(0.08 -0.08)">
       <use xlink:href="#DejaVuSans-35"/>
       <use xlink:href="#DejaVuSans-30" x="63.623047"/>
      </g>
     </g>
    </g>
    <g id="xtick_7">
     <g id="line2d_10">
      <g>
       <use xlink:href="#m94d34f819c" x="130.019957" y="90.9" style="stroke: #000000; stroke-width: 0.8"/>
      </g>
     </g>
     <g id="text_9">
      <!-- 100 -->
      <g transform="translate(122.384957 103.97875) scale(0.08 -0.08)">
       <use xlink:href="#DejaVuSans-31"/>
       <use xlink:href="#DejaVuSans-30" x="63.623047"/>
       <use xlink:href="#DejaVuSans-30" x="127.246094"/>
      </g>
     </g>
    </g>
    <g id="xtick_8">
     <g id="line2d_11">
      <g>
       <use xlink:href="#m94d34f819c" x="177.576776" y="90.9" style="stroke: #000000; stroke-width: 0.8"/>
      </g>
     </g>
     <g id="text_10">
      <!-- 150 -->
      <g transform="translate(169.941776 103.97875) scale(0.08 -0.08)">
       <use xlink:href="#DejaVuSans-31"/>
       <use xlink:href="#DejaVuSans-35" x="63.623047"/>
       <use xlink:href="#DejaVuSans-30" x="127.246094"/>
      </g>
     </g>
    </g>
   </g>
   <g id="matplotlib.axis_4">
    <g id="ytick_3">
     <g id="line2d_12">
      <g>
       <use xlink:href="#me8b13b4968" x="27" y="89.325" style="stroke: #000000; stroke-width: 0.8"/>
      </g>
     </g>
     <g id="text_11">
      <!-- 0 -->
      <g transform="translate(14.91 92.364375) scale(0.08 -0.08)">
       <use xlink:href="#DejaVuSans-30"/>
      </g>
     </g>
    </g>
    <g id="ytick_4">
     <g id="line2d_13">
      <g>
       <use xlink:href="#me8b13b4968" x="27" y="57.825" style="stroke: #000000; stroke-width: 0.8"/>
      </g>
     </g>
     <g id="text_12">
      <!-- 1 -->
      <g transform="translate(14.91 60.864375) scale(0.08 -0.08)">
       <use xlink:href="#DejaVuSans-31"/>
      </g>
     </g>
    </g>
   </g>
   <g id="line2d_14">
    <path d="M 34.609091 89.325 
L 40.850923 89.096394 
L 71.762855 87.277403 
L 76.518537 86.654655 
L 83.65206 85.720483 
L 91.974503 84.841773 
L 95.541264 84.101573 
L 100.296946 83.139881 
L 105.944318 82.331879 
L 110.40277 81.563219 
L 123.778125 79.046284 
L 134.775639 77.242603 
L 145.475923 75.110003 
L 149.339915 74.665909 
L 154.690057 74.099604 
L 156.770668 73.642166 
L 158.851278 72.938281 
L 160.931889 71.983119 
L 163.60696 70.476259 
L 167.768182 67.823051 
L 177.874006 61.212724 
L 180.251847 60.069243 
L 182.926918 59.026059 
L 186.196449 57.992624 
L 186.790909 57.825 
L 186.790909 57.825 
" clip-path="url(#p88066b789d)" style="fill: none; stroke: #f46f44; stroke-width: 1.5; stroke-linecap: square"/>
   </g>
   <g id="patch_8">
    <path d="M 27 90.9 
L 27 56.25 
" style="fill: none; stroke: #000000; stroke-width: 0.8; stroke-linejoin: miter; stroke-linecap: square"/>
   </g>
   <g id="patch_9">
    <path d="M 194.4 90.9 
L 194.4 56.25 
" style="fill: none; stroke: #000000; stroke-width: 0.8; stroke-linejoin: miter; stroke-linecap: square"/>
   </g>
   <g id="patch_10">
    <path d="M 27 90.9 
L 194.4 90.9 
" style="fill: none; stroke: #000000; stroke-width: 0.8; stroke-linejoin: miter; stroke-linecap: square"/>
   </g>
   <g id="patch_11">
    <path d="M 27 56.25 
L 194.4 56.25 
" style="fill: none; stroke: #000000; stroke-width: 0.8; stroke-linejoin: miter; stroke-linecap: square"/>
   </g>
  </g>
  <g id="axes_3">
   <g id="patch_12">
    <path d="M 27 125.55 
L 194.4 125.55 
L 194.4 90.9 
L 27 90.9 
z
" style="fill: #ffffff"/>
   </g>
   <g id="matplotlib.axis_5">
    <g id="xtick_9">
     <g id="line2d_15">
      <g>
       <use xlink:href="#m94d34f819c" x="34.303505" y="125.55" style="stroke: #000000; stroke-width: 0.8"/>
      </g>
     </g>
     <g id="text_13">
      <!-- 0 -->
      <g transform="translate(31.758505 138.62875) scale(0.08 -0.08)">
       <use xlink:href="#DejaVuSans-30"/>
      </g>
     </g>
    </g>
    <g id="xtick_10">
     <g id="line2d_16">
      <g>
       <use xlink:href="#m94d34f819c" x="81.955819" y="125.55" style="stroke: #000000; stroke-width: 0.8"/>
      </g>
     </g>
     <g id="text_14">
      <!-- 50 -->
      <g transform="translate(76.865819 138.62875) scale(0.08 -0.08)">
       <use xlink:href="#DejaVuSans-35"/>
       <use xlink:href="#DejaVuSans-30" x="63.623047"/>
      </g>
     </g>
    </g>
    <g id="xtick_11">
     <g id="line2d_17">
      <g>
       <use xlink:href="#m94d34f819c" x="129.608133" y="125.55" style="stroke: #000000; stroke-width: 0.8"/>
      </g>
     </g>
     <g id="text_15">
      <!-- 100 -->
      <g transform="translate(121.973133 138.62875) scale(0.08 -0.08)">
       <use xlink:href="#DejaVuSans-31"/>
       <use xlink:href="#DejaVuSans-30" x="63.623047"/>
       <use xlink:href="#DejaVuSans-30" x="127.246094"/>
      </g>
     </g>
    </g>
    <g id="xtick_12">
     <g id="line2d_18">
      <g>
       <use xlink:href="#m94d34f819c" x="177.260446" y="125.55" style="stroke: #000000; stroke-width: 0.8"/>
      </g>
     </g>
     <g id="text_16">
      <!-- 150 -->
      <g transform="translate(169.625446 138.62875) scale(0.08 -0.08)">
       <use xlink:href="#DejaVuSans-31"/>
       <use xlink:href="#DejaVuSans-35" x="63.623047"/>
       <use xlink:href="#DejaVuSans-30" x="127.246094"/>
      </g>
     </g>
    </g>
   </g>
   <g id="matplotlib.axis_6">
    <g id="ytick_5">
     <g id="line2d_19">
      <g>
       <use xlink:href="#me8b13b4968" x="27" y="123.975" style="stroke: #000000; stroke-width: 0.8"/>
      </g>
     </g>
     <g id="text_17">
      <!-- 0 -->
      <g transform="translate(14.91 127.014375) scale(0.08 -0.08)">
       <use xlink:href="#DejaVuSans-30"/>
      </g>
     </g>
    </g>
    <g id="ytick_6">
     <g id="line2d_20">
      <g>
       <use xlink:href="#me8b13b4968" x="27" y="92.475" style="stroke: #000000; stroke-width: 0.8"/>
      </g>
     </g>
     <g id="text_18">
      <!-- 1 -->
      <g transform="translate(14.91 95.514375) scale(0.08 -0.08)">
       <use xlink:href="#DejaVuSans-31"/>
      </g>
     </g>
    </g>
   </g>
   <g id="line2d_21">
    <path d="M 34.609091 123.975 
L 37.053779 123.975 
L 37.359365 119.475 
L 38.276123 119.475 
L 38.581709 123.975 
L 41.026396 123.975 
L 41.331983 114.975 
L 41.943155 123.975 
L 42.248741 114.975 
L 43.165498 114.975 
L 43.471085 117.224999 
L 43.77667 117.224999 
L 44.082256 119.475 
L 46.83253 119.475 
L 47.138116 114.975 
L 47.749288 114.975 
L 48.054874 110.474999 
L 48.666046 110.474999 
L 48.971632 119.475 
L 49.277218 119.475 
L 49.582804 117.224999 
L 49.88839 119.475 
L 50.193977 113.975 
L 50.499562 123.975 
L 50.805147 117.974999 
L 51.110734 117.224999 
L 51.41632 117.224999 
L 51.721905 119.566836 
L 52.333077 119.475 
L 52.94425 119.475 
L 53.249835 117.974999 
L 53.555422 110.474999 
L 53.861007 110.474999 
L 54.166593 119.475 
L 54.47218 119.475 
L 54.777765 123.975 
L 55.083352 123.975 
L 55.388938 112.724999 
L 55.694523 117.974999 
L 56.00011 118.215 
L 56.305695 112.724999 
L 56.611282 118.349999 
L 57.222453 111.974999 
L 57.52804 119.75625 
L 57.833625 119.75625 
L 58.139211 119.475 
L 58.444798 113.308333 
L 58.750383 117.224999 
L 59.05597 117.974999 
L 59.361556 114.975 
L 59.667141 114.975 
L 59.972728 105.974999 
L 60.278313 117.224999 
L 60.583899 110.474999 
L 60.889486 119.475 
L 61.500658 119.475 
L 61.806243 110.474999 
L 62.111829 118.464795 
L 62.417416 118.464795 
L 62.723001 117.974999 
L 63.028586 110.474999 
L 63.334173 116.975 
L 63.639759 114.975 
L 63.945346 111.974999 
L 64.250931 117.224999 
L 64.556516 117.224999 
L 64.862104 114.975 
L 65.167689 114.975 
L 65.473274 117.224999 
L 65.778859 123.975 
L 66.084448 114.975 
L 66.390034 116.774999 
L 66.695619 119.475 
L 67.001204 117.974999 
L 67.30679 117.974999 
L 67.612378 123.975 
L 67.917964 116.1 
L 68.223549 114.975 
L 68.529134 118.832142 
L 69.140305 116.975 
L 69.445894 117.224999 
L 69.751479 110.474999 
L 70.057064 113.975 
L 70.36265 113.975 
L 70.668235 115.334999 
L 70.973824 119.475 
L 71.279409 119.475 
L 71.584995 110.474999 
L 71.89058 116.260714 
L 72.196165 114.975 
L 72.501754 116.1 
L 72.807339 117.974999 
L 73.112925 115.975 
L 73.41851 118.215 
L 73.724095 123.975 
L 74.029681 123.975 
L 74.33527 116.475 
L 74.640855 115.975 
L 74.94644 113.475 
L 75.252025 113.475 
L 75.8632 117.224999 
L 76.47437 117.224999 
L 76.779956 116.474999 
L 77.085541 123.975 
L 77.39113 110.474999 
L 77.696715 114.975 
L 78.307886 114.975 
L 78.613471 119.501627 
L 78.91906 117.224999 
L 79.224645 117.224999 
L 79.835816 114.975 
L 80.141401 116.260714 
L 80.446986 113.475 
L 80.752575 117.224999 
L 81.058161 119.115 
L 81.363746 113.894999 
L 81.669331 117.974999 
L 81.974916 117.974999 
L 82.280505 114.975 
L 82.586091 119.475 
L 82.891676 96.974998 
L 83.197261 117.724999 
L 83.502847 114.975 
L 83.808435 116.475 
L 84.114021 110.474999 
L 84.419606 119.475 
L 84.725191 116.475 
L 85.030777 96.974998 
L 85.336362 96.974998 
L 85.641951 114.975 
L 85.947536 112.454999 
L 86.253121 117.224999 
L 86.558707 115.975 
L 86.864292 117.224999 
L 87.169881 116.260714 
L 87.475466 119.530555 
L 87.781052 117.752778 
L 88.086637 110.474999 
L 88.392222 119.475 
L 88.697811 114.975 
L 89.003396 114.975 
L 89.308982 116.774999 
L 89.614567 123.975 
L 89.920152 113.975 
L 90.225738 110.474999 
L 90.531327 116.774999 
L 90.836912 111.015 
L 91.142497 117.224999 
L 91.448082 118.464795 
L 91.753668 110.474999 
L 92.059257 118.464795 
L 92.364842 117.974999 
L 92.670427 101.474998 
L 92.976013 101.474998 
L 93.281598 105.974999 
L 93.587187 119.475 
L 93.892772 112.724999 
L 94.198357 117.362754 
L 94.503943 116.774999 
L 94.809528 110.474999 
L 95.115113 115.158672 
L 95.420702 117.224999 
L 95.726287 117.308333 
L 96.031873 119.566836 
L 96.337458 117.752778 
L 96.643043 115.158672 
L 96.948629 119.975 
L 97.254214 116.774999 
L 97.559799 119.475 
L 97.865392 123.975 
L 98.170977 118.215 
L 98.476562 116.774999 
L 98.782148 118.975 
L 99.087733 114.975 
L 99.393318 115.667307 
L 99.698904 117.224999 
L 100.004489 120.375 
L 100.310074 114.975 
L 100.615659 123.975 
L 101.226837 113.475 
L 101.532423 118.935 
L 101.838008 110.474999 
L 102.449179 119.975 
L 102.754764 108.135 
L 103.060349 116.260714 
L 103.365934 117.974999 
L 103.67152 123.975 
L 103.977105 114.975 
L 104.282698 117.224999 
L 104.588283 110.474999 
L 104.893868 116.774999 
L 105.199453 111.015 
L 105.505039 116.863888 
L 105.810624 111.015 
L 106.116209 117.974999 
L 106.421795 117.362754 
L 106.72738 117.362754 
L 107.032965 116.774999 
L 107.338558 117.280785 
L 107.949728 112.454999 
L 108.255314 116.475 
L 108.560899 118.975 
L 108.866484 113.975 
L 109.17207 113.975 
L 109.477655 119.475 
L 109.78324 118.464795 
L 110.088825 117.051923 
L 110.394411 118.464795 
L 110.700003 115.158672 
L 111.005589 118.9125 
L 111.311174 111.974999 
L 111.922344 123.975 
L 112.22793 118.215 
L 112.533515 123.975 
L 113.144686 105.974999 
L 113.450271 113.975 
L 113.755856 115.158672 
L 114.061449 96.974998 
L 114.367034 116.975 
L 114.672619 114.975 
L 114.978205 110.474999 
L 115.28379 117.974999 
L 115.589375 119.475 
L 115.894961 123.975 
L 116.200546 117.224999 
L 116.506131 117.224999 
L 116.811716 117.752778 
L 117.117309 114.975 
L 117.72848 116.774999 
L 118.034065 101.474998 
L 118.33965 123.975 
L 118.645236 108.225 
L 118.950821 119.475 
L 119.256406 118.215 
L 119.561991 114.975 
L 119.867577 105.974999 
L 120.173162 113.00625 
L 120.478755 113.975 
L 120.78434 115.725 
L 121.089925 115.975 
L 121.39551 123.975 
L 121.701096 116.475 
L 122.006681 119.566836 
L 122.312266 115.334999 
L 122.617852 117.135 
L 122.923437 110.474999 
L 123.229022 117.224999 
L 123.534615 117.362754 
L 123.8402 117.362754 
L 124.145785 114.975 
L 124.451371 107.974999 
L 124.756956 116.774999 
L 125.062541 119.655 
L 125.368127 115.975 
L 125.673712 113.894999 
L 125.979297 119.485204 
L 126.284882 118.097448 
L 126.590468 119.655 
L 126.89606 112.454999 
L 127.201646 112.454999 
L 127.507231 115.158672 
L 127.812816 116.834504 
L 128.118401 116.260714 
L 128.423987 116.260714 
L 128.729572 119.308333 
L 129.035157 117.576562 
L 129.340743 116.975 
L 129.646328 115.334999 
L 129.951913 114.975 
L 130.257506 115.975 
L 130.563091 114.975 
L 131.174262 123.975 
L 131.479847 115.975 
L 131.785432 104.474999 
L 132.091018 118.641666 
L 132.396603 118.215 
L 132.702188 118.06875 
L 133.007773 117.752778 
L 133.313366 117.752778 
L 133.618951 110.474999 
L 133.924537 115.334999 
L 134.230122 92.475 
L 134.535707 118.862573 
L 134.841293 116.863888 
L 135.146878 117.974999 
L 135.452463 117.852551 
L 135.758048 118.215 
L 136.063634 123.975 
L 136.369219 117.724999 
L 136.674812 117.752778 
L 136.980397 113.894999 
L 137.591567 123.975 
L 137.897153 116.863888 
L 138.202738 116.475 
L 138.508323 114.69375 
L 138.813909 110.474999 
L 139.119494 123.975 
L 139.425079 123.975 
L 139.730665 114.975 
L 140.036257 118.935 
L 140.341842 116.055 
L 140.647428 115.537499 
L 140.953013 118.097448 
L 141.258598 118.935 
L 141.564184 118.22352 
L 141.869769 111.974999 
L 142.175354 114.975 
L 142.480939 115.308333 
L 142.786525 112.724999 
L 143.092117 118.641666 
L 143.397703 119.655 
L 143.703288 118.024586 
L 144.008873 123.975 
L 144.314459 117.224999 
L 144.620044 115.158672 
L 144.925629 118.215 
L 145.231214 116.975 
L 145.5368 117.224999 
L 145.842385 119.475 
L 146.14797 117.974999 
L 146.453563 112.419444 
L 147.064733 116.811734 
L 147.370319 123.975 
L 147.675904 119.053125 
L 147.981489 110.474999 
L 148.287075 116.260714 
L 148.59266 118.768389 
L 148.898245 118.574999 
L 149.203831 118.641666 
L 149.509423 116.628061 
L 149.815008 118.641666 
L 150.120594 119.655 
L 150.426179 117.362754 
L 150.731764 119.288609 
L 151.03735 118.9125 
L 151.342935 108.225 
L 151.64852 112.724999 
L 151.954105 108.135 
L 152.259691 114.975 
L 152.565276 118.575 
L 152.870869 123.975 
L 153.176454 118.349999 
L 153.482039 123.975 
L 153.787624 123.975 
L 154.09321 116.1 
L 154.398795 118.005612 
L 154.70438 118.9125 
L 155.315551 117.974999 
L 155.621136 113.849999 
L 155.926722 117.224999 
L 156.232314 118.349999 
L 156.537899 116.260714 
L 156.843477 118.349999 
L 157.14907 118.768389 
L 157.454648 119.566837 
L 157.760241 115.334999 
L 158.065833 115.537499 
L 158.371411 116.774999 
L 158.677004 123.975 
L 158.982582 113.894999 
L 159.288174 121.418787 
L 159.593752 118.464795 
L 159.899345 117.429545 
L 160.204923 118.725 
L 160.510516 115.158672 
L 160.816094 118.349999 
L 161.121686 117.362755 
L 161.427279 123.975 
L 161.732857 117.099999 
L 162.038449 123.975 
L 162.344027 123.975 
L 162.64962 118.935 
L 162.955198 118.935 
L 163.26079 111.974999 
L 163.566368 119.475 
L 163.871961 115.975 
L 164.177554 119.475 
L 164.483132 118.935 
L 164.788724 114.975 
L 165.094302 118.641666 
L 165.399895 116.260714 
L 165.705473 116.260714 
L 166.011065 119.475 
L 166.316643 123.975 
L 166.622236 118.349999 
L 166.927814 116.628061 
L 167.233407 118.494031 
L 167.538999 118.619628 
L 167.844577 119.958471 
L 168.15017 117.974999 
L 168.455748 118.215 
L 168.76134 117.974999 
L 169.066918 120.863889 
L 169.372511 118.349999 
L 169.678089 117.224999 
L 169.983681 117.974999 
L 170.28926 117.224999 
L 170.594852 118.832142 
L 170.900445 116.519379 
L 171.206023 120.0375 
L 171.511615 119.85 
L 171.817193 118.117012 
L 172.122786 118.975 
L 172.428364 117.974999 
L 172.733956 119.599999 
L 173.039534 118.034999 
L 173.345127 120.375 
L 173.956298 118.117012 
L 174.26189 123.975 
L 174.567468 123.975 
L 174.873061 118.9125 
L 175.178639 118.9125 
L 175.484231 120.668877 
L 175.789809 118.975 
L 176.095402 117.974999 
L 177.012151 119.655 
L 177.317743 119.475 
L 177.623336 118.774999 
L 177.928914 116.239462 
L 178.234506 118.215 
L 178.540084 119.179152 
L 178.845677 117.752778 
L 179.151255 114.975 
L 179.456847 118.975 
L 179.762425 117.974999 
L 180.068018 121.036224 
L 180.679189 119.475 
L 180.984781 120.195 
L 181.290359 118.215 
L 181.595952 111.974999 
L 181.90153 123.975 
L 182.207122 116.975 
L 182.5127 119.975 
L 182.818293 118.935 
L 183.123871 119.655 
L 183.429464 118.464795 
L 183.735056 120.375 
L 184.040634 121.297314 
L 184.346227 119.714644 
L 184.651805 121.403571 
L 184.957397 118.935 
L 185.262975 123.975 
L 185.568568 119.475 
L 185.874146 120.0375 
L 186.179739 119.494999 
L 186.485317 120.668877 
L 186.790909 121.095 
L 186.790909 121.095 
" clip-path="url(#pf208cc70cc)" style="fill: none; stroke: #808080; stroke-width: 1.5; stroke-linecap: square"/>
   </g>
   <g id="patch_13">
    <path d="M 27 125.55 
L 27 90.9 
" style="fill: none; stroke: #000000; stroke-width: 0.8; stroke-linejoin: miter; stroke-linecap: square"/>
   </g>
   <g id="patch_14">
    <path d="M 194.4 125.55 
L 194.4 90.9 
" style="fill: none; stroke: #000000; stroke-width: 0.8; stroke-linejoin: miter; stroke-linecap: square"/>
   </g>
   <g id="patch_15">
    <path d="M 27 125.55 
L 194.4 125.55 
" style="fill: none; stroke: #000000; stroke-width: 0.8; stroke-linejoin: miter; stroke-linecap: square"/>
   </g>
   <g id="patch_16">
    <path d="M 27 90.9 
L 194.4 90.9 
" style="fill: none; stroke: #000000; stroke-width: 0.8; stroke-linejoin: miter; stroke-linecap: square"/>
   </g>
  </g>
  <g id="axes_4">
   <g id="patch_17">
    <path d="M 27 160.2 
L 194.4 160.2 
L 194.4 125.55 
L 27 125.55 
z
" style="fill: #ffffff"/>
   </g>
   <g id="matplotlib.axis_7">
    <g id="xtick_13">
     <g id="line2d_22">
      <g>
       <use xlink:href="#m94d34f819c" x="34.609091" y="160.2" style="stroke: #000000; stroke-width: 0.8"/>
      </g>
     </g>
     <g id="text_19">
      <!-- 0 -->
      <g transform="translate(32.064091 173.27875) scale(0.08 -0.08)">
       <use xlink:href="#DejaVuSans-30"/>
      </g>
     </g>
    </g>
    <g id="xtick_14">
     <g id="line2d_23">
      <g>
       <use xlink:href="#m94d34f819c" x="82.165909" y="160.2" style="stroke: #000000; stroke-width: 0.8"/>
      </g>
     </g>
     <g id="text_20">
      <!-- 50 -->
      <g transform="translate(77.075909 173.27875) scale(0.08 -0.08)">
       <use xlink:href="#DejaVuSans-35"/>
       <use xlink:href="#DejaVuSans-30" x="63.623047"/>
      </g>
     </g>
    </g>
    <g id="xtick_15">
     <g id="line2d_24">
      <g>
       <use xlink:href="#m94d34f819c" x="129.722727" y="160.2" style="stroke: #000000; stroke-width: 0.8"/>
      </g>
     </g>
     <g id="text_21">
      <!-- 100 -->
      <g transform="translate(122.087727 173.27875) scale(0.08 -0.08)">
       <use xlink:href="#DejaVuSans-31"/>
       <use xlink:href="#DejaVuSans-30" x="63.623047"/>
       <use xlink:href="#DejaVuSans-30" x="127.246094"/>
      </g>
     </g>
    </g>
    <g id="xtick_16">
     <g id="line2d_25">
      <g>
       <use xlink:href="#m94d34f819c" x="177.279545" y="160.2" style="stroke: #000000; stroke-width: 0.8"/>
      </g>
     </g>
     <g id="text_22">
      <!-- 150 -->
      <g transform="translate(169.644545 173.27875) scale(0.08 -0.08)">
       <use xlink:href="#DejaVuSans-31"/>
       <use xlink:href="#DejaVuSans-35" x="63.623047"/>
       <use xlink:href="#DejaVuSans-30" x="127.246094"/>
      </g>
     </g>
    </g>
   </g>
   <g id="matplotlib.axis_8">
    <g id="ytick_7">
     <g id="line2d_26">
      <g>
       <use xlink:href="#me8b13b4968" x="27" y="158.625" style="stroke: #000000; stroke-width: 0.8"/>
      </g>
     </g>
     <g id="text_23">
      <!-- 0 -->
      <g transform="translate(14.91 161.664375) scale(0.08 -0.08)">
       <use xlink:href="#DejaVuSans-30"/>
      </g>
     </g>
    </g>
    <g id="ytick_8">
     <g id="line2d_27">
      <g>
       <use xlink:href="#me8b13b4968" x="27" y="127.125" style="stroke: #000000; stroke-width: 0.8"/>
      </g>
     </g>
     <g id="text_24">
      <!-- 1 -->
      <g transform="translate(14.91 130.164375) scale(0.08 -0.08)">
       <use xlink:href="#DejaVuSans-31"/>
      </g>
     </g>
    </g>
   </g>
   <g id="line2d_28">
    <path d="M 34.609091 143.180175 
L 36.095241 143.086966 
L 37.581392 142.782668 
L 39.364773 142.172807 
L 41.445384 141.193075 
L 45.012145 139.181807 
L 47.687216 137.799116 
L 49.470597 137.124605 
L 51.253977 136.714899 
L 53.037358 136.559935 
L 55.415199 136.620169 
L 59.27919 136.761611 
L 61.359801 136.616912 
L 63.440412 136.246041 
L 65.223793 135.725398 
L 67.007173 134.992061 
L 68.790554 134.026011 
L 70.871165 132.620154 
L 76.815767 128.313197 
L 78.301918 127.63172 
L 79.490838 127.291647 
L 80.679759 127.13703 
L 82.165909 127.179754 
L 83.94929 127.498857 
L 86.327131 128.180453 
L 94.649574 130.928676 
L 97.027415 131.996541 
L 99.405256 133.313996 
L 105.052628 136.590011 
L 106.836009 137.276522 
L 108.322159 137.621171 
L 109.80831 137.758903 
L 111.59169 137.699027 
L 118.427983 137.148251 
L 120.211364 137.36242 
L 121.994744 137.798288 
L 124.075355 138.567014 
L 126.453196 139.707165 
L 131.208878 142.059867 
L 132.992259 142.653889 
L 134.775639 142.982777 
L 136.55902 143.058755 
L 138.936861 142.905766 
L 142.206392 142.694923 
L 144.287003 142.78903 
L 146.664844 143.146535 
L 152.609446 144.421981 
L 155.878977 145.221265 
L 157.959588 145.944862 
L 160.040199 146.916321 
L 162.41804 148.304373 
L 169.254332 152.512322 
L 171.929403 153.782575 
L 175.198935 155.077239 
L 180.251847 156.810187 
L 184.710298 158.110668 
L 186.790909 158.625 
L 186.790909 158.625 
" clip-path="url(#pda6254c130)" style="fill: none; stroke: #669bbb; stroke-width: 1.5; stroke-linecap: square"/>
   </g>
   <g id="patch_18">
    <path d="M 27 160.2 
L 27 125.55 
" style="fill: none; stroke: #000000; stroke-width: 0.8; stroke-linejoin: miter; stroke-linecap: square"/>
   </g>
   <g id="patch_19">
    <path d="M 194.4 160.2 
L 194.4 125.55 
" style="fill: none; stroke: #000000; stroke-width: 0.8; stroke-linejoin: miter; stroke-linecap: square"/>
   </g>
   <g id="patch_20">
    <path d="M 27 160.2 
L 194.4 160.2 
" style="fill: none; stroke: #000000; stroke-width: 0.8; stroke-linejoin: miter; stroke-linecap: square"/>
   </g>
   <g id="patch_21">
    <path d="M 27 125.55 
L 194.4 125.55 
" style="fill: none; stroke: #000000; stroke-width: 0.8; stroke-linejoin: miter; stroke-linecap: square"/>
   </g>
  </g>
 </g>
 <defs>
  <clipPath id="pd5e42c36b9">
   <rect x="27" y="21.6" width="167.4" height="34.65"/>
  </clipPath>
  <clipPath id="p88066b789d">
   <rect x="27" y="56.25" width="167.4" height="34.65"/>
  </clipPath>
  <clipPath id="pf208cc70cc">
   <rect x="27" y="90.9" width="167.4" height="34.65"/>
  </clipPath>
  <clipPath id="pda6254c130">
   <rect x="27" y="125.55" width="167.4" height="34.65"/>
  </clipPath>
 </defs>
</svg>
