<?xml version="1.0" encoding="utf-8" standalone="no"?>
<!DOCTYPE svg PUBLIC "-//W3C//DTD SVG 1.1//EN"
  "http://www.w3.org/Graphics/SVG/1.1/DTD/svg11.dtd">
<svg xmlns:xlink="http://www.w3.org/1999/xlink" width="216pt" height="180pt" viewBox="0 0 216 180" xmlns="http://www.w3.org/2000/svg" version="1.1">
 <metadata>
  <rdf:RDF xmlns:dc="http://purl.org/dc/elements/1.1/" xmlns:cc="http://creativecommons.org/ns#" xmlns:rdf="http://www.w3.org/1999/02/22-rdf-syntax-ns#">
   <cc:Work>
    <dc:type rdf:resource="http://purl.org/dc/dcmitype/StillImage"/>
    <dc:date>2024-05-19T18:35:50.386585</dc:date>
    <dc:format>image/svg+xml</dc:format>
    <dc:creator>
     <cc:Agent>
      <dc:title>Matplotlib v3.7.1, https://matplotlib.org/</dc:title>
     </cc:Agent>
    </dc:creator>
   </cc:Work>
  </rdf:RDF>
 </metadata>
 <defs>
  <style type="text/css">*{stroke-linejoin: round; stroke-linecap: butt}</style>
 </defs>
 <g id="figure_1">
  <g id="patch_1">
   <path d="M 0 180 
L 216 180 
L 216 0 
L 0 0 
z
" style="fill: #ffffff"/>
  </g>
  <g id="axes_1">
   <g id="patch_2">
    <path d="M 41.4 160.2 
L 180 160.2 
L 180 21.6 
L 41.4 21.6 
z
" style="fill: #ffffff"/>
   </g>
   <g id="patch_3">
    <path d="M 95.454 153.963 
C 95.637786 153.963 95.814069 153.889981 95.944025 153.760025 
C 96.073981 153.630069 96.147 153.453786 96.147 153.27 
C 96.147 153.086214 96.073981 152.909931 95.944025 152.779975 
C 95.814069 152.650019 95.637786 152.577 95.454 152.577 
C 95.270214 152.577 95.093931 152.650019 94.963975 152.779975 
C 94.834019 152.909931 94.761 153.086214 94.761 153.27 
C 94.761 153.453786 94.834019 153.630069 94.963975 153.760025 
C 95.093931 153.889981 95.270214 153.963 95.454 153.963 
z
" clip-path="url(#p2b6d405a1e)" style="fill: #c82423; stroke: #c82423; stroke-linejoin: miter"/>
   </g>
   <g id="patch_4">
    <path d="M 56.646 60.639 
C 56.829786 60.639 57.006069 60.565981 57.136025 60.436025 
C 57.265981 60.306069 57.339 60.129786 57.339 59.946 
C 57.339 59.762214 57.265981 59.585931 57.136025 59.455975 
C 57.006069 59.326019 56.829786 59.253 56.646 59.253 
C 56.462214 59.253 56.285931 59.326019 56.155975 59.455975 
C 56.026019 59.585931 55.953 59.762214 55.953 59.946 
C 55.953 60.129786 56.026019 60.306069 56.155975 60.436025 
C 56.285931 60.565981 56.462214 60.639 56.646 60.639 
z
" clip-path="url(#p2b6d405a1e)" style="fill: #c82423; stroke: #c82423; stroke-linejoin: miter"/>
   </g>
   <g id="patch_5">
    <path d="M 64.038 96.213 
C 64.221786 96.213 64.398069 96.139981 64.528025 96.010025 
C 64.657981 95.880069 64.731 95.703786 64.731 95.52 
C 64.731 95.336214 64.657981 95.159931 64.528025 95.029975 
C 64.398069 94.900019 64.221786 94.827 64.038 94.827 
C 63.854214 94.827 63.677931 94.900019 63.547975 95.029975 
C 63.418019 95.159931 63.345 95.336214 63.345 95.52 
C 63.345 95.703786 63.418019 95.880069 63.547975 96.010025 
C 63.677931 96.139981 63.854214 96.213 64.038 96.213 
z
" clip-path="url(#p2b6d405a1e)" style="fill: #c82423; stroke: #c82423; stroke-linejoin: miter"/>
   </g>
   <g id="patch_6">
    <path d="M 55.722 73.575 
C 55.905786 73.575 56.082069 73.501981 56.212025 73.372025 
C 56.341981 73.242069 56.415 73.065786 56.415 72.882 
C 56.415 72.698214 56.341981 72.521931 56.212025 72.391975 
C 56.082069 72.262019 55.905786 72.189 55.722 72.189 
C 55.538214 72.189 55.361931 72.262019 55.231975 72.391975 
C 55.102019 72.521931 55.029 72.698214 55.029 72.882 
C 55.029 73.065786 55.102019 73.242069 55.231975 73.372025 
C 55.361931 73.501981 55.538214 73.575 55.722 73.575 
z
" clip-path="url(#p2b6d405a1e)" style="fill: #c82423; stroke: #c82423; stroke-linejoin: miter"/>
   </g>
   <g id="patch_7">
    <path d="M 55.26 69.417 
C 55.443786 69.417 55.620069 69.343981 55.750025 69.214025 
C 55.879981 69.084069 55.953 68.907786 55.953 68.724 
C 55.953 68.540214 55.879981 68.363931 55.750025 68.233975 
C 55.620069 68.104019 55.443786 68.031 55.26 68.031 
C 55.076214 68.031 54.899931 68.104019 54.769975 68.233975 
C 54.640019 68.363931 54.567 68.540214 54.567 68.724 
C 54.567 68.907786 54.640019 69.084069 54.769975 69.214025 
C 54.899931 69.343981 55.076214 69.417 55.26 69.417 
z
" clip-path="url(#p2b6d405a1e)" style="fill: #c82423; stroke: #c82423; stroke-linejoin: miter"/>
   </g>
   <g id="patch_8">
    <path d="M 191.55 87.897 
C 191.733786 87.897 191.910069 87.823981 192.040025 87.694025 
C 192.169981 87.564069 192.243 87.387786 192.243 87.204 
C 192.243 87.020214 192.169981 86.843931 192.040025 86.713975 
C 191.910069 86.584019 191.733786 86.511 191.55 86.511 
C 191.366214 86.511 191.189931 86.584019 191.059975 86.713975 
C 190.930019 86.843931 190.857 87.020214 190.857 87.204 
C 190.857 87.387786 190.930019 87.564069 191.059975 87.694025 
C 191.189931 87.823981 191.366214 87.897 191.55 87.897 
z
" clip-path="url(#p2b6d405a1e)" style="fill: #c82423; stroke: #c82423; stroke-linejoin: miter"/>
   </g>
   <g id="patch_9">
    <path d="M 115.32 110.997 
C 115.503786 110.997 115.680069 110.923981 115.810025 110.794025 
C 115.939981 110.664069 116.013 110.487786 116.013 110.304 
C 116.013 110.120214 115.939981 109.943931 115.810025 109.813975 
C 115.680069 109.684019 115.503786 109.611 115.32 109.611 
C 115.136214 109.611 114.959931 109.684019 114.829975 109.813975 
C 114.700019 109.943931 114.627 110.120214 114.627 110.304 
C 114.627 110.487786 114.700019 110.664069 114.829975 110.794025 
C 114.959931 110.923981 115.136214 110.997 115.32 110.997 
z
" clip-path="url(#p2b6d405a1e)" style="fill: #c82423; stroke: #c82423; stroke-linejoin: miter"/>
   </g>
   <g id="patch_10">
    <path d="M 167.988 118.851 
C 168.171786 118.851 168.348069 118.777981 168.478025 118.648025 
C 168.607981 118.518069 168.681 118.341786 168.681 118.158 
C 168.681 117.974214 168.607981 117.797931 168.478025 117.667975 
C 168.348069 117.538019 168.171786 117.465 167.988 117.465 
C 167.804214 117.465 167.627931 117.538019 167.497975 117.667975 
C 167.368019 117.797931 167.295 117.974214 167.295 118.158 
C 167.295 118.341786 167.368019 118.518069 167.497975 118.648025 
C 167.627931 118.777981 167.804214 118.851 167.988 118.851 
z
" clip-path="url(#p2b6d405a1e)" style="fill: #c82423; stroke: #c82423; stroke-linejoin: miter"/>
   </g>
   <g id="patch_11">
    <path d="M 176.766 68.493 
C 176.949786 68.493 177.126069 68.419981 177.256025 68.290025 
C 177.385981 68.160069 177.459 67.983786 177.459 67.8 
C 177.459 67.616214 177.385981 67.439931 177.256025 67.309975 
C 177.126069 67.180019 176.949786 67.107 176.766 67.107 
C 176.582214 67.107 176.405931 67.180019 176.275975 67.309975 
C 176.146019 67.439931 176.073 67.616214 176.073 67.8 
C 176.073 67.983786 176.146019 68.160069 176.275975 68.290025 
C 176.405931 68.419981 176.582214 68.493 176.766 68.493 
z
" clip-path="url(#p2b6d405a1e)" style="fill: #c82423; stroke: #c82423; stroke-linejoin: miter"/>
   </g>
   <g id="patch_12">
    <path d="M 106.08 128.091 
C 106.263786 128.091 106.440069 128.017981 106.570025 127.888025 
C 106.699981 127.758069 106.773 127.581786 106.773 127.398 
C 106.773 127.214214 106.699981 127.037931 106.570025 126.907975 
C 106.440069 126.778019 106.263786 126.705 106.08 126.705 
C 105.896214 126.705 105.719931 126.778019 105.589975 126.907975 
C 105.460019 127.037931 105.387 127.214214 105.387 127.398 
C 105.387 127.581786 105.460019 127.758069 105.589975 127.888025 
C 105.719931 128.017981 105.896214 128.091 106.08 128.091 
z
" clip-path="url(#p2b6d405a1e)" style="fill: #c82423; stroke: #c82423; stroke-linejoin: miter"/>
   </g>
   <g id="patch_13">
    <path d="M 114.396 35.229 
C 114.579786 35.229 114.756069 35.155981 114.886025 35.026025 
C 115.015981 34.896069 115.089 34.719786 115.089 34.536 
C 115.089 34.352214 115.015981 34.175931 114.886025 34.045975 
C 114.756069 33.916019 114.579786 33.843 114.396 33.843 
C 114.212214 33.843 114.035931 33.916019 113.905975 34.045975 
C 113.776019 34.175931 113.703 34.352214 113.703 34.536 
C 113.703 34.719786 113.776019 34.896069 113.905975 35.026025 
C 114.035931 35.155981 114.212214 35.229 114.396 35.229 
z
" clip-path="url(#p2b6d405a1e)" style="fill: #c82423; stroke: #c82423; stroke-linejoin: miter"/>
   </g>
   <g id="patch_14">
    <path d="M 149.046 145.647 
C 149.229786 145.647 149.406069 145.573981 149.536025 145.444025 
C 149.665981 145.314069 149.739 145.137786 149.739 144.954 
C 149.739 144.770214 149.665981 144.593931 149.536025 144.463975 
C 149.406069 144.334019 149.229786 144.261 149.046 144.261 
C 148.862214 144.261 148.685931 144.334019 148.555975 144.463975 
C 148.426019 144.593931 148.353 144.770214 148.353 144.954 
C 148.353 145.137786 148.426019 145.314069 148.555975 145.444025 
C 148.685931 145.573981 148.862214 145.647 149.046 145.647 
z
" clip-path="url(#p2b6d405a1e)" style="fill: #c82423; stroke: #c82423; stroke-linejoin: miter"/>
   </g>
   <g id="patch_15">
    <path d="M 120.864 64.335 
C 121.047786 64.335 121.224069 64.261981 121.354025 64.132025 
C 121.483981 64.002069 121.557 63.825786 121.557 63.642 
C 121.557 63.458214 121.483981 63.281931 121.354025 63.151975 
C 121.224069 63.022019 121.047786 62.949 120.864 62.949 
C 120.680214 62.949 120.503931 63.022019 120.373975 63.151975 
C 120.244019 63.281931 120.171 63.458214 120.171 63.642 
C 120.171 63.825786 120.244019 64.002069 120.373975 64.132025 
C 120.503931 64.261981 120.680214 64.335 120.864 64.335 
z
" clip-path="url(#p2b6d405a1e)" style="fill: #c82423; stroke: #c82423; stroke-linejoin: miter"/>
   </g>
   <g id="patch_16">
    <path d="M 192.012 99.447 
C 192.195786 99.447 192.372069 99.373981 192.502025 99.244025 
C 192.631981 99.114069 192.705 98.937786 192.705 98.754 
C 192.705 98.570214 192.631981 98.393931 192.502025 98.263975 
C 192.372069 98.134019 192.195786 98.061 192.012 98.061 
C 191.828214 98.061 191.651931 98.134019 191.521975 98.263975 
C 191.392019 98.393931 191.319 98.570214 191.319 98.754 
C 191.319 98.937786 191.392019 99.114069 191.521975 99.244025 
C 191.651931 99.373981 191.828214 99.447 192.012 99.447 
z
" clip-path="url(#p2b6d405a1e)" style="fill: #c82423; stroke: #c82423; stroke-linejoin: miter"/>
   </g>
   <g id="patch_17">
    <path d="M 159.672 98.985 
C 159.855786 98.985 160.032069 98.911981 160.162025 98.782025 
C 160.291981 98.652069 160.365 98.475786 160.365 98.292 
C 160.365 98.108214 160.291981 97.931931 160.162025 97.801975 
C 160.032069 97.672019 159.855786 97.599 159.672 97.599 
C 159.488214 97.599 159.311931 97.672019 159.181975 97.801975 
C 159.052019 97.931931 158.979 98.108214 158.979 98.292 
C 158.979 98.475786 159.052019 98.652069 159.181975 98.782025 
C 159.311931 98.911981 159.488214 98.985 159.672 98.985 
z
" clip-path="url(#p2b6d405a1e)" style="fill: #c82423; stroke: #c82423; stroke-linejoin: miter"/>
   </g>
   <g id="patch_18">
    <path d="M 137.496 51.861 
C 137.679786 51.861 137.856069 51.787981 137.986025 51.658025 
C 138.115981 51.528069 138.189 51.351786 138.189 51.168 
C 138.189 50.984214 138.115981 50.807931 137.986025 50.677975 
C 137.856069 50.548019 137.679786 50.475 137.496 50.475 
C 137.312214 50.475 137.135931 50.548019 137.005975 50.677975 
C 136.876019 50.807931 136.803 50.984214 136.803 51.168 
C 136.803 51.351786 136.876019 51.528069 137.005975 51.658025 
C 137.135931 51.787981 137.312214 51.861 137.496 51.861 
z
" clip-path="url(#p2b6d405a1e)" style="fill: #c82423; stroke: #c82423; stroke-linejoin: miter"/>
   </g>
   <g id="patch_19">
    <path d="M 190.164 68.493 
C 190.347786 68.493 190.524069 68.419981 190.654025 68.290025 
C 190.783981 68.160069 190.857 67.983786 190.857 67.8 
C 190.857 67.616214 190.783981 67.439931 190.654025 67.309975 
C 190.524069 67.180019 190.347786 67.107 190.164 67.107 
C 189.980214 67.107 189.803931 67.180019 189.673975 67.309975 
C 189.544019 67.439931 189.471 67.616214 189.471 67.8 
C 189.471 67.983786 189.544019 68.160069 189.673975 68.290025 
C 189.803931 68.419981 189.980214 68.493 190.164 68.493 
z
" clip-path="url(#p2b6d405a1e)" style="fill: #c82423; stroke: #c82423; stroke-linejoin: miter"/>
   </g>
   <g id="patch_20">
    <path d="M 58.956 67.107 
C 59.139786 67.107 59.316069 67.033981 59.446025 66.904025 
C 59.575981 66.774069 59.649 66.597786 59.649 66.414 
C 59.649 66.230214 59.575981 66.053931 59.446025 65.923975 
C 59.316069 65.794019 59.139786 65.721 58.956 65.721 
C 58.772214 65.721 58.595931 65.794019 58.465975 65.923975 
C 58.336019 66.053931 58.263 66.230214 58.263 66.414 
C 58.263 66.597786 58.336019 66.774069 58.465975 66.904025 
C 58.595931 67.033981 58.772214 67.107 58.956 67.107 
z
" clip-path="url(#p2b6d405a1e)" style="fill: #c82423; stroke: #c82423; stroke-linejoin: miter"/>
   </g>
   <g id="patch_21">
    <path d="M 113.472 122.085 
C 113.655786 122.085 113.832069 122.011981 113.962025 121.882025 
C 114.091981 121.752069 114.165 121.575786 114.165 121.392 
C 114.165 121.208214 114.091981 121.031931 113.962025 120.901975 
C 113.832069 120.772019 113.655786 120.699 113.472 120.699 
C 113.288214 120.699 113.111931 120.772019 112.981975 120.901975 
C 112.852019 121.031931 112.779 121.208214 112.779 121.392 
C 112.779 121.575786 112.852019 121.752069 112.981975 121.882025 
C 113.111931 122.011981 113.288214 122.085 113.472 122.085 
z
" clip-path="url(#p2b6d405a1e)" style="fill: #c82423; stroke: #c82423; stroke-linejoin: miter"/>
   </g>
   <g id="patch_22">
    <path d="M 150.894 109.611 
C 151.077786 109.611 151.254069 109.537981 151.384025 109.408025 
C 151.513981 109.278069 151.587 109.101786 151.587 108.918 
C 151.587 108.734214 151.513981 108.557931 151.384025 108.427975 
C 151.254069 108.298019 151.077786 108.225 150.894 108.225 
C 150.710214 108.225 150.533931 108.298019 150.403975 108.427975 
C 150.274019 108.557931 150.201 108.734214 150.201 108.918 
C 150.201 109.101786 150.274019 109.278069 150.403975 109.408025 
C 150.533931 109.537981 150.710214 109.611 150.894 109.611 
z
" clip-path="url(#p2b6d405a1e)" style="fill: #c82423; stroke: #c82423; stroke-linejoin: miter"/>
   </g>
   <g id="patch_23">
    <path d="M 161.058 10.743 
C 161.241786 10.743 161.418069 10.669981 161.548025 10.540025 
C 161.677981 10.410069 161.751 10.233786 161.751 10.05 
C 161.751 9.866214 161.677981 9.689931 161.548025 9.559975 
C 161.418069 9.430019 161.241786 9.357 161.058 9.357 
C 160.874214 9.357 160.697931 9.430019 160.567975 9.559975 
C 160.438019 9.689931 160.365 9.866214 160.365 10.05 
C 160.365 10.233786 160.438019 10.410069 160.567975 10.540025 
C 160.697931 10.669981 160.874214 10.743 161.058 10.743 
z
" clip-path="url(#p2b6d405a1e)" style="fill: #c82423; stroke: #c82423; stroke-linejoin: miter"/>
   </g>
   <g id="patch_24">
    <path d="M 107.466 159.969 
C 107.649786 159.969 107.826069 159.895981 107.956025 159.766025 
C 108.085981 159.636069 108.159 159.459786 108.159 159.276 
C 108.159 159.092214 108.085981 158.915931 107.956025 158.785975 
C 107.826069 158.656019 107.649786 158.583 107.466 158.583 
C 107.282214 158.583 107.105931 158.656019 106.975975 158.785975 
C 106.846019 158.915931 106.773 159.092214 106.773 159.276 
C 106.773 159.459786 106.846019 159.636069 106.975975 159.766025 
C 107.105931 159.895981 107.282214 159.969 107.466 159.969 
z
" clip-path="url(#p2b6d405a1e)" style="fill: #c82423; stroke: #c82423; stroke-linejoin: miter"/>
   </g>
   <g id="patch_25">
    <path d="M 155.976 43.083 
C 156.159786 43.083 156.336069 43.009981 156.466025 42.880025 
C 156.595981 42.750069 156.669 42.573786 156.669 42.39 
C 156.669 42.206214 156.595981 42.029931 156.466025 41.899975 
C 156.336069 41.770019 156.159786 41.697 155.976 41.697 
C 155.792214 41.697 155.615931 41.770019 155.485975 41.899975 
C 155.356019 42.029931 155.283 42.206214 155.283 42.39 
C 155.283 42.573786 155.356019 42.750069 155.485975 42.880025 
C 155.615931 43.009981 155.792214 43.083 155.976 43.083 
z
" clip-path="url(#p2b6d405a1e)" style="fill: #c82423; stroke: #c82423; stroke-linejoin: miter"/>
   </g>
   <g id="patch_26">
    <path d="M 99.15 35.229 
C 99.333786 35.229 99.510069 35.155981 99.640025 35.026025 
C 99.769981 34.896069 99.843 34.719786 99.843 34.536 
C 99.843 34.352214 99.769981 34.175931 99.640025 34.045975 
C 99.510069 33.916019 99.333786 33.843 99.15 33.843 
C 98.966214 33.843 98.789931 33.916019 98.659975 34.045975 
C 98.530019 34.175931 98.457 34.352214 98.457 34.536 
C 98.457 34.719786 98.530019 34.896069 98.659975 35.026025 
C 98.789931 35.155981 98.966214 35.229 99.15 35.229 
z
" clip-path="url(#p2b6d405a1e)" style="fill: #c82423; stroke: #c82423; stroke-linejoin: miter"/>
   </g>
   <g id="patch_27">
    <path d="M 113.472 120.699 
C 113.655786 120.699 113.832069 120.625981 113.962025 120.496025 
C 114.091981 120.366069 114.165 120.189786 114.165 120.006 
C 114.165 119.822214 114.091981 119.645931 113.962025 119.515975 
C 113.832069 119.386019 113.655786 119.313 113.472 119.313 
C 113.288214 119.313 113.111931 119.386019 112.981975 119.515975 
C 112.852019 119.645931 112.779 119.822214 112.779 120.006 
C 112.779 120.189786 112.852019 120.366069 112.981975 120.496025 
C 113.111931 120.625981 113.288214 120.699 113.472 120.699 
z
" clip-path="url(#p2b6d405a1e)" style="fill: #c82423; stroke: #c82423; stroke-linejoin: miter"/>
   </g>
   <g id="patch_28">
    <path d="M 101.46 30.609 
C 101.643786 30.609 101.820069 30.535981 101.950025 30.406025 
C 102.079981 30.276069 102.153 30.099786 102.153 29.916 
C 102.153 29.732214 102.079981 29.555931 101.950025 29.425975 
C 101.820069 29.296019 101.643786 29.223 101.46 29.223 
C 101.276214 29.223 101.099931 29.296019 100.969975 29.425975 
C 100.840019 29.555931 100.767 29.732214 100.767 29.916 
C 100.767 30.099786 100.840019 30.276069 100.969975 30.406025 
C 101.099931 30.535981 101.276214 30.609 101.46 30.609 
z
" clip-path="url(#p2b6d405a1e)" style="fill: #3b5284; stroke: #3b5284; stroke-linejoin: miter"/>
   </g>
   <g id="patch_29">
    <path d="M 80.67 21.831 
C 80.853786 21.831 81.030069 21.757981 81.160025 21.628025 
C 81.289981 21.498069 81.363 21.321786 81.363 21.138 
C 81.363 20.954214 81.289981 20.777931 81.160025 20.647975 
C 81.030069 20.518019 80.853786 20.445 80.67 20.445 
C 80.486214 20.445 80.309931 20.518019 80.179975 20.647975 
C 80.050019 20.777931 79.977 20.954214 79.977 21.138 
C 79.977 21.321786 80.050019 21.498069 80.179975 21.628025 
C 80.309931 21.757981 80.486214 21.831 80.67 21.831 
z
" clip-path="url(#p2b6d405a1e)" style="fill: #3b5284; stroke: #3b5284; stroke-linejoin: miter"/>
   </g>
   <g id="patch_30">
    <path d="M 169.836 60.639 
C 170.019786 60.639 170.196069 60.565981 170.326025 60.436025 
C 170.455981 60.306069 170.529 60.129786 170.529 59.946 
C 170.529 59.762214 170.455981 59.585931 170.326025 59.455975 
C 170.196069 59.326019 170.019786 59.253 169.836 59.253 
C 169.652214 59.253 169.475931 59.326019 169.345975 59.455975 
C 169.216019 59.585931 169.143 59.762214 169.143 59.946 
C 169.143 60.129786 169.216019 60.306069 169.345975 60.436025 
C 169.475931 60.565981 169.652214 60.639 169.836 60.639 
z
" clip-path="url(#p2b6d405a1e)" style="fill: #3b5284; stroke: #3b5284; stroke-linejoin: miter"/>
   </g>
   <g id="patch_31">
    <path d="M 107.928 114.231 
C 108.111786 114.231 108.288069 114.157981 108.418025 114.028025 
C 108.547981 113.898069 108.621 113.721786 108.621 113.538 
C 108.621 113.354214 108.547981 113.177931 108.418025 113.047975 
C 108.288069 112.918019 108.111786 112.845 107.928 112.845 
C 107.744214 112.845 107.567931 112.918019 107.437975 113.047975 
C 107.308019 113.177931 107.235 113.354214 107.235 113.538 
C 107.235 113.721786 107.308019 113.898069 107.437975 114.028025 
C 107.567931 114.157981 107.744214 114.231 107.928 114.231 
z
" clip-path="url(#p2b6d405a1e)" style="fill: #3b5284; stroke: #3b5284; stroke-linejoin: miter"/>
   </g>
   <g id="patch_32">
    <path d="M 122.25 54.633 
C 122.433786 54.633 122.610069 54.559981 122.740025 54.430025 
C 122.869981 54.300069 122.943 54.123786 122.943 53.94 
C 122.943 53.756214 122.869981 53.579931 122.740025 53.449975 
C 122.610069 53.320019 122.433786 53.247 122.25 53.247 
C 122.066214 53.247 121.889931 53.320019 121.759975 53.449975 
C 121.630019 53.579931 121.557 53.756214 121.557 53.94 
C 121.557 54.123786 121.630019 54.300069 121.759975 54.430025 
C 121.889931 54.559981 122.066214 54.633 122.25 54.633 
z
" clip-path="url(#p2b6d405a1e)" style="fill: #3b5284; stroke: #3b5284; stroke-linejoin: miter"/>
   </g>
   <g id="patch_33">
    <path d="M 57.57 90.207 
C 57.753786 90.207 57.930069 90.133981 58.060025 90.004025 
C 58.189981 89.874069 58.263 89.697786 58.263 89.514 
C 58.263 89.330214 58.189981 89.153931 58.060025 89.023975 
C 57.930069 88.894019 57.753786 88.821 57.57 88.821 
C 57.386214 88.821 57.209931 88.894019 57.079975 89.023975 
C 56.950019 89.153931 56.877 89.330214 56.877 89.514 
C 56.877 89.697786 56.950019 89.874069 57.079975 90.004025 
C 57.209931 90.133981 57.386214 90.207 57.57 90.207 
z
" clip-path="url(#p2b6d405a1e)" style="fill: #3b5284; stroke: #3b5284; stroke-linejoin: miter"/>
   </g>
   <g id="patch_34">
    <path d="M 122.25 47.241 
C 122.433786 47.241 122.610069 47.167981 122.740025 47.038025 
C 122.869981 46.908069 122.943 46.731786 122.943 46.548 
C 122.943 46.364214 122.869981 46.187931 122.740025 46.057975 
C 122.610069 45.928019 122.433786 45.855 122.25 45.855 
C 122.066214 45.855 121.889931 45.928019 121.759975 46.057975 
C 121.630019 46.187931 121.557 46.364214 121.557 46.548 
C 121.557 46.731786 121.630019 46.908069 121.759975 47.038025 
C 121.889931 47.167981 122.066214 47.241 122.25 47.241 
z
" clip-path="url(#p2b6d405a1e)" style="fill: #3b5284; stroke: #3b5284; stroke-linejoin: miter"/>
   </g>
   <g id="patch_35">
    <path d="M 41.862 15.825 
C 42.045786 15.825 42.222069 15.751981 42.352025 15.622025 
C 42.481981 15.492069 42.555 15.315786 42.555 15.132 
C 42.555 14.948214 42.481981 14.771931 42.352025 14.641975 
C 42.222069 14.512019 42.045786 14.439 41.862 14.439 
C 41.678214 14.439 41.501931 14.512019 41.371975 14.641975 
C 41.242019 14.771931 41.169 14.948214 41.169 15.132 
C 41.169 15.315786 41.242019 15.492069 41.371975 15.622025 
C 41.501931 15.751981 41.678214 15.825 41.862 15.825 
z
" clip-path="url(#p2b6d405a1e)" style="fill: #3b5284; stroke: #3b5284; stroke-linejoin: miter"/>
   </g>
   <g id="patch_36">
    <path d="M 100.536 8.433 
C 100.719786 8.433 100.896069 8.359981 101.026025 8.230025 
C 101.155981 8.100069 101.229 7.923786 101.229 7.74 
C 101.229 7.556214 101.155981 7.379931 101.026025 7.249975 
C 100.896069 7.120019 100.719786 7.047 100.536 7.047 
C 100.352214 7.047 100.175931 7.120019 100.045975 7.249975 
C 99.916019 7.379931 99.843 7.556214 99.843 7.74 
C 99.843 7.923786 99.916019 8.100069 100.045975 8.230025 
C 100.175931 8.359981 100.352214 8.433 100.536 8.433 
z
" clip-path="url(#p2b6d405a1e)" style="fill: #3b5284; stroke: #3b5284; stroke-linejoin: miter"/>
   </g>
   <g id="patch_37">
    <path d="M 150.432 155.811 
C 150.615786 155.811 150.792069 155.737981 150.922025 155.608025 
C 151.051981 155.478069 151.125 155.301786 151.125 155.118 
C 151.125 154.934214 151.051981 154.757931 150.922025 154.627975 
C 150.792069 154.498019 150.615786 154.425 150.432 154.425 
C 150.248214 154.425 150.071931 154.498019 149.941975 154.627975 
C 149.812019 154.757931 149.739 154.934214 149.739 155.118 
C 149.739 155.301786 149.812019 155.478069 149.941975 155.608025 
C 150.071931 155.737981 150.248214 155.811 150.432 155.811 
z
" clip-path="url(#p2b6d405a1e)" style="fill: #3b5284; stroke: #3b5284; stroke-linejoin: miter"/>
   </g>
   <g id="patch_38">
    <path d="M 163.368 53.709 
C 163.551786 53.709 163.728069 53.635981 163.858025 53.506025 
C 163.987981 53.376069 164.061 53.199786 164.061 53.016 
C 164.061 52.832214 163.987981 52.655931 163.858025 52.525975 
C 163.728069 52.396019 163.551786 52.323 163.368 52.323 
C 163.184214 52.323 163.007931 52.396019 162.877975 52.525975 
C 162.748019 52.655931 162.675 52.832214 162.675 53.016 
C 162.675 53.199786 162.748019 53.376069 162.877975 53.506025 
C 163.007931 53.635981 163.184214 53.709 163.368 53.709 
z
" clip-path="url(#p2b6d405a1e)" style="fill: #3b5284; stroke: #3b5284; stroke-linejoin: miter"/>
   </g>
   <g id="patch_39">
    <path d="M 104.232 30.147 
C 104.415786 30.147 104.592069 30.073981 104.722025 29.944025 
C 104.851981 29.814069 104.925 29.637786 104.925 29.454 
C 104.925 29.270214 104.851981 29.093931 104.722025 28.963975 
C 104.592069 28.834019 104.415786 28.761 104.232 28.761 
C 104.048214 28.761 103.871931 28.834019 103.741975 28.963975 
C 103.612019 29.093931 103.539 29.270214 103.539 29.454 
C 103.539 29.637786 103.612019 29.814069 103.741975 29.944025 
C 103.871931 30.073981 104.048214 30.147 104.232 30.147 
z
" clip-path="url(#p2b6d405a1e)" style="fill: #3b5284; stroke: #3b5284; stroke-linejoin: miter"/>
   </g>
   <g id="patch_40">
    <path d="M 113.934 135.021 
C 114.117786 135.021 114.294069 134.947981 114.424025 134.818025 
C 114.553981 134.688069 114.627 134.511786 114.627 134.328 
C 114.627 134.144214 114.553981 133.967931 114.424025 133.837975 
C 114.294069 133.708019 114.117786 133.635 113.934 133.635 
C 113.750214 133.635 113.573931 133.708019 113.443975 133.837975 
C 113.314019 133.967931 113.241 134.144214 113.241 134.328 
C 113.241 134.511786 113.314019 134.688069 113.443975 134.818025 
C 113.573931 134.947981 113.750214 135.021 113.934 135.021 
z
" clip-path="url(#p2b6d405a1e)" style="fill: #3b5284; stroke: #3b5284; stroke-linejoin: miter"/>
   </g>
   <g id="patch_41">
    <path d="M 168.45 89.745 
C 168.633786 89.745 168.810069 89.671981 168.940025 89.542025 
C 169.069981 89.412069 169.143 89.235786 169.143 89.052 
C 169.143 88.868214 169.069981 88.691931 168.940025 88.561975 
C 168.810069 88.432019 168.633786 88.359 168.45 88.359 
C 168.266214 88.359 168.089931 88.432019 167.959975 88.561975 
C 167.830019 88.691931 167.757 88.868214 167.757 89.052 
C 167.757 89.235786 167.830019 89.412069 167.959975 89.542025 
C 168.089931 89.671981 168.266214 89.745 168.45 89.745 
z
" clip-path="url(#p2b6d405a1e)" style="fill: #3b5284; stroke: #3b5284; stroke-linejoin: miter"/>
   </g>
   <g id="patch_42">
    <path d="M 49.716 85.125 
C 49.899786 85.125 50.076069 85.051981 50.206025 84.922025 
C 50.335981 84.792069 50.409 84.615786 50.409 84.432 
C 50.409 84.248214 50.335981 84.071931 50.206025 83.941975 
C 50.076069 83.812019 49.899786 83.739 49.716 83.739 
C 49.532214 83.739 49.355931 83.812019 49.225975 83.941975 
C 49.096019 84.071931 49.023 84.248214 49.023 84.432 
C 49.023 84.615786 49.096019 84.792069 49.225975 84.922025 
C 49.355931 85.051981 49.532214 85.125 49.716 85.125 
z
" clip-path="url(#p2b6d405a1e)" style="fill: #3b5284; stroke: #3b5284; stroke-linejoin: miter"/>
   </g>
   <g id="patch_43">
    <path d="M 131.49 41.697 
C 131.673786 41.697 131.850069 41.623981 131.980025 41.494025 
C 132.109981 41.364069 132.183 41.187786 132.183 41.004 
C 132.183 40.820214 132.109981 40.643931 131.980025 40.513975 
C 131.850069 40.384019 131.673786 40.311 131.49 40.311 
C 131.306214 40.311 131.129931 40.384019 130.999975 40.513975 
C 130.870019 40.643931 130.797 40.820214 130.797 41.004 
C 130.797 41.187786 130.870019 41.364069 130.999975 41.494025 
C 131.129931 41.623981 131.306214 41.697 131.49 41.697 
z
" clip-path="url(#p2b6d405a1e)" style="fill: #3b5284; stroke: #3b5284; stroke-linejoin: miter"/>
   </g>
   <g id="patch_44">
    <path d="M 57.57 166.206 
C 62.470953 166.206 67.171836 164.258831 70.637333 160.793333 
C 74.102831 157.327836 76.05 152.626953 76.05 147.726 
C 76.05 142.825047 74.102831 138.124164 70.637333 134.658667 
C 67.171836 131.193169 62.470953 129.246 57.57 129.246 
C 52.669047 129.246 47.968164 131.193169 44.502667 134.658667 
C 41.037169 138.124164 39.09 142.825047 39.09 147.726 
C 39.09 152.626953 41.037169 157.327836 44.502667 160.793333 
C 47.968164 164.258831 52.669047 166.206 57.57 166.206 
z
" clip-path="url(#p2b6d405a1e)" style="fill: #808080; opacity: 0.7; stroke: #808080; stroke-linejoin: miter"/>
   </g>
   <g id="patch_45">
    <path d="M 86.676 150.96 
C 91.576953 150.96 96.277836 149.012831 99.743333 145.547333 
C 103.208831 142.081836 105.156 137.380953 105.156 132.48 
C 105.156 127.579047 103.208831 122.878164 99.743333 119.412667 
C 96.277836 115.947169 91.576953 114 86.676 114 
C 81.775047 114 77.074164 115.947169 73.608667 119.412667 
C 70.143169 122.878164 68.196 127.579047 68.196 132.48 
C 68.196 137.380953 70.143169 142.081836 73.608667 145.547333 
C 77.074164 149.012831 81.775047 150.96 86.676 150.96 
z
" clip-path="url(#p2b6d405a1e)" style="fill: #808080; opacity: 0.7; stroke: #808080; stroke-linejoin: miter"/>
   </g>
   <g id="patch_46">
    <path d="M 55.26 132.48 
C 60.160953 132.48 64.861836 130.532831 68.327333 127.067333 
C 71.792831 123.601836 73.74 118.900953 73.74 114 
C 73.74 109.099047 71.792831 104.398164 68.327333 100.932667 
C 64.861836 97.467169 60.160953 95.52 55.26 95.52 
C 50.359047 95.52 45.658164 97.467169 42.192667 100.932667 
C 38.727169 104.398164 36.78 109.099047 36.78 114 
C 36.78 118.900953 38.727169 123.601836 42.192667 127.067333 
C 45.658164 130.532831 50.359047 132.48 55.26 132.48 
z
" clip-path="url(#p2b6d405a1e)" style="fill: #808080; opacity: 0.7; stroke: #808080; stroke-linejoin: miter"/>
   </g>
   <g id="patch_47">
    <path d="M 110.7 109.38 
C 115.600953 109.38 120.301836 107.432831 123.767333 103.967333 
C 127.232831 100.501836 129.18 95.800953 129.18 90.9 
C 129.18 85.999047 127.232831 81.298164 123.767333 77.832667 
C 120.301836 74.367169 115.600953 72.42 110.7 72.42 
C 105.799047 72.42 101.098164 74.367169 97.632667 77.832667 
C 94.167169 81.298164 92.22 85.999047 92.22 90.9 
C 92.22 95.800953 94.167169 100.501836 97.632667 103.967333 
C 101.098164 107.432831 105.799047 109.38 110.7 109.38 
z
" clip-path="url(#p2b6d405a1e)" style="fill: #808080; opacity: 0.7; stroke: #808080; stroke-linejoin: miter"/>
   </g>
   <g id="patch_48">
    <path d="M 133.8 40.08 
C 138.700953 40.08 143.401836 38.132831 146.867333 34.667333 
C 150.332831 31.201836 152.28 26.500953 152.28 21.6 
C 152.28 16.699047 150.332831 11.998164 146.867333 8.532667 
C 143.401836 5.067169 138.700953 3.12 133.8 3.12 
C 128.899047 3.12 124.198164 5.067169 120.732667 8.532667 
C 117.267169 11.998164 115.32 16.699047 115.32 21.6 
C 115.32 26.500953 117.267169 31.201836 120.732667 34.667333 
C 124.198164 38.132831 128.899047 40.08 133.8 40.08 
z
" clip-path="url(#p2b6d405a1e)" style="fill: #808080; opacity: 0.7; stroke: #808080; stroke-linejoin: miter"/>
   </g>
   <g id="patch_49">
    <path d="M 147.66 95.52 
C 152.560953 95.52 157.261836 93.572831 160.727333 90.107333 
C 164.192831 86.641836 166.14 81.940953 166.14 77.04 
C 166.14 72.139047 164.192831 67.438164 160.727333 63.972667 
C 157.261836 60.507169 152.560953 58.56 147.66 58.56 
C 142.759047 58.56 138.058164 60.507169 134.592667 63.972667 
C 131.127169 67.438164 129.18 72.139047 129.18 77.04 
C 129.18 81.940953 131.127169 86.641836 134.592667 90.107333 
C 138.058164 93.572831 142.759047 95.52 147.66 95.52 
z
" clip-path="url(#p2b6d405a1e)" style="fill: #808080; opacity: 0.7; stroke: #808080; stroke-linejoin: miter"/>
   </g>
   <g id="patch_50">
    <path d="M 170.76 155.58 
C 175.660953 155.58 180.361836 153.632831 183.827333 150.167333 
C 187.292831 146.701836 189.24 142.000953 189.24 137.1 
C 189.24 132.199047 187.292831 127.498164 183.827333 124.032667 
C 180.361836 120.567169 175.660953 118.62 170.76 118.62 
C 165.859047 118.62 161.158164 120.567169 157.692667 124.032667 
C 154.227169 127.498164 152.28 132.199047 152.28 137.1 
C 152.28 142.000953 154.227169 146.701836 157.692667 150.167333 
C 161.158164 153.632831 165.859047 155.58 170.76 155.58 
z
" clip-path="url(#p2b6d405a1e)" style="fill: #808080; opacity: 0.7; stroke: #808080; stroke-linejoin: miter"/>
   </g>
   <g id="patch_51">
    <path d="M 78.36 90.9 
C 83.260953 90.9 87.961836 88.952831 91.427333 85.487333 
C 94.892831 82.021836 96.84 77.320953 96.84 72.42 
C 96.84 67.519047 94.892831 62.818164 91.427333 59.352667 
C 87.961836 55.887169 83.260953 53.94 78.36 53.94 
C 73.459047 53.94 68.758164 55.887169 65.292667 59.352667 
C 61.827169 62.818164 59.88 67.519047 59.88 72.42 
C 59.88 77.320953 61.827169 82.021836 65.292667 85.487333 
C 68.758164 88.952831 73.459047 90.9 78.36 90.9 
z
" clip-path="url(#p2b6d405a1e)" style="fill: #808080; opacity: 0.7; stroke: #808080; stroke-linejoin: miter"/>
   </g>
   <g id="patch_52">
    <path d="M 64.5 58.56 
C 69.400953 58.56 74.101836 56.612831 77.567333 53.147333 
C 81.032831 49.681836 82.98 44.980953 82.98 40.08 
C 82.98 35.179047 81.032831 30.478164 77.567333 27.012667 
C 74.101836 23.547169 69.400953 21.6 64.5 21.6 
C 59.599047 21.6 54.898164 23.547169 51.432667 27.012667 
C 47.967169 30.478164 46.02 35.179047 46.02 40.08 
C 46.02 44.980953 47.967169 49.681836 51.432667 53.147333 
C 54.898164 56.612831 59.599047 58.56 64.5 58.56 
z
" clip-path="url(#p2b6d405a1e)" style="fill: #808080; opacity: 0.7; stroke: #808080; stroke-linejoin: miter"/>
   </g>
   <g id="patch_53">
    <path d="M 133.8 141.72 
C 138.700953 141.72 143.401836 139.772831 146.867333 136.307333 
C 150.332831 132.841836 152.28 128.140953 152.28 123.24 
C 152.28 118.339047 150.332831 113.638164 146.867333 110.172667 
C 143.401836 106.707169 138.700953 104.76 133.8 104.76 
C 128.899047 104.76 124.198164 106.707169 120.732667 110.172667 
C 117.267169 113.638164 115.32 118.339047 115.32 123.24 
C 115.32 128.140953 117.267169 132.841836 120.732667 136.307333 
C 124.198164 139.772831 128.899047 141.72 133.8 141.72 
z
" clip-path="url(#p2b6d405a1e)" style="fill: #808080; opacity: 0.7; stroke: #808080; stroke-linejoin: miter"/>
   </g>
   <g id="patch_54">
    <path d="M 180 49.32 
C 184.900953 49.32 189.601836 47.372831 193.067333 43.907333 
C 196.532831 40.441836 198.48 35.740953 198.48 30.84 
C 198.48 25.939047 196.532831 21.238164 193.067333 17.772667 
C 189.601836 14.307169 184.900953 12.36 180 12.36 
C 175.099047 12.36 170.398164 14.307169 166.932667 17.772667 
C 163.467169 21.238164 161.52 25.939047 161.52 30.84 
C 161.52 35.740953 163.467169 40.441836 166.932667 43.907333 
C 170.398164 47.372831 175.099047 49.32 180 49.32 
z
" clip-path="url(#p2b6d405a1e)" style="fill: #808080; opacity: 0.7; stroke: #808080; stroke-linejoin: miter"/>
   </g>
   <g id="patch_55">
    <path d="M 101.46 72.42 
C 106.360953 72.42 111.061836 70.472831 114.527333 67.007333 
C 117.992831 63.541836 119.94 58.840953 119.94 53.94 
C 119.94 49.039047 117.992831 44.338164 114.527333 40.872667 
C 111.061836 37.407169 106.360953 35.46 101.46 35.46 
C 96.559047 35.46 91.858164 37.407169 88.392667 40.872667 
C 84.927169 44.338164 82.98 49.039047 82.98 53.94 
C 82.98 58.840953 84.927169 63.541836 88.392667 67.007333 
C 91.858164 70.472831 96.559047 72.42 101.46 72.42 
z
" clip-path="url(#p2b6d405a1e)" style="fill: #808080; opacity: 0.7; stroke: #808080; stroke-linejoin: miter"/>
   </g>
   <g id="matplotlib.axis_1">
    <g id="xtick_1">
     <g id="line2d_1">
      <defs>
       <path id="m12b99f7d08" d="M 0 0 
L 0 3.5 
" style="stroke: #000000; stroke-width: 0.8"/>
      </defs>
      <g>
       <use xlink:href="#m12b99f7d08" x="41.4" y="160.2" style="stroke: #000000; stroke-width: 0.8"/>
      </g>
     </g>
     <g id="text_1">
      <!-- 0 -->
      <g transform="translate(38.855 173.27875) scale(0.08 -0.08)">
       <defs>
        <path id="DejaVuSans-30" d="M 2034 4250 
Q 1547 4250 1301 3770 
Q 1056 3291 1056 2328 
Q 1056 1369 1301 889 
Q 1547 409 2034 409 
Q 2525 409 2770 889 
Q 3016 1369 3016 2328 
Q 3016 3291 2770 3770 
Q 2525 4250 2034 4250 
z
M 2034 4750 
Q 2819 4750 3233 4129 
Q 3647 3509 3647 2328 
Q 3647 1150 3233 529 
Q 2819 -91 2034 -91 
Q 1250 -91 836 529 
Q 422 1150 422 2328 
Q 422 3509 836 4129 
Q 1250 4750 2034 4750 
z
" transform="scale(0.015625)"/>
       </defs>
       <use xlink:href="#DejaVuSans-30"/>
      </g>
     </g>
    </g>
    <g id="xtick_2">
     <g id="line2d_2">
      <g>
       <use xlink:href="#m12b99f7d08" x="64.5" y="160.2" style="stroke: #000000; stroke-width: 0.8"/>
      </g>
     </g>
     <g id="text_2">
      <!-- 50 -->
      <g transform="translate(59.41 173.27875) scale(0.08 -0.08)">
       <defs>
        <path id="DejaVuSans-35" d="M 691 4666 
L 3169 4666 
L 3169 4134 
L 1269 4134 
L 1269 2991 
Q 1406 3038 1543 3061 
Q 1681 3084 1819 3084 
Q 2600 3084 3056 2656 
Q 3513 2228 3513 1497 
Q 3513 744 3044 326 
Q 2575 -91 1722 -91 
Q 1428 -91 1123 -41 
Q 819 9 494 109 
L 494 744 
Q 775 591 1075 516 
Q 1375 441 1709 441 
Q 2250 441 2565 725 
Q 2881 1009 2881 1497 
Q 2881 1984 2565 2268 
Q 2250 2553 1709 2553 
Q 1456 2553 1204 2497 
Q 953 2441 691 2322 
L 691 4666 
z
" transform="scale(0.015625)"/>
       </defs>
       <use xlink:href="#DejaVuSans-35"/>
       <use xlink:href="#DejaVuSans-30" x="63.623047"/>
      </g>
     </g>
    </g>
    <g id="xtick_3">
     <g id="line2d_3">
      <g>
       <use xlink:href="#m12b99f7d08" x="87.6" y="160.2" style="stroke: #000000; stroke-width: 0.8"/>
      </g>
     </g>
     <g id="text_3">
      <!-- 100 -->
      <g transform="translate(79.965 173.27875) scale(0.08 -0.08)">
       <defs>
        <path id="DejaVuSans-31" d="M 794 531 
L 1825 531 
L 1825 4091 
L 703 3866 
L 703 4441 
L 1819 4666 
L 2450 4666 
L 2450 531 
L 3481 531 
L 3481 0 
L 794 0 
L 794 531 
z
" transform="scale(0.015625)"/>
       </defs>
       <use xlink:href="#DejaVuSans-31"/>
       <use xlink:href="#DejaVuSans-30" x="63.623047"/>
       <use xlink:href="#DejaVuSans-30" x="127.246094"/>
      </g>
     </g>
    </g>
    <g id="xtick_4">
     <g id="line2d_4">
      <g>
       <use xlink:href="#m12b99f7d08" x="110.7" y="160.2" style="stroke: #000000; stroke-width: 0.8"/>
      </g>
     </g>
     <g id="text_4">
      <!-- 150 -->
      <g transform="translate(103.065 173.27875) scale(0.08 -0.08)">
       <use xlink:href="#DejaVuSans-31"/>
       <use xlink:href="#DejaVuSans-35" x="63.623047"/>
       <use xlink:href="#DejaVuSans-30" x="127.246094"/>
      </g>
     </g>
    </g>
    <g id="xtick_5">
     <g id="line2d_5">
      <g>
       <use xlink:href="#m12b99f7d08" x="133.8" y="160.2" style="stroke: #000000; stroke-width: 0.8"/>
      </g>
     </g>
     <g id="text_5">
      <!-- 200 -->
      <g transform="translate(126.165 173.27875) scale(0.08 -0.08)">
       <defs>
        <path id="DejaVuSans-32" d="M 1228 531 
L 3431 531 
L 3431 0 
L 469 0 
L 469 531 
Q 828 903 1448 1529 
Q 2069 2156 2228 2338 
Q 2531 2678 2651 2914 
Q 2772 3150 2772 3378 
Q 2772 3750 2511 3984 
Q 2250 4219 1831 4219 
Q 1534 4219 1204 4116 
Q 875 4013 500 3803 
L 500 4441 
Q 881 4594 1212 4672 
Q 1544 4750 1819 4750 
Q 2544 4750 2975 4387 
Q 3406 4025 3406 3419 
Q 3406 3131 3298 2873 
Q 3191 2616 2906 2266 
Q 2828 2175 2409 1742 
Q 1991 1309 1228 531 
z
" transform="scale(0.015625)"/>
       </defs>
       <use xlink:href="#DejaVuSans-32"/>
       <use xlink:href="#DejaVuSans-30" x="63.623047"/>
       <use xlink:href="#DejaVuSans-30" x="127.246094"/>
      </g>
     </g>
    </g>
    <g id="xtick_6">
     <g id="line2d_6">
      <g>
       <use xlink:href="#m12b99f7d08" x="156.9" y="160.2" style="stroke: #000000; stroke-width: 0.8"/>
      </g>
     </g>
     <g id="text_6">
      <!-- 250 -->
      <g transform="translate(149.265 173.27875) scale(0.08 -0.08)">
       <use xlink:href="#DejaVuSans-32"/>
       <use xlink:href="#DejaVuSans-35" x="63.623047"/>
       <use xlink:href="#DejaVuSans-30" x="127.246094"/>
      </g>
     </g>
    </g>
    <g id="xtick_7">
     <g id="line2d_7">
      <g>
       <use xlink:href="#m12b99f7d08" x="180" y="160.2" style="stroke: #000000; stroke-width: 0.8"/>
      </g>
     </g>
     <g id="text_7">
      <!-- 300 -->
      <g transform="translate(172.365 173.27875) scale(0.08 -0.08)">
       <defs>
        <path id="DejaVuSans-33" d="M 2597 2516 
Q 3050 2419 3304 2112 
Q 3559 1806 3559 1356 
Q 3559 666 3084 287 
Q 2609 -91 1734 -91 
Q 1441 -91 1130 -33 
Q 819 25 488 141 
L 488 750 
Q 750 597 1062 519 
Q 1375 441 1716 441 
Q 2309 441 2620 675 
Q 2931 909 2931 1356 
Q 2931 1769 2642 2001 
Q 2353 2234 1838 2234 
L 1294 2234 
L 1294 2753 
L 1863 2753 
Q 2328 2753 2575 2939 
Q 2822 3125 2822 3475 
Q 2822 3834 2567 4026 
Q 2313 4219 1838 4219 
Q 1578 4219 1281 4162 
Q 984 4106 628 3988 
L 628 4550 
Q 988 4650 1302 4700 
Q 1616 4750 1894 4750 
Q 2613 4750 3031 4423 
Q 3450 4097 3450 3541 
Q 3450 3153 3228 2886 
Q 3006 2619 2597 2516 
z
" transform="scale(0.015625)"/>
       </defs>
       <use xlink:href="#DejaVuSans-33"/>
       <use xlink:href="#DejaVuSans-30" x="63.623047"/>
       <use xlink:href="#DejaVuSans-30" x="127.246094"/>
      </g>
     </g>
    </g>
   </g>
   <g id="matplotlib.axis_2">
    <g id="ytick_1">
     <g id="line2d_8">
      <defs>
       <path id="m567822fa2e" d="M 0 0 
L -3.5 0 
" style="stroke: #000000; stroke-width: 0.8"/>
      </defs>
      <g>
       <use xlink:href="#m567822fa2e" x="41.4" y="160.2" style="stroke: #000000; stroke-width: 0.8"/>
      </g>
     </g>
     <g id="text_8">
      <!-- 0 -->
      <g transform="translate(29.31 163.239375) scale(0.08 -0.08)">
       <use xlink:href="#DejaVuSans-30"/>
      </g>
     </g>
    </g>
    <g id="ytick_2">
     <g id="line2d_9">
      <g>
       <use xlink:href="#m567822fa2e" x="41.4" y="137.1" style="stroke: #000000; stroke-width: 0.8"/>
      </g>
     </g>
     <g id="text_9">
      <!-- 50 -->
      <g transform="translate(24.22 140.139375) scale(0.08 -0.08)">
       <use xlink:href="#DejaVuSans-35"/>
       <use xlink:href="#DejaVuSans-30" x="63.623047"/>
      </g>
     </g>
    </g>
    <g id="ytick_3">
     <g id="line2d_10">
      <g>
       <use xlink:href="#m567822fa2e" x="41.4" y="114" style="stroke: #000000; stroke-width: 0.8"/>
      </g>
     </g>
     <g id="text_10">
      <!-- 100 -->
      <g transform="translate(19.13 117.039375) scale(0.08 -0.08)">
       <use xlink:href="#DejaVuSans-31"/>
       <use xlink:href="#DejaVuSans-30" x="63.623047"/>
       <use xlink:href="#DejaVuSans-30" x="127.246094"/>
      </g>
     </g>
    </g>
    <g id="ytick_4">
     <g id="line2d_11">
      <g>
       <use xlink:href="#m567822fa2e" x="41.4" y="90.9" style="stroke: #000000; stroke-width: 0.8"/>
      </g>
     </g>
     <g id="text_11">
      <!-- 150 -->
      <g transform="translate(19.13 93.939375) scale(0.08 -0.08)">
       <use xlink:href="#DejaVuSans-31"/>
       <use xlink:href="#DejaVuSans-35" x="63.623047"/>
       <use xlink:href="#DejaVuSans-30" x="127.246094"/>
      </g>
     </g>
    </g>
    <g id="ytick_5">
     <g id="line2d_12">
      <g>
       <use xlink:href="#m567822fa2e" x="41.4" y="67.8" style="stroke: #000000; stroke-width: 0.8"/>
      </g>
     </g>
     <g id="text_12">
      <!-- 200 -->
      <g transform="translate(19.13 70.839375) scale(0.08 -0.08)">
       <use xlink:href="#DejaVuSans-32"/>
       <use xlink:href="#DejaVuSans-30" x="63.623047"/>
       <use xlink:href="#DejaVuSans-30" x="127.246094"/>
      </g>
     </g>
    </g>
    <g id="ytick_6">
     <g id="line2d_13">
      <g>
       <use xlink:href="#m567822fa2e" x="41.4" y="44.7" style="stroke: #000000; stroke-width: 0.8"/>
      </g>
     </g>
     <g id="text_13">
      <!-- 250 -->
      <g transform="translate(19.13 47.739375) scale(0.08 -0.08)">
       <use xlink:href="#DejaVuSans-32"/>
       <use xlink:href="#DejaVuSans-35" x="63.623047"/>
       <use xlink:href="#DejaVuSans-30" x="127.246094"/>
      </g>
     </g>
    </g>
    <g id="ytick_7">
     <g id="line2d_14">
      <g>
       <use xlink:href="#m567822fa2e" x="41.4" y="21.6" style="stroke: #000000; stroke-width: 0.8"/>
      </g>
     </g>
     <g id="text_14">
      <!-- 300 -->
      <g transform="translate(19.13 24.639375) scale(0.08 -0.08)">
       <use xlink:href="#DejaVuSans-33"/>
       <use xlink:href="#DejaVuSans-30" x="63.623047"/>
       <use xlink:href="#DejaVuSans-30" x="127.246094"/>
      </g>
     </g>
    </g>
   </g>
   <g id="patch_56">
    <path d="M 41.4 160.2 
L 41.4 21.6 
" style="fill: none; stroke: #000000; stroke-width: 0.8; stroke-linejoin: miter; stroke-linecap: square"/>
   </g>
   <g id="patch_57">
    <path d="M 180 160.2 
L 180 21.6 
" style="fill: none; stroke: #000000; stroke-width: 0.8; stroke-linejoin: miter; stroke-linecap: square"/>
   </g>
   <g id="patch_58">
    <path d="M 41.4 160.2 
L 180 160.2 
" style="fill: none; stroke: #000000; stroke-width: 0.8; stroke-linejoin: miter; stroke-linecap: square"/>
   </g>
   <g id="patch_59">
    <path d="M 41.4 21.6 
L 180 21.6 
" style="fill: none; stroke: #000000; stroke-width: 0.8; stroke-linejoin: miter; stroke-linecap: square"/>
   </g>
  </g>
 </g>
 <defs>
  <clipPath id="p2b6d405a1e">
   <rect x="41.4" y="21.6" width="138.6" height="138.6"/>
  </clipPath>
 </defs>
</svg>
