<?xml version="1.0" encoding="utf-8" standalone="no"?>
<!DOCTYPE svg PUBLIC "-//W3C//DTD SVG 1.1//EN"
  "http://www.w3.org/Graphics/SVG/1.1/DTD/svg11.dtd">
<svg xmlns:xlink="http://www.w3.org/1999/xlink" width="216pt" height="180pt" viewBox="0 0 216 180" xmlns="http://www.w3.org/2000/svg" version="1.1">
 <metadata>
  <rdf:RDF xmlns:dc="http://purl.org/dc/elements/1.1/" xmlns:cc="http://creativecommons.org/ns#" xmlns:rdf="http://www.w3.org/1999/02/22-rdf-syntax-ns#">
   <cc:Work>
    <dc:type rdf:resource="http://purl.org/dc/dcmitype/StillImage"/>
    <dc:date>2024-05-19T18:36:01.195136</dc:date>
    <dc:format>image/svg+xml</dc:format>
    <dc:creator>
     <cc:Agent>
      <dc:title>Matplotlib v3.7.1, https://matplotlib.org/</dc:title>
     </cc:Agent>
    </dc:creator>
   </cc:Work>
  </rdf:RDF>
 </metadata>
 <defs>
  <style type="text/css">*{stroke-linejoin: round; stroke-linecap: butt}</style>
 </defs>
 <g id="figure_1">
  <g id="patch_1">
   <path d="M 0 180 
L 216 180 
L 216 0 
L 0 0 
z
" style="fill: #ffffff"/>
  </g>
  <g id="axes_1">
   <g id="patch_2">
    <path d="M 41.4 160.2 
L 180 160.2 
L 180 21.6 
L 41.4 21.6 
z
" style="fill: #ffffff"/>
   </g>
   <g id="patch_3">
    <path d="M 103.77 118.851 
C 103.953786 118.851 104.130069 118.777981 104.260025 118.648025 
C 104.389981 118.518069 104.463 118.341786 104.463 118.158 
C 104.463 117.974214 104.389981 117.797931 104.260025 117.667975 
C 104.130069 117.538019 103.953786 117.465 103.77 117.465 
C 103.586214 117.465 103.409931 117.538019 103.279975 117.667975 
C 103.150019 117.797931 103.077 117.974214 103.077 118.158 
C 103.077 118.341786 103.150019 118.518069 103.279975 118.648025 
C 103.409931 118.777981 103.586214 118.851 103.77 118.851 
z
" clip-path="url(#pdb76c1e892)" style="fill: #c82423; stroke: #c82423; stroke-linejoin: miter"/>
   </g>
   <g id="patch_4">
    <path d="M 52.488 92.055 
C 52.671786 92.055 52.848069 91.981981 52.978025 91.852025 
C 53.107981 91.722069 53.181 91.545786 53.181 91.362 
C 53.181 91.178214 53.107981 91.001931 52.978025 90.871975 
C 52.848069 90.742019 52.671786 90.669 52.488 90.669 
C 52.304214 90.669 52.127931 90.742019 51.997975 90.871975 
C 51.868019 91.001931 51.795 91.178214 51.795 91.362 
C 51.795 91.545786 51.868019 91.722069 51.997975 91.852025 
C 52.127931 91.981981 52.304214 92.055 52.488 92.055 
z
" clip-path="url(#pdb76c1e892)" style="fill: #c82423; stroke: #c82423; stroke-linejoin: miter"/>
   </g>
   <g id="patch_5">
    <path d="M 41.4 69.417 
C 41.583786 69.417 41.760069 69.343981 41.890025 69.214025 
C 42.019981 69.084069 42.093 68.907786 42.093 68.724 
C 42.093 68.540214 42.019981 68.363931 41.890025 68.233975 
C 41.760069 68.104019 41.583786 68.031 41.4 68.031 
C 41.216214 68.031 41.039931 68.104019 40.909975 68.233975 
C 40.780019 68.363931 40.707 68.540214 40.707 68.724 
C 40.707 68.907786 40.780019 69.084069 40.909975 69.214025 
C 41.039931 69.343981 41.216214 69.417 41.4 69.417 
z
" clip-path="url(#pdb76c1e892)" style="fill: #c82423; stroke: #c82423; stroke-linejoin: miter"/>
   </g>
   <g id="patch_6">
    <path d="M 62.19 89.283 
C 62.373786 89.283 62.550069 89.209981 62.680025 89.080025 
C 62.809981 88.950069 62.883 88.773786 62.883 88.59 
C 62.883 88.406214 62.809981 88.229931 62.680025 88.099975 
C 62.550069 87.970019 62.373786 87.897 62.19 87.897 
C 62.006214 87.897 61.829931 87.970019 61.699975 88.099975 
C 61.570019 88.229931 61.497 88.406214 61.497 88.59 
C 61.497 88.773786 61.570019 88.950069 61.699975 89.080025 
C 61.829931 89.209981 62.006214 89.283 62.19 89.283 
z
" clip-path="url(#pdb76c1e892)" style="fill: #c82423; stroke: #c82423; stroke-linejoin: miter"/>
   </g>
   <g id="patch_7">
    <path d="M 74.202 111.921 
C 74.385786 111.921 74.562069 111.847981 74.692025 111.718025 
C 74.821981 111.588069 74.895 111.411786 74.895 111.228 
C 74.895 111.044214 74.821981 110.867931 74.692025 110.737975 
C 74.562069 110.608019 74.385786 110.535 74.202 110.535 
C 74.018214 110.535 73.841931 110.608019 73.711975 110.737975 
C 73.582019 110.867931 73.509 111.044214 73.509 111.228 
C 73.509 111.411786 73.582019 111.588069 73.711975 111.718025 
C 73.841931 111.847981 74.018214 111.921 74.202 111.921 
z
" clip-path="url(#pdb76c1e892)" style="fill: #c82423; stroke: #c82423; stroke-linejoin: miter"/>
   </g>
   <g id="patch_8">
    <path d="M 102.384 148.881 
C 102.567786 148.881 102.744069 148.807981 102.874025 148.678025 
C 103.003981 148.548069 103.077 148.371786 103.077 148.188 
C 103.077 148.004214 103.003981 147.827931 102.874025 147.697975 
C 102.744069 147.568019 102.567786 147.495 102.384 147.495 
C 102.200214 147.495 102.023931 147.568019 101.893975 147.697975 
C 101.764019 147.827931 101.691 148.004214 101.691 148.188 
C 101.691 148.371786 101.764019 148.548069 101.893975 148.678025 
C 102.023931 148.807981 102.200214 148.881 102.384 148.881 
z
" clip-path="url(#pdb76c1e892)" style="fill: #c82423; stroke: #c82423; stroke-linejoin: miter"/>
   </g>
   <g id="patch_9">
    <path d="M 76.512 112.845 
C 76.695786 112.845 76.872069 112.771981 77.002025 112.642025 
C 77.131981 112.512069 77.205 112.335786 77.205 112.152 
C 77.205 111.968214 77.131981 111.791931 77.002025 111.661975 
C 76.872069 111.532019 76.695786 111.459 76.512 111.459 
C 76.328214 111.459 76.151931 111.532019 76.021975 111.661975 
C 75.892019 111.791931 75.819 111.968214 75.819 112.152 
C 75.819 112.335786 75.892019 112.512069 76.021975 112.642025 
C 76.151931 112.771981 76.328214 112.845 76.512 112.845 
z
" clip-path="url(#pdb76c1e892)" style="fill: #c82423; stroke: #c82423; stroke-linejoin: miter"/>
   </g>
   <g id="patch_10">
    <path d="M 49.716 74.499 
C 49.899786 74.499 50.076069 74.425981 50.206025 74.296025 
C 50.335981 74.166069 50.409 73.989786 50.409 73.806 
C 50.409 73.622214 50.335981 73.445931 50.206025 73.315975 
C 50.076069 73.186019 49.899786 73.113 49.716 73.113 
C 49.532214 73.113 49.355931 73.186019 49.225975 73.315975 
C 49.096019 73.445931 49.023 73.622214 49.023 73.806 
C 49.023 73.989786 49.096019 74.166069 49.225975 74.296025 
C 49.355931 74.425981 49.532214 74.499 49.716 74.499 
z
" clip-path="url(#pdb76c1e892)" style="fill: #c82423; stroke: #c82423; stroke-linejoin: miter"/>
   </g>
   <g id="patch_11">
    <path d="M 51.102 82.353 
C 51.285786 82.353 51.462069 82.279981 51.592025 82.150025 
C 51.721981 82.020069 51.795 81.843786 51.795 81.66 
C 51.795 81.476214 51.721981 81.299931 51.592025 81.169975 
C 51.462069 81.040019 51.285786 80.967 51.102 80.967 
C 50.918214 80.967 50.741931 81.040019 50.611975 81.169975 
C 50.482019 81.299931 50.409 81.476214 50.409 81.66 
C 50.409 81.843786 50.482019 82.020069 50.611975 82.150025 
C 50.741931 82.279981 50.918214 82.353 51.102 82.353 
z
" clip-path="url(#pdb76c1e892)" style="fill: #c82423; stroke: #c82423; stroke-linejoin: miter"/>
   </g>
   <g id="patch_12">
    <path d="M 131.49 144.261 
C 131.673786 144.261 131.850069 144.187981 131.980025 144.058025 
C 132.109981 143.928069 132.183 143.751786 132.183 143.568 
C 132.183 143.384214 132.109981 143.207931 131.980025 143.077975 
C 131.850069 142.948019 131.673786 142.875 131.49 142.875 
C 131.306214 142.875 131.129931 142.948019 130.999975 143.077975 
C 130.870019 143.207931 130.797 143.384214 130.797 143.568 
C 130.797 143.751786 130.870019 143.928069 130.999975 144.058025 
C 131.129931 144.187981 131.306214 144.261 131.49 144.261 
z
" clip-path="url(#pdb76c1e892)" style="fill: #c82423; stroke: #c82423; stroke-linejoin: miter"/>
   </g>
   <g id="patch_13">
    <path d="M 123.174 69.417 
C 123.357786 69.417 123.534069 69.343981 123.664025 69.214025 
C 123.793981 69.084069 123.867 68.907786 123.867 68.724 
C 123.867 68.540214 123.793981 68.363931 123.664025 68.233975 
C 123.534069 68.104019 123.357786 68.031 123.174 68.031 
C 122.990214 68.031 122.813931 68.104019 122.683975 68.233975 
C 122.554019 68.363931 122.481 68.540214 122.481 68.724 
C 122.481 68.907786 122.554019 69.084069 122.683975 69.214025 
C 122.813931 69.343981 122.990214 69.417 123.174 69.417 
z
" clip-path="url(#pdb76c1e892)" style="fill: #c82423; stroke: #c82423; stroke-linejoin: miter"/>
   </g>
   <g id="patch_14">
    <path d="M 62.652 84.201 
C 62.835786 84.201 63.012069 84.127981 63.142025 83.998025 
C 63.271981 83.868069 63.345 83.691786 63.345 83.508 
C 63.345 83.324214 63.271981 83.147931 63.142025 83.017975 
C 63.012069 82.888019 62.835786 82.815 62.652 82.815 
C 62.468214 82.815 62.291931 82.888019 62.161975 83.017975 
C 62.032019 83.147931 61.959 83.324214 61.959 83.508 
C 61.959 83.691786 62.032019 83.868069 62.161975 83.998025 
C 62.291931 84.127981 62.468214 84.201 62.652 84.201 
z
" clip-path="url(#pdb76c1e892)" style="fill: #c82423; stroke: #c82423; stroke-linejoin: miter"/>
   </g>
   <g id="patch_15">
    <path d="M 111.624 140.565 
C 111.807786 140.565 111.984069 140.491981 112.114025 140.362025 
C 112.243981 140.232069 112.317 140.055786 112.317 139.872 
C 112.317 139.688214 112.243981 139.511931 112.114025 139.381975 
C 111.984069 139.252019 111.807786 139.179 111.624 139.179 
C 111.440214 139.179 111.263931 139.252019 111.133975 139.381975 
C 111.004019 139.511931 110.931 139.688214 110.931 139.872 
C 110.931 140.055786 111.004019 140.232069 111.133975 140.362025 
C 111.263931 140.491981 111.440214 140.565 111.624 140.565 
z
" clip-path="url(#pdb76c1e892)" style="fill: #c82423; stroke: #c82423; stroke-linejoin: miter"/>
   </g>
   <g id="patch_16">
    <path d="M 129.18 72.189 
C 129.363786 72.189 129.540069 72.115981 129.670025 71.986025 
C 129.799981 71.856069 129.873 71.679786 129.873 71.496 
C 129.873 71.312214 129.799981 71.135931 129.670025 71.005975 
C 129.540069 70.876019 129.363786 70.803 129.18 70.803 
C 128.996214 70.803 128.819931 70.876019 128.689975 71.005975 
C 128.560019 71.135931 128.487 71.312214 128.487 71.496 
C 128.487 71.679786 128.560019 71.856069 128.689975 71.986025 
C 128.819931 72.115981 128.996214 72.189 129.18 72.189 
z
" clip-path="url(#pdb76c1e892)" style="fill: #c82423; stroke: #c82423; stroke-linejoin: miter"/>
   </g>
   <g id="patch_17">
    <path d="M 88.062 113.769 
C 88.245786 113.769 88.422069 113.695981 88.552025 113.566025 
C 88.681981 113.436069 88.755 113.259786 88.755 113.076 
C 88.755 112.892214 88.681981 112.715931 88.552025 112.585975 
C 88.422069 112.456019 88.245786 112.383 88.062 112.383 
C 87.878214 112.383 87.701931 112.456019 87.571975 112.585975 
C 87.442019 112.715931 87.369 112.892214 87.369 113.076 
C 87.369 113.259786 87.442019 113.436069 87.571975 113.566025 
C 87.701931 113.695981 87.878214 113.769 88.062 113.769 
z
" clip-path="url(#pdb76c1e892)" style="fill: #c82423; stroke: #c82423; stroke-linejoin: miter"/>
   </g>
   <g id="patch_18">
    <path d="M 77.898 108.687 
C 78.081786 108.687 78.258069 108.613981 78.388025 108.484025 
C 78.517981 108.354069 78.591 108.177786 78.591 107.994 
C 78.591 107.810214 78.517981 107.633931 78.388025 107.503975 
C 78.258069 107.374019 78.081786 107.301 77.898 107.301 
C 77.714214 107.301 77.537931 107.374019 77.407975 107.503975 
C 77.278019 107.633931 77.205 107.810214 77.205 107.994 
C 77.205 108.177786 77.278019 108.354069 77.407975 108.484025 
C 77.537931 108.613981 77.714214 108.687 77.898 108.687 
z
" clip-path="url(#pdb76c1e892)" style="fill: #c82423; stroke: #c82423; stroke-linejoin: miter"/>
   </g>
   <g id="patch_19">
    <path d="M 130.104 95.751 
C 130.287786 95.751 130.464069 95.677981 130.594025 95.548025 
C 130.723981 95.418069 130.797 95.241786 130.797 95.058 
C 130.797 94.874214 130.723981 94.697931 130.594025 94.567975 
C 130.464069 94.438019 130.287786 94.365 130.104 94.365 
C 129.920214 94.365 129.743931 94.438019 129.613975 94.567975 
C 129.484019 94.697931 129.411 94.874214 129.411 95.058 
C 129.411 95.241786 129.484019 95.418069 129.613975 95.548025 
C 129.743931 95.677981 129.920214 95.751 130.104 95.751 
z
" clip-path="url(#pdb76c1e892)" style="fill: #c82423; stroke: #c82423; stroke-linejoin: miter"/>
   </g>
   <g id="patch_20">
    <path d="M 179.538 88.359 
C 179.721786 88.359 179.898069 88.285981 180.028025 88.156025 
C 180.157981 88.026069 180.231 87.849786 180.231 87.666 
C 180.231 87.482214 180.157981 87.305931 180.028025 87.175975 
C 179.898069 87.046019 179.721786 86.973 179.538 86.973 
C 179.354214 86.973 179.177931 87.046019 179.047975 87.175975 
C 178.918019 87.305931 178.845 87.482214 178.845 87.666 
C 178.845 87.849786 178.918019 88.026069 179.047975 88.156025 
C 179.177931 88.285981 179.354214 88.359 179.538 88.359 
z
" clip-path="url(#pdb76c1e892)" style="fill: #3b5284; stroke: #3b5284; stroke-linejoin: miter"/>
   </g>
   <g id="patch_21">
    <path d="M 156.438 48.627 
C 156.621786 48.627 156.798069 48.553981 156.928025 48.424025 
C 157.057981 48.294069 157.131 48.117786 157.131 47.934 
C 157.131 47.750214 157.057981 47.573931 156.928025 47.443975 
C 156.798069 47.314019 156.621786 47.241 156.438 47.241 
C 156.254214 47.241 156.077931 47.314019 155.947975 47.443975 
C 155.818019 47.573931 155.745 47.750214 155.745 47.934 
C 155.745 48.117786 155.818019 48.294069 155.947975 48.424025 
C 156.077931 48.553981 156.254214 48.627 156.438 48.627 
z
" clip-path="url(#pdb76c1e892)" style="fill: #3b5284; stroke: #3b5284; stroke-linejoin: miter"/>
   </g>
   <g id="patch_22">
    <path d="M 146.736 51.399 
C 146.919786 51.399 147.096069 51.325981 147.226025 51.196025 
C 147.355981 51.066069 147.429 50.889786 147.429 50.706 
C 147.429 50.522214 147.355981 50.345931 147.226025 50.215975 
C 147.096069 50.086019 146.919786 50.013 146.736 50.013 
C 146.552214 50.013 146.375931 50.086019 146.245975 50.215975 
C 146.116019 50.345931 146.043 50.522214 146.043 50.706 
C 146.043 50.889786 146.116019 51.066069 146.245975 51.196025 
C 146.375931 51.325981 146.552214 51.399 146.736 51.399 
z
" clip-path="url(#pdb76c1e892)" style="fill: #3b5284; stroke: #3b5284; stroke-linejoin: miter"/>
   </g>
   <g id="patch_23">
    <path d="M 170.76 73.575 
C 170.943786 73.575 171.120069 73.501981 171.250025 73.372025 
C 171.379981 73.242069 171.453 73.065786 171.453 72.882 
C 171.453 72.698214 171.379981 72.521931 171.250025 72.391975 
C 171.120069 72.262019 170.943786 72.189 170.76 72.189 
C 170.576214 72.189 170.399931 72.262019 170.269975 72.391975 
C 170.140019 72.521931 170.067 72.698214 170.067 72.882 
C 170.067 73.065786 170.140019 73.242069 170.269975 73.372025 
C 170.399931 73.501981 170.576214 73.575 170.76 73.575 
z
" clip-path="url(#pdb76c1e892)" style="fill: #3b5284; stroke: #3b5284; stroke-linejoin: miter"/>
   </g>
   <g id="patch_24">
    <path d="M 193.86 84.663 
C 194.043786 84.663 194.220069 84.589981 194.350025 84.460025 
C 194.479981 84.330069 194.553 84.153786 194.553 83.97 
C 194.553 83.786214 194.479981 83.609931 194.350025 83.479975 
C 194.220069 83.350019 194.043786 83.277 193.86 83.277 
C 193.676214 83.277 193.499931 83.350019 193.369975 83.479975 
C 193.240019 83.609931 193.167 83.786214 193.167 83.97 
C 193.167 84.153786 193.240019 84.330069 193.369975 84.460025 
C 193.499931 84.589981 193.676214 84.663 193.86 84.663 
z
" clip-path="url(#pdb76c1e892)" style="fill: #3b5284; stroke: #3b5284; stroke-linejoin: miter"/>
   </g>
   <g id="patch_25">
    <path d="M 155.514 54.633 
C 155.697786 54.633 155.874069 54.559981 156.004025 54.430025 
C 156.133981 54.300069 156.207 54.123786 156.207 53.94 
C 156.207 53.756214 156.133981 53.579931 156.004025 53.449975 
C 155.874069 53.320019 155.697786 53.247 155.514 53.247 
C 155.330214 53.247 155.153931 53.320019 155.023975 53.449975 
C 154.894019 53.579931 154.821 53.756214 154.821 53.94 
C 154.821 54.123786 154.894019 54.300069 155.023975 54.430025 
C 155.153931 54.559981 155.330214 54.633 155.514 54.633 
z
" clip-path="url(#pdb76c1e892)" style="fill: #3b5284; stroke: #3b5284; stroke-linejoin: miter"/>
   </g>
   <g id="patch_26">
    <path d="M 191.55 78.657 
C 191.733786 78.657 191.910069 78.583981 192.040025 78.454025 
C 192.169981 78.324069 192.243 78.147786 192.243 77.964 
C 192.243 77.780214 192.169981 77.603931 192.040025 77.473975 
C 191.910069 77.344019 191.733786 77.271 191.55 77.271 
C 191.366214 77.271 191.189931 77.344019 191.059975 77.473975 
C 190.930019 77.603931 190.857 77.780214 190.857 77.964 
C 190.857 78.147786 190.930019 78.324069 191.059975 78.454025 
C 191.189931 78.583981 191.366214 78.657 191.55 78.657 
z
" clip-path="url(#pdb76c1e892)" style="fill: #3b5284; stroke: #3b5284; stroke-linejoin: miter"/>
   </g>
   <g id="patch_27">
    <path d="M 119.478 39.387 
C 119.661786 39.387 119.838069 39.313981 119.968025 39.184025 
C 120.097981 39.054069 120.171 38.877786 120.171 38.694 
C 120.171 38.510214 120.097981 38.333931 119.968025 38.203975 
C 119.838069 38.074019 119.661786 38.001 119.478 38.001 
C 119.294214 38.001 119.117931 38.074019 118.987975 38.203975 
C 118.858019 38.333931 118.785 38.510214 118.785 38.694 
C 118.785 38.877786 118.858019 39.054069 118.987975 39.184025 
C 119.117931 39.313981 119.294214 39.387 119.478 39.387 
z
" clip-path="url(#pdb76c1e892)" style="fill: #3b5284; stroke: #3b5284; stroke-linejoin: miter"/>
   </g>
   <g id="patch_28">
    <path d="M 131.028 44.007 
C 131.211786 44.007 131.388069 43.933981 131.518025 43.804025 
C 131.647981 43.674069 131.721 43.497786 131.721 43.314 
C 131.721 43.130214 131.647981 42.953931 131.518025 42.823975 
C 131.388069 42.694019 131.211786 42.621 131.028 42.621 
C 130.844214 42.621 130.667931 42.694019 130.537975 42.823975 
C 130.408019 42.953931 130.335 43.130214 130.335 43.314 
C 130.335 43.497786 130.408019 43.674069 130.537975 43.804025 
C 130.667931 43.933981 130.844214 44.007 131.028 44.007 
z
" clip-path="url(#pdb76c1e892)" style="fill: #3b5284; stroke: #3b5284; stroke-linejoin: miter"/>
   </g>
   <g id="patch_29">
    <path d="M 150.894 38.463 
C 151.077786 38.463 151.254069 38.389981 151.384025 38.260025 
C 151.513981 38.130069 151.587 37.953786 151.587 37.77 
C 151.587 37.586214 151.513981 37.409931 151.384025 37.279975 
C 151.254069 37.150019 151.077786 37.077 150.894 37.077 
C 150.710214 37.077 150.533931 37.150019 150.403975 37.279975 
C 150.274019 37.409931 150.201 37.586214 150.201 37.77 
C 150.201 37.953786 150.274019 38.130069 150.403975 38.260025 
C 150.533931 38.389981 150.710214 38.463 150.894 38.463 
z
" clip-path="url(#pdb76c1e892)" style="fill: #3b5284; stroke: #3b5284; stroke-linejoin: miter"/>
   </g>
   <g id="patch_30">
    <path d="M 137.496 43.545 
C 137.679786 43.545 137.856069 43.471981 137.986025 43.342025 
C 138.115981 43.212069 138.189 43.035786 138.189 42.852 
C 138.189 42.668214 138.115981 42.491931 137.986025 42.361975 
C 137.856069 42.232019 137.679786 42.159 137.496 42.159 
C 137.312214 42.159 137.135931 42.232019 137.005975 42.361975 
C 136.876019 42.491931 136.803 42.668214 136.803 42.852 
C 136.803 43.035786 136.876019 43.212069 137.005975 43.342025 
C 137.135931 43.471981 137.312214 43.545 137.496 43.545 
z
" clip-path="url(#pdb76c1e892)" style="fill: #3b5284; stroke: #3b5284; stroke-linejoin: miter"/>
   </g>
   <g id="patch_31">
    <path d="M 173.532 50.013 
C 173.715786 50.013 173.892069 49.939981 174.022025 49.810025 
C 174.151981 49.680069 174.225 49.503786 174.225 49.32 
C 174.225 49.136214 174.151981 48.959931 174.022025 48.829975 
C 173.892069 48.700019 173.715786 48.627 173.532 48.627 
C 173.348214 48.627 173.171931 48.700019 173.041975 48.829975 
C 172.912019 48.959931 172.839 49.136214 172.839 49.32 
C 172.839 49.503786 172.912019 49.680069 173.041975 49.810025 
C 173.171931 49.939981 173.348214 50.013 173.532 50.013 
z
" clip-path="url(#pdb76c1e892)" style="fill: #3b5284; stroke: #3b5284; stroke-linejoin: miter"/>
   </g>
   <g id="patch_32">
    <path d="M 150.894 34.767 
C 151.077786 34.767 151.254069 34.693981 151.384025 34.564025 
C 151.513981 34.434069 151.587 34.257786 151.587 34.074 
C 151.587 33.890214 151.513981 33.713931 151.384025 33.583975 
C 151.254069 33.454019 151.077786 33.381 150.894 33.381 
C 150.710214 33.381 150.533931 33.454019 150.403975 33.583975 
C 150.274019 33.713931 150.201 33.890214 150.201 34.074 
C 150.201 34.257786 150.274019 34.434069 150.403975 34.564025 
C 150.533931 34.693981 150.710214 34.767 150.894 34.767 
z
" clip-path="url(#pdb76c1e892)" style="fill: #3b5284; stroke: #3b5284; stroke-linejoin: miter"/>
   </g>
   <g id="patch_33">
    <path d="M 186.006 61.101 
C 186.189786 61.101 186.366069 61.027981 186.496025 60.898025 
C 186.625981 60.768069 186.699 60.591786 186.699 60.408 
C 186.699 60.224214 186.625981 60.047931 186.496025 59.917975 
C 186.366069 59.788019 186.189786 59.715 186.006 59.715 
C 185.822214 59.715 185.645931 59.788019 185.515975 59.917975 
C 185.386019 60.047931 185.313 60.224214 185.313 60.408 
C 185.313 60.591786 185.386019 60.768069 185.515975 60.898025 
C 185.645931 61.027981 185.822214 61.101 186.006 61.101 
z
" clip-path="url(#pdb76c1e892)" style="fill: #3b5284; stroke: #3b5284; stroke-linejoin: miter"/>
   </g>
   <g id="patch_34">
    <path d="M 117.168 72.651 
C 117.351786 72.651 117.528069 72.577981 117.658025 72.448025 
C 117.787981 72.318069 117.861 72.141786 117.861 71.958 
C 117.861 71.774214 117.787981 71.597931 117.658025 71.467975 
C 117.528069 71.338019 117.351786 71.265 117.168 71.265 
C 116.984214 71.265 116.807931 71.338019 116.677975 71.467975 
C 116.548019 71.597931 116.475 71.774214 116.475 71.958 
C 116.475 72.141786 116.548019 72.318069 116.677975 72.448025 
C 116.807931 72.577981 116.984214 72.651 117.168 72.651 
z
" clip-path="url(#pdb76c1e892)" style="fill: #3b5284; stroke: #3b5284; stroke-linejoin: miter"/>
   </g>
   <g id="patch_35">
    <path d="M 169.836 60.639 
C 170.019786 60.639 170.196069 60.565981 170.326025 60.436025 
C 170.455981 60.306069 170.529 60.129786 170.529 59.946 
C 170.529 59.762214 170.455981 59.585931 170.326025 59.455975 
C 170.196069 59.326019 170.019786 59.253 169.836 59.253 
C 169.652214 59.253 169.475931 59.326019 169.345975 59.455975 
C 169.216019 59.585931 169.143 59.762214 169.143 59.946 
C 169.143 60.129786 169.216019 60.306069 169.345975 60.436025 
C 169.475931 60.565981 169.652214 60.639 169.836 60.639 
z
" clip-path="url(#pdb76c1e892)" style="fill: #3b5284; stroke: #3b5284; stroke-linejoin: miter"/>
   </g>
   <g id="patch_36">
    <path d="M 154.128 47.241 
C 154.311786 47.241 154.488069 47.167981 154.618025 47.038025 
C 154.747981 46.908069 154.821 46.731786 154.821 46.548 
C 154.821 46.364214 154.747981 46.187931 154.618025 46.057975 
C 154.488069 45.928019 154.311786 45.855 154.128 45.855 
C 153.944214 45.855 153.767931 45.928019 153.637975 46.057975 
C 153.508019 46.187931 153.435 46.364214 153.435 46.548 
C 153.435 46.731786 153.508019 46.908069 153.637975 47.038025 
C 153.767931 47.167981 153.944214 47.241 154.128 47.241 
z
" clip-path="url(#pdb76c1e892)" style="fill: #3b5284; stroke: #3b5284; stroke-linejoin: miter"/>
   </g>
   <g id="patch_37">
    <path d="M 165.216 53.247 
C 165.399786 53.247 165.576069 53.173981 165.706025 53.044025 
C 165.835981 52.914069 165.909 52.737786 165.909 52.554 
C 165.909 52.370214 165.835981 52.193931 165.706025 52.063975 
C 165.576069 51.934019 165.399786 51.861 165.216 51.861 
C 165.032214 51.861 164.855931 51.934019 164.725975 52.063975 
C 164.596019 52.193931 164.523 52.370214 164.523 52.554 
C 164.523 52.737786 164.596019 52.914069 164.725975 53.044025 
C 164.855931 53.173981 165.032214 53.247 165.216 53.247 
z
" clip-path="url(#pdb76c1e892)" style="fill: #3b5284; stroke: #3b5284; stroke-linejoin: miter"/>
   </g>
   <g id="patch_38">
    <path d="M 125.946 60.177 
C 126.129786 60.177 126.306069 60.103981 126.436025 59.974025 
C 126.565981 59.844069 126.639 59.667786 126.639 59.484 
C 126.639 59.300214 126.565981 59.123931 126.436025 58.993975 
C 126.306069 58.864019 126.129786 58.791 125.946 58.791 
C 125.762214 58.791 125.585931 58.864019 125.455975 58.993975 
C 125.326019 59.123931 125.253 59.300214 125.253 59.484 
C 125.253 59.667786 125.326019 59.844069 125.455975 59.974025 
C 125.585931 60.103981 125.762214 60.177 125.946 60.177 
z
" clip-path="url(#pdb76c1e892)" style="fill: #3b5284; stroke: #3b5284; stroke-linejoin: miter"/>
   </g>
   <g id="patch_39">
    <path d="M 163.83 8.433 
C 164.013786 8.433 164.190069 8.359981 164.320025 8.230025 
C 164.449981 8.100069 164.523 7.923786 164.523 7.74 
C 164.523 7.556214 164.449981 7.379931 164.320025 7.249975 
C 164.190069 7.120019 164.013786 7.047 163.83 7.047 
C 163.646214 7.047 163.469931 7.120019 163.339975 7.249975 
C 163.210019 7.379931 163.137 7.556214 163.137 7.74 
C 163.137 7.923786 163.210019 8.100069 163.339975 8.230025 
C 163.469931 8.359981 163.646214 8.433 163.83 8.433 
z
" clip-path="url(#pdb76c1e892)" style="fill: #3b5284; stroke: #3b5284; stroke-linejoin: miter"/>
   </g>
   <g id="patch_40">
    <path d="M 127.794 82.815 
C 127.977786 82.815 128.154069 82.741981 128.284025 82.612025 
C 128.413981 82.482069 128.487 82.305786 128.487 82.122 
C 128.487 81.938214 128.413981 81.761931 128.284025 81.631975 
C 128.154069 81.502019 127.977786 81.429 127.794 81.429 
C 127.610214 81.429 127.433931 81.502019 127.303975 81.631975 
C 127.174019 81.761931 127.101 81.938214 127.101 82.122 
C 127.101 82.305786 127.174019 82.482069 127.303975 82.612025 
C 127.433931 82.741981 127.610214 82.815 127.794 82.815 
z
" clip-path="url(#pdb76c1e892)" style="fill: #3b5284; stroke: #3b5284; stroke-linejoin: miter"/>
   </g>
   <g id="patch_41">
    <path d="M 172.146 55.557 
C 172.329786 55.557 172.506069 55.483981 172.636025 55.354025 
C 172.765981 55.224069 172.839 55.047786 172.839 54.864 
C 172.839 54.680214 172.765981 54.503931 172.636025 54.373975 
C 172.506069 54.244019 172.329786 54.171 172.146 54.171 
C 171.962214 54.171 171.785931 54.244019 171.655975 54.373975 
C 171.526019 54.503931 171.453 54.680214 171.453 54.864 
C 171.453 55.047786 171.526019 55.224069 171.655975 55.354025 
C 171.785931 55.483981 171.962214 55.557 172.146 55.557 
z
" clip-path="url(#pdb76c1e892)" style="fill: #3b5284; stroke: #3b5284; stroke-linejoin: miter"/>
   </g>
   <g id="patch_42">
    <path d="M 179.076 9.357 
C 179.259786 9.357 179.436069 9.283981 179.566025 9.154025 
C 179.695981 9.024069 179.769 8.847786 179.769 8.664 
C 179.769 8.480214 179.695981 8.303931 179.566025 8.173975 
C 179.436069 8.044019 179.259786 7.971 179.076 7.971 
C 178.892214 7.971 178.715931 8.044019 178.585975 8.173975 
C 178.456019 8.303931 178.383 8.480214 178.383 8.664 
C 178.383 8.847786 178.456019 9.024069 178.585975 9.154025 
C 178.715931 9.283981 178.892214 9.357 179.076 9.357 
z
" clip-path="url(#pdb76c1e892)" style="fill: #3b5284; stroke: #3b5284; stroke-linejoin: miter"/>
   </g>
   <g id="patch_43">
    <path d="M 189.702 60.177 
C 189.885786 60.177 190.062069 60.103981 190.192025 59.974025 
C 190.321981 59.844069 190.395 59.667786 190.395 59.484 
C 190.395 59.300214 190.321981 59.123931 190.192025 58.993975 
C 190.062069 58.864019 189.885786 58.791 189.702 58.791 
C 189.518214 58.791 189.341931 58.864019 189.211975 58.993975 
C 189.082019 59.123931 189.009 59.300214 189.009 59.484 
C 189.009 59.667786 189.082019 59.844069 189.211975 59.974025 
C 189.341931 60.103981 189.518214 60.177 189.702 60.177 
z
" clip-path="url(#pdb76c1e892)" style="fill: #3b5284; stroke: #3b5284; stroke-linejoin: miter"/>
   </g>
   <g id="patch_44">
    <path d="M 183.696 77.733 
C 183.879786 77.733 184.056069 77.659981 184.186025 77.530025 
C 184.315981 77.400069 184.389 77.223786 184.389 77.04 
C 184.389 76.856214 184.315981 76.679931 184.186025 76.549975 
C 184.056069 76.420019 183.879786 76.347 183.696 76.347 
C 183.512214 76.347 183.335931 76.420019 183.205975 76.549975 
C 183.076019 76.679931 183.003 76.856214 183.003 77.04 
C 183.003 77.223786 183.076019 77.400069 183.205975 77.530025 
C 183.335931 77.659981 183.512214 77.733 183.696 77.733 
z
" clip-path="url(#pdb76c1e892)" style="fill: #3b5284; stroke: #3b5284; stroke-linejoin: miter"/>
   </g>
   <g id="patch_45">
    <path d="M 57.57 166.206 
C 62.470953 166.206 67.171836 164.258831 70.637333 160.793333 
C 74.102831 157.327836 76.05 152.626953 76.05 147.726 
C 76.05 142.825047 74.102831 138.124164 70.637333 134.658667 
C 67.171836 131.193169 62.470953 129.246 57.57 129.246 
C 52.669047 129.246 47.968164 131.193169 44.502667 134.658667 
C 41.037169 138.124164 39.09 142.825047 39.09 147.726 
C 39.09 152.626953 41.037169 157.327836 44.502667 160.793333 
C 47.968164 164.258831 52.669047 166.206 57.57 166.206 
z
" clip-path="url(#pdb76c1e892)" style="fill: #808080; opacity: 0.7; stroke: #808080; stroke-linejoin: miter"/>
   </g>
   <g id="patch_46">
    <path d="M 86.676 150.96 
C 91.576953 150.96 96.277836 149.012831 99.743333 145.547333 
C 103.208831 142.081836 105.156 137.380953 105.156 132.48 
C 105.156 127.579047 103.208831 122.878164 99.743333 119.412667 
C 96.277836 115.947169 91.576953 114 86.676 114 
C 81.775047 114 77.074164 115.947169 73.608667 119.412667 
C 70.143169 122.878164 68.196 127.579047 68.196 132.48 
C 68.196 137.380953 70.143169 142.081836 73.608667 145.547333 
C 77.074164 149.012831 81.775047 150.96 86.676 150.96 
z
" clip-path="url(#pdb76c1e892)" style="fill: #808080; opacity: 0.7; stroke: #808080; stroke-linejoin: miter"/>
   </g>
   <g id="patch_47">
    <path d="M 55.26 132.48 
C 60.160953 132.48 64.861836 130.532831 68.327333 127.067333 
C 71.792831 123.601836 73.74 118.900953 73.74 114 
C 73.74 109.099047 71.792831 104.398164 68.327333 100.932667 
C 64.861836 97.467169 60.160953 95.52 55.26 95.52 
C 50.359047 95.52 45.658164 97.467169 42.192667 100.932667 
C 38.727169 104.398164 36.78 109.099047 36.78 114 
C 36.78 118.900953 38.727169 123.601836 42.192667 127.067333 
C 45.658164 130.532831 50.359047 132.48 55.26 132.48 
z
" clip-path="url(#pdb76c1e892)" style="fill: #808080; opacity: 0.7; stroke: #808080; stroke-linejoin: miter"/>
   </g>
   <g id="patch_48">
    <path d="M 110.7 109.38 
C 115.600953 109.38 120.301836 107.432831 123.767333 103.967333 
C 127.232831 100.501836 129.18 95.800953 129.18 90.9 
C 129.18 85.999047 127.232831 81.298164 123.767333 77.832667 
C 120.301836 74.367169 115.600953 72.42 110.7 72.42 
C 105.799047 72.42 101.098164 74.367169 97.632667 77.832667 
C 94.167169 81.298164 92.22 85.999047 92.22 90.9 
C 92.22 95.800953 94.167169 100.501836 97.632667 103.967333 
C 101.098164 107.432831 105.799047 109.38 110.7 109.38 
z
" clip-path="url(#pdb76c1e892)" style="fill: #808080; opacity: 0.7; stroke: #808080; stroke-linejoin: miter"/>
   </g>
   <g id="patch_49">
    <path d="M 133.8 40.08 
C 138.700953 40.08 143.401836 38.132831 146.867333 34.667333 
C 150.332831 31.201836 152.28 26.500953 152.28 21.6 
C 152.28 16.699047 150.332831 11.998164 146.867333 8.532667 
C 143.401836 5.067169 138.700953 3.12 133.8 3.12 
C 128.899047 3.12 124.198164 5.067169 120.732667 8.532667 
C 117.267169 11.998164 115.32 16.699047 115.32 21.6 
C 115.32 26.500953 117.267169 31.201836 120.732667 34.667333 
C 124.198164 38.132831 128.899047 40.08 133.8 40.08 
z
" clip-path="url(#pdb76c1e892)" style="fill: #808080; opacity: 0.7; stroke: #808080; stroke-linejoin: miter"/>
   </g>
   <g id="patch_50">
    <path d="M 147.66 95.52 
C 152.560953 95.52 157.261836 93.572831 160.727333 90.107333 
C 164.192831 86.641836 166.14 81.940953 166.14 77.04 
C 166.14 72.139047 164.192831 67.438164 160.727333 63.972667 
C 157.261836 60.507169 152.560953 58.56 147.66 58.56 
C 142.759047 58.56 138.058164 60.507169 134.592667 63.972667 
C 131.127169 67.438164 129.18 72.139047 129.18 77.04 
C 129.18 81.940953 131.127169 86.641836 134.592667 90.107333 
C 138.058164 93.572831 142.759047 95.52 147.66 95.52 
z
" clip-path="url(#pdb76c1e892)" style="fill: #808080; opacity: 0.7; stroke: #808080; stroke-linejoin: miter"/>
   </g>
   <g id="patch_51">
    <path d="M 170.76 155.58 
C 175.660953 155.58 180.361836 153.632831 183.827333 150.167333 
C 187.292831 146.701836 189.24 142.000953 189.24 137.1 
C 189.24 132.199047 187.292831 127.498164 183.827333 124.032667 
C 180.361836 120.567169 175.660953 118.62 170.76 118.62 
C 165.859047 118.62 161.158164 120.567169 157.692667 124.032667 
C 154.227169 127.498164 152.28 132.199047 152.28 137.1 
C 152.28 142.000953 154.227169 146.701836 157.692667 150.167333 
C 161.158164 153.632831 165.859047 155.58 170.76 155.58 
z
" clip-path="url(#pdb76c1e892)" style="fill: #808080; opacity: 0.7; stroke: #808080; stroke-linejoin: miter"/>
   </g>
   <g id="patch_52">
    <path d="M 78.36 90.9 
C 83.260953 90.9 87.961836 88.952831 91.427333 85.487333 
C 94.892831 82.021836 96.84 77.320953 96.84 72.42 
C 96.84 67.519047 94.892831 62.818164 91.427333 59.352667 
C 87.961836 55.887169 83.260953 53.94 78.36 53.94 
C 73.459047 53.94 68.758164 55.887169 65.292667 59.352667 
C 61.827169 62.818164 59.88 67.519047 59.88 72.42 
C 59.88 77.320953 61.827169 82.021836 65.292667 85.487333 
C 68.758164 88.952831 73.459047 90.9 78.36 90.9 
z
" clip-path="url(#pdb76c1e892)" style="fill: #808080; opacity: 0.7; stroke: #808080; stroke-linejoin: miter"/>
   </g>
   <g id="patch_53">
    <path d="M 64.5 58.56 
C 69.400953 58.56 74.101836 56.612831 77.567333 53.147333 
C 81.032831 49.681836 82.98 44.980953 82.98 40.08 
C 82.98 35.179047 81.032831 30.478164 77.567333 27.012667 
C 74.101836 23.547169 69.400953 21.6 64.5 21.6 
C 59.599047 21.6 54.898164 23.547169 51.432667 27.012667 
C 47.967169 30.478164 46.02 35.179047 46.02 40.08 
C 46.02 44.980953 47.967169 49.681836 51.432667 53.147333 
C 54.898164 56.612831 59.599047 58.56 64.5 58.56 
z
" clip-path="url(#pdb76c1e892)" style="fill: #808080; opacity: 0.7; stroke: #808080; stroke-linejoin: miter"/>
   </g>
   <g id="patch_54">
    <path d="M 133.8 141.72 
C 138.700953 141.72 143.401836 139.772831 146.867333 136.307333 
C 150.332831 132.841836 152.28 128.140953 152.28 123.24 
C 152.28 118.339047 150.332831 113.638164 146.867333 110.172667 
C 143.401836 106.707169 138.700953 104.76 133.8 104.76 
C 128.899047 104.76 124.198164 106.707169 120.732667 110.172667 
C 117.267169 113.638164 115.32 118.339047 115.32 123.24 
C 115.32 128.140953 117.267169 132.841836 120.732667 136.307333 
C 124.198164 139.772831 128.899047 141.72 133.8 141.72 
z
" clip-path="url(#pdb76c1e892)" style="fill: #808080; opacity: 0.7; stroke: #808080; stroke-linejoin: miter"/>
   </g>
   <g id="patch_55">
    <path d="M 180 49.32 
C 184.900953 49.32 189.601836 47.372831 193.067333 43.907333 
C 196.532831 40.441836 198.48 35.740953 198.48 30.84 
C 198.48 25.939047 196.532831 21.238164 193.067333 17.772667 
C 189.601836 14.307169 184.900953 12.36 180 12.36 
C 175.099047 12.36 170.398164 14.307169 166.932667 17.772667 
C 163.467169 21.238164 161.52 25.939047 161.52 30.84 
C 161.52 35.740953 163.467169 40.441836 166.932667 43.907333 
C 170.398164 47.372831 175.099047 49.32 180 49.32 
z
" clip-path="url(#pdb76c1e892)" style="fill: #808080; opacity: 0.7; stroke: #808080; stroke-linejoin: miter"/>
   </g>
   <g id="patch_56">
    <path d="M 101.46 72.42 
C 106.360953 72.42 111.061836 70.472831 114.527333 67.007333 
C 117.992831 63.541836 119.94 58.840953 119.94 53.94 
C 119.94 49.039047 117.992831 44.338164 114.527333 40.872667 
C 111.061836 37.407169 106.360953 35.46 101.46 35.46 
C 96.559047 35.46 91.858164 37.407169 88.392667 40.872667 
C 84.927169 44.338164 82.98 49.039047 82.98 53.94 
C 82.98 58.840953 84.927169 63.541836 88.392667 67.007333 
C 91.858164 70.472831 96.559047 72.42 101.46 72.42 
z
" clip-path="url(#pdb76c1e892)" style="fill: #808080; opacity: 0.7; stroke: #808080; stroke-linejoin: miter"/>
   </g>
   <g id="matplotlib.axis_1">
    <g id="xtick_1">
     <g id="line2d_1">
      <defs>
       <path id="m591d66fd05" d="M 0 0 
L 0 3.5 
" style="stroke: #000000; stroke-width: 0.8"/>
      </defs>
      <g>
       <use xlink:href="#m591d66fd05" x="41.4" y="160.2" style="stroke: #000000; stroke-width: 0.8"/>
      </g>
     </g>
     <g id="text_1">
      <!-- 0 -->
      <g transform="translate(38.855 173.27875) scale(0.08 -0.08)">
       <defs>
        <path id="DejaVuSans-30" d="M 2034 4250 
Q 1547 4250 1301 3770 
Q 1056 3291 1056 2328 
Q 1056 1369 1301 889 
Q 1547 409 2034 409 
Q 2525 409 2770 889 
Q 3016 1369 3016 2328 
Q 3016 3291 2770 3770 
Q 2525 4250 2034 4250 
z
M 2034 4750 
Q 2819 4750 3233 4129 
Q 3647 3509 3647 2328 
Q 3647 1150 3233 529 
Q 2819 -91 2034 -91 
Q 1250 -91 836 529 
Q 422 1150 422 2328 
Q 422 3509 836 4129 
Q 1250 4750 2034 4750 
z
" transform="scale(0.015625)"/>
       </defs>
       <use xlink:href="#DejaVuSans-30"/>
      </g>
     </g>
    </g>
    <g id="xtick_2">
     <g id="line2d_2">
      <g>
       <use xlink:href="#m591d66fd05" x="64.5" y="160.2" style="stroke: #000000; stroke-width: 0.8"/>
      </g>
     </g>
     <g id="text_2">
      <!-- 50 -->
      <g transform="translate(59.41 173.27875) scale(0.08 -0.08)">
       <defs>
        <path id="DejaVuSans-35" d="M 691 4666 
L 3169 4666 
L 3169 4134 
L 1269 4134 
L 1269 2991 
Q 1406 3038 1543 3061 
Q 1681 3084 1819 3084 
Q 2600 3084 3056 2656 
Q 3513 2228 3513 1497 
Q 3513 744 3044 326 
Q 2575 -91 1722 -91 
Q 1428 -91 1123 -41 
Q 819 9 494 109 
L 494 744 
Q 775 591 1075 516 
Q 1375 441 1709 441 
Q 2250 441 2565 725 
Q 2881 1009 2881 1497 
Q 2881 1984 2565 2268 
Q 2250 2553 1709 2553 
Q 1456 2553 1204 2497 
Q 953 2441 691 2322 
L 691 4666 
z
" transform="scale(0.015625)"/>
       </defs>
       <use xlink:href="#DejaVuSans-35"/>
       <use xlink:href="#DejaVuSans-30" x="63.623047"/>
      </g>
     </g>
    </g>
    <g id="xtick_3">
     <g id="line2d_3">
      <g>
       <use xlink:href="#m591d66fd05" x="87.6" y="160.2" style="stroke: #000000; stroke-width: 0.8"/>
      </g>
     </g>
     <g id="text_3">
      <!-- 100 -->
      <g transform="translate(79.965 173.27875) scale(0.08 -0.08)">
       <defs>
        <path id="DejaVuSans-31" d="M 794 531 
L 1825 531 
L 1825 4091 
L 703 3866 
L 703 4441 
L 1819 4666 
L 2450 4666 
L 2450 531 
L 3481 531 
L 3481 0 
L 794 0 
L 794 531 
z
" transform="scale(0.015625)"/>
       </defs>
       <use xlink:href="#DejaVuSans-31"/>
       <use xlink:href="#DejaVuSans-30" x="63.623047"/>
       <use xlink:href="#DejaVuSans-30" x="127.246094"/>
      </g>
     </g>
    </g>
    <g id="xtick_4">
     <g id="line2d_4">
      <g>
       <use xlink:href="#m591d66fd05" x="110.7" y="160.2" style="stroke: #000000; stroke-width: 0.8"/>
      </g>
     </g>
     <g id="text_4">
      <!-- 150 -->
      <g transform="translate(103.065 173.27875) scale(0.08 -0.08)">
       <use xlink:href="#DejaVuSans-31"/>
       <use xlink:href="#DejaVuSans-35" x="63.623047"/>
       <use xlink:href="#DejaVuSans-30" x="127.246094"/>
      </g>
     </g>
    </g>
    <g id="xtick_5">
     <g id="line2d_5">
      <g>
       <use xlink:href="#m591d66fd05" x="133.8" y="160.2" style="stroke: #000000; stroke-width: 0.8"/>
      </g>
     </g>
     <g id="text_5">
      <!-- 200 -->
      <g transform="translate(126.165 173.27875) scale(0.08 -0.08)">
       <defs>
        <path id="DejaVuSans-32" d="M 1228 531 
L 3431 531 
L 3431 0 
L 469 0 
L 469 531 
Q 828 903 1448 1529 
Q 2069 2156 2228 2338 
Q 2531 2678 2651 2914 
Q 2772 3150 2772 3378 
Q 2772 3750 2511 3984 
Q 2250 4219 1831 4219 
Q 1534 4219 1204 4116 
Q 875 4013 500 3803 
L 500 4441 
Q 881 4594 1212 4672 
Q 1544 4750 1819 4750 
Q 2544 4750 2975 4387 
Q 3406 4025 3406 3419 
Q 3406 3131 3298 2873 
Q 3191 2616 2906 2266 
Q 2828 2175 2409 1742 
Q 1991 1309 1228 531 
z
" transform="scale(0.015625)"/>
       </defs>
       <use xlink:href="#DejaVuSans-32"/>
       <use xlink:href="#DejaVuSans-30" x="63.623047"/>
       <use xlink:href="#DejaVuSans-30" x="127.246094"/>
      </g>
     </g>
    </g>
    <g id="xtick_6">
     <g id="line2d_6">
      <g>
       <use xlink:href="#m591d66fd05" x="156.9" y="160.2" style="stroke: #000000; stroke-width: 0.8"/>
      </g>
     </g>
     <g id="text_6">
      <!-- 250 -->
      <g transform="translate(149.265 173.27875) scale(0.08 -0.08)">
       <use xlink:href="#DejaVuSans-32"/>
       <use xlink:href="#DejaVuSans-35" x="63.623047"/>
       <use xlink:href="#DejaVuSans-30" x="127.246094"/>
      </g>
     </g>
    </g>
    <g id="xtick_7">
     <g id="line2d_7">
      <g>
       <use xlink:href="#m591d66fd05" x="180" y="160.2" style="stroke: #000000; stroke-width: 0.8"/>
      </g>
     </g>
     <g id="text_7">
      <!-- 300 -->
      <g transform="translate(172.365 173.27875) scale(0.08 -0.08)">
       <defs>
        <path id="DejaVuSans-33" d="M 2597 2516 
Q 3050 2419 3304 2112 
Q 3559 1806 3559 1356 
Q 3559 666 3084 287 
Q 2609 -91 1734 -91 
Q 1441 -91 1130 -33 
Q 819 25 488 141 
L 488 750 
Q 750 597 1062 519 
Q 1375 441 1716 441 
Q 2309 441 2620 675 
Q 2931 909 2931 1356 
Q 2931 1769 2642 2001 
Q 2353 2234 1838 2234 
L 1294 2234 
L 1294 2753 
L 1863 2753 
Q 2328 2753 2575 2939 
Q 2822 3125 2822 3475 
Q 2822 3834 2567 4026 
Q 2313 4219 1838 4219 
Q 1578 4219 1281 4162 
Q 984 4106 628 3988 
L 628 4550 
Q 988 4650 1302 4700 
Q 1616 4750 1894 4750 
Q 2613 4750 3031 4423 
Q 3450 4097 3450 3541 
Q 3450 3153 3228 2886 
Q 3006 2619 2597 2516 
z
" transform="scale(0.015625)"/>
       </defs>
       <use xlink:href="#DejaVuSans-33"/>
       <use xlink:href="#DejaVuSans-30" x="63.623047"/>
       <use xlink:href="#DejaVuSans-30" x="127.246094"/>
      </g>
     </g>
    </g>
   </g>
   <g id="matplotlib.axis_2">
    <g id="ytick_1">
     <g id="line2d_8">
      <defs>
       <path id="m85e5717ac5" d="M 0 0 
L -3.5 0 
" style="stroke: #000000; stroke-width: 0.8"/>
      </defs>
      <g>
       <use xlink:href="#m85e5717ac5" x="41.4" y="160.2" style="stroke: #000000; stroke-width: 0.8"/>
      </g>
     </g>
     <g id="text_8">
      <!-- 0 -->
      <g transform="translate(29.31 163.239375) scale(0.08 -0.08)">
       <use xlink:href="#DejaVuSans-30"/>
      </g>
     </g>
    </g>
    <g id="ytick_2">
     <g id="line2d_9">
      <g>
       <use xlink:href="#m85e5717ac5" x="41.4" y="137.1" style="stroke: #000000; stroke-width: 0.8"/>
      </g>
     </g>
     <g id="text_9">
      <!-- 50 -->
      <g transform="translate(24.22 140.139375) scale(0.08 -0.08)">
       <use xlink:href="#DejaVuSans-35"/>
       <use xlink:href="#DejaVuSans-30" x="63.623047"/>
      </g>
     </g>
    </g>
    <g id="ytick_3">
     <g id="line2d_10">
      <g>
       <use xlink:href="#m85e5717ac5" x="41.4" y="114" style="stroke: #000000; stroke-width: 0.8"/>
      </g>
     </g>
     <g id="text_10">
      <!-- 100 -->
      <g transform="translate(19.13 117.039375) scale(0.08 -0.08)">
       <use xlink:href="#DejaVuSans-31"/>
       <use xlink:href="#DejaVuSans-30" x="63.623047"/>
       <use xlink:href="#DejaVuSans-30" x="127.246094"/>
      </g>
     </g>
    </g>
    <g id="ytick_4">
     <g id="line2d_11">
      <g>
       <use xlink:href="#m85e5717ac5" x="41.4" y="90.9" style="stroke: #000000; stroke-width: 0.8"/>
      </g>
     </g>
     <g id="text_11">
      <!-- 150 -->
      <g transform="translate(19.13 93.939375) scale(0.08 -0.08)">
       <use xlink:href="#DejaVuSans-31"/>
       <use xlink:href="#DejaVuSans-35" x="63.623047"/>
       <use xlink:href="#DejaVuSans-30" x="127.246094"/>
      </g>
     </g>
    </g>
    <g id="ytick_5">
     <g id="line2d_12">
      <g>
       <use xlink:href="#m85e5717ac5" x="41.4" y="67.8" style="stroke: #000000; stroke-width: 0.8"/>
      </g>
     </g>
     <g id="text_12">
      <!-- 200 -->
      <g transform="translate(19.13 70.839375) scale(0.08 -0.08)">
       <use xlink:href="#DejaVuSans-32"/>
       <use xlink:href="#DejaVuSans-30" x="63.623047"/>
       <use xlink:href="#DejaVuSans-30" x="127.246094"/>
      </g>
     </g>
    </g>
    <g id="ytick_6">
     <g id="line2d_13">
      <g>
       <use xlink:href="#m85e5717ac5" x="41.4" y="44.7" style="stroke: #000000; stroke-width: 0.8"/>
      </g>
     </g>
     <g id="text_13">
      <!-- 250 -->
      <g transform="translate(19.13 47.739375) scale(0.08 -0.08)">
       <use xlink:href="#DejaVuSans-32"/>
       <use xlink:href="#DejaVuSans-35" x="63.623047"/>
       <use xlink:href="#DejaVuSans-30" x="127.246094"/>
      </g>
     </g>
    </g>
    <g id="ytick_7">
     <g id="line2d_14">
      <g>
       <use xlink:href="#m85e5717ac5" x="41.4" y="21.6" style="stroke: #000000; stroke-width: 0.8"/>
      </g>
     </g>
     <g id="text_14">
      <!-- 300 -->
      <g transform="translate(19.13 24.639375) scale(0.08 -0.08)">
       <use xlink:href="#DejaVuSans-33"/>
       <use xlink:href="#DejaVuSans-30" x="63.623047"/>
       <use xlink:href="#DejaVuSans-30" x="127.246094"/>
      </g>
     </g>
    </g>
   </g>
   <g id="patch_57">
    <path d="M 41.4 160.2 
L 41.4 21.6 
" style="fill: none; stroke: #000000; stroke-width: 0.8; stroke-linejoin: miter; stroke-linecap: square"/>
   </g>
   <g id="patch_58">
    <path d="M 180 160.2 
L 180 21.6 
" style="fill: none; stroke: #000000; stroke-width: 0.8; stroke-linejoin: miter; stroke-linecap: square"/>
   </g>
   <g id="patch_59">
    <path d="M 41.4 160.2 
L 180 160.2 
" style="fill: none; stroke: #000000; stroke-width: 0.8; stroke-linejoin: miter; stroke-linecap: square"/>
   </g>
   <g id="patch_60">
    <path d="M 41.4 21.6 
L 180 21.6 
" style="fill: none; stroke: #000000; stroke-width: 0.8; stroke-linejoin: miter; stroke-linecap: square"/>
   </g>
  </g>
 </g>
 <defs>
  <clipPath id="pdb76c1e892">
   <rect x="41.4" y="21.6" width="138.6" height="138.6"/>
  </clipPath>
 </defs>
</svg>
