<?xml version="1.0" encoding="utf-8" standalone="no"?>
<!DOCTYPE svg PUBLIC "-//W3C//DTD SVG 1.1//EN"
  "http://www.w3.org/Graphics/SVG/1.1/DTD/svg11.dtd">
<svg xmlns:xlink="http://www.w3.org/1999/xlink" width="216pt" height="180pt" viewBox="0 0 216 180" xmlns="http://www.w3.org/2000/svg" version="1.1">
 <metadata>
  <rdf:RDF xmlns:dc="http://purl.org/dc/elements/1.1/" xmlns:cc="http://creativecommons.org/ns#" xmlns:rdf="http://www.w3.org/1999/02/22-rdf-syntax-ns#">
   <cc:Work>
    <dc:type rdf:resource="http://purl.org/dc/dcmitype/StillImage"/>
    <dc:date>2024-03-31T23:19:57.786962</dc:date>
    <dc:format>image/svg+xml</dc:format>
    <dc:creator>
     <cc:Agent>
      <dc:title>Matplotlib v3.7.1, https://matplotlib.org/</dc:title>
     </cc:Agent>
    </dc:creator>
   </cc:Work>
  </rdf:RDF>
 </metadata>
 <defs>
  <style type="text/css">*{stroke-linejoin: round; stroke-linecap: butt}</style>
 </defs>
 <g id="figure_1">
  <g id="patch_1">
   <path d="M 0 180 
L 216 180 
L 216 0 
L 0 0 
z
" style="fill: #ffffff"/>
  </g>
  <g id="axes_1">
   <g id="patch_2">
    <path d="M 27 160.2 
L 194.4 160.2 
L 194.4 21.6 
L 27 21.6 
z
" style="fill: #ffffff"/>
   </g>
   <g id="patch_3">
    <path d="M 35.5374 127.779314 
L 51.9426 127.779314 
L 51.9426 85.856974 
L 35.5374 85.856974 
L 35.5374 127.779314 
z
" clip-path="url(#pcf59b51f31)" style="fill: #901919; stroke: #333333; stroke-width: 1.5; stroke-linejoin: miter"/>
   </g>
   <g id="patch_4">
    <path d="M 52.2774 128.396333 
L 68.6826 128.396333 
L 68.6826 84.370239 
L 52.2774 84.370239 
L 52.2774 128.396333 
z
" clip-path="url(#pcf59b51f31)" style="fill: #de7a5a; stroke: #333333; stroke-width: 1.5; stroke-linejoin: miter"/>
   </g>
   <g id="patch_5">
    <path d="M 69.0174 145.801228 
L 85.4226 145.801228 
L 85.4226 128.736162 
L 69.0174 128.736162 
L 69.0174 145.801228 
z
" clip-path="url(#pcf59b51f31)" style="fill: #808080; stroke: #333333; stroke-width: 1.5; stroke-linejoin: miter"/>
   </g>
   <g id="patch_6">
    <path d="M 85.7574 129.189637 
L 102.1626 129.189637 
L 102.1626 85.113768 
L 85.7574 85.113768 
L 85.7574 129.189637 
z
" clip-path="url(#pcf59b51f31)" style="fill: #7198b0; stroke: #333333; stroke-width: 1.5; stroke-linejoin: miter"/>
   </g>
   <g id="patch_7">
    <path d="M 119.2374 123.897897 
L 135.6426 123.897897 
L 135.6426 74.705698 
L 119.2374 74.705698 
L 119.2374 123.897897 
z
" clip-path="url(#pcf59b51f31)" style="fill: #901919; stroke: #333333; stroke-width: 1.5; stroke-linejoin: miter"/>
   </g>
   <g id="patch_8">
    <path d="M 135.9774 120.326537 
L 152.3826 120.326537 
L 152.3826 74.673393 
L 135.9774 74.673393 
L 135.9774 120.326537 
z
" clip-path="url(#pcf59b51f31)" style="fill: #de7a5a; stroke: #333333; stroke-width: 1.5; stroke-linejoin: miter"/>
   </g>
   <g id="patch_9">
    <path d="M 152.7174 145.610419 
L 169.1226 145.610419 
L 169.1226 128.202321 
L 152.7174 128.202321 
L 152.7174 145.610419 
z
" clip-path="url(#pcf59b51f31)" style="fill: #808080; stroke: #333333; stroke-width: 1.5; stroke-linejoin: miter"/>
   </g>
   <g id="patch_10">
    <path d="M 169.4574 121.404695 
L 185.8626 121.404695 
L 185.8626 77.630037 
L 169.4574 77.630037 
L 169.4574 121.404695 
z
" clip-path="url(#pcf59b51f31)" style="fill: #7198b0; stroke: #333333; stroke-width: 1.5; stroke-linejoin: miter"/>
   </g>
   <g id="patch_11">
    <path d="M 68.85 154.180574 
L 68.85 154.180574 
L 68.85 154.180574 
L 68.85 154.180574 
z
" clip-path="url(#pcf59b51f31)" style="fill: #901919; stroke: #333333; stroke-width: 0.75; stroke-linejoin: miter"/>
   </g>
   <g id="patch_12">
    <path d="M 68.85 154.180574 
L 68.85 154.180574 
L 68.85 154.180574 
L 68.85 154.180574 
z
" clip-path="url(#pcf59b51f31)" style="fill: #de7a5a; stroke: #333333; stroke-width: 0.75; stroke-linejoin: miter"/>
   </g>
   <g id="patch_13">
    <path d="M 68.85 154.180574 
L 68.85 154.180574 
L 68.85 154.180574 
L 68.85 154.180574 
z
" clip-path="url(#pcf59b51f31)" style="fill: #808080; stroke: #333333; stroke-width: 0.75; stroke-linejoin: miter"/>
   </g>
   <g id="patch_14">
    <path d="M 68.85 154.180574 
L 68.85 154.180574 
L 68.85 154.180574 
L 68.85 154.180574 
z
" clip-path="url(#pcf59b51f31)" style="fill: #7198b0; stroke: #333333; stroke-width: 0.75; stroke-linejoin: miter"/>
   </g>
   <g id="matplotlib.axis_1">
    <g id="xtick_1"/>
    <g id="xtick_2"/>
   </g>
   <g id="matplotlib.axis_2">
    <g id="ytick_1">
     <g id="line2d_1">
      <defs>
       <path id="m58c1e6be0d" d="M 0 0 
L -3.5 0 
" style="stroke: #000000; stroke-width: 0.8"/>
      </defs>
      <g>
       <use xlink:href="#m58c1e6be0d" x="27" y="154.180574" style="stroke: #000000; stroke-width: 0.8"/>
      </g>
     </g>
     <g id="text_1">
      <!-- 0 -->
      <g transform="translate(14.91 157.219949) scale(0.08 -0.08)">
       <defs>
        <path id="DejaVuSans-30" d="M 2034 4250 
Q 1547 4250 1301 3770 
Q 1056 3291 1056 2328 
Q 1056 1369 1301 889 
Q 1547 409 2034 409 
Q 2525 409 2770 889 
Q 3016 1369 3016 2328 
Q 3016 3291 2770 3770 
Q 2525 4250 2034 4250 
z
M 2034 4750 
Q 2819 4750 3233 4129 
Q 3647 3509 3647 2328 
Q 3647 1150 3233 529 
Q 2819 -91 2034 -91 
Q 1250 -91 836 529 
Q 422 1150 422 2328 
Q 422 3509 836 4129 
Q 1250 4750 2034 4750 
z
" transform="scale(0.015625)"/>
       </defs>
       <use xlink:href="#DejaVuSans-30"/>
      </g>
     </g>
    </g>
    <g id="ytick_2">
     <g id="line2d_2">
      <g>
       <use xlink:href="#m58c1e6be0d" x="27" y="126.679205" style="stroke: #000000; stroke-width: 0.8"/>
      </g>
     </g>
     <g id="text_2">
      <!-- 2 -->
      <g transform="translate(14.91 129.71858) scale(0.08 -0.08)">
       <defs>
        <path id="DejaVuSans-32" d="M 1228 531 
L 3431 531 
L 3431 0 
L 469 0 
L 469 531 
Q 828 903 1448 1529 
Q 2069 2156 2228 2338 
Q 2531 2678 2651 2914 
Q 2772 3150 2772 3378 
Q 2772 3750 2511 3984 
Q 2250 4219 1831 4219 
Q 1534 4219 1204 4116 
Q 875 4013 500 3803 
L 500 4441 
Q 881 4594 1212 4672 
Q 1544 4750 1819 4750 
Q 2544 4750 2975 4387 
Q 3406 4025 3406 3419 
Q 3406 3131 3298 2873 
Q 3191 2616 2906 2266 
Q 2828 2175 2409 1742 
Q 1991 1309 1228 531 
z
" transform="scale(0.015625)"/>
       </defs>
       <use xlink:href="#DejaVuSans-32"/>
      </g>
     </g>
    </g>
    <g id="ytick_3">
     <g id="line2d_3">
      <g>
       <use xlink:href="#m58c1e6be0d" x="27" y="99.177836" style="stroke: #000000; stroke-width: 0.8"/>
      </g>
     </g>
     <g id="text_3">
      <!-- 4 -->
      <g transform="translate(14.91 102.217211) scale(0.08 -0.08)">
       <defs>
        <path id="DejaVuSans-34" d="M 2419 4116 
L 825 1625 
L 2419 1625 
L 2419 4116 
z
M 2253 4666 
L 3047 4666 
L 3047 1625 
L 3713 1625 
L 3713 1100 
L 3047 1100 
L 3047 0 
L 2419 0 
L 2419 1100 
L 313 1100 
L 313 1709 
L 2253 4666 
z
" transform="scale(0.015625)"/>
       </defs>
       <use xlink:href="#DejaVuSans-34"/>
      </g>
     </g>
    </g>
    <g id="ytick_4">
     <g id="line2d_4">
      <g>
       <use xlink:href="#m58c1e6be0d" x="27" y="71.676468" style="stroke: #000000; stroke-width: 0.8"/>
      </g>
     </g>
     <g id="text_4">
      <!-- 6 -->
      <g transform="translate(14.91 74.715843) scale(0.08 -0.08)">
       <defs>
        <path id="DejaVuSans-36" d="M 2113 2584 
Q 1688 2584 1439 2293 
Q 1191 2003 1191 1497 
Q 1191 994 1439 701 
Q 1688 409 2113 409 
Q 2538 409 2786 701 
Q 3034 994 3034 1497 
Q 3034 2003 2786 2293 
Q 2538 2584 2113 2584 
z
M 3366 4563 
L 3366 3988 
Q 3128 4100 2886 4159 
Q 2644 4219 2406 4219 
Q 1781 4219 1451 3797 
Q 1122 3375 1075 2522 
Q 1259 2794 1537 2939 
Q 1816 3084 2150 3084 
Q 2853 3084 3261 2657 
Q 3669 2231 3669 1497 
Q 3669 778 3244 343 
Q 2819 -91 2113 -91 
Q 1303 -91 875 529 
Q 447 1150 447 2328 
Q 447 3434 972 4092 
Q 1497 4750 2381 4750 
Q 2619 4750 2861 4703 
Q 3103 4656 3366 4563 
z
" transform="scale(0.015625)"/>
       </defs>
       <use xlink:href="#DejaVuSans-36"/>
      </g>
     </g>
    </g>
    <g id="ytick_5">
     <g id="line2d_5">
      <g>
       <use xlink:href="#m58c1e6be0d" x="27" y="44.175099" style="stroke: #000000; stroke-width: 0.8"/>
      </g>
     </g>
     <g id="text_5">
      <!-- 8 -->
      <g transform="translate(14.91 47.214474) scale(0.08 -0.08)">
       <defs>
        <path id="DejaVuSans-38" d="M 2034 2216 
Q 1584 2216 1326 1975 
Q 1069 1734 1069 1313 
Q 1069 891 1326 650 
Q 1584 409 2034 409 
Q 2484 409 2743 651 
Q 3003 894 3003 1313 
Q 3003 1734 2745 1975 
Q 2488 2216 2034 2216 
z
M 1403 2484 
Q 997 2584 770 2862 
Q 544 3141 544 3541 
Q 544 4100 942 4425 
Q 1341 4750 2034 4750 
Q 2731 4750 3128 4425 
Q 3525 4100 3525 3541 
Q 3525 3141 3298 2862 
Q 3072 2584 2669 2484 
Q 3125 2378 3379 2068 
Q 3634 1759 3634 1313 
Q 3634 634 3220 271 
Q 2806 -91 2034 -91 
Q 1263 -91 848 271 
Q 434 634 434 1313 
Q 434 1759 690 2068 
Q 947 2378 1403 2484 
z
M 1172 3481 
Q 1172 3119 1398 2916 
Q 1625 2713 2034 2713 
Q 2441 2713 2670 2916 
Q 2900 3119 2900 3481 
Q 2900 3844 2670 4047 
Q 2441 4250 2034 4250 
Q 1625 4250 1398 4047 
Q 1172 3844 1172 3481 
z
" transform="scale(0.015625)"/>
       </defs>
       <use xlink:href="#DejaVuSans-38"/>
      </g>
     </g>
    </g>
   </g>
   <g id="line2d_6">
    <path d="M 43.74 127.779314 
L 43.74 153.707985 
" clip-path="url(#pcf59b51f31)" style="fill: none; stroke: #333333; stroke-width: 1.5; stroke-linecap: square"/>
   </g>
   <g id="line2d_7">
    <path d="M 43.74 85.856974 
L 43.74 28.036192 
" clip-path="url(#pcf59b51f31)" style="fill: none; stroke: #333333; stroke-width: 1.5; stroke-linecap: square"/>
   </g>
   <g id="line2d_8">
    <path d="M 39.6387 153.707985 
L 47.8413 153.707985 
" clip-path="url(#pcf59b51f31)" style="fill: none; stroke: #333333; stroke-width: 1.5; stroke-linecap: square"/>
   </g>
   <g id="line2d_9">
    <path d="M 39.6387 28.036192 
L 47.8413 28.036192 
" clip-path="url(#pcf59b51f31)" style="fill: none; stroke: #333333; stroke-width: 1.5; stroke-linecap: square"/>
   </g>
   <g id="line2d_10"/>
   <g id="line2d_11">
    <path d="M 60.48 128.396333 
L 60.48 153.408673 
" clip-path="url(#pcf59b51f31)" style="fill: none; stroke: #333333; stroke-width: 1.5; stroke-linecap: square"/>
   </g>
   <g id="line2d_12">
    <path d="M 60.48 84.370239 
L 60.48 31.780858 
" clip-path="url(#pcf59b51f31)" style="fill: none; stroke: #333333; stroke-width: 1.5; stroke-linecap: square"/>
   </g>
   <g id="line2d_13">
    <path d="M 56.3787 153.408673 
L 64.5813 153.408673 
" clip-path="url(#pcf59b51f31)" style="fill: none; stroke: #333333; stroke-width: 1.5; stroke-linecap: square"/>
   </g>
   <g id="line2d_14">
    <path d="M 56.3787 31.780858 
L 64.5813 31.780858 
" clip-path="url(#pcf59b51f31)" style="fill: none; stroke: #333333; stroke-width: 1.5; stroke-linecap: square"/>
   </g>
   <g id="line2d_15"/>
   <g id="line2d_16">
    <path d="M 77.22 145.801228 
L 77.22 153.9 
" clip-path="url(#pcf59b51f31)" style="fill: none; stroke: #333333; stroke-width: 1.5; stroke-linecap: square"/>
   </g>
   <g id="line2d_17">
    <path d="M 77.22 128.736162 
L 77.22 104.849173 
" clip-path="url(#pcf59b51f31)" style="fill: none; stroke: #333333; stroke-width: 1.5; stroke-linecap: square"/>
   </g>
   <g id="line2d_18">
    <path d="M 73.1187 153.9 
L 81.3213 153.9 
" clip-path="url(#pcf59b51f31)" style="fill: none; stroke: #333333; stroke-width: 1.5; stroke-linecap: square"/>
   </g>
   <g id="line2d_19">
    <path d="M 73.1187 104.849173 
L 81.3213 104.849173 
" clip-path="url(#pcf59b51f31)" style="fill: none; stroke: #333333; stroke-width: 1.5; stroke-linecap: square"/>
   </g>
   <g id="line2d_20">
    <defs>
     <path id="m366c20f8c9" d="M -0 3.535534 
L 2.12132 0 
L -0 -3.535534 
L -2.12132 -0 
z
" style="stroke: #333333; stroke-linejoin: miter"/>
    </defs>
    <g clip-path="url(#pcf59b51f31)">
     <use xlink:href="#m366c20f8c9" x="77.22" y="97.190885" style="fill: #333333; stroke: #333333; stroke-linejoin: miter"/>
     <use xlink:href="#m366c20f8c9" x="77.22" y="101.505514" style="fill: #333333; stroke: #333333; stroke-linejoin: miter"/>
     <use xlink:href="#m366c20f8c9" x="77.22" y="98.290355" style="fill: #333333; stroke: #333333; stroke-linejoin: miter"/>
     <use xlink:href="#m366c20f8c9" x="77.22" y="95.058156" style="fill: #333333; stroke: #333333; stroke-linejoin: miter"/>
     <use xlink:href="#m366c20f8c9" x="77.22" y="95.715492" style="fill: #333333; stroke: #333333; stroke-linejoin: miter"/>
    </g>
   </g>
   <g id="line2d_21">
    <path d="M 93.96 129.189637 
L 93.96 153.079085 
" clip-path="url(#pcf59b51f31)" style="fill: none; stroke: #333333; stroke-width: 1.5; stroke-linecap: square"/>
   </g>
   <g id="line2d_22">
    <path d="M 93.96 85.113768 
L 93.96 35.728194 
" clip-path="url(#pcf59b51f31)" style="fill: none; stroke: #333333; stroke-width: 1.5; stroke-linecap: square"/>
   </g>
   <g id="line2d_23">
    <path d="M 89.8587 153.079085 
L 98.0613 153.079085 
" clip-path="url(#pcf59b51f31)" style="fill: none; stroke: #333333; stroke-width: 1.5; stroke-linecap: square"/>
   </g>
   <g id="line2d_24">
    <path d="M 89.8587 35.728194 
L 98.0613 35.728194 
" clip-path="url(#pcf59b51f31)" style="fill: none; stroke: #333333; stroke-width: 1.5; stroke-linecap: square"/>
   </g>
   <g id="line2d_25"/>
   <g id="line2d_26">
    <path d="M 127.44 123.897897 
L 127.44 152.967344 
" clip-path="url(#pcf59b51f31)" style="fill: none; stroke: #333333; stroke-width: 1.5; stroke-linecap: square"/>
   </g>
   <g id="line2d_27">
    <path d="M 127.44 74.705698 
L 127.44 32.928702 
" clip-path="url(#pcf59b51f31)" style="fill: none; stroke: #333333; stroke-width: 1.5; stroke-linecap: square"/>
   </g>
   <g id="line2d_28">
    <path d="M 123.3387 152.967344 
L 131.5413 152.967344 
" clip-path="url(#pcf59b51f31)" style="fill: none; stroke: #333333; stroke-width: 1.5; stroke-linecap: square"/>
   </g>
   <g id="line2d_29">
    <path d="M 123.3387 32.928702 
L 131.5413 32.928702 
" clip-path="url(#pcf59b51f31)" style="fill: none; stroke: #333333; stroke-width: 1.5; stroke-linecap: square"/>
   </g>
   <g id="line2d_30"/>
   <g id="line2d_31">
    <path d="M 144.18 120.326537 
L 144.18 151.670776 
" clip-path="url(#pcf59b51f31)" style="fill: none; stroke: #333333; stroke-width: 1.5; stroke-linecap: square"/>
   </g>
   <g id="line2d_32">
    <path d="M 144.18 74.673393 
L 144.18 27.9 
" clip-path="url(#pcf59b51f31)" style="fill: none; stroke: #333333; stroke-width: 1.5; stroke-linecap: square"/>
   </g>
   <g id="line2d_33">
    <path d="M 140.0787 151.670776 
L 148.2813 151.670776 
" clip-path="url(#pcf59b51f31)" style="fill: none; stroke: #333333; stroke-width: 1.5; stroke-linecap: square"/>
   </g>
   <g id="line2d_34">
    <path d="M 140.0787 27.9 
L 148.2813 27.9 
" clip-path="url(#pcf59b51f31)" style="fill: none; stroke: #333333; stroke-width: 1.5; stroke-linecap: square"/>
   </g>
   <g id="line2d_35"/>
   <g id="line2d_36">
    <path d="M 160.92 145.610419 
L 160.92 153.665534 
" clip-path="url(#pcf59b51f31)" style="fill: none; stroke: #333333; stroke-width: 1.5; stroke-linecap: square"/>
   </g>
   <g id="line2d_37">
    <path d="M 160.92 128.202321 
L 160.92 103.246167 
" clip-path="url(#pcf59b51f31)" style="fill: none; stroke: #333333; stroke-width: 1.5; stroke-linecap: square"/>
   </g>
   <g id="line2d_38">
    <path d="M 156.8187 153.665534 
L 165.0213 153.665534 
" clip-path="url(#pcf59b51f31)" style="fill: none; stroke: #333333; stroke-width: 1.5; stroke-linecap: square"/>
   </g>
   <g id="line2d_39">
    <path d="M 156.8187 103.246167 
L 165.0213 103.246167 
" clip-path="url(#pcf59b51f31)" style="fill: none; stroke: #333333; stroke-width: 1.5; stroke-linecap: square"/>
   </g>
   <g id="line2d_40">
    <g clip-path="url(#pcf59b51f31)">
     <use xlink:href="#m366c20f8c9" x="160.92" y="89.040199" style="fill: #333333; stroke: #333333; stroke-linejoin: miter"/>
     <use xlink:href="#m366c20f8c9" x="160.92" y="98.152931" style="fill: #333333; stroke: #333333; stroke-linejoin: miter"/>
     <use xlink:href="#m366c20f8c9" x="160.92" y="94.118836" style="fill: #333333; stroke: #333333; stroke-linejoin: miter"/>
    </g>
   </g>
   <g id="line2d_41">
    <path d="M 177.66 121.404695 
L 177.66 153.271981 
" clip-path="url(#pcf59b51f31)" style="fill: none; stroke: #333333; stroke-width: 1.5; stroke-linecap: square"/>
   </g>
   <g id="line2d_42">
    <path d="M 177.66 77.630037 
L 177.66 31.451433 
" clip-path="url(#pcf59b51f31)" style="fill: none; stroke: #333333; stroke-width: 1.5; stroke-linecap: square"/>
   </g>
   <g id="line2d_43">
    <path d="M 173.5587 153.271981 
L 181.7613 153.271981 
" clip-path="url(#pcf59b51f31)" style="fill: none; stroke: #333333; stroke-width: 1.5; stroke-linecap: square"/>
   </g>
   <g id="line2d_44">
    <path d="M 173.5587 31.451433 
L 181.7613 31.451433 
" clip-path="url(#pcf59b51f31)" style="fill: none; stroke: #333333; stroke-width: 1.5; stroke-linecap: square"/>
   </g>
   <g id="line2d_45"/>
   <g id="line2d_46">
    <path d="M 35.5374 107.905998 
L 51.9426 107.905998 
" clip-path="url(#pcf59b51f31)" style="fill: none; stroke: #333333; stroke-width: 1.5; stroke-linecap: square"/>
   </g>
   <g id="line2d_47">
    <path d="M 52.2774 107.527462 
L 68.6826 107.527462 
" clip-path="url(#pcf59b51f31)" style="fill: none; stroke: #333333; stroke-width: 1.5; stroke-linecap: square"/>
   </g>
   <g id="line2d_48">
    <path d="M 69.0174 138.612822 
L 85.4226 138.612822 
" clip-path="url(#pcf59b51f31)" style="fill: none; stroke: #333333; stroke-width: 1.5; stroke-linecap: square"/>
   </g>
   <g id="line2d_49">
    <path d="M 85.7574 105.747823 
L 102.1626 105.747823 
" clip-path="url(#pcf59b51f31)" style="fill: none; stroke: #333333; stroke-width: 1.5; stroke-linecap: square"/>
   </g>
   <g id="line2d_50">
    <path d="M 119.2374 97.930968 
L 135.6426 97.930968 
" clip-path="url(#pcf59b51f31)" style="fill: none; stroke: #333333; stroke-width: 1.5; stroke-linecap: square"/>
   </g>
   <g id="line2d_51">
    <path d="M 135.9774 97.236135 
L 152.3826 97.236135 
" clip-path="url(#pcf59b51f31)" style="fill: none; stroke: #333333; stroke-width: 1.5; stroke-linecap: square"/>
   </g>
   <g id="line2d_52">
    <path d="M 152.7174 138.127348 
L 169.1226 138.127348 
" clip-path="url(#pcf59b51f31)" style="fill: none; stroke: #333333; stroke-width: 1.5; stroke-linecap: square"/>
   </g>
   <g id="line2d_53">
    <path d="M 169.4574 98.082107 
L 185.8626 98.082107 
" clip-path="url(#pcf59b51f31)" style="fill: none; stroke: #333333; stroke-width: 1.5; stroke-linecap: square"/>
   </g>
   <g id="patch_15">
    <path d="M 27 160.2 
L 27 21.6 
" style="fill: none; stroke: #000000; stroke-width: 0.8; stroke-linejoin: miter; stroke-linecap: square"/>
   </g>
   <g id="patch_16">
    <path d="M 194.4 160.2 
L 194.4 21.6 
" style="fill: none; stroke: #000000; stroke-width: 0.8; stroke-linejoin: miter; stroke-linecap: square"/>
   </g>
   <g id="patch_17">
    <path d="M 27 160.2 
L 194.4 160.2 
" style="fill: none; stroke: #000000; stroke-width: 0.8; stroke-linejoin: miter; stroke-linecap: square"/>
   </g>
   <g id="patch_18">
    <path d="M 27 21.6 
L 194.4 21.6 
" style="fill: none; stroke: #000000; stroke-width: 0.8; stroke-linejoin: miter; stroke-linecap: square"/>
   </g>
   <g id="legend_1">
    <g id="patch_19">
     <path d="M 72.335 74.97 
L 188.8 74.97 
Q 190.4 74.97 190.4 73.37 
L 190.4 27.2 
Q 190.4 25.6 188.8 25.6 
L 72.335 25.6 
Q 70.735 25.6 70.735 27.2 
L 70.735 73.37 
Q 70.735 74.97 72.335 74.97 
z
" style="fill: #ffffff; opacity: 0.8; stroke: #cccccc; stroke-linejoin: miter"/>
    </g>
    <g id="patch_20">
     <path d="M 73.935 34.87875 
L 89.935 34.87875 
L 89.935 29.27875 
L 73.935 29.27875 
z
" style="fill: #901919; stroke: #333333; stroke-width: 0.75; stroke-linejoin: miter"/>
    </g>
    <g id="text_6">
     <!-- with size correction -->
     <g transform="translate(96.335 34.87875) scale(0.08 -0.08)">
      <defs>
       <path id="DejaVuSans-77" d="M 269 3500 
L 844 3500 
L 1563 769 
L 2278 3500 
L 2956 3500 
L 3675 769 
L 4391 3500 
L 4966 3500 
L 4050 0 
L 3372 0 
L 2619 2869 
L 1863 0 
L 1184 0 
L 269 3500 
z
" transform="scale(0.015625)"/>
       <path id="DejaVuSans-69" d="M 603 3500 
L 1178 3500 
L 1178 0 
L 603 0 
L 603 3500 
z
M 603 4863 
L 1178 4863 
L 1178 4134 
L 603 4134 
L 603 4863 
z
" transform="scale(0.015625)"/>
       <path id="DejaVuSans-74" d="M 1172 4494 
L 1172 3500 
L 2356 3500 
L 2356 3053 
L 1172 3053 
L 1172 1153 
Q 1172 725 1289 603 
Q 1406 481 1766 481 
L 2356 481 
L 2356 0 
L 1766 0 
Q 1100 0 847 248 
Q 594 497 594 1153 
L 594 3053 
L 172 3053 
L 172 3500 
L 594 3500 
L 594 4494 
L 1172 4494 
z
" transform="scale(0.015625)"/>
       <path id="DejaVuSans-68" d="M 3513 2113 
L 3513 0 
L 2938 0 
L 2938 2094 
Q 2938 2591 2744 2837 
Q 2550 3084 2163 3084 
Q 1697 3084 1428 2787 
Q 1159 2491 1159 1978 
L 1159 0 
L 581 0 
L 581 4863 
L 1159 4863 
L 1159 2956 
Q 1366 3272 1645 3428 
Q 1925 3584 2291 3584 
Q 2894 3584 3203 3211 
Q 3513 2838 3513 2113 
z
" transform="scale(0.015625)"/>
       <path id="DejaVuSans-20" transform="scale(0.015625)"/>
       <path id="DejaVuSans-73" d="M 2834 3397 
L 2834 2853 
Q 2591 2978 2328 3040 
Q 2066 3103 1784 3103 
Q 1356 3103 1142 2972 
Q 928 2841 928 2578 
Q 928 2378 1081 2264 
Q 1234 2150 1697 2047 
L 1894 2003 
Q 2506 1872 2764 1633 
Q 3022 1394 3022 966 
Q 3022 478 2636 193 
Q 2250 -91 1575 -91 
Q 1294 -91 989 -36 
Q 684 19 347 128 
L 347 722 
Q 666 556 975 473 
Q 1284 391 1588 391 
Q 1994 391 2212 530 
Q 2431 669 2431 922 
Q 2431 1156 2273 1281 
Q 2116 1406 1581 1522 
L 1381 1569 
Q 847 1681 609 1914 
Q 372 2147 372 2553 
Q 372 3047 722 3315 
Q 1072 3584 1716 3584 
Q 2034 3584 2315 3537 
Q 2597 3491 2834 3397 
z
" transform="scale(0.015625)"/>
       <path id="DejaVuSans-7a" d="M 353 3500 
L 3084 3500 
L 3084 2975 
L 922 459 
L 3084 459 
L 3084 0 
L 275 0 
L 275 525 
L 2438 3041 
L 353 3041 
L 353 3500 
z
" transform="scale(0.015625)"/>
       <path id="DejaVuSans-65" d="M 3597 1894 
L 3597 1613 
L 953 1613 
Q 991 1019 1311 708 
Q 1631 397 2203 397 
Q 2534 397 2845 478 
Q 3156 559 3463 722 
L 3463 178 
Q 3153 47 2828 -22 
Q 2503 -91 2169 -91 
Q 1331 -91 842 396 
Q 353 884 353 1716 
Q 353 2575 817 3079 
Q 1281 3584 2069 3584 
Q 2775 3584 3186 3129 
Q 3597 2675 3597 1894 
z
M 3022 2063 
Q 3016 2534 2758 2815 
Q 2500 3097 2075 3097 
Q 1594 3097 1305 2825 
Q 1016 2553 972 2059 
L 3022 2063 
z
" transform="scale(0.015625)"/>
       <path id="DejaVuSans-63" d="M 3122 3366 
L 3122 2828 
Q 2878 2963 2633 3030 
Q 2388 3097 2138 3097 
Q 1578 3097 1268 2742 
Q 959 2388 959 1747 
Q 959 1106 1268 751 
Q 1578 397 2138 397 
Q 2388 397 2633 464 
Q 2878 531 3122 666 
L 3122 134 
Q 2881 22 2623 -34 
Q 2366 -91 2075 -91 
Q 1284 -91 818 406 
Q 353 903 353 1747 
Q 353 2603 823 3093 
Q 1294 3584 2113 3584 
Q 2378 3584 2631 3529 
Q 2884 3475 3122 3366 
z
" transform="scale(0.015625)"/>
       <path id="DejaVuSans-6f" d="M 1959 3097 
Q 1497 3097 1228 2736 
Q 959 2375 959 1747 
Q 959 1119 1226 758 
Q 1494 397 1959 397 
Q 2419 397 2687 759 
Q 2956 1122 2956 1747 
Q 2956 2369 2687 2733 
Q 2419 3097 1959 3097 
z
M 1959 3584 
Q 2709 3584 3137 3096 
Q 3566 2609 3566 1747 
Q 3566 888 3137 398 
Q 2709 -91 1959 -91 
Q 1206 -91 779 398 
Q 353 888 353 1747 
Q 353 2609 779 3096 
Q 1206 3584 1959 3584 
z
" transform="scale(0.015625)"/>
       <path id="DejaVuSans-72" d="M 2631 2963 
Q 2534 3019 2420 3045 
Q 2306 3072 2169 3072 
Q 1681 3072 1420 2755 
Q 1159 2438 1159 1844 
L 1159 0 
L 581 0 
L 581 3500 
L 1159 3500 
L 1159 2956 
Q 1341 3275 1631 3429 
Q 1922 3584 2338 3584 
Q 2397 3584 2469 3576 
Q 2541 3569 2628 3553 
L 2631 2963 
z
" transform="scale(0.015625)"/>
       <path id="DejaVuSans-6e" d="M 3513 2113 
L 3513 0 
L 2938 0 
L 2938 2094 
Q 2938 2591 2744 2837 
Q 2550 3084 2163 3084 
Q 1697 3084 1428 2787 
Q 1159 2491 1159 1978 
L 1159 0 
L 581 0 
L 581 3500 
L 1159 3500 
L 1159 2956 
Q 1366 3272 1645 3428 
Q 1925 3584 2291 3584 
Q 2894 3584 3203 3211 
Q 3513 2838 3513 2113 
z
" transform="scale(0.015625)"/>
      </defs>
      <use xlink:href="#DejaVuSans-77"/>
      <use xlink:href="#DejaVuSans-69" x="81.787109"/>
      <use xlink:href="#DejaVuSans-74" x="109.570312"/>
      <use xlink:href="#DejaVuSans-68" x="148.779297"/>
      <use xlink:href="#DejaVuSans-20" x="212.158203"/>
      <use xlink:href="#DejaVuSans-73" x="243.945312"/>
      <use xlink:href="#DejaVuSans-69" x="296.044922"/>
      <use xlink:href="#DejaVuSans-7a" x="323.828125"/>
      <use xlink:href="#DejaVuSans-65" x="376.318359"/>
      <use xlink:href="#DejaVuSans-20" x="437.841797"/>
      <use xlink:href="#DejaVuSans-63" x="469.628906"/>
      <use xlink:href="#DejaVuSans-6f" x="524.609375"/>
      <use xlink:href="#DejaVuSans-72" x="585.791016"/>
      <use xlink:href="#DejaVuSans-72" x="625.154297"/>
      <use xlink:href="#DejaVuSans-65" x="664.017578"/>
      <use xlink:href="#DejaVuSans-63" x="725.541016"/>
      <use xlink:href="#DejaVuSans-74" x="780.521484"/>
      <use xlink:href="#DejaVuSans-69" x="819.730469"/>
      <use xlink:href="#DejaVuSans-6f" x="847.513672"/>
      <use xlink:href="#DejaVuSans-6e" x="908.695312"/>
     </g>
    </g>
    <g id="patch_21">
     <path d="M 73.935 46.62125 
L 89.935 46.62125 
L 89.935 41.02125 
L 73.935 41.02125 
z
" style="fill: #de7a5a; stroke: #333333; stroke-width: 0.75; stroke-linejoin: miter"/>
    </g>
    <g id="text_7">
     <!-- without size correction -->
     <g transform="translate(96.335 46.62125) scale(0.08 -0.08)">
      <defs>
       <path id="DejaVuSans-75" d="M 544 1381 
L 544 3500 
L 1119 3500 
L 1119 1403 
Q 1119 906 1312 657 
Q 1506 409 1894 409 
Q 2359 409 2629 706 
Q 2900 1003 2900 1516 
L 2900 3500 
L 3475 3500 
L 3475 0 
L 2900 0 
L 2900 538 
Q 2691 219 2414 64 
Q 2138 -91 1772 -91 
Q 1169 -91 856 284 
Q 544 659 544 1381 
z
M 1991 3584 
L 1991 3584 
z
" transform="scale(0.015625)"/>
      </defs>
      <use xlink:href="#DejaVuSans-77"/>
      <use xlink:href="#DejaVuSans-69" x="81.787109"/>
      <use xlink:href="#DejaVuSans-74" x="109.570312"/>
      <use xlink:href="#DejaVuSans-68" x="148.779297"/>
      <use xlink:href="#DejaVuSans-6f" x="212.158203"/>
      <use xlink:href="#DejaVuSans-75" x="273.339844"/>
      <use xlink:href="#DejaVuSans-74" x="336.71875"/>
      <use xlink:href="#DejaVuSans-20" x="375.927734"/>
      <use xlink:href="#DejaVuSans-73" x="407.714844"/>
      <use xlink:href="#DejaVuSans-69" x="459.814453"/>
      <use xlink:href="#DejaVuSans-7a" x="487.597656"/>
      <use xlink:href="#DejaVuSans-65" x="540.087891"/>
      <use xlink:href="#DejaVuSans-20" x="601.611328"/>
      <use xlink:href="#DejaVuSans-63" x="633.398438"/>
      <use xlink:href="#DejaVuSans-6f" x="688.378906"/>
      <use xlink:href="#DejaVuSans-72" x="749.560547"/>
      <use xlink:href="#DejaVuSans-72" x="788.923828"/>
      <use xlink:href="#DejaVuSans-65" x="827.787109"/>
      <use xlink:href="#DejaVuSans-63" x="889.310547"/>
      <use xlink:href="#DejaVuSans-74" x="944.291016"/>
      <use xlink:href="#DejaVuSans-69" x="983.5"/>
      <use xlink:href="#DejaVuSans-6f" x="1011.283203"/>
      <use xlink:href="#DejaVuSans-6e" x="1072.464844"/>
     </g>
    </g>
    <g id="patch_22">
     <path d="M 73.935 58.36375 
L 89.935 58.36375 
L 89.935 52.76375 
L 73.935 52.76375 
z
" style="fill: #808080; stroke: #333333; stroke-width: 0.75; stroke-linejoin: miter"/>
    </g>
    <g id="text_8">
     <!-- squidpy -->
     <g transform="translate(96.335 58.36375) scale(0.08 -0.08)">
      <defs>
       <path id="DejaVuSans-71" d="M 947 1747 
Q 947 1113 1208 752 
Q 1469 391 1925 391 
Q 2381 391 2643 752 
Q 2906 1113 2906 1747 
Q 2906 2381 2643 2742 
Q 2381 3103 1925 3103 
Q 1469 3103 1208 2742 
Q 947 2381 947 1747 
z
M 2906 525 
Q 2725 213 2448 61 
Q 2172 -91 1784 -91 
Q 1150 -91 751 415 
Q 353 922 353 1747 
Q 353 2572 751 3078 
Q 1150 3584 1784 3584 
Q 2172 3584 2448 3432 
Q 2725 3281 2906 2969 
L 2906 3500 
L 3481 3500 
L 3481 -1331 
L 2906 -1331 
L 2906 525 
z
" transform="scale(0.015625)"/>
       <path id="DejaVuSans-64" d="M 2906 2969 
L 2906 4863 
L 3481 4863 
L 3481 0 
L 2906 0 
L 2906 525 
Q 2725 213 2448 61 
Q 2172 -91 1784 -91 
Q 1150 -91 751 415 
Q 353 922 353 1747 
Q 353 2572 751 3078 
Q 1150 3584 1784 3584 
Q 2172 3584 2448 3432 
Q 2725 3281 2906 2969 
z
M 947 1747 
Q 947 1113 1208 752 
Q 1469 391 1925 391 
Q 2381 391 2643 752 
Q 2906 1113 2906 1747 
Q 2906 2381 2643 2742 
Q 2381 3103 1925 3103 
Q 1469 3103 1208 2742 
Q 947 2381 947 1747 
z
" transform="scale(0.015625)"/>
       <path id="DejaVuSans-70" d="M 1159 525 
L 1159 -1331 
L 581 -1331 
L 581 3500 
L 1159 3500 
L 1159 2969 
Q 1341 3281 1617 3432 
Q 1894 3584 2278 3584 
Q 2916 3584 3314 3078 
Q 3713 2572 3713 1747 
Q 3713 922 3314 415 
Q 2916 -91 2278 -91 
Q 1894 -91 1617 61 
Q 1341 213 1159 525 
z
M 3116 1747 
Q 3116 2381 2855 2742 
Q 2594 3103 2138 3103 
Q 1681 3103 1420 2742 
Q 1159 2381 1159 1747 
Q 1159 1113 1420 752 
Q 1681 391 2138 391 
Q 2594 391 2855 752 
Q 3116 1113 3116 1747 
z
" transform="scale(0.015625)"/>
       <path id="DejaVuSans-79" d="M 2059 -325 
Q 1816 -950 1584 -1140 
Q 1353 -1331 966 -1331 
L 506 -1331 
L 506 -850 
L 844 -850 
Q 1081 -850 1212 -737 
Q 1344 -625 1503 -206 
L 1606 56 
L 191 3500 
L 800 3500 
L 1894 763 
L 2988 3500 
L 3597 3500 
L 2059 -325 
z
" transform="scale(0.015625)"/>
      </defs>
      <use xlink:href="#DejaVuSans-73"/>
      <use xlink:href="#DejaVuSans-71" x="52.099609"/>
      <use xlink:href="#DejaVuSans-75" x="115.576172"/>
      <use xlink:href="#DejaVuSans-69" x="178.955078"/>
      <use xlink:href="#DejaVuSans-64" x="206.738281"/>
      <use xlink:href="#DejaVuSans-70" x="270.214844"/>
      <use xlink:href="#DejaVuSans-79" x="333.691406"/>
     </g>
    </g>
    <g id="patch_23">
     <path d="M 73.935 70.10625 
L 89.935 70.10625 
L 89.935 64.50625 
L 73.935 64.50625 
z
" style="fill: #7198b0; stroke: #333333; stroke-width: 0.75; stroke-linejoin: miter"/>
    </g>
    <g id="text_9">
     <!-- spatstat -->
     <g transform="translate(96.335 70.10625) scale(0.08 -0.08)">
      <defs>
       <path id="DejaVuSans-61" d="M 2194 1759 
Q 1497 1759 1228 1600 
Q 959 1441 959 1056 
Q 959 750 1161 570 
Q 1363 391 1709 391 
Q 2188 391 2477 730 
Q 2766 1069 2766 1631 
L 2766 1759 
L 2194 1759 
z
M 3341 1997 
L 3341 0 
L 2766 0 
L 2766 531 
Q 2569 213 2275 61 
Q 1981 -91 1556 -91 
Q 1019 -91 701 211 
Q 384 513 384 1019 
Q 384 1609 779 1909 
Q 1175 2209 1959 2209 
L 2766 2209 
L 2766 2266 
Q 2766 2663 2505 2880 
Q 2244 3097 1772 3097 
Q 1472 3097 1187 3025 
Q 903 2953 641 2809 
L 641 3341 
Q 956 3463 1253 3523 
Q 1550 3584 1831 3584 
Q 2591 3584 2966 3190 
Q 3341 2797 3341 1997 
z
" transform="scale(0.015625)"/>
      </defs>
      <use xlink:href="#DejaVuSans-73"/>
      <use xlink:href="#DejaVuSans-70" x="52.099609"/>
      <use xlink:href="#DejaVuSans-61" x="115.576172"/>
      <use xlink:href="#DejaVuSans-74" x="176.855469"/>
      <use xlink:href="#DejaVuSans-73" x="216.064453"/>
      <use xlink:href="#DejaVuSans-74" x="268.164062"/>
      <use xlink:href="#DejaVuSans-61" x="307.373047"/>
      <use xlink:href="#DejaVuSans-74" x="368.652344"/>
     </g>
    </g>
   </g>
  </g>
 </g>
 <defs>
  <clipPath id="pcf59b51f31">
   <rect x="27" y="21.6" width="167.4" height="138.6"/>
  </clipPath>
 </defs>
</svg>
