<?xml version="1.0" encoding="utf-8" standalone="no"?>
<!DOCTYPE svg PUBLIC "-//W3C//DTD SVG 1.1//EN"
  "http://www.w3.org/Graphics/SVG/1.1/DTD/svg11.dtd">
<svg xmlns:xlink="http://www.w3.org/1999/xlink" width="216pt" height="180pt" viewBox="0 0 216 180" xmlns="http://www.w3.org/2000/svg" version="1.1">
 <metadata>
  <rdf:RDF xmlns:dc="http://purl.org/dc/elements/1.1/" xmlns:cc="http://creativecommons.org/ns#" xmlns:rdf="http://www.w3.org/1999/02/22-rdf-syntax-ns#">
   <cc:Work>
    <dc:type rdf:resource="http://purl.org/dc/dcmitype/StillImage"/>
    <dc:date>2024-03-31T23:19:47.873617</dc:date>
    <dc:format>image/svg+xml</dc:format>
    <dc:creator>
     <cc:Agent>
      <dc:title>Matplotlib v3.7.1, https://matplotlib.org/</dc:title>
     </cc:Agent>
    </dc:creator>
   </cc:Work>
  </rdf:RDF>
 </metadata>
 <defs>
  <style type="text/css">*{stroke-linejoin: round; stroke-linecap: butt}</style>
 </defs>
 <g id="figure_1">
  <g id="patch_1">
   <path d="M 0 180 
L 216 180 
L 216 0 
L 0 0 
z
" style="fill: #ffffff"/>
  </g>
  <g id="axes_1">
   <g id="patch_2">
    <path d="M 27 160.2 
L 194.4 160.2 
L 194.4 21.6 
L 27 21.6 
z
" style="fill: #ffffff"/>
   </g>
   <g id="patch_3">
    <path d="M 35.5374 62.184911 
L 51.9426 62.184911 
L 51.9426 37.13104 
L 35.5374 37.13104 
L 35.5374 62.184911 
z
" clip-path="url(#p8150a24a08)" style="fill: #901919; stroke: #333333; stroke-width: 1.5; stroke-linejoin: miter"/>
   </g>
   <g id="patch_4">
    <path d="M 52.2774 68.856267 
L 68.6826 68.856267 
L 68.6826 39.428484 
L 52.2774 39.428484 
L 52.2774 68.856267 
z
" clip-path="url(#p8150a24a08)" style="fill: #de7a5a; stroke: #333333; stroke-width: 1.5; stroke-linejoin: miter"/>
   </g>
   <g id="patch_5">
    <path d="M 69.0174 143.239211 
L 85.4226 143.239211 
L 85.4226 103.754765 
L 69.0174 103.754765 
L 69.0174 143.239211 
z
" clip-path="url(#p8150a24a08)" style="fill: #808080; stroke: #333333; stroke-width: 1.5; stroke-linejoin: miter"/>
   </g>
   <g id="patch_6">
    <path d="M 85.7574 71.195682 
L 102.1626 71.195682 
L 102.1626 39.471966 
L 85.7574 39.471966 
L 85.7574 71.195682 
z
" clip-path="url(#p8150a24a08)" style="fill: #7198b0; stroke: #333333; stroke-width: 1.5; stroke-linejoin: miter"/>
   </g>
   <g id="patch_7">
    <path d="M 119.2374 63.975353 
L 135.6426 63.975353 
L 135.6426 35.826523 
L 119.2374 35.826523 
L 119.2374 63.975353 
z
" clip-path="url(#p8150a24a08)" style="fill: #901919; stroke: #333333; stroke-width: 1.5; stroke-linejoin: miter"/>
   </g>
   <g id="patch_8">
    <path d="M 135.9774 70.86863 
L 152.3826 70.86863 
L 152.3826 36.93463 
L 135.9774 36.93463 
L 135.9774 70.86863 
z
" clip-path="url(#p8150a24a08)" style="fill: #de7a5a; stroke: #333333; stroke-width: 1.5; stroke-linejoin: miter"/>
   </g>
   <g id="patch_9">
    <path d="M 152.7174 145.292538 
L 169.1226 145.292538 
L 169.1226 102.478756 
L 152.7174 102.478756 
L 152.7174 145.292538 
z
" clip-path="url(#p8150a24a08)" style="fill: #808080; stroke: #333333; stroke-width: 1.5; stroke-linejoin: miter"/>
   </g>
   <g id="patch_10">
    <path d="M 169.4574 73.93642 
L 185.8626 73.93642 
L 185.8626 37.881001 
L 169.4574 37.881001 
L 169.4574 73.93642 
z
" clip-path="url(#p8150a24a08)" style="fill: #7198b0; stroke: #333333; stroke-width: 1.5; stroke-linejoin: miter"/>
   </g>
   <g id="patch_11">
    <path d="M 68.85 154.136895 
L 68.85 154.136895 
L 68.85 154.136895 
L 68.85 154.136895 
z
" clip-path="url(#p8150a24a08)" style="fill: #901919; stroke: #333333; stroke-width: 0.75; stroke-linejoin: miter"/>
   </g>
   <g id="patch_12">
    <path d="M 68.85 154.136895 
L 68.85 154.136895 
L 68.85 154.136895 
L 68.85 154.136895 
z
" clip-path="url(#p8150a24a08)" style="fill: #de7a5a; stroke: #333333; stroke-width: 0.75; stroke-linejoin: miter"/>
   </g>
   <g id="patch_13">
    <path d="M 68.85 154.136895 
L 68.85 154.136895 
L 68.85 154.136895 
L 68.85 154.136895 
z
" clip-path="url(#p8150a24a08)" style="fill: #808080; stroke: #333333; stroke-width: 0.75; stroke-linejoin: miter"/>
   </g>
   <g id="patch_14">
    <path d="M 68.85 154.136895 
L 68.85 154.136895 
L 68.85 154.136895 
L 68.85 154.136895 
z
" clip-path="url(#p8150a24a08)" style="fill: #7198b0; stroke: #333333; stroke-width: 0.75; stroke-linejoin: miter"/>
   </g>
   <g id="matplotlib.axis_1">
    <g id="xtick_1"/>
    <g id="xtick_2"/>
   </g>
   <g id="matplotlib.axis_2">
    <g id="ytick_1">
     <g id="line2d_1">
      <defs>
       <path id="maef0871fff" d="M 0 0 
L -3.5 0 
" style="stroke: #000000; stroke-width: 0.8"/>
      </defs>
      <g>
       <use xlink:href="#maef0871fff" x="27" y="154.136895" style="stroke: #000000; stroke-width: 0.8"/>
      </g>
     </g>
     <g id="text_1">
      <!-- 0 -->
      <g transform="translate(14.91 157.17627) scale(0.08 -0.08)">
       <defs>
        <path id="DejaVuSans-30" d="M 2034 4250 
Q 1547 4250 1301 3770 
Q 1056 3291 1056 2328 
Q 1056 1369 1301 889 
Q 1547 409 2034 409 
Q 2525 409 2770 889 
Q 3016 1369 3016 2328 
Q 3016 3291 2770 3770 
Q 2525 4250 2034 4250 
z
M 2034 4750 
Q 2819 4750 3233 4129 
Q 3647 3509 3647 2328 
Q 3647 1150 3233 529 
Q 2819 -91 2034 -91 
Q 1250 -91 836 529 
Q 422 1150 422 2328 
Q 422 3509 836 4129 
Q 1250 4750 2034 4750 
z
" transform="scale(0.015625)"/>
       </defs>
       <use xlink:href="#DejaVuSans-30"/>
      </g>
     </g>
    </g>
    <g id="ytick_2">
     <g id="line2d_2">
      <g>
       <use xlink:href="#maef0871fff" x="27" y="128.200227" style="stroke: #000000; stroke-width: 0.8"/>
      </g>
     </g>
     <g id="text_2">
      <!-- 2 -->
      <g transform="translate(14.91 131.239602) scale(0.08 -0.08)">
       <defs>
        <path id="DejaVuSans-32" d="M 1228 531 
L 3431 531 
L 3431 0 
L 469 0 
L 469 531 
Q 828 903 1448 1529 
Q 2069 2156 2228 2338 
Q 2531 2678 2651 2914 
Q 2772 3150 2772 3378 
Q 2772 3750 2511 3984 
Q 2250 4219 1831 4219 
Q 1534 4219 1204 4116 
Q 875 4013 500 3803 
L 500 4441 
Q 881 4594 1212 4672 
Q 1544 4750 1819 4750 
Q 2544 4750 2975 4387 
Q 3406 4025 3406 3419 
Q 3406 3131 3298 2873 
Q 3191 2616 2906 2266 
Q 2828 2175 2409 1742 
Q 1991 1309 1228 531 
z
" transform="scale(0.015625)"/>
       </defs>
       <use xlink:href="#DejaVuSans-32"/>
      </g>
     </g>
    </g>
    <g id="ytick_3">
     <g id="line2d_3">
      <g>
       <use xlink:href="#maef0871fff" x="27" y="102.263559" style="stroke: #000000; stroke-width: 0.8"/>
      </g>
     </g>
     <g id="text_3">
      <!-- 4 -->
      <g transform="translate(14.91 105.302934) scale(0.08 -0.08)">
       <defs>
        <path id="DejaVuSans-34" d="M 2419 4116 
L 825 1625 
L 2419 1625 
L 2419 4116 
z
M 2253 4666 
L 3047 4666 
L 3047 1625 
L 3713 1625 
L 3713 1100 
L 3047 1100 
L 3047 0 
L 2419 0 
L 2419 1100 
L 313 1100 
L 313 1709 
L 2253 4666 
z
" transform="scale(0.015625)"/>
       </defs>
       <use xlink:href="#DejaVuSans-34"/>
      </g>
     </g>
    </g>
    <g id="ytick_4">
     <g id="line2d_4">
      <g>
       <use xlink:href="#maef0871fff" x="27" y="76.326892" style="stroke: #000000; stroke-width: 0.8"/>
      </g>
     </g>
     <g id="text_4">
      <!-- 6 -->
      <g transform="translate(14.91 79.366267) scale(0.08 -0.08)">
       <defs>
        <path id="DejaVuSans-36" d="M 2113 2584 
Q 1688 2584 1439 2293 
Q 1191 2003 1191 1497 
Q 1191 994 1439 701 
Q 1688 409 2113 409 
Q 2538 409 2786 701 
Q 3034 994 3034 1497 
Q 3034 2003 2786 2293 
Q 2538 2584 2113 2584 
z
M 3366 4563 
L 3366 3988 
Q 3128 4100 2886 4159 
Q 2644 4219 2406 4219 
Q 1781 4219 1451 3797 
Q 1122 3375 1075 2522 
Q 1259 2794 1537 2939 
Q 1816 3084 2150 3084 
Q 2853 3084 3261 2657 
Q 3669 2231 3669 1497 
Q 3669 778 3244 343 
Q 2819 -91 2113 -91 
Q 1303 -91 875 529 
Q 447 1150 447 2328 
Q 447 3434 972 4092 
Q 1497 4750 2381 4750 
Q 2619 4750 2861 4703 
Q 3103 4656 3366 4563 
z
" transform="scale(0.015625)"/>
       </defs>
       <use xlink:href="#DejaVuSans-36"/>
      </g>
     </g>
    </g>
    <g id="ytick_5">
     <g id="line2d_5">
      <g>
       <use xlink:href="#maef0871fff" x="27" y="50.390224" style="stroke: #000000; stroke-width: 0.8"/>
      </g>
     </g>
     <g id="text_5">
      <!-- 8 -->
      <g transform="translate(14.91 53.429599) scale(0.08 -0.08)">
       <defs>
        <path id="DejaVuSans-38" d="M 2034 2216 
Q 1584 2216 1326 1975 
Q 1069 1734 1069 1313 
Q 1069 891 1326 650 
Q 1584 409 2034 409 
Q 2484 409 2743 651 
Q 3003 894 3003 1313 
Q 3003 1734 2745 1975 
Q 2488 2216 2034 2216 
z
M 1403 2484 
Q 997 2584 770 2862 
Q 544 3141 544 3541 
Q 544 4100 942 4425 
Q 1341 4750 2034 4750 
Q 2731 4750 3128 4425 
Q 3525 4100 3525 3541 
Q 3525 3141 3298 2862 
Q 3072 2584 2669 2484 
Q 3125 2378 3379 2068 
Q 3634 1759 3634 1313 
Q 3634 634 3220 271 
Q 2806 -91 2034 -91 
Q 1263 -91 848 271 
Q 434 634 434 1313 
Q 434 1759 690 2068 
Q 947 2378 1403 2484 
z
M 1172 3481 
Q 1172 3119 1398 2916 
Q 1625 2713 2034 2713 
Q 2441 2713 2670 2916 
Q 2900 3119 2900 3481 
Q 2900 3844 2670 4047 
Q 2441 4250 2034 4250 
Q 1625 4250 1398 4047 
Q 1172 3844 1172 3481 
z
" transform="scale(0.015625)"/>
       </defs>
       <use xlink:href="#DejaVuSans-38"/>
      </g>
     </g>
    </g>
    <g id="ytick_6">
     <g id="line2d_6">
      <g>
       <use xlink:href="#maef0871fff" x="27" y="24.453556" style="stroke: #000000; stroke-width: 0.8"/>
      </g>
     </g>
     <g id="text_6">
      <!-- 10 -->
      <g transform="translate(9.82 27.492931) scale(0.08 -0.08)">
       <defs>
        <path id="DejaVuSans-31" d="M 794 531 
L 1825 531 
L 1825 4091 
L 703 3866 
L 703 4441 
L 1819 4666 
L 2450 4666 
L 2450 531 
L 3481 531 
L 3481 0 
L 794 0 
L 794 531 
z
" transform="scale(0.015625)"/>
       </defs>
       <use xlink:href="#DejaVuSans-31"/>
       <use xlink:href="#DejaVuSans-30" x="63.623047"/>
      </g>
     </g>
    </g>
   </g>
   <g id="line2d_7">
    <path d="M 43.74 62.184911 
L 43.74 98.283077 
" clip-path="url(#p8150a24a08)" style="fill: none; stroke: #333333; stroke-width: 1.5; stroke-linecap: square"/>
   </g>
   <g id="line2d_8">
    <path d="M 43.74 37.13104 
L 43.74 27.9 
" clip-path="url(#p8150a24a08)" style="fill: none; stroke: #333333; stroke-width: 1.5; stroke-linecap: square"/>
   </g>
   <g id="line2d_9">
    <path d="M 39.6387 98.283077 
L 47.8413 98.283077 
" clip-path="url(#p8150a24a08)" style="fill: none; stroke: #333333; stroke-width: 1.5; stroke-linecap: square"/>
   </g>
   <g id="line2d_10">
    <path d="M 39.6387 27.9 
L 47.8413 27.9 
" clip-path="url(#p8150a24a08)" style="fill: none; stroke: #333333; stroke-width: 1.5; stroke-linecap: square"/>
   </g>
   <g id="line2d_11">
    <defs>
     <path id="mf54cbe21c5" d="M -0 3.535534 
L 2.12132 0 
L -0 -3.535534 
L -2.12132 -0 
z
" style="stroke: #333333; stroke-linejoin: miter"/>
    </defs>
    <g clip-path="url(#p8150a24a08)">
     <use xlink:href="#mf54cbe21c5" x="43.74" y="102.827644" style="fill: #333333; stroke: #333333; stroke-linejoin: miter"/>
     <use xlink:href="#mf54cbe21c5" x="43.74" y="128.03838" style="fill: #333333; stroke: #333333; stroke-linejoin: miter"/>
     <use xlink:href="#mf54cbe21c5" x="43.74" y="148.227951" style="fill: #333333; stroke: #333333; stroke-linejoin: miter"/>
     <use xlink:href="#mf54cbe21c5" x="43.74" y="122.193406" style="fill: #333333; stroke: #333333; stroke-linejoin: miter"/>
     <use xlink:href="#mf54cbe21c5" x="43.74" y="103.94192" style="fill: #333333; stroke: #333333; stroke-linejoin: miter"/>
     <use xlink:href="#mf54cbe21c5" x="43.74" y="131.643246" style="fill: #333333; stroke: #333333; stroke-linejoin: miter"/>
     <use xlink:href="#mf54cbe21c5" x="43.74" y="100.980858" style="fill: #333333; stroke: #333333; stroke-linejoin: miter"/>
    </g>
   </g>
   <g id="line2d_12">
    <path d="M 60.48 68.856267 
L 60.48 112.339986 
" clip-path="url(#p8150a24a08)" style="fill: none; stroke: #333333; stroke-width: 1.5; stroke-linecap: square"/>
   </g>
   <g id="line2d_13">
    <path d="M 60.48 39.428484 
L 60.48 29.667226 
" clip-path="url(#p8150a24a08)" style="fill: none; stroke: #333333; stroke-width: 1.5; stroke-linecap: square"/>
   </g>
   <g id="line2d_14">
    <path d="M 56.3787 112.339986 
L 64.5813 112.339986 
" clip-path="url(#p8150a24a08)" style="fill: none; stroke: #333333; stroke-width: 1.5; stroke-linecap: square"/>
   </g>
   <g id="line2d_15">
    <path d="M 56.3787 29.667226 
L 64.5813 29.667226 
" clip-path="url(#p8150a24a08)" style="fill: none; stroke: #333333; stroke-width: 1.5; stroke-linecap: square"/>
   </g>
   <g id="line2d_16">
    <g clip-path="url(#p8150a24a08)">
     <use xlink:href="#mf54cbe21c5" x="60.48" y="124.078923" style="fill: #333333; stroke: #333333; stroke-linejoin: miter"/>
     <use xlink:href="#mf54cbe21c5" x="60.48" y="138.787976" style="fill: #333333; stroke: #333333; stroke-linejoin: miter"/>
     <use xlink:href="#mf54cbe21c5" x="60.48" y="114.753737" style="fill: #333333; stroke: #333333; stroke-linejoin: miter"/>
     <use xlink:href="#mf54cbe21c5" x="60.48" y="148.77141" style="fill: #333333; stroke: #333333; stroke-linejoin: miter"/>
    </g>
   </g>
   <g id="line2d_17">
    <path d="M 77.22 143.239211 
L 77.22 153.185291 
" clip-path="url(#p8150a24a08)" style="fill: none; stroke: #333333; stroke-width: 1.5; stroke-linecap: square"/>
   </g>
   <g id="line2d_18">
    <path d="M 77.22 103.754765 
L 77.22 72.513686 
" clip-path="url(#p8150a24a08)" style="fill: none; stroke: #333333; stroke-width: 1.5; stroke-linecap: square"/>
   </g>
   <g id="line2d_19">
    <path d="M 73.1187 153.185291 
L 81.3213 153.185291 
" clip-path="url(#p8150a24a08)" style="fill: none; stroke: #333333; stroke-width: 1.5; stroke-linecap: square"/>
   </g>
   <g id="line2d_20">
    <path d="M 73.1187 72.513686 
L 81.3213 72.513686 
" clip-path="url(#p8150a24a08)" style="fill: none; stroke: #333333; stroke-width: 1.5; stroke-linecap: square"/>
   </g>
   <g id="line2d_21"/>
   <g id="line2d_22">
    <path d="M 93.96 71.195682 
L 93.96 115.868036 
" clip-path="url(#p8150a24a08)" style="fill: none; stroke: #333333; stroke-width: 1.5; stroke-linecap: square"/>
   </g>
   <g id="line2d_23">
    <path d="M 93.96 39.471966 
L 93.96 29.641491 
" clip-path="url(#p8150a24a08)" style="fill: none; stroke: #333333; stroke-width: 1.5; stroke-linecap: square"/>
   </g>
   <g id="line2d_24">
    <path d="M 89.8587 115.868036 
L 98.0613 115.868036 
" clip-path="url(#p8150a24a08)" style="fill: none; stroke: #333333; stroke-width: 1.5; stroke-linecap: square"/>
   </g>
   <g id="line2d_25">
    <path d="M 89.8587 29.641491 
L 98.0613 29.641491 
" clip-path="url(#p8150a24a08)" style="fill: none; stroke: #333333; stroke-width: 1.5; stroke-linecap: square"/>
   </g>
   <g id="line2d_26">
    <g clip-path="url(#p8150a24a08)">
     <use xlink:href="#mf54cbe21c5" x="93.96" y="123.303922" style="fill: #333333; stroke: #333333; stroke-linejoin: miter"/>
     <use xlink:href="#mf54cbe21c5" x="93.96" y="138.889881" style="fill: #333333; stroke: #333333; stroke-linejoin: miter"/>
     <use xlink:href="#mf54cbe21c5" x="93.96" y="149.001295" style="fill: #333333; stroke: #333333; stroke-linejoin: miter"/>
    </g>
   </g>
   <g id="line2d_27">
    <path d="M 127.44 63.975353 
L 127.44 103.39542 
" clip-path="url(#p8150a24a08)" style="fill: none; stroke: #333333; stroke-width: 1.5; stroke-linecap: square"/>
   </g>
   <g id="line2d_28">
    <path d="M 127.44 35.826523 
L 127.44 30.090078 
" clip-path="url(#p8150a24a08)" style="fill: none; stroke: #333333; stroke-width: 1.5; stroke-linecap: square"/>
   </g>
   <g id="line2d_29">
    <path d="M 123.3387 103.39542 
L 131.5413 103.39542 
" clip-path="url(#p8150a24a08)" style="fill: none; stroke: #333333; stroke-width: 1.5; stroke-linecap: square"/>
   </g>
   <g id="line2d_30">
    <path d="M 123.3387 30.090078 
L 131.5413 30.090078 
" clip-path="url(#p8150a24a08)" style="fill: none; stroke: #333333; stroke-width: 1.5; stroke-linecap: square"/>
   </g>
   <g id="line2d_31">
    <g clip-path="url(#p8150a24a08)">
     <use xlink:href="#mf54cbe21c5" x="127.44" y="142.082707" style="fill: #333333; stroke: #333333; stroke-linejoin: miter"/>
     <use xlink:href="#mf54cbe21c5" x="127.44" y="108.594532" style="fill: #333333; stroke: #333333; stroke-linejoin: miter"/>
     <use xlink:href="#mf54cbe21c5" x="127.44" y="113.660704" style="fill: #333333; stroke: #333333; stroke-linejoin: miter"/>
     <use xlink:href="#mf54cbe21c5" x="127.44" y="135.786206" style="fill: #333333; stroke: #333333; stroke-linejoin: miter"/>
     <use xlink:href="#mf54cbe21c5" x="127.44" y="125.835914" style="fill: #333333; stroke: #333333; stroke-linejoin: miter"/>
     <use xlink:href="#mf54cbe21c5" x="127.44" y="143.693539" style="fill: #333333; stroke: #333333; stroke-linejoin: miter"/>
     <use xlink:href="#mf54cbe21c5" x="127.44" y="150.102212" style="fill: #333333; stroke: #333333; stroke-linejoin: miter"/>
     <use xlink:href="#mf54cbe21c5" x="127.44" y="116.96727" style="fill: #333333; stroke: #333333; stroke-linejoin: miter"/>
    </g>
   </g>
   <g id="line2d_32">
    <path d="M 144.18 70.86863 
L 144.18 113.34343 
" clip-path="url(#p8150a24a08)" style="fill: none; stroke: #333333; stroke-width: 1.5; stroke-linecap: square"/>
   </g>
   <g id="line2d_33">
    <path d="M 144.18 36.93463 
L 144.18 29.442256 
" clip-path="url(#p8150a24a08)" style="fill: none; stroke: #333333; stroke-width: 1.5; stroke-linecap: square"/>
   </g>
   <g id="line2d_34">
    <path d="M 140.0787 113.34343 
L 148.2813 113.34343 
" clip-path="url(#p8150a24a08)" style="fill: none; stroke: #333333; stroke-width: 1.5; stroke-linecap: square"/>
   </g>
   <g id="line2d_35">
    <path d="M 140.0787 29.442256 
L 148.2813 29.442256 
" clip-path="url(#p8150a24a08)" style="fill: none; stroke: #333333; stroke-width: 1.5; stroke-linecap: square"/>
   </g>
   <g id="line2d_36">
    <g clip-path="url(#p8150a24a08)">
     <use xlink:href="#mf54cbe21c5" x="144.18" y="129.99156" style="fill: #333333; stroke: #333333; stroke-linejoin: miter"/>
     <use xlink:href="#mf54cbe21c5" x="144.18" y="139.253371" style="fill: #333333; stroke: #333333; stroke-linejoin: miter"/>
     <use xlink:href="#mf54cbe21c5" x="144.18" y="145.735872" style="fill: #333333; stroke: #333333; stroke-linejoin: miter"/>
     <use xlink:href="#mf54cbe21c5" x="144.18" y="132.2267" style="fill: #333333; stroke: #333333; stroke-linejoin: miter"/>
     <use xlink:href="#mf54cbe21c5" x="144.18" y="132.808482" style="fill: #333333; stroke: #333333; stroke-linejoin: miter"/>
     <use xlink:href="#mf54cbe21c5" x="144.18" y="133.228178" style="fill: #333333; stroke: #333333; stroke-linejoin: miter"/>
     <use xlink:href="#mf54cbe21c5" x="144.18" y="139.554725" style="fill: #333333; stroke: #333333; stroke-linejoin: miter"/>
    </g>
   </g>
   <g id="line2d_37">
    <path d="M 160.92 145.292538 
L 160.92 153.9 
" clip-path="url(#p8150a24a08)" style="fill: none; stroke: #333333; stroke-width: 1.5; stroke-linecap: square"/>
   </g>
   <g id="line2d_38">
    <path d="M 160.92 102.478756 
L 160.92 69.697233 
" clip-path="url(#p8150a24a08)" style="fill: none; stroke: #333333; stroke-width: 1.5; stroke-linecap: square"/>
   </g>
   <g id="line2d_39">
    <path d="M 156.8187 153.9 
L 165.0213 153.9 
" clip-path="url(#p8150a24a08)" style="fill: none; stroke: #333333; stroke-width: 1.5; stroke-linecap: square"/>
   </g>
   <g id="line2d_40">
    <path d="M 156.8187 69.697233 
L 165.0213 69.697233 
" clip-path="url(#p8150a24a08)" style="fill: none; stroke: #333333; stroke-width: 1.5; stroke-linecap: square"/>
   </g>
   <g id="line2d_41"/>
   <g id="line2d_42">
    <path d="M 177.66 73.93642 
L 177.66 113.377986 
" clip-path="url(#p8150a24a08)" style="fill: none; stroke: #333333; stroke-width: 1.5; stroke-linecap: square"/>
   </g>
   <g id="line2d_43">
    <path d="M 177.66 37.881001 
L 177.66 29.476241 
" clip-path="url(#p8150a24a08)" style="fill: none; stroke: #333333; stroke-width: 1.5; stroke-linecap: square"/>
   </g>
   <g id="line2d_44">
    <path d="M 173.5587 113.377986 
L 181.7613 113.377986 
" clip-path="url(#p8150a24a08)" style="fill: none; stroke: #333333; stroke-width: 1.5; stroke-linecap: square"/>
   </g>
   <g id="line2d_45">
    <path d="M 173.5587 29.476241 
L 181.7613 29.476241 
" clip-path="url(#p8150a24a08)" style="fill: none; stroke: #333333; stroke-width: 1.5; stroke-linecap: square"/>
   </g>
   <g id="line2d_46">
    <g clip-path="url(#p8150a24a08)">
     <use xlink:href="#mf54cbe21c5" x="177.66" y="129.996427" style="fill: #333333; stroke: #333333; stroke-linejoin: miter"/>
     <use xlink:href="#mf54cbe21c5" x="177.66" y="138.960309" style="fill: #333333; stroke: #333333; stroke-linejoin: miter"/>
     <use xlink:href="#mf54cbe21c5" x="177.66" y="146.07876" style="fill: #333333; stroke: #333333; stroke-linejoin: miter"/>
     <use xlink:href="#mf54cbe21c5" x="177.66" y="134.451057" style="fill: #333333; stroke: #333333; stroke-linejoin: miter"/>
     <use xlink:href="#mf54cbe21c5" x="177.66" y="134.545297" style="fill: #333333; stroke: #333333; stroke-linejoin: miter"/>
     <use xlink:href="#mf54cbe21c5" x="177.66" y="133.878898" style="fill: #333333; stroke: #333333; stroke-linejoin: miter"/>
     <use xlink:href="#mf54cbe21c5" x="177.66" y="141.103025" style="fill: #333333; stroke: #333333; stroke-linejoin: miter"/>
    </g>
   </g>
   <g id="line2d_47">
    <path d="M 35.5374 43.234028 
L 51.9426 43.234028 
" clip-path="url(#p8150a24a08)" style="fill: none; stroke: #333333; stroke-width: 1.5; stroke-linecap: square"/>
   </g>
   <g id="line2d_48">
    <path d="M 52.2774 44.440814 
L 68.6826 44.440814 
" clip-path="url(#p8150a24a08)" style="fill: none; stroke: #333333; stroke-width: 1.5; stroke-linecap: square"/>
   </g>
   <g id="line2d_49">
    <path d="M 69.0174 128.224245 
L 85.4226 128.224245 
" clip-path="url(#p8150a24a08)" style="fill: none; stroke: #333333; stroke-width: 1.5; stroke-linecap: square"/>
   </g>
   <g id="line2d_50">
    <path d="M 85.7574 44.943447 
L 102.1626 44.943447 
" clip-path="url(#p8150a24a08)" style="fill: none; stroke: #333333; stroke-width: 1.5; stroke-linecap: square"/>
   </g>
   <g id="line2d_51">
    <path d="M 119.2374 41.447901 
L 135.6426 41.447901 
" clip-path="url(#p8150a24a08)" style="fill: none; stroke: #333333; stroke-width: 1.5; stroke-linecap: square"/>
   </g>
   <g id="line2d_52">
    <path d="M 135.9774 44.696483 
L 152.3826 44.696483 
" clip-path="url(#p8150a24a08)" style="fill: none; stroke: #333333; stroke-width: 1.5; stroke-linecap: square"/>
   </g>
   <g id="line2d_53">
    <path d="M 152.7174 128.640834 
L 169.1226 128.640834 
" clip-path="url(#p8150a24a08)" style="fill: none; stroke: #333333; stroke-width: 1.5; stroke-linecap: square"/>
   </g>
   <g id="line2d_54">
    <path d="M 169.4574 46.208086 
L 185.8626 46.208086 
" clip-path="url(#p8150a24a08)" style="fill: none; stroke: #333333; stroke-width: 1.5; stroke-linecap: square"/>
   </g>
   <g id="patch_15">
    <path d="M 27 160.2 
L 27 21.6 
" style="fill: none; stroke: #000000; stroke-width: 0.8; stroke-linejoin: miter; stroke-linecap: square"/>
   </g>
   <g id="patch_16">
    <path d="M 194.4 160.2 
L 194.4 21.6 
" style="fill: none; stroke: #000000; stroke-width: 0.8; stroke-linejoin: miter; stroke-linecap: square"/>
   </g>
   <g id="patch_17">
    <path d="M 27 160.2 
L 194.4 160.2 
" style="fill: none; stroke: #000000; stroke-width: 0.8; stroke-linejoin: miter; stroke-linecap: square"/>
   </g>
   <g id="patch_18">
    <path d="M 27 21.6 
L 194.4 21.6 
" style="fill: none; stroke: #000000; stroke-width: 0.8; stroke-linejoin: miter; stroke-linecap: square"/>
   </g>
  </g>
 </g>
 <defs>
  <clipPath id="p8150a24a08">
   <rect x="27" y="21.6" width="167.4" height="138.6"/>
  </clipPath>
 </defs>
</svg>
